<svg width="150" height="250" viewBox="0 0 150 250" fill="none" xmlns="http://www.w3.org/2000/svg">
<rect width="150" height="250" rx="4" fill="#242424"/>
<rect width="150" height="250" rx="4" fill="white" fill-opacity="0.1"/>
<g clip-path="url(#clip0_205_69)">
<rect x="10" y="10" width="130" height="230" rx="2" fill="#141414"/>
<rect x="10" y="10" width="130" height="230" rx="2" fill="white" fill-opacity="0.2"/>
<path opacity="0.02" d="M63.4574 86.664C62.8198 87.0182 61.8278 87.4906 61.1902 87.7031C59.8204 88.1282 38.6356 88.2936 35.2583 87.8921C29.4248 87.1599 25.339 85.0108 19.2221 79.5079L15.2072 75.8708L8.16919 75.8236L1.13121 75.8236L0.257368 74.6663C-0.899883 73.1312 -0.805414 71.5725 0.540776 70.2263C1.48547 69.2816 1.72164 69.2343 9.65708 69.2816L17.7815 69.2816L20.5211 71.7378C28.2676 78.6813 30.3459 80.0511 34.3608 80.9486C37.2185 81.6335 58.3797 81.6807 59.6314 81.043C62.4183 79.626 61.4972 75.8708 58.2144 75.3749C55.8763 75.0206 54.5537 73.0367 55.2858 70.982C55.9235 69.2107 56.939 68.8565 61.3791 68.762C65.0398 68.6912 65.4649 68.5967 66.3151 67.7465C67.0945 66.9671 67.2362 66.542 67.1417 65.4083C67 63.8024 66.1734 63.0702 64.1187 62.716C61.4972 62.2672 60.1982 59.5985 61.6389 57.4965C62.4183 56.3393 63.2921 56.0795 66.7875 55.985C69.1965 55.9378 69.7633 55.7961 70.4954 55.0639C71.6527 53.9067 71.6527 52.2062 70.4954 51.049C69.8105 50.3641 69.1728 50.1988 66.9528 50.1043C64.5911 50.0098 64.1187 49.8681 63.2685 49.0179C62.5127 48.2621 62.3002 47.7662 62.3002 46.6798C62.3002 44.9321 63.3157 43.8693 65.4177 43.3733C67.4724 42.8774 68.2754 42.0271 68.299 40.3031C68.299 38.8388 67.7558 38.0594 66.5041 37.6579C66.079 37.5162 61.3791 37.3981 56.0416 37.3509C46.6183 37.3273 46.3585 37.3037 45.4138 36.359C43.9495 34.8947 43.9023 33.2415 45.3193 31.8244C46.3821 30.7617 46.4766 30.7617 52.0266 30.738L57.6003 30.738L57.4586 29.7933C57.1516 28.1638 56.1361 26.6759 54.719 25.8256C53.6326 25.2116 52.1211 25.1171 44.4218 25.1171C32.0463 25.1643 30.9127 25.5422 23.4969 32.1551C21.1587 34.2098 18.8442 36.1937 18.4191 36.5243C17.8051 36.9494 16.1519 37.1383 12.3967 37.1147C7.48428 37.1147 7.15364 37.0675 6.23256 36.1464C5.42957 35.3434 5.28786 34.9183 5.35872 33.7138C5.50042 31.1159 6.58682 30.5491 11.7118 30.5255L15.2308 30.5019L19.3638 26.8412C24.2762 22.4956 26.9922 20.7715 31.078 19.4726C33.6759 18.6696 35.1166 18.5515 44.4218 18.5515C53.9633 18.5042 55.026 18.5751 56.7973 19.4017C60.6234 21.1494 63.4811 24.8573 64.0006 28.7778L64.2368 30.6672L65.8664 30.7853C72.2195 31.1868 76.4706 37.0911 74.6757 43.0427L74.038 45.1446L75.2425 46.3491C77.6987 48.8053 78.5962 52.3007 77.6987 55.7961C77.2972 57.3312 76.9902 57.7799 75.1953 59.5748L73.1406 61.6296L73.6129 63.1883C74.2033 65.1013 73.9672 67.8409 73.0697 69.7303C72.2667 71.4308 70.1412 73.6508 68.5352 74.4538C67.5905 74.9261 67.4252 75.1387 67.5905 75.493C68.0392 76.3668 67.9211 80.2637 67.4015 81.7279C66.7403 83.5701 65.0162 85.7193 63.4574 86.664Z" fill="white"/>
<g opacity="0.02">
<path d="M-4.40618 176.802C-3.94131 176.265 -1.84735 174.25 0.280526 172.335C9.12414 164.308 12.3247 163.156 25.1512 163.291C32.533 163.353 32.6332 163.353 34.5083 164.279C38.2584 166.097 41.0498 169.857 41.4361 173.562C41.5418 174.63 41.7449 175.164 42.0455 175.162C42.3127 175.161 49.1519 173.623 57.2919 171.711C69.7021 168.809 72.3715 168.294 74.0421 168.419C82.3619 169.011 86.0528 178.879 80.2383 184.888C79.474 185.66 78.1762 186.601 77.3429 186.94C76.5098 187.311 72.2737 188.435 67.9701 189.426C63.6665 190.416 60.0303 191.303 59.864 191.438C59.7309 191.538 63.5438 192.554 68.2924 193.699C77.6223 195.89 78.9612 196.451 80.9776 198.879C83.33 201.706 83.7855 205.878 82.0661 209.294C80.9422 211.604 79.7124 212.78 77.28 213.928C74.5811 215.211 72.8101 215.053 62.4428 212.467C57.4262 211.19 53.1124 210.176 52.8452 210.178C52.578 210.179 52.3793 210.514 52.3815 210.948C52.3963 213.854 49.8112 217.808 47.1122 219.058L45.7458 219.666L45.9919 222.07C46.1347 223.873 46.0397 224.908 45.6454 226.18C44.8888 228.455 42.6304 230.971 40.3977 231.985C38.6316 232.795 38.5314 232.796 27.6096 232.818C17.3893 232.87 16.387 232.808 14.0122 232.153C10.8014 231.3 7.85497 229.879 7.0147 228.848C6.03965 227.584 6.16474 225.913 7.361 224.705C8.25837 223.832 8.55845 223.73 9.79492 223.857C10.5634 223.92 12.1356 224.38 13.2403 224.875C16.1858 226.096 18.8593 226.383 28.1778 226.335C36.9619 226.291 38.2968 226.084 39.0579 224.677C40.1164 222.667 38.9032 220.536 36.5299 220.181C34.7248 219.889 33.4504 218.86 33.1762 217.492C32.9359 216.224 33.662 214.517 34.6611 213.944C35.0277 213.775 37.0642 213.598 39.2018 213.587C42.0073 213.573 43.3426 213.432 44.0422 213.061C46.0409 212.016 46.2646 210.044 44.5526 208.349C43.5119 207.319 43.2108 207.221 41.5408 207.229C39.1361 207.241 37.6271 206.08 37.5506 204.177C37.5101 202.774 38.3377 201.334 39.5045 200.893C40.8712 200.352 43.544 200.505 45.5849 201.196C48.3622 202.184 72.4739 208.074 73.6429 208.068C75.1459 208.06 76.4079 206.651 76.3994 204.981C76.3868 202.509 76.4536 202.509 59.4656 198.454C51.0383 196.426 43.7141 194.559 43.2119 194.328C41.4036 193.402 40.9227 190.799 42.2846 189.323C43.2149 188.349 42.1808 188.622 60.0621 184.422C68.1354 182.544 74.9402 180.806 75.2063 180.571C76.1709 179.798 76.6302 178.159 76.2236 177.025C75.8508 175.959 74.443 174.997 73.3075 175.003C72.9401 175.005 66.0008 176.577 57.8608 178.488L43.0488 181.971L35.4337 182.01L27.7853 182.082L26.8111 180.985C25.7362 179.788 25.597 178.686 26.2913 177.28C26.9858 175.94 28.1529 175.567 31.6599 175.549L34.8329 175.533L34.8279 174.564C34.8223 173.462 33.7113 171.731 32.3702 170.736C31.4986 170.106 30.897 170.042 24.584 169.974C14.0289 169.861 12.3288 170.504 4.51524 177.491C0.0267207 181.522 -0.705347 182.06 -1.74073 182.065C-3.27711 182.073 -4.08109 181.61 -4.7218 180.41C-5.46374 179.011 -5.36899 177.942 -4.40618 176.802Z" fill="white"/>
</g>
<g opacity="0.02">
<path d="M77.8989 145.26C76.3638 142.733 75.9623 139.072 76.9778 136.593C77.4265 135.53 77.3793 135.483 75.7733 133.64C73.8603 131.444 73.1754 129.437 73.388 126.579C73.5769 124.123 74.6869 122.021 76.6944 120.249L78.3004 118.832L77.8044 117.581C77.1431 115.833 77.2376 113.235 78.0406 111.204C79.2215 108.086 82.9294 105.229 85.9996 105.087C86.8026 105.04 86.8026 104.993 86.6137 104.331C86.165 102.843 86.472 99.6078 87.2041 98.1199C88.3378 95.8054 90.7231 93.609 92.8487 92.9005C95.2813 92.0739 134.864 91.7905 138.666 92.5699C142.091 93.2548 144.831 94.3884 147.617 96.2778C150.428 98.1908 160.631 106.976 161.245 108.016C162.803 110.614 159.284 114.085 156.781 112.432C156.356 112.149 153.758 110.023 151.042 107.685C148.326 105.347 145.563 103.009 144.901 102.489C142.917 100.978 139.918 99.5842 137.462 99.1119C136.092 98.8285 127.165 98.734 115.073 98.8285C96.3204 99.0174 94.927 99.0882 94.1713 99.844C93.014 101.001 92.8014 101.592 93.2029 102.749C93.817 104.78 94.0768 104.804 104.988 104.851C114.27 104.875 115.498 104.969 116.183 105.654C117.836 107.307 117.718 109.787 115.899 110.944C115.309 111.346 110.821 111.535 100.548 111.653C92.2582 111.724 85.7162 111.983 85.3147 112.243C84.4409 112.739 83.756 114.558 84.063 115.573C84.6771 117.557 84.8896 117.581 100.265 117.604C108.294 117.604 115.238 117.793 115.687 118.006C117.364 118.785 117.978 121.147 116.938 122.706C116.135 123.839 114.86 124.264 112.309 124.217C111.247 124.194 103.949 124.264 96.0606 124.359C82.6224 124.524 81.7249 124.571 80.8983 125.398C79.7174 126.579 79.741 128.256 80.9455 129.46C81.7957 130.358 82.3626 130.358 98.2571 130.287C107.279 130.24 115.025 130.334 115.427 130.452C116.797 130.877 117.434 131.846 117.434 133.546C117.434 135.294 116.797 136.215 115.214 136.711C114.671 136.876 108.271 136.994 100.973 136.971C86.7554 136.923 84.8424 137.041 83.8505 138.033C82.457 139.427 82.9294 141.836 84.7479 142.662C85.2439 142.875 94.7381 143.017 105.838 142.969C125.252 142.875 126.055 142.875 126.881 143.749C127.448 144.316 127.779 145.071 127.85 145.945C127.944 147.079 127.802 147.457 126.881 148.378L125.795 149.464L117.34 149.511C106.004 149.606 106.901 149.464 107.279 151.023C107.633 152.558 109.381 154.447 110.821 154.896C112.144 155.321 135.171 155.156 137.438 154.731C139.469 154.353 139.942 154.447 141.146 155.652C142.516 157.022 142.114 159.643 140.367 160.682C139.068 161.462 135.124 161.722 122.961 161.792C108.696 161.887 107.917 161.769 104.492 158.628C102.083 156.408 100.997 154.424 100.619 151.637L100.383 149.748L92.2819 149.724C83.7088 149.7 82.3626 149.44 79.8827 147.433C79.1742 146.866 78.2768 145.874 77.8989 145.26Z" fill="white"/>
</g>
</g>
<defs>
<clipPath id="clip0_205_69">
<rect x="10" y="10" width="130" height="230" rx="2" fill="white"/>
</clipPath>
</defs>
</svg>
