<svg width="700" height="1200" viewBox="0 0 700 1200" fill="none" xmlns="http://www.w3.org/2000/svg">
<rect width="700" height="1200" rx="20" fill="#242424"/>
<rect width="700" height="1200" rx="20" fill="white" fill-opacity="0.1"/>
<g clip-path="url(#clip0_191_89)">
<rect x="60" y="60" width="580" height="1080" rx="20" fill="#141414"/>
<rect x="60" y="60" width="580" height="1080" rx="20" fill="white" fill-opacity="0.2"/>
<g opacity="0.02">
<path d="M-5.31665 830.501C-3.46087 828.359 4.89826 820.316 13.3928 812.672C48.6966 780.626 61.4734 776.027 112.677 776.566C142.145 776.816 142.545 776.814 150.031 780.509C165.001 787.766 176.144 802.777 177.687 817.569C178.108 821.833 178.919 823.963 180.119 823.957C181.186 823.951 208.488 817.812 240.983 810.18C290.525 798.594 301.181 796.54 307.85 797.039C341.063 799.403 355.797 838.795 332.586 862.78C329.535 865.863 324.354 869.622 321.027 870.973C317.701 872.456 300.791 876.943 283.611 880.897C266.43 884.851 251.915 888.392 251.251 888.928C250.72 889.331 265.941 893.387 284.897 897.957C322.142 906.701 327.487 908.94 335.537 918.633C344.928 929.918 346.746 946.576 339.882 960.211C335.396 969.434 330.486 974.126 320.776 978.709C310.002 983.83 302.932 983.2 261.545 972.877C241.519 967.779 224.298 963.733 223.232 963.739C222.165 963.744 221.372 965.082 221.381 966.815C221.44 978.415 211.12 994.201 200.345 999.189L194.891 1001.62L195.873 1011.21C196.443 1018.41 196.064 1022.54 194.49 1027.62C191.47 1036.7 182.454 1046.75 173.541 1050.79C166.491 1054.03 166.091 1054.03 122.491 1054.12C81.6914 1054.33 77.6901 1054.08 68.21 1051.46C55.3925 1048.06 43.6301 1042.39 40.2757 1038.27C36.3833 1033.22 36.8827 1026.56 41.6581 1021.73C45.2404 1018.25 46.4384 1017.84 51.3744 1018.35C54.4424 1018.6 60.7185 1020.43 65.1286 1022.41C76.8869 1027.29 87.5595 1028.43 124.759 1028.24C159.825 1028.06 165.154 1027.24 168.193 1021.62C172.418 1013.6 167.575 1005.09 158.101 1003.67C150.895 1002.51 145.807 998.4 144.713 992.939C143.754 987.877 146.652 981.062 150.641 978.775C152.104 978.101 160.234 977.393 168.767 977.35C179.967 977.293 185.297 976.732 188.09 975.251C196.069 971.077 196.962 963.206 190.127 956.441C185.973 952.328 184.771 951.935 178.105 951.969C168.505 952.017 162.481 947.381 162.176 939.783C162.014 934.184 165.318 928.433 169.976 926.676C175.431 924.515 186.101 925.127 194.249 927.886C205.336 931.83 301.59 955.339 306.257 955.316C312.257 955.285 317.295 949.659 317.261 942.993C317.21 933.126 317.477 933.125 249.66 916.937C216.019 908.841 186.78 901.39 184.776 900.467C177.557 896.771 175.637 886.38 181.074 880.486C184.787 876.6 180.66 877.688 252.042 860.924C284.271 853.426 311.436 846.488 312.498 845.549C316.348 842.463 318.182 835.92 316.559 831.395C315.07 827.136 309.451 823.298 304.917 823.321C303.451 823.328 275.749 829.603 243.254 837.235L184.124 851.137L153.725 851.291L123.192 851.58L119.303 847.2C115.012 842.422 114.457 838.025 117.228 832.41C120.001 827.063 124.66 825.572 138.66 825.501L151.326 825.437L151.307 821.57C151.284 817.17 146.849 810.259 141.495 806.286C138.016 803.771 135.614 803.516 110.413 803.245C68.2765 802.793 61.4895 805.361 30.2978 833.253C12.3796 849.345 9.45715 851.493 5.32387 851.514C-0.809386 851.545 -4.01885 849.695 -6.57661 844.908C-9.53843 839.323 -9.16017 835.054 -5.31665 830.501Z" fill="white"/>
</g>
<path opacity="0.02" d="M229.066 408.002C226.52 409.416 222.56 411.302 220.015 412.151C214.547 413.848 129.977 414.508 116.494 412.905C93.2071 409.982 76.8965 401.403 52.4777 379.435L36.45 364.916L8.35427 364.727H-19.7414L-23.2298 360.108C-27.8496 353.979 -27.4725 347.757 -22.0985 342.383C-18.3272 338.611 -17.3844 338.423 14.294 338.611L46.7266 338.611L57.6632 348.417C88.5873 376.135 96.884 381.604 112.912 385.186C124.32 387.92 208.795 388.109 213.792 385.563C224.918 379.907 221.241 364.916 208.136 362.936C198.802 361.522 193.522 353.602 196.445 345.4C198.99 338.329 203.044 336.914 220.769 336.537C235.383 336.254 237.08 335.877 240.474 332.483C243.585 329.372 244.151 327.675 243.774 323.149C243.208 316.738 239.908 313.816 231.706 312.401C221.241 310.61 216.055 299.956 221.806 291.565C224.918 286.946 228.406 285.908 242.359 285.531C251.976 285.343 254.239 284.777 257.162 281.854C261.781 277.235 261.781 270.446 257.162 265.827C254.427 263.092 251.882 262.433 243.019 262.055C233.591 261.678 231.706 261.113 228.312 257.718C225.295 254.701 224.446 252.722 224.446 248.385C224.446 241.408 228.5 237.165 236.891 235.185C245.094 233.205 248.299 229.811 248.393 222.929C248.393 217.083 246.225 213.972 241.228 212.369C239.531 211.804 220.769 211.332 199.462 211.144C161.844 211.049 160.806 210.955 157.035 207.184C151.19 201.338 151.001 194.739 156.658 189.082C160.901 184.839 161.278 184.839 183.434 184.745H205.684L205.119 180.974C203.893 174.468 199.839 168.529 194.182 165.135C189.845 162.683 183.811 162.306 153.075 162.306C103.672 162.495 99.1468 164.003 69.5426 190.402C60.2088 198.604 50.9692 206.524 49.2722 207.844C46.8209 209.541 40.2212 210.295 25.2306 210.201C5.62012 210.201 4.30019 210.012 0.623233 206.335C-2.58232 203.13 -3.148 201.433 -2.86516 196.624C-2.29948 186.254 2.03745 183.991 22.4964 183.897L36.5443 183.802L53.0434 169.189C72.6538 151.841 83.4961 144.959 99.8067 139.773C110.178 136.568 115.929 136.096 153.075 136.096C191.165 135.908 195.408 136.19 202.479 139.49C217.752 146.467 229.16 161.269 231.234 176.92L232.177 184.462L238.683 184.934C264.044 186.536 281.015 210.107 273.849 233.865L271.304 242.256L276.112 247.065C285.917 256.87 289.5 270.824 285.917 284.777C284.314 290.905 283.089 292.697 275.923 299.862L267.721 308.064L269.607 314.287C271.964 321.924 271.021 332.86 267.438 340.403C264.233 347.191 255.747 356.053 249.336 359.259C245.565 361.145 244.905 361.993 245.565 363.407C247.356 366.896 246.885 382.452 244.811 388.298C242.171 395.651 235.288 404.231 229.066 408.002Z" fill="white"/>
<g opacity="0.02">
<path d="M430.541 676.921C424.413 666.833 422.81 652.219 426.864 642.32C428.656 638.077 428.467 637.888 422.056 630.534C414.419 621.766 411.685 613.752 412.534 602.344C413.288 592.539 417.719 584.148 425.733 577.077L432.144 571.42L430.164 566.423C427.524 559.447 427.901 549.076 431.107 540.968C435.821 528.522 450.623 517.114 462.88 516.549C466.085 516.36 466.085 516.172 465.331 513.532C463.54 507.592 464.765 494.676 467.688 488.736C472.213 479.496 481.736 470.728 490.221 467.9C499.932 464.6 657.947 463.469 673.126 466.58C686.797 469.314 697.733 473.84 708.859 481.382C720.078 489.019 760.807 524.091 763.259 528.24C769.481 538.611 755.433 552.47 745.44 545.87C743.742 544.739 733.372 536.253 722.529 526.92C711.687 517.586 700.656 508.252 698.016 506.178C690.097 500.144 678.123 494.581 668.318 492.696C662.849 491.564 627.211 491.187 578.939 491.564C504.08 492.319 498.518 492.601 495.501 495.618C490.881 500.238 490.033 502.595 491.635 507.215C494.087 515.323 495.124 515.417 538.681 515.606C575.734 515.7 580.636 516.077 583.371 518.812C589.97 525.411 589.499 535.311 582.239 539.93C579.882 541.533 561.969 542.287 520.957 542.759C487.864 543.042 461.748 544.079 460.145 545.116C456.657 547.096 453.923 554.355 455.149 558.409C457.6 566.329 458.448 566.423 519.825 566.518C551.881 566.518 579.599 567.272 581.391 568.12C588.085 571.232 590.536 580.66 586.388 586.882C583.182 591.408 578.091 593.105 567.909 592.916C563.666 592.822 534.533 593.105 503.043 593.482C449.397 594.142 445.815 594.331 442.515 597.63C437.801 602.344 437.895 609.038 442.704 613.847C446.098 617.429 448.36 617.429 511.811 617.146C547.827 616.958 578.751 617.335 580.354 617.806C585.822 619.504 588.368 623.369 588.368 630.157C588.368 637.134 585.822 640.811 579.505 642.791C577.337 643.451 551.787 643.922 522.654 643.828C465.897 643.639 458.26 644.111 454.3 648.071C448.738 653.633 450.623 663.25 457.883 666.55C459.863 667.398 497.764 667.964 542.076 667.775C619.575 667.398 622.78 667.398 626.08 670.887C628.343 673.149 629.663 676.166 629.945 679.655C630.323 684.18 629.757 685.689 626.08 689.366L621.743 693.703L587.99 693.891C542.736 694.268 546.318 693.703 547.827 699.925C549.241 706.053 556.218 713.596 561.969 715.387C567.249 717.084 659.172 716.424 668.223 714.727C676.332 713.219 678.217 713.596 683.026 718.404C688.494 723.872 686.891 734.338 679.914 738.486C674.729 741.597 658.984 742.634 610.429 742.917C553.484 743.294 550.372 742.823 536.702 730.284C527.085 721.421 522.748 713.502 521.24 702.376L520.297 694.834L487.958 694.74C453.734 694.645 448.36 693.608 438.461 685.594C435.632 683.332 432.05 679.372 430.541 676.921Z" fill="white"/>
</g>
<g opacity="0.5">
<path d="M399.674 1126.73C397.271 1128.91 394.447 1130 391.201 1130C387.744 1130 384.785 1128.78 382.324 1126.33C379.875 1123.87 378.65 1120.91 378.65 1117.45C378.65 1113.98 379.875 1111.02 382.324 1108.57C384.785 1106.11 387.744 1104.88 391.201 1104.88C394.049 1104.88 396.604 1105.75 398.865 1107.48C399.311 1107.83 399.574 1108.29 399.656 1108.85C399.727 1109.43 399.586 1109.94 399.234 1110.4C398.883 1110.86 398.426 1111.12 397.863 1111.19C397.289 1111.26 396.773 1111.13 396.316 1110.79C394.816 1109.63 393.111 1109.05 391.201 1109.05C388.893 1109.05 386.918 1109.87 385.277 1111.51C383.637 1113.15 382.816 1115.13 382.816 1117.45C382.816 1119.76 383.637 1121.73 385.277 1123.37C386.918 1125.01 388.893 1125.83 391.201 1125.83C393.381 1125.83 395.268 1125.11 396.861 1123.65C397.283 1123.27 397.781 1123.09 398.355 1123.11C398.93 1123.13 399.41 1123.36 399.797 1123.79C400.184 1124.22 400.365 1124.71 400.342 1125.29C400.318 1125.86 400.096 1126.34 399.674 1126.73ZM405.053 1105.41C405.451 1105 405.937 1104.79 406.512 1104.79C407.086 1104.79 407.572 1105 407.971 1105.41C408.381 1105.81 408.586 1106.29 408.586 1106.87V1125.85H417.885C418.459 1125.85 418.951 1126.06 419.361 1126.47C419.76 1126.87 419.959 1127.35 419.959 1127.93C419.959 1128.5 419.76 1128.99 419.361 1129.38C418.951 1129.79 418.459 1130 417.885 1130H406.512C405.937 1130 405.451 1129.79 405.053 1129.38C404.643 1128.99 404.437 1128.5 404.437 1127.93V1106.87C404.437 1106.29 404.643 1105.81 405.053 1105.41ZM429.152 1120.51H435.92L432.527 1112.35L429.152 1120.51ZM423.844 1130C423.574 1130 423.311 1129.95 423.053 1129.84C422.525 1129.62 422.15 1129.24 421.928 1128.72C421.717 1128.19 421.717 1127.66 421.928 1127.13L424.16 1121.77C424.16 1121.77 424.16 1121.77 424.16 1121.76L430.629 1106.15C430.652 1106.09 430.682 1106.03 430.717 1105.97C430.717 1105.97 430.729 1105.94 430.752 1105.88C430.787 1105.84 430.811 1105.81 430.822 1105.79C430.822 1105.78 430.84 1105.75 430.875 1105.71C430.91 1105.67 430.934 1105.65 430.945 1105.64C430.945 1105.62 430.963 1105.6 430.998 1105.57C431.045 1105.52 431.068 1105.49 431.068 1105.48C431.08 1105.47 431.104 1105.45 431.139 1105.43C431.186 1105.38 431.215 1105.36 431.227 1105.36C431.215 1105.36 431.238 1105.34 431.297 1105.3C431.344 1105.27 431.373 1105.24 431.385 1105.23C431.385 1105.23 431.408 1105.21 431.455 1105.18C431.514 1105.14 431.549 1105.13 431.561 1105.13C431.584 1105.12 431.625 1105.1 431.684 1105.07C431.742 1105.04 431.76 1105.03 431.736 1105.04C431.713 1105.05 431.736 1105.04 431.807 1105C431.865 1104.99 431.906 1104.98 431.93 1104.97C431.941 1104.97 431.982 1104.96 432.053 1104.93L432.123 1104.92C432.146 1104.92 432.187 1104.91 432.246 1104.9C432.305 1104.89 432.334 1104.88 432.334 1104.88C432.346 1104.88 432.381 1104.88 432.439 1104.88C432.486 1104.88 432.516 1104.88 432.527 1104.88C432.551 1104.88 432.586 1104.88 432.633 1104.88C432.703 1104.88 432.738 1104.88 432.738 1104.88C432.738 1104.88 432.773 1104.89 432.844 1104.9C432.902 1104.91 432.932 1104.92 432.932 1104.92C432.955 1104.92 432.996 1104.93 433.055 1104.95C433.125 1104.96 433.148 1104.97 433.125 1104.97C433.266 1105 433.395 1105.06 433.512 1105.13C433.5 1105.12 433.523 1105.13 433.582 1105.16C433.641 1105.2 433.676 1105.22 433.687 1105.23C433.687 1105.23 433.711 1105.25 433.758 1105.29C433.805 1105.32 433.834 1105.34 433.846 1105.36C433.857 1105.36 433.881 1105.37 433.916 1105.41C433.951 1105.44 433.98 1105.47 434.004 1105.48C434.004 1105.49 434.021 1105.51 434.057 1105.55C434.104 1105.6 434.127 1105.62 434.127 1105.64L434.18 1105.71C434.227 1105.75 434.25 1105.78 434.25 1105.79C434.25 1105.81 434.268 1105.84 434.303 1105.88C434.338 1105.93 434.355 1105.96 434.355 1105.97C434.391 1106.03 434.42 1106.09 434.443 1106.15L440.912 1121.76C440.912 1121.77 440.912 1121.77 440.912 1121.77L443.145 1127.13C443.355 1127.66 443.355 1128.19 443.145 1128.72C442.922 1129.24 442.547 1129.62 442.02 1129.84C441.762 1129.95 441.498 1130 441.229 1130C440.303 1130 439.664 1129.57 439.312 1128.72L437.625 1124.64H427.447L425.76 1128.72C425.408 1129.57 424.77 1130 423.844 1130ZM461.232 1117.84C462.486 1119.16 463.072 1120.71 462.99 1122.49C462.896 1124.59 462.059 1126.37 460.477 1127.82C458.883 1129.27 456.984 1130 454.781 1130C452.871 1130 451.16 1129.59 449.648 1128.77C447.832 1127.79 446.678 1126.36 446.186 1124.48C446.045 1123.93 446.115 1123.41 446.396 1122.92C446.689 1122.42 447.111 1122.11 447.662 1121.97C448.213 1121.83 448.734 1121.9 449.227 1122.18C449.719 1122.47 450.035 1122.89 450.176 1123.44C450.387 1124.23 450.961 1124.84 451.898 1125.29C452.742 1125.68 453.703 1125.87 454.781 1125.87C455.883 1125.87 456.826 1125.52 457.611 1124.83C458.408 1124.15 458.83 1123.31 458.877 1122.3C458.9 1121.69 458.684 1121.15 458.227 1120.67C457.5 1119.89 456.281 1119.49 454.57 1119.47H454.553C454.506 1119.47 454.494 1119.47 454.518 1119.47C454.506 1119.47 454.494 1119.47 454.482 1119.47C451.611 1119.42 449.414 1118.6 447.891 1116.99C446.637 1115.66 446.051 1114.1 446.133 1112.33C446.227 1110.22 447.064 1108.44 448.646 1106.99C450.229 1105.54 452.127 1104.81 454.342 1104.81C456.252 1104.81 457.963 1105.22 459.475 1106.04C461.291 1107.03 462.445 1108.46 462.937 1110.33C463.078 1110.88 463.002 1111.4 462.709 1111.89C462.428 1112.39 462.012 1112.7 461.461 1112.84C460.91 1112.98 460.389 1112.91 459.896 1112.63C459.404 1112.34 459.088 1111.92 458.947 1111.37C458.736 1110.58 458.156 1109.97 457.207 1109.52C456.375 1109.13 455.42 1108.94 454.342 1108.94C453.24 1108.94 452.291 1109.29 451.494 1109.98C450.709 1110.67 450.293 1111.51 450.246 1112.51C450.223 1113.12 450.439 1113.67 450.896 1114.16C451.623 1114.92 452.842 1115.32 454.553 1115.34H454.641C457.512 1115.39 459.709 1116.22 461.232 1117.84ZM486.246 1129.38C485.836 1129.79 485.344 1130 484.77 1130C484.195 1130 483.703 1129.79 483.293 1129.38C482.883 1128.97 482.678 1128.48 482.678 1127.91V1119.49H471.85V1127.91C471.85 1128.48 471.65 1128.97 471.252 1129.38C470.842 1129.79 470.35 1130 469.775 1130C469.201 1130 468.709 1129.79 468.299 1129.38C467.889 1128.97 467.684 1128.48 467.684 1127.91V1106.9C467.684 1106.33 467.889 1105.84 468.299 1105.43C468.709 1105.02 469.201 1104.81 469.775 1104.81C470.35 1104.81 470.842 1105.02 471.252 1105.43C471.65 1105.84 471.85 1106.33 471.85 1106.9V1115.32H482.678V1106.9C482.678 1106.33 482.883 1105.84 483.293 1105.43C483.703 1105.02 484.195 1104.81 484.77 1104.81C485.344 1104.81 485.836 1105.02 486.246 1105.43C486.656 1105.84 486.861 1106.33 486.861 1106.9V1127.91C486.861 1128.48 486.656 1128.97 486.246 1129.38Z" fill="white"/>
<path d="M507.646 1124.64C508.361 1125.35 509.223 1125.71 510.23 1125.71C511.238 1125.71 512.1 1125.35 512.814 1124.64C513.518 1123.92 513.869 1123.06 513.869 1122.05C513.869 1121.05 513.518 1120.19 512.814 1119.47C512.1 1118.77 511.238 1118.42 510.23 1118.42C509.223 1118.42 508.361 1118.77 507.646 1119.47C506.932 1120.19 506.574 1121.05 506.574 1122.05C506.574 1123.06 506.932 1123.92 507.646 1124.64ZM513.271 1109.61C512.873 1109.2 512.393 1108.99 511.83 1108.99C511.256 1108.99 510.77 1109.2 510.371 1109.61C509.973 1110.01 509.773 1110.49 509.773 1111.05C509.773 1111.61 509.973 1112.1 510.371 1112.51C510.77 1112.91 511.256 1113.11 511.83 1113.11C512.393 1113.11 512.873 1112.91 513.271 1112.51C513.67 1112.1 513.869 1111.61 513.869 1111.05C513.869 1110.49 513.67 1110.01 513.271 1109.61ZM515.873 1115.94L523.432 1126.29C523.783 1126.77 523.912 1127.3 523.818 1127.89C523.725 1128.48 523.443 1128.95 522.975 1129.3C522.6 1129.57 522.178 1129.7 521.709 1129.7C520.982 1129.7 520.402 1129.41 519.969 1128.82L517.437 1125.36C516.805 1126.75 515.85 1127.87 514.572 1128.7C513.248 1129.57 511.801 1130 510.23 1130C508.039 1130 506.164 1129.23 504.605 1127.68C503.059 1126.12 502.285 1124.25 502.285 1122.05C502.285 1120.51 502.701 1119.08 503.533 1117.78C504.354 1116.52 505.437 1115.56 506.785 1114.9C505.918 1113.76 505.484 1112.48 505.484 1111.05C505.484 1109.3 506.1 1107.81 507.33 1106.57C508.572 1105.33 510.072 1104.71 511.83 1104.71C513.576 1104.71 515.07 1105.33 516.312 1106.57C517.543 1107.81 518.158 1109.3 518.158 1111.05C518.158 1113.03 517.396 1114.66 515.873 1115.94Z" fill="white"/>
<path d="M557.783 1126.73C555.381 1128.91 552.557 1130 549.311 1130C545.854 1130 542.895 1128.78 540.434 1126.33C537.984 1123.87 536.76 1120.91 536.76 1117.45C536.76 1113.98 537.984 1111.02 540.434 1108.57C542.895 1106.11 545.854 1104.88 549.311 1104.88C552.158 1104.88 554.713 1105.75 556.975 1107.48C557.42 1107.83 557.684 1108.29 557.766 1108.85C557.836 1109.43 557.695 1109.94 557.344 1110.4C556.992 1110.86 556.535 1111.12 555.973 1111.19C555.398 1111.26 554.883 1111.13 554.426 1110.79C552.926 1109.63 551.221 1109.05 549.311 1109.05C547.002 1109.05 545.027 1109.87 543.387 1111.51C541.746 1113.15 540.926 1115.13 540.926 1117.45C540.926 1119.76 541.746 1121.73 543.387 1123.37C545.027 1125.01 547.002 1125.83 549.311 1125.83C551.49 1125.83 553.377 1125.11 554.971 1123.65C555.393 1123.27 555.891 1123.09 556.465 1123.11C557.039 1123.13 557.52 1123.36 557.906 1123.79C558.293 1124.22 558.475 1124.71 558.451 1125.29C558.428 1125.86 558.205 1126.34 557.783 1126.73ZM568.312 1120.51H575.08L571.687 1112.35L568.312 1120.51ZM563.004 1130C562.734 1130 562.471 1129.95 562.213 1129.84C561.686 1129.62 561.311 1129.24 561.088 1128.72C560.877 1128.19 560.877 1127.66 561.088 1127.13L563.32 1121.77C563.32 1121.77 563.32 1121.77 563.32 1121.76L569.789 1106.15C569.812 1106.09 569.842 1106.03 569.877 1105.97C569.877 1105.97 569.889 1105.94 569.912 1105.88C569.947 1105.84 569.971 1105.81 569.982 1105.79C569.982 1105.78 570 1105.75 570.035 1105.71C570.07 1105.67 570.094 1105.65 570.105 1105.64C570.105 1105.62 570.123 1105.6 570.158 1105.57C570.205 1105.52 570.229 1105.49 570.229 1105.48C570.24 1105.47 570.264 1105.45 570.299 1105.43C570.346 1105.38 570.375 1105.36 570.387 1105.36C570.375 1105.36 570.398 1105.34 570.457 1105.3C570.504 1105.27 570.533 1105.24 570.545 1105.23C570.545 1105.23 570.568 1105.21 570.615 1105.18C570.674 1105.14 570.709 1105.13 570.721 1105.13C570.744 1105.12 570.785 1105.1 570.844 1105.07C570.902 1105.04 570.92 1105.03 570.896 1105.04C570.873 1105.05 570.896 1105.04 570.967 1105C571.025 1104.99 571.066 1104.98 571.09 1104.97C571.102 1104.97 571.143 1104.96 571.213 1104.93L571.283 1104.92C571.307 1104.92 571.348 1104.91 571.406 1104.9C571.465 1104.89 571.494 1104.88 571.494 1104.88C571.506 1104.88 571.541 1104.88 571.6 1104.88C571.646 1104.88 571.676 1104.88 571.687 1104.88C571.711 1104.88 571.746 1104.88 571.793 1104.88C571.863 1104.88 571.898 1104.88 571.898 1104.88C571.898 1104.88 571.934 1104.89 572.004 1104.9C572.062 1104.91 572.092 1104.92 572.092 1104.92C572.115 1104.92 572.156 1104.93 572.215 1104.95C572.285 1104.96 572.309 1104.97 572.285 1104.97C572.426 1105 572.555 1105.06 572.672 1105.13C572.66 1105.12 572.684 1105.13 572.742 1105.16C572.801 1105.2 572.836 1105.22 572.848 1105.23C572.848 1105.23 572.871 1105.25 572.918 1105.29C572.965 1105.32 572.994 1105.34 573.006 1105.36C573.018 1105.36 573.041 1105.37 573.076 1105.41C573.111 1105.44 573.141 1105.47 573.164 1105.48C573.164 1105.49 573.182 1105.51 573.217 1105.55C573.264 1105.6 573.287 1105.62 573.287 1105.64L573.34 1105.71C573.387 1105.75 573.41 1105.78 573.41 1105.79C573.41 1105.81 573.428 1105.84 573.463 1105.88C573.498 1105.93 573.516 1105.96 573.516 1105.97C573.551 1106.03 573.58 1106.09 573.604 1106.15L580.072 1121.76C580.072 1121.77 580.072 1121.77 580.072 1121.77L582.305 1127.13C582.516 1127.66 582.516 1128.19 582.305 1128.72C582.082 1129.24 581.707 1129.62 581.18 1129.84C580.922 1129.95 580.658 1130 580.389 1130C579.463 1130 578.824 1129.57 578.473 1128.72L576.785 1124.64H566.607L564.92 1128.72C564.568 1129.57 563.93 1130 563.004 1130ZM590.268 1115.27H595.611C596.596 1115.23 597.439 1114.91 598.143 1114.3C598.834 1113.68 599.18 1112.94 599.18 1112.09C599.18 1111.2 598.816 1110.44 598.09 1109.82C597.363 1109.2 596.49 1108.89 595.471 1108.89H590.268V1115.27ZM601.008 1106.9C602.543 1108.33 603.311 1110.06 603.311 1112.09C603.311 1113.63 602.83 1115.04 601.869 1116.29C600.943 1117.53 599.725 1118.42 598.213 1118.94L602.203 1127.03C602.449 1127.53 602.479 1128.05 602.291 1128.59C602.115 1129.13 601.77 1129.53 601.254 1129.79C600.961 1129.93 600.656 1130 600.34 1130C599.484 1130 598.869 1129.61 598.494 1128.84L593.836 1119.4H590.268V1127.79C590.268 1128.35 590.062 1128.83 589.652 1129.24C589.254 1129.64 588.768 1129.84 588.193 1129.84C587.631 1129.84 587.145 1129.64 586.734 1129.24C586.336 1128.83 586.137 1128.35 586.137 1127.79V1106.83C586.137 1106.26 586.336 1105.77 586.734 1105.37C587.145 1104.96 587.631 1104.76 588.193 1104.76H595.471C597.639 1104.76 599.484 1105.47 601.008 1106.9ZM611.924 1108.96V1125.82L615.141 1125.76C617.473 1125.76 619.459 1124.94 621.1 1123.3C622.74 1121.66 623.561 1119.68 623.561 1117.36C623.561 1115.05 622.74 1113.08 621.1 1111.44C619.459 1109.79 617.479 1108.96 615.158 1108.96H611.924ZM609.867 1130H609.832C609.27 1130 608.783 1129.8 608.373 1129.4C607.963 1128.99 607.758 1128.5 607.758 1127.93V1106.88C607.758 1106.31 607.963 1105.82 608.373 1105.41C608.771 1105.01 609.258 1104.81 609.832 1104.81H615.158C618.627 1104.81 621.592 1106.04 624.053 1108.48C626.502 1110.95 627.727 1113.9 627.727 1117.36C627.727 1120.83 626.502 1123.79 624.053 1126.24C621.592 1128.7 618.627 1129.93 615.158 1129.93L609.867 1130Z" fill="white"/>
</g>
</g>
<defs>
<clipPath id="clip0_191_89">
<rect x="60" y="60" width="580" height="1080" rx="20" fill="white"/>
</clipPath>
</defs>
</svg>
