<svg width="225" height="375" viewBox="0 0 225 375" fill="none" xmlns="http://www.w3.org/2000/svg">
<g clip-path="url(#clip0_224_200)">
<rect width="225" height="375" rx="6" fill="#000064"/>
<rect width="225" height="375" rx="6" fill="white" fill-opacity="0.6"/>
<rect width="21.2946" height="22.6118" transform="translate(194.771 252.441) rotate(-60)" fill="#000064"/>
<rect width="21.2946" height="22.6118" transform="translate(194.771 252.441) rotate(-60)" fill="white" fill-opacity="0.1"/>
<rect width="21.2946" height="22.6118" transform="translate(0 245.146) rotate(-30)" fill="#000064"/>
<rect width="21.2946" height="22.6118" transform="translate(0 245.146) rotate(-30)" fill="white" fill-opacity="0.1"/>
<g clip-path="url(#clip1_224_200)">
<rect x="15" y="15" width="195" height="345" rx="3" fill="#000064"/>
<rect x="15" y="15" width="195" height="345" rx="3" fill="white" fill-opacity="0.4"/>
<circle cx="112.5" cy="135" r="60" fill="#000064"/>
<circle cx="112.5" cy="135" r="60" fill="white" fill-opacity="0.2"/>
<path d="M139.666 140.333H136.999C136.999 130.013 128.653 121.666 118.333 121.666H115.666V118.28C117.266 117.373 118.333 115.64 118.333 113.666C118.333 110.733 115.959 108.333 112.999 108.333C110.039 108.333 107.666 110.733 107.666 113.666C107.666 115.64 108.733 117.373 110.333 118.28V121.666H107.666C97.346 121.666 88.9993 130.013 88.9993 140.333H86.3327C84.866 140.333 83.666 141.533 83.666 143V151C83.666 152.466 84.866 153.666 86.3327 153.666H88.9993V156.333C88.9993 159.293 91.3993 161.666 94.3327 161.666H131.666C134.626 161.666 136.999 159.293 136.999 156.333V153.666H139.666C141.133 153.666 142.333 152.466 142.333 151V143C142.333 141.533 141.133 140.333 139.666 140.333ZM136.999 148.333H131.666V156.333H94.3327V148.333H88.9993V145.666H94.3327V140.333C94.3327 132.973 100.306 127 107.666 127H118.333C125.693 127 131.666 132.973 131.666 140.333V145.666H136.999V148.333ZM127.666 144.333C127.666 147.293 125.293 149.666 122.333 149.666C119.746 149.666 117.613 147.826 117.106 145.4L124.999 139.746C126.599 140.68 127.666 142.36 127.666 144.333ZM100.999 139.746L108.893 145.4C108.413 147.826 106.253 149.666 103.666 149.666C100.733 149.666 98.3327 147.293 98.3327 144.333C98.3327 142.36 99.3993 140.68 100.999 139.746Z" fill="white"/>
</g>
<rect width="225" height="75" transform="translate(0 246)" fill="#000064"/>
<rect width="225" height="75" transform="translate(0 246)" fill="white" fill-opacity="0.2"/>
<path d="M53.0615 291.275C51.0596 293.092 48.7061 294 46.001 294C43.1201 294 40.6543 292.979 38.6035 290.938C36.5625 288.888 35.542 286.422 35.542 283.541C35.542 280.65 36.5625 278.185 38.6035 276.144C40.6543 274.093 43.1201 273.067 46.001 273.067C48.374 273.067 50.5029 273.79 52.3877 275.235C52.7588 275.528 52.9785 275.909 53.0469 276.378C53.1055 276.856 52.9883 277.286 52.6953 277.667C52.4023 278.048 52.0215 278.268 51.5527 278.326C51.0742 278.385 50.6445 278.272 50.2637 277.989C49.0137 277.022 47.5928 276.539 46.001 276.539C44.0771 276.539 42.4316 277.223 41.0645 278.59C39.6973 279.957 39.0137 281.607 39.0137 283.541C39.0137 285.465 39.6973 287.11 41.0645 288.478C42.4316 289.845 44.0771 290.528 46.001 290.528C47.8174 290.528 49.3896 289.923 50.7178 288.712C51.0693 288.39 51.4844 288.238 51.9629 288.258C52.4414 288.277 52.8418 288.468 53.1641 288.829C53.4863 289.181 53.6377 289.596 53.6182 290.074C53.5986 290.553 53.4131 290.953 53.0615 291.275ZM61.8359 286.09H67.4756L64.6484 279.293L61.8359 286.09ZM57.4121 294C57.1875 294 56.9678 293.956 56.7529 293.868C56.3135 293.683 56.001 293.37 55.8154 292.931C55.6396 292.491 55.6396 292.052 55.8154 291.612L57.6758 287.145C57.6758 287.145 57.6758 287.14 57.6758 287.13L63.0664 274.122C63.0859 274.073 63.1104 274.024 63.1396 273.976C63.1396 273.976 63.1494 273.951 63.1689 273.902C63.1982 273.863 63.2178 273.839 63.2275 273.829C63.2275 273.819 63.2422 273.795 63.2715 273.756C63.3008 273.727 63.3203 273.707 63.3301 273.697C63.3301 273.688 63.3447 273.668 63.374 273.639C63.4131 273.6 63.4326 273.575 63.4326 273.565C63.4424 273.556 63.4619 273.541 63.4912 273.521C63.5303 273.482 63.5547 273.463 63.5645 273.463C63.5547 273.463 63.5742 273.448 63.623 273.419C63.6621 273.39 63.6865 273.37 63.6963 273.36C63.6963 273.36 63.7158 273.346 63.7549 273.316C63.8037 273.287 63.833 273.272 63.8428 273.272C63.8623 273.263 63.8965 273.248 63.9453 273.229C63.9941 273.199 64.0088 273.189 63.9893 273.199C63.9697 273.209 63.9893 273.199 64.0479 273.17C64.0967 273.16 64.1309 273.15 64.1504 273.141C64.1602 273.141 64.1943 273.131 64.2529 273.111L64.3115 273.097C64.3311 273.097 64.3652 273.092 64.4141 273.082C64.4629 273.072 64.4873 273.067 64.4873 273.067C64.4971 273.067 64.5264 273.067 64.5752 273.067C64.6143 273.067 64.6387 273.067 64.6484 273.067C64.668 273.067 64.6973 273.067 64.7363 273.067C64.7949 273.067 64.8242 273.067 64.8242 273.067C64.8242 273.067 64.8535 273.072 64.9121 273.082C64.9609 273.092 64.9854 273.097 64.9854 273.097C65.0049 273.097 65.0391 273.106 65.0879 273.126C65.1465 273.136 65.166 273.141 65.1465 273.141C65.2637 273.17 65.3711 273.214 65.4688 273.272C65.459 273.263 65.4785 273.272 65.5273 273.302C65.5762 273.331 65.6055 273.351 65.6152 273.36C65.6152 273.36 65.6348 273.375 65.6738 273.404C65.7129 273.434 65.7373 273.453 65.7471 273.463C65.7568 273.463 65.7764 273.478 65.8057 273.507C65.835 273.536 65.8594 273.556 65.8789 273.565C65.8789 273.575 65.8936 273.595 65.9229 273.624C65.9619 273.663 65.9814 273.688 65.9814 273.697L66.0254 273.756C66.0645 273.795 66.084 273.819 66.084 273.829C66.084 273.839 66.0986 273.863 66.1279 273.902C66.1572 273.941 66.1719 273.966 66.1719 273.976C66.2012 274.024 66.2256 274.073 66.2451 274.122L71.6357 287.13C71.6357 287.14 71.6357 287.145 71.6357 287.145L73.4961 291.612C73.6719 292.052 73.6719 292.491 73.4961 292.931C73.3105 293.37 72.998 293.683 72.5586 293.868C72.3438 293.956 72.124 294 71.8994 294C71.1279 294 70.5957 293.644 70.3027 292.931L68.8965 289.532H60.415L59.0088 292.931C58.7158 293.644 58.1836 294 57.4121 294ZM95.2197 273.053C95.5811 272.916 95.9521 272.896 96.333 272.994C96.7041 273.102 97.0068 273.312 97.2412 273.624C97.4756 273.927 97.5928 274.273 97.5928 274.664V292.271C97.5928 292.75 97.4268 293.155 97.0947 293.487C96.7529 293.829 96.3428 294 95.8643 294C95.3857 294 94.9756 293.829 94.6338 293.487C94.3018 293.155 94.1357 292.75 94.1357 292.271V280.875L88.6719 289.898C88.6719 289.898 88.6719 289.903 88.6719 289.913L88.6572 289.928C88.6572 289.928 88.6523 289.933 88.6426 289.942C88.6328 289.952 88.6279 289.957 88.6279 289.957C88.5986 290.006 88.5791 290.04 88.5693 290.06L88.5254 290.118C88.4863 290.157 88.4619 290.182 88.4521 290.191C88.4424 290.201 88.4229 290.221 88.3936 290.25C88.3643 290.279 88.3447 290.299 88.335 290.309C88.3154 290.328 88.2861 290.353 88.2471 290.382C88.2178 290.411 88.2031 290.426 88.2031 290.426C88.1738 290.445 88.1396 290.465 88.1006 290.484C88.1006 290.494 88.0957 290.499 88.0859 290.499C88.0762 290.509 88.0713 290.514 88.0713 290.514C88.0713 290.514 88.0664 290.514 88.0566 290.514C88.0371 290.533 88.0029 290.553 87.9541 290.572C87.915 290.592 87.9004 290.602 87.9102 290.602C87.9004 290.602 87.8711 290.611 87.8223 290.631C87.5977 290.729 87.3633 290.772 87.1191 290.763H87.0898C87.1094 290.763 87.0898 290.758 87.0312 290.748C86.9043 290.738 86.7773 290.714 86.6504 290.675C86.6016 290.665 86.582 290.66 86.5918 290.66C86.6113 290.67 86.5918 290.665 86.5332 290.646C86.4844 290.626 86.4502 290.611 86.4307 290.602C86.4404 290.602 86.4307 290.592 86.4014 290.572C86.3525 290.553 86.3135 290.533 86.2842 290.514H86.2695C86.2695 290.514 86.2646 290.509 86.2549 290.499C86.2549 290.499 86.25 290.494 86.2402 290.484C86.2012 290.465 86.167 290.44 86.1377 290.411C86.1377 290.421 86.123 290.411 86.0938 290.382C86.0547 290.353 86.0254 290.328 86.0059 290.309C85.9961 290.299 85.9766 290.279 85.9473 290.25C85.918 290.221 85.8984 290.201 85.8887 290.191C85.8789 290.172 85.8545 290.147 85.8154 290.118C85.7959 290.089 85.7861 290.069 85.7861 290.06C85.7666 290.04 85.7422 290.006 85.7129 289.957C85.7129 289.957 85.708 289.952 85.6982 289.942C85.6982 289.933 85.6934 289.928 85.6836 289.928V289.913C85.6836 289.903 85.6787 289.898 85.6689 289.898L80.2197 280.875V292.271C80.2197 292.75 80.0488 293.155 79.707 293.487C79.3652 293.829 78.9551 294 78.4766 294C77.998 294 77.5928 293.829 77.2607 293.487C76.9189 293.155 76.748 292.75 76.748 292.271V274.664C76.748 274.273 76.8652 273.927 77.0996 273.624C77.334 273.312 77.6416 273.102 78.0225 272.994C78.3936 272.896 78.7598 272.916 79.1211 273.053C79.4824 273.199 79.7656 273.438 79.9707 273.771L87.1777 285.68L94.3848 273.771C94.5801 273.438 94.8584 273.199 95.2197 273.053ZM105.913 281.769H110.396C111.226 281.749 111.934 281.48 112.52 280.963C113.105 280.436 113.398 279.811 113.398 279.088C113.398 278.355 113.096 277.726 112.49 277.198C111.885 276.671 111.152 276.407 110.293 276.407H105.913V281.769ZM104.185 272.95H110.293C112.109 272.95 113.657 273.551 114.937 274.752C116.226 275.953 116.87 277.398 116.87 279.088C116.87 280.748 116.25 282.174 115.01 283.365C113.779 284.547 112.285 285.167 110.527 285.226H110.513C110.513 285.226 110.508 285.226 110.498 285.226H110.469C110.361 285.235 110.303 285.24 110.293 285.24C110.293 285.24 110.264 285.235 110.205 285.226H105.913V292.271C105.913 292.75 105.747 293.155 105.415 293.487C105.073 293.829 104.663 294 104.185 294C103.706 294 103.301 293.829 102.969 293.487C102.627 293.155 102.456 292.75 102.456 292.271V274.679C102.456 274.2 102.627 273.795 102.969 273.463C103.301 273.121 103.706 272.95 104.185 272.95ZM125.322 286.09H130.962L128.135 279.293L125.322 286.09ZM120.898 294C120.674 294 120.454 293.956 120.239 293.868C119.8 293.683 119.487 293.37 119.302 292.931C119.126 292.491 119.126 292.052 119.302 291.612L121.162 287.145C121.162 287.145 121.162 287.14 121.162 287.13L126.553 274.122C126.572 274.073 126.597 274.024 126.626 273.976C126.626 273.976 126.636 273.951 126.655 273.902C126.685 273.863 126.704 273.839 126.714 273.829C126.714 273.819 126.729 273.795 126.758 273.756C126.787 273.727 126.807 273.707 126.816 273.697C126.816 273.688 126.831 273.668 126.86 273.639C126.899 273.6 126.919 273.575 126.919 273.565C126.929 273.556 126.948 273.541 126.978 273.521C127.017 273.482 127.041 273.463 127.051 273.463C127.041 273.463 127.061 273.448 127.109 273.419C127.148 273.39 127.173 273.37 127.183 273.36C127.183 273.36 127.202 273.346 127.241 273.316C127.29 273.287 127.319 273.272 127.329 273.272C127.349 273.263 127.383 273.248 127.432 273.229C127.48 273.199 127.495 273.189 127.476 273.199C127.456 273.209 127.476 273.199 127.534 273.17C127.583 273.16 127.617 273.15 127.637 273.141C127.646 273.141 127.681 273.131 127.739 273.111L127.798 273.097C127.817 273.097 127.852 273.092 127.9 273.082C127.949 273.072 127.974 273.067 127.974 273.067C127.983 273.067 128.013 273.067 128.062 273.067C128.101 273.067 128.125 273.067 128.135 273.067C128.154 273.067 128.184 273.067 128.223 273.067C128.281 273.067 128.311 273.067 128.311 273.067C128.311 273.067 128.34 273.072 128.398 273.082C128.447 273.092 128.472 273.097 128.472 273.097C128.491 273.097 128.525 273.106 128.574 273.126C128.633 273.136 128.652 273.141 128.633 273.141C128.75 273.17 128.857 273.214 128.955 273.272C128.945 273.263 128.965 273.272 129.014 273.302C129.062 273.331 129.092 273.351 129.102 273.36C129.102 273.36 129.121 273.375 129.16 273.404C129.199 273.434 129.224 273.453 129.233 273.463C129.243 273.463 129.263 273.478 129.292 273.507C129.321 273.536 129.346 273.556 129.365 273.565C129.365 273.575 129.38 273.595 129.409 273.624C129.448 273.663 129.468 273.688 129.468 273.697L129.512 273.756C129.551 273.795 129.57 273.819 129.57 273.829C129.57 273.839 129.585 273.863 129.614 273.902C129.644 273.941 129.658 273.966 129.658 273.976C129.688 274.024 129.712 274.073 129.731 274.122L135.122 287.13C135.122 287.14 135.122 287.145 135.122 287.145L136.982 291.612C137.158 292.052 137.158 292.491 136.982 292.931C136.797 293.37 136.484 293.683 136.045 293.868C135.83 293.956 135.61 294 135.386 294C134.614 294 134.082 293.644 133.789 292.931L132.383 289.532H123.901L122.495 292.931C122.202 293.644 121.67 294 120.898 294ZM143.179 293.487C142.847 293.829 142.441 294 141.963 294C141.484 294 141.079 293.829 140.747 293.487C140.405 293.155 140.234 292.75 140.234 292.271V274.796C140.234 274.317 140.405 273.912 140.747 273.58C141.079 273.238 141.484 273.067 141.963 273.067C142.441 273.067 142.847 273.238 143.179 273.58C143.521 273.912 143.691 274.317 143.691 274.796V292.271C143.691 292.75 143.521 293.155 143.179 293.487ZM162.427 292.74C160.894 293.541 159.268 293.941 157.549 293.941C154.658 293.941 152.188 292.916 150.137 290.865C148.086 288.814 147.061 286.344 147.061 283.453C147.061 280.562 148.086 278.097 150.137 276.056C152.188 274.005 154.658 272.979 157.549 272.979C159.922 272.979 162.046 273.702 163.921 275.147C164.302 275.44 164.526 275.826 164.595 276.305C164.653 276.773 164.536 277.198 164.243 277.579C163.95 277.96 163.569 278.18 163.101 278.238C162.622 278.307 162.192 278.194 161.812 277.901C160.552 276.935 159.131 276.451 157.549 276.451C155.615 276.451 153.96 277.135 152.583 278.502C151.216 279.879 150.532 281.529 150.532 283.453C150.532 285.387 151.216 287.042 152.583 288.419C153.96 289.786 155.615 290.47 157.549 290.47C159.355 290.47 160.928 289.859 162.266 288.639C162.285 288.619 162.319 288.59 162.368 288.551L162.383 284.713H156.655C156.167 284.713 155.757 284.547 155.425 284.215C155.083 283.873 154.912 283.463 154.912 282.984C154.912 282.506 155.083 282.096 155.425 281.754C155.757 281.412 156.167 281.241 156.655 281.241H164.126C164.604 281.241 165.015 281.412 165.356 281.754C165.698 282.096 165.869 282.506 165.869 282.984L165.825 292.271C165.825 292.75 165.654 293.155 165.312 293.487C164.98 293.829 164.575 294 164.097 294H164.082C163.691 294 163.34 293.878 163.027 293.634C162.725 293.399 162.524 293.102 162.427 292.74ZM184.224 293.458C184.185 293.419 184.15 293.38 184.121 293.341C184.111 293.341 184.106 293.341 184.106 293.341C184.106 293.341 184.106 293.336 184.106 293.326L173.574 279.776V292.271C173.574 292.75 173.403 293.155 173.062 293.487C172.729 293.829 172.324 294 171.846 294C171.367 294 170.962 293.829 170.63 293.487C170.288 293.155 170.117 292.75 170.117 292.271V274.723C170.117 274.352 170.225 274.02 170.439 273.727C170.654 273.424 170.938 273.214 171.289 273.097C171.631 272.97 171.982 272.96 172.344 273.067C172.695 273.175 172.983 273.375 173.208 273.668L183.74 287.232V274.723C183.74 274.244 183.906 273.839 184.238 273.507C184.58 273.165 184.99 272.994 185.469 272.994C185.947 272.994 186.353 273.165 186.685 273.507C187.026 273.839 187.197 274.244 187.197 274.723V292.301C187.197 292.32 187.192 292.35 187.183 292.389C187.183 292.428 187.183 292.452 187.183 292.462C187.183 292.481 187.178 292.511 187.168 292.55C187.168 292.589 187.163 292.618 187.153 292.638C187.153 292.638 187.148 292.662 187.139 292.711C187.129 292.76 187.119 292.789 187.109 292.799C187.109 292.809 187.1 292.833 187.08 292.872C187.07 292.911 187.061 292.94 187.051 292.96C187.051 292.96 187.041 292.984 187.021 293.033C186.992 293.082 186.978 293.106 186.978 293.106C186.968 293.126 186.953 293.155 186.934 293.194L186.89 293.238C186.88 293.258 186.86 293.287 186.831 293.326C186.802 293.365 186.787 293.385 186.787 293.385C186.777 293.395 186.758 293.414 186.729 293.443C186.699 293.482 186.68 293.502 186.67 293.502C186.67 293.512 186.65 293.531 186.611 293.561C186.582 293.59 186.558 293.609 186.538 293.619C186.567 293.6 186.562 293.604 186.523 293.634C186.523 293.634 186.519 293.639 186.509 293.648C186.431 293.707 186.357 293.756 186.289 293.795C186.279 293.795 186.274 293.795 186.274 293.795C186.196 293.834 186.118 293.868 186.04 293.897C186.001 293.917 185.991 293.922 186.011 293.912C185.933 293.941 185.85 293.961 185.762 293.971C185.762 293.971 185.747 293.976 185.718 293.985C185.63 293.995 185.547 294 185.469 294C185.41 294 185.347 293.995 185.278 293.985C185.298 293.995 185.288 293.995 185.249 293.985C185.19 293.976 185.142 293.966 185.103 293.956C185.112 293.966 185.093 293.961 185.044 293.941C184.995 293.932 184.956 293.922 184.927 293.912C184.917 293.912 184.897 293.902 184.868 293.883C184.819 293.873 184.78 293.858 184.751 293.839C184.731 293.839 184.712 293.829 184.692 293.81C184.653 293.79 184.619 293.775 184.59 293.766C184.561 293.746 184.541 293.731 184.531 293.722C184.502 293.702 184.468 293.678 184.429 293.648C184.399 293.629 184.38 293.614 184.37 293.604C184.321 293.565 184.277 293.526 184.238 293.487C184.238 293.487 184.233 293.482 184.224 293.473C184.224 293.473 184.224 293.468 184.224 293.458Z" fill="white"/>
</g>
<defs>
<clipPath id="clip0_224_200">
<rect width="225" height="375" rx="6" fill="white"/>
</clipPath>
<clipPath id="clip1_224_200">
<rect x="15" y="15" width="195" height="345" rx="3" fill="white"/>
</clipPath>
</defs>
</svg>
