<svg width="225" height="375" viewBox="0 0 225 375" fill="none" xmlns="http://www.w3.org/2000/svg">
<g clip-path="url(#clip0_224_245)">
<rect width="225" height="375" rx="6" fill="#000064"/>
<rect width="225" height="375" rx="6" fill="white" fill-opacity="0.2"/>
<circle cx="163.471" cy="62.4707" r="50" fill="#000064"/>
<circle cx="163.471" cy="62.4707" r="50" fill="white" fill-opacity="0.4"/>
<g clip-path="url(#clip1_224_245)">
<path d="M163.25 69.6581L162.216 73.5194L166.077 74.5541L165.042 78.4154L161.181 77.3807L160.146 81.242L156.285 80.2074L157.32 76.3461L153.459 75.3115L154.493 71.4502L158.354 72.4848L159.389 68.6235L163.25 69.6581ZM175.555 59.2902L174.52 63.1515L170.659 62.1168L169.624 65.9781L173.486 67.0128L172.451 70.8741L176.312 71.9087L177.347 68.0474L181.208 69.082L182.243 65.2207L178.382 64.1861L179.416 60.3248L175.555 59.2902ZM192.587 54.4447L196.587 61.3729C197.321 62.6431 196.882 64.2823 195.611 65.0157L193.302 66.349L194.635 68.6584C196.115 71.2218 195.247 74.4639 192.683 75.9439L160.352 94.6105C157.811 96.0772 154.546 95.2218 153.066 92.6584L151.733 90.349L149.423 91.6823C148.153 92.4157 146.514 91.9764 145.781 90.7063L141.781 83.7781C141.047 82.5079 141.486 80.8687 142.757 80.1353L145.066 78.802C139.906 69.8646 142.961 58.4629 151.899 53.3029L154.208 51.9695L152.515 49.0366C150.676 49.0514 148.885 48.0836 147.899 46.3747C146.432 43.8343 147.31 40.5559 149.851 39.0892C152.391 37.6225 155.669 38.501 157.136 41.0413C158.123 42.7503 158.066 44.7847 157.133 46.3699L158.827 49.3029L161.136 47.9695C170.074 42.8095 181.475 45.8646 186.635 54.802L188.945 53.4687C190.215 52.7353 191.854 53.1746 192.587 54.4447ZM189.302 59.4208L184.683 62.0875L182.016 57.4687C178.336 51.0947 170.177 48.9083 163.803 52.5883L154.565 57.9217C148.191 61.6017 146.005 69.7614 149.685 76.1353L152.352 80.7541L147.733 83.4208L149.066 85.7302L153.685 83.0635L157.685 89.9917L190.016 71.3251L186.016 64.3969L190.635 61.7302L189.302 59.4208Z" fill="white"/>
</g>
<circle cx="73" cy="294" r="90" fill="#000064"/>
<circle cx="73" cy="294" r="90" fill="white" fill-opacity="0.4"/>
<g clip-path="url(#clip2_224_245)">
<path d="M114.28 327.33L109.661 324.663C119.981 306.788 113.871 283.985 95.9962 273.665L91.3774 270.998L94.7641 265.132C98.4421 265.162 102.023 263.226 103.996 259.809C106.93 254.728 105.219 248.198 100.092 245.238C94.9651 242.278 88.4544 244.061 85.521 249.142C83.5477 252.56 83.6619 256.629 85.5265 259.799L82.1398 265.665L77.521 262.998C59.6463 252.678 36.8428 258.788 26.5228 276.663L21.904 273.997C19.3636 272.53 16.0852 273.408 14.6185 275.949L6.61849 289.805C5.15182 292.345 6.03028 295.624 8.57062 297.091L13.1894 299.757L10.5228 304.376C7.56276 309.503 9.34635 316.014 14.427 318.947L79.0903 356.28C84.2171 359.24 90.7012 357.503 93.6612 352.376L96.3279 347.757L100.947 350.424C103.487 351.891 106.765 351.012 108.232 348.472L116.232 334.615C117.699 332.075 116.82 328.797 114.28 327.33ZM101.661 338.52L92.4236 333.186L84.4236 347.043L19.7604 309.709L27.7604 295.853L18.5228 290.52L21.1894 285.901L30.427 291.234L35.7604 281.997C43.1204 269.249 59.4398 264.876 72.1877 272.236L90.6629 282.903C103.411 290.263 107.784 306.582 100.424 319.33L95.0903 328.568L104.328 333.901L101.661 338.52ZM89.4954 322.258C86.5354 327.385 80.0513 329.122 74.9244 326.162C70.4442 323.576 68.5892 318.255 70.1383 313.546L89.4633 311.647C91.3012 314.864 91.4687 318.84 89.4954 322.258ZM47.894 287.647L55.9124 305.332C52.6543 309.055 47.0731 310.082 42.5928 307.496C37.5122 304.562 35.7286 298.052 38.6886 292.925C40.6619 289.507 44.1894 287.664 47.894 287.647Z" fill="white"/>
</g>
<path d="M53.1516 149.327C50.7478 150.564 48.2394 150.832 45.6265 150.132C42.8438 149.386 40.7261 147.762 39.2735 145.26C37.8328 142.751 37.4852 140.105 38.2309 137.322C38.979 134.53 40.6029 132.412 43.1027 130.969C45.6143 129.519 48.2615 129.167 51.0442 129.912C53.3364 130.527 55.2057 131.776 56.6522 133.659C56.9348 134.038 57.0485 134.463 56.9932 134.934C56.926 135.411 56.7016 135.796 56.32 136.088C55.9384 136.38 55.5137 136.494 55.0457 136.429C54.5684 136.362 54.1824 136.142 53.8878 135.77C52.9306 134.512 51.6833 133.678 50.1457 133.266C48.2874 132.768 46.5211 133.002 44.8466 133.969C43.1721 134.936 42.0847 136.353 41.5842 138.221C41.0863 140.079 41.3207 141.845 42.2875 143.52C43.2542 145.194 44.6667 146.28 46.525 146.778C48.2795 147.248 49.9549 147.071 51.5512 146.245C51.9742 146.024 52.4143 145.986 52.8714 146.128C53.3286 146.271 53.666 146.559 53.8838 146.991C54.1041 147.414 54.1429 147.854 54.0002 148.311C53.8575 148.768 53.5746 149.107 53.1516 149.327ZM62.9692 146.589L68.4167 148.049L67.445 140.752L62.9692 146.589ZM56.6488 153.085C56.4318 153.027 56.231 152.928 56.0462 152.787C55.6697 152.494 55.4488 152.111 55.3833 151.639C55.3272 151.169 55.441 150.745 55.7245 150.366L58.6778 146.531C58.6778 146.531 58.6791 146.527 58.6816 146.517L67.2552 135.348C67.2867 135.306 67.3229 135.265 67.3639 135.225C67.3639 135.225 67.3796 135.204 67.4111 135.162C67.4495 135.132 67.4747 135.114 67.4867 135.107C67.4892 135.097 67.5097 135.077 67.5481 135.047C67.584 135.027 67.6079 135.013 67.6198 135.006C67.6224 134.996 67.6416 134.981 67.6774 134.961C67.7253 134.933 67.7505 134.914 67.753 134.905C67.765 134.898 67.7876 134.889 67.821 134.878C67.8688 134.85 67.8975 134.838 67.9069 134.84C67.8975 134.838 67.9201 134.829 67.9749 134.813C68.0202 134.795 68.0488 134.782 68.0608 134.775C68.0608 134.775 68.0834 134.766 68.1287 134.748C68.1835 134.732 68.2156 134.726 68.225 134.728C68.2464 134.724 68.2832 134.719 68.3354 134.712C68.3902 134.697 68.4069 134.691 68.3855 134.695C68.3641 134.7 68.3855 134.695 68.4496 134.682C68.4993 134.685 68.5349 134.685 68.5563 134.681C68.5657 134.683 68.6012 134.682 68.6629 134.679L68.7233 134.68C68.7421 134.685 68.7764 134.689 68.8261 134.692C68.8758 134.695 68.9007 134.697 68.9007 134.697C68.9101 134.699 68.9384 134.707 68.9856 134.72C69.0233 134.73 69.0469 134.736 69.0563 134.739C69.0752 134.744 69.1035 134.751 69.1412 134.761C69.1978 134.777 69.2261 134.784 69.2261 134.784C69.2261 134.784 69.2531 134.796 69.3072 134.821C69.3518 134.843 69.3741 134.854 69.3741 134.854C69.393 134.859 69.4235 134.877 69.4656 134.909C69.5197 134.934 69.5373 134.943 69.5184 134.938C69.624 134.997 69.7164 135.067 69.7956 135.149C69.7887 135.137 69.805 135.152 69.8446 135.193C69.8842 135.233 69.9074 135.26 69.9143 135.272C69.9143 135.272 69.9294 135.291 69.9595 135.329C69.9897 135.368 70.0082 135.393 70.0151 135.405C70.0246 135.408 70.0396 135.427 70.0604 135.463C70.0811 135.499 70.0996 135.524 70.1159 135.538C70.1134 135.548 70.1225 135.57 70.1432 135.606C70.1708 135.654 70.1834 135.683 70.1809 135.692L70.2081 135.76C70.2358 135.808 70.2483 135.837 70.2458 135.846C70.2433 135.855 70.2511 135.883 70.2693 135.928C70.2875 135.973 70.2953 136.001 70.2928 136.01C70.3084 136.065 70.3194 136.118 70.3256 136.171L72.1659 150.13C72.1633 150.14 72.1621 150.145 72.1621 150.145L72.8027 154.942C72.8588 155.412 72.745 155.836 72.4615 156.215C72.1685 156.592 71.7858 156.812 71.3133 156.878C71.083 156.907 70.8594 156.893 70.6424 156.835C69.8972 156.635 69.4754 156.153 69.3769 155.389L68.8982 151.742L60.7057 149.547L58.4678 152.465C58.0003 153.078 57.394 153.285 56.6488 153.085ZM98.5897 142.637C98.9741 142.598 99.3376 142.676 99.6802 142.868C100.011 143.068 100.249 143.349 100.394 143.712C100.542 144.065 100.566 144.43 100.465 144.808L95.9077 161.815C95.7838 162.277 95.5186 162.626 95.1119 162.861C94.6933 163.102 94.2529 163.161 93.7907 163.037C93.3285 162.913 92.9765 162.642 92.7349 162.224C92.5001 161.817 92.4446 161.382 92.5685 160.92L95.5181 149.912L87.905 157.214C87.905 157.214 87.9037 157.219 87.9012 157.228L87.8832 157.238C87.8832 157.238 87.8772 157.242 87.8653 157.249C87.8533 157.256 87.8473 157.259 87.8473 157.259C87.8064 157.299 87.7787 157.327 87.7642 157.343L87.7066 157.388C87.6588 157.416 87.6289 157.433 87.6169 157.44C87.6049 157.447 87.581 157.461 87.5451 157.481C87.5092 157.502 87.4853 157.516 87.4734 157.523C87.4494 157.537 87.4148 157.553 87.3695 157.571C87.3336 157.592 87.3157 157.602 87.3157 157.602C87.2823 157.613 87.2443 157.623 87.2015 157.632C87.199 157.641 87.193 157.645 87.1835 157.642C87.1716 157.649 87.1656 157.653 87.1656 157.653C87.1656 157.653 87.1609 157.652 87.1515 157.649C87.1275 157.663 87.0895 157.673 87.0372 157.679C86.9945 157.688 86.9778 157.693 86.9872 157.696C86.9778 157.693 86.947 157.695 86.8947 157.702C86.6525 157.738 86.4147 157.719 86.1814 157.647L86.1531 157.639C86.172 157.644 86.1544 157.635 86.1003 157.61C85.9802 157.568 85.8639 157.511 85.7514 157.441C85.7068 157.419 85.6892 157.409 85.6986 157.411C85.7149 157.426 85.6973 157.416 85.6458 157.382C85.6037 157.351 85.5745 157.328 85.5581 157.313C85.5676 157.316 85.5607 157.304 85.5374 157.277C85.4953 157.246 85.4626 157.217 85.4394 157.19L85.4252 157.186C85.4252 157.186 85.4218 157.18 85.4149 157.168C85.4149 157.168 85.4114 157.163 85.4045 157.151C85.3718 157.122 85.3452 157.089 85.3244 157.053C85.3219 157.063 85.3103 157.049 85.2896 157.014C85.2594 156.975 85.2374 156.944 85.2236 156.92C85.2167 156.908 85.2029 156.884 85.1822 156.848C85.1615 156.812 85.1477 156.789 85.1408 156.777C85.1364 156.755 85.1191 156.725 85.089 156.687C85.0777 156.654 85.0733 156.632 85.0758 156.623C85.062 156.599 85.0473 156.559 85.0316 156.505C85.0316 156.505 85.0282 156.499 85.0213 156.487C85.0238 156.477 85.0204 156.471 85.0109 156.469L85.0147 156.455C85.0172 156.445 85.0138 156.439 85.0044 156.437L82.0762 146.31L79.1266 157.319C79.0028 157.781 78.7328 158.128 78.3167 158.36C77.8981 158.602 77.4577 158.661 76.9955 158.537C76.5333 158.413 76.186 158.143 75.9538 157.727C75.7096 157.318 75.6494 156.882 75.7732 156.42L80.3304 139.413C80.4315 139.035 80.6344 138.731 80.9391 138.499C81.2464 138.258 81.5979 138.135 81.9936 138.129C82.3773 138.131 82.726 138.245 83.0396 138.47C83.3507 138.705 83.5623 139.01 83.6745 139.384L87.5536 152.752L97.5974 143.114C97.872 142.844 98.2028 142.685 98.5897 142.637ZM106.663 153.823L110.993 154.984C111.799 155.18 112.553 155.103 113.253 154.755C113.955 154.397 114.4 153.869 114.587 153.171C114.777 152.464 114.647 151.777 114.199 151.111C113.75 150.445 113.111 150.001 112.281 149.778L108.05 148.645L106.663 153.823ZM107.276 144.858L113.176 146.439C114.93 146.909 116.27 147.89 117.195 149.381C118.129 150.875 118.378 152.438 117.94 154.07C117.511 155.674 116.543 156.89 115.036 157.72C113.542 158.543 111.938 158.755 110.225 158.357L110.211 158.353C110.211 158.353 110.206 158.352 110.197 158.349L110.169 158.342C110.062 158.323 110.004 158.313 109.995 158.31C109.995 158.31 109.968 158.298 109.914 158.274L105.768 157.163L103.944 163.968C103.821 164.431 103.555 164.779 103.149 165.014C102.73 165.256 102.29 165.315 101.828 165.191C101.365 165.067 101.018 164.797 100.786 164.381C100.542 163.972 100.481 163.536 100.605 163.074L105.159 146.08C105.282 145.618 105.552 145.271 105.969 145.039C106.378 144.795 106.813 144.734 107.276 144.858ZM124.292 163.021L129.74 164.481L128.768 157.184L124.292 163.021ZM117.972 169.517C117.755 169.458 117.554 169.359 117.369 169.219C116.993 168.926 116.772 168.543 116.706 168.07C116.65 167.6 116.764 167.176 117.048 166.797L120.001 162.963C120.001 162.963 120.002 162.958 120.005 162.949L128.578 151.779C128.61 151.737 128.646 151.696 128.687 151.657C128.687 151.657 128.703 151.636 128.734 151.594C128.773 151.564 128.798 151.545 128.81 151.538C128.812 151.529 128.833 151.509 128.871 151.479C128.907 151.458 128.931 151.444 128.943 151.437C128.945 151.428 128.965 151.413 129.001 151.392C129.048 151.364 129.074 151.346 129.076 151.337C129.088 151.33 129.111 151.321 129.144 151.309C129.192 151.282 129.221 151.269 129.23 151.272C129.221 151.269 129.243 151.26 129.298 151.244C129.343 151.226 129.372 151.214 129.384 151.207C129.384 151.207 129.407 151.198 129.452 151.179C129.507 151.164 129.539 151.157 129.548 151.16C129.569 151.155 129.606 151.15 129.659 151.144C129.713 151.128 129.73 151.122 129.709 151.127C129.687 151.131 129.709 151.127 129.773 151.114C129.822 151.117 129.858 151.116 129.879 151.112C129.889 151.115 129.924 151.114 129.986 151.11L130.046 151.111C130.065 151.116 130.1 151.12 130.149 151.124C130.199 151.127 130.224 151.128 130.224 151.128C130.233 151.131 130.261 151.139 130.309 151.151C130.346 151.161 130.37 151.168 130.379 151.17C130.398 151.175 130.427 151.183 130.464 151.193C130.521 151.208 130.549 151.216 130.549 151.216C130.549 151.216 130.576 151.228 130.63 151.253C130.675 151.275 130.697 151.286 130.697 151.286C130.716 151.291 130.747 151.309 130.789 151.34C130.843 151.365 130.86 151.375 130.842 151.37C130.947 151.428 131.04 151.499 131.119 151.581C131.112 151.569 131.128 151.583 131.168 151.624C131.207 151.665 131.231 151.691 131.237 151.703C131.237 151.703 131.252 151.723 131.283 151.761C131.313 151.799 131.331 151.825 131.338 151.837C131.348 151.839 131.363 151.858 131.383 151.894C131.404 151.93 131.423 151.955 131.439 151.97C131.436 151.979 131.446 152.002 131.466 152.038C131.494 152.085 131.506 152.114 131.504 152.124L131.531 152.192C131.559 152.239 131.571 152.268 131.569 152.277C131.566 152.287 131.574 152.314 131.592 152.36C131.611 152.405 131.618 152.432 131.616 152.442C131.632 152.496 131.642 152.55 131.649 152.602L133.489 166.562C133.486 166.571 133.485 166.576 133.485 166.576L134.126 171.373C134.182 171.843 134.068 172.268 133.785 172.647C133.492 173.023 133.109 173.244 132.636 173.309C132.406 173.339 132.182 173.324 131.966 173.266C131.22 173.067 130.798 172.584 130.7 171.82L130.221 168.173L122.029 165.978L119.791 168.897C119.323 169.51 118.717 169.716 117.972 169.517ZM139.626 174.788C139.216 175.032 138.781 175.092 138.319 174.968C137.856 174.845 137.509 174.575 137.277 174.159C137.033 173.749 136.972 173.314 137.096 172.851L141.619 155.971C141.743 155.509 142.013 155.162 142.429 154.93C142.838 154.685 143.274 154.625 143.736 154.749C144.199 154.873 144.546 155.143 144.778 155.559C145.022 155.968 145.082 156.404 144.959 156.866L140.436 173.746C140.312 174.208 140.042 174.556 139.626 174.788ZM158.411 179.048C156.723 179.425 155.049 179.391 153.389 178.946C150.596 178.198 148.475 176.568 147.025 174.056C145.575 171.544 145.224 168.892 145.972 166.1C146.72 163.308 148.349 161.192 150.858 159.751C153.37 158.301 156.022 157.95 158.814 158.698C161.106 159.312 162.971 160.56 164.408 162.441C164.7 162.823 164.817 163.254 164.759 163.734C164.694 164.202 164.471 164.582 164.09 164.874C163.708 165.166 163.283 165.279 162.815 165.215C162.336 165.157 161.95 164.937 161.658 164.556C160.691 163.296 159.444 162.461 157.915 162.052C156.048 161.551 154.272 161.783 152.588 162.747C150.911 163.723 149.824 165.141 149.326 166.999C148.825 168.867 149.057 170.642 150.021 172.326C150.997 174.003 152.419 175.092 154.287 175.592C156.032 176.06 157.709 175.877 159.317 175.045C159.341 175.031 159.382 175.011 159.439 174.986L160.446 171.283L154.914 169.8C154.442 169.674 154.089 169.408 153.854 169.001C153.613 168.582 153.554 168.142 153.678 167.68C153.801 167.217 154.073 166.866 154.491 166.624C154.9 166.38 155.341 166.321 155.813 166.447L163.029 168.381C163.491 168.505 163.843 168.776 164.085 169.194C164.326 169.613 164.385 170.053 164.261 170.516L161.815 179.475C161.691 179.937 161.421 180.284 161.005 180.517C160.596 180.761 160.16 180.821 159.698 180.697L159.684 180.693C159.307 180.592 158.999 180.383 158.76 180.067C158.528 179.762 158.412 179.422 158.411 179.048ZM179.28 185.383C179.252 185.335 179.229 185.288 179.211 185.243C179.201 185.241 179.197 185.239 179.197 185.239C179.197 185.239 179.198 185.235 179.201 185.225L172.534 169.411L169.3 181.48C169.176 181.943 168.906 182.29 168.49 182.522C168.081 182.766 167.645 182.827 167.183 182.703C166.721 182.579 166.374 182.309 166.141 181.893C165.897 181.484 165.837 181.048 165.961 180.586L170.503 163.635C170.599 163.276 170.789 162.983 171.072 162.756C171.358 162.519 171.686 162.39 172.056 162.368C172.419 162.333 172.761 162.415 173.082 162.612C173.394 162.807 173.62 163.075 173.761 163.416L180.424 179.244L183.662 167.161C183.786 166.699 184.051 166.35 184.457 166.115C184.876 165.874 185.317 165.815 185.779 165.939C186.241 166.062 186.588 166.332 186.82 166.748C187.065 167.158 187.125 167.593 187.001 168.056L182.451 185.035C182.446 185.054 182.434 185.081 182.415 185.116C182.404 185.154 182.398 185.177 182.396 185.187C182.39 185.205 182.378 185.232 182.359 185.268C182.349 185.305 182.336 185.332 182.322 185.349C182.322 185.349 182.311 185.371 182.289 185.416C182.267 185.46 182.25 185.486 182.238 185.493C182.235 185.502 182.219 185.523 182.19 185.556C182.171 185.591 182.154 185.617 182.139 185.633C182.139 185.633 182.124 185.655 182.092 185.697C182.051 185.736 182.031 185.756 182.031 185.756C182.016 185.772 181.994 185.797 181.965 185.83L181.912 185.861C181.897 185.877 181.871 185.9 181.832 185.93C181.794 185.96 181.775 185.976 181.775 185.976C181.763 185.982 181.739 185.996 181.703 186.017C181.664 186.047 181.641 186.061 181.631 186.058C181.629 186.068 181.605 186.082 181.559 186.1C181.523 186.121 181.495 186.133 181.473 186.138C181.507 186.126 181.501 186.13 181.456 186.148C181.456 186.148 181.45 186.151 181.438 186.158C181.347 186.195 181.264 186.223 181.187 186.243C181.178 186.24 181.173 186.239 181.173 186.239C181.088 186.257 181.003 186.269 180.92 186.277C180.878 186.286 180.867 186.288 180.888 186.284C180.805 186.292 180.72 186.289 180.633 186.276C180.633 186.276 180.617 186.277 180.586 186.279C180.499 186.266 180.417 186.249 180.342 186.229C180.285 186.213 180.225 186.192 180.162 186.165C180.178 186.18 180.169 186.177 180.134 186.158C180.079 186.133 180.035 186.111 180 186.091C180.007 186.103 179.989 186.094 179.947 186.062C179.902 186.04 179.867 186.02 179.841 186.003C179.832 186.001 179.815 185.986 179.792 185.96C179.748 185.938 179.714 185.914 179.69 185.887C179.672 185.882 179.655 185.868 179.641 185.844C179.609 185.815 179.579 185.792 179.554 185.775C179.53 185.748 179.515 185.729 179.508 185.717C179.485 185.691 179.459 185.658 179.428 185.62C179.405 185.593 179.39 185.574 179.383 185.562C179.346 185.512 179.314 185.463 179.286 185.415C179.286 185.415 179.283 185.409 179.276 185.397C179.276 185.397 179.277 185.392 179.28 185.383Z" fill="white"/>
</g>
<defs>
<clipPath id="clip0_224_245">
<rect width="225" height="375" rx="6" fill="white"/>
</clipPath>
<clipPath id="clip1_224_245">
<rect width="64" height="64" fill="white" transform="translate(119.471 50.4707) rotate(-30)"/>
</clipPath>
<clipPath id="clip2_224_245">
<rect width="128" height="128" fill="white" transform="translate(50 204) rotate(30)"/>
</clipPath>
</defs>
</svg>
