<svg width="900" height="1500" viewBox="0 0 900 1500" fill="none" xmlns="http://www.w3.org/2000/svg">
<rect width="900" height="1500" rx="20" fill="#242424"/>
<rect width="900" height="1500" rx="20" fill="white" fill-opacity="0.1"/>
<g clip-path="url(#clip0_191_89)">
<rect x="60" y="60" width="780" height="1380" rx="20" fill="#141414"/>
<rect x="60" y="60" width="780" height="1380" rx="20" fill="white" fill-opacity="0.2"/>
<g opacity="0.5">
<path d="M588.674 1415.73C586.271 1417.91 583.447 1419 580.201 1419C576.744 1419 573.785 1417.78 571.324 1415.33C568.875 1412.87 567.65 1409.91 567.65 1406.45C567.65 1402.98 568.875 1400.02 571.324 1397.57C573.785 1395.11 576.744 1393.88 580.201 1393.88C583.049 1393.88 585.604 1394.75 587.865 1396.48C588.311 1396.83 588.574 1397.29 588.656 1397.85C588.727 1398.43 588.586 1398.94 588.234 1399.4C587.883 1399.86 587.426 1400.12 586.863 1400.19C586.289 1400.26 585.773 1400.13 585.316 1399.79C583.816 1398.63 582.111 1398.05 580.201 1398.05C577.893 1398.05 575.918 1398.87 574.277 1400.51C572.637 1402.15 571.816 1404.13 571.816 1406.45C571.816 1408.76 572.637 1410.73 574.277 1412.37C575.918 1414.01 577.893 1414.83 580.201 1414.83C582.381 1414.83 584.268 1414.11 585.861 1412.65C586.283 1412.27 586.781 1412.09 587.355 1412.11C587.93 1412.13 588.41 1412.36 588.797 1412.79C589.184 1413.22 589.365 1413.71 589.342 1414.29C589.318 1414.86 589.096 1415.34 588.674 1415.73ZM594.053 1394.41C594.451 1394 594.937 1393.79 595.512 1393.79C596.086 1393.79 596.572 1394 596.971 1394.41C597.381 1394.81 597.586 1395.29 597.586 1395.87V1414.85H606.885C607.459 1414.85 607.951 1415.06 608.361 1415.47C608.76 1415.87 608.959 1416.35 608.959 1416.93C608.959 1417.5 608.76 1417.99 608.361 1418.38C607.951 1418.79 607.459 1419 606.885 1419H595.512C594.937 1419 594.451 1418.79 594.053 1418.38C593.643 1417.99 593.437 1417.5 593.437 1416.93V1395.87C593.437 1395.29 593.643 1394.81 594.053 1394.41ZM618.152 1409.51H624.92L621.527 1401.35L618.152 1409.51ZM612.844 1419C612.574 1419 612.311 1418.95 612.053 1418.84C611.525 1418.62 611.15 1418.24 610.928 1417.72C610.717 1417.19 610.717 1416.66 610.928 1416.13L613.16 1410.77C613.16 1410.77 613.16 1410.77 613.16 1410.76L619.629 1395.15C619.652 1395.09 619.682 1395.03 619.717 1394.97C619.717 1394.97 619.729 1394.94 619.752 1394.88C619.787 1394.84 619.811 1394.81 619.822 1394.79C619.822 1394.78 619.84 1394.75 619.875 1394.71C619.91 1394.67 619.934 1394.65 619.945 1394.64C619.945 1394.62 619.963 1394.6 619.998 1394.57C620.045 1394.52 620.068 1394.49 620.068 1394.48C620.08 1394.47 620.104 1394.45 620.139 1394.43C620.186 1394.38 620.215 1394.36 620.227 1394.36C620.215 1394.36 620.238 1394.34 620.297 1394.3C620.344 1394.27 620.373 1394.24 620.385 1394.23C620.385 1394.23 620.408 1394.21 620.455 1394.18C620.514 1394.14 620.549 1394.13 620.561 1394.13C620.584 1394.12 620.625 1394.1 620.684 1394.07C620.742 1394.04 620.76 1394.03 620.736 1394.04C620.713 1394.05 620.736 1394.04 620.807 1394C620.865 1393.99 620.906 1393.98 620.93 1393.97C620.941 1393.97 620.982 1393.96 621.053 1393.93L621.123 1393.92C621.146 1393.92 621.187 1393.91 621.246 1393.9C621.305 1393.89 621.334 1393.88 621.334 1393.88C621.346 1393.88 621.381 1393.88 621.439 1393.88C621.486 1393.88 621.516 1393.88 621.527 1393.88C621.551 1393.88 621.586 1393.88 621.633 1393.88C621.703 1393.88 621.738 1393.88 621.738 1393.88C621.738 1393.88 621.773 1393.89 621.844 1393.9C621.902 1393.91 621.932 1393.92 621.932 1393.92C621.955 1393.92 621.996 1393.93 622.055 1393.95C622.125 1393.96 622.148 1393.97 622.125 1393.97C622.266 1394 622.395 1394.06 622.512 1394.13C622.5 1394.12 622.523 1394.13 622.582 1394.16C622.641 1394.2 622.676 1394.22 622.687 1394.23C622.687 1394.23 622.711 1394.25 622.758 1394.29C622.805 1394.32 622.834 1394.34 622.846 1394.36C622.857 1394.36 622.881 1394.37 622.916 1394.41C622.951 1394.44 622.98 1394.47 623.004 1394.48C623.004 1394.49 623.021 1394.51 623.057 1394.55C623.104 1394.6 623.127 1394.62 623.127 1394.64L623.18 1394.71C623.227 1394.75 623.25 1394.78 623.25 1394.79C623.25 1394.81 623.268 1394.84 623.303 1394.88C623.338 1394.93 623.355 1394.96 623.355 1394.97C623.391 1395.03 623.42 1395.09 623.443 1395.15L629.912 1410.76C629.912 1410.77 629.912 1410.77 629.912 1410.77L632.145 1416.13C632.355 1416.66 632.355 1417.19 632.145 1417.72C631.922 1418.24 631.547 1418.62 631.02 1418.84C630.762 1418.95 630.498 1419 630.229 1419C629.303 1419 628.664 1418.57 628.312 1417.72L626.625 1413.64H616.447L614.76 1417.72C614.408 1418.57 613.77 1419 612.844 1419ZM650.232 1406.84C651.486 1408.16 652.072 1409.71 651.99 1411.49C651.896 1413.59 651.059 1415.37 649.477 1416.82C647.883 1418.27 645.984 1419 643.781 1419C641.871 1419 640.16 1418.59 638.648 1417.77C636.832 1416.79 635.678 1415.36 635.186 1413.48C635.045 1412.93 635.115 1412.41 635.396 1411.92C635.689 1411.42 636.111 1411.11 636.662 1410.97C637.213 1410.83 637.734 1410.9 638.227 1411.18C638.719 1411.47 639.035 1411.89 639.176 1412.44C639.387 1413.23 639.961 1413.84 640.898 1414.29C641.742 1414.68 642.703 1414.87 643.781 1414.87C644.883 1414.87 645.826 1414.52 646.611 1413.83C647.408 1413.15 647.83 1412.31 647.877 1411.3C647.9 1410.69 647.684 1410.15 647.227 1409.67C646.5 1408.89 645.281 1408.49 643.57 1408.47H643.553C643.506 1408.47 643.494 1408.47 643.518 1408.47C643.506 1408.47 643.494 1408.47 643.482 1408.47C640.611 1408.42 638.414 1407.6 636.891 1405.99C635.637 1404.66 635.051 1403.1 635.133 1401.33C635.227 1399.22 636.064 1397.44 637.646 1395.99C639.229 1394.54 641.127 1393.81 643.342 1393.81C645.252 1393.81 646.963 1394.22 648.475 1395.04C650.291 1396.03 651.445 1397.46 651.937 1399.33C652.078 1399.88 652.002 1400.4 651.709 1400.89C651.428 1401.39 651.012 1401.7 650.461 1401.84C649.91 1401.98 649.389 1401.91 648.896 1401.63C648.404 1401.34 648.088 1400.92 647.947 1400.37C647.736 1399.58 647.156 1398.97 646.207 1398.52C645.375 1398.13 644.42 1397.94 643.342 1397.94C642.24 1397.94 641.291 1398.29 640.494 1398.98C639.709 1399.67 639.293 1400.51 639.246 1401.51C639.223 1402.12 639.439 1402.67 639.896 1403.16C640.623 1403.92 641.842 1404.32 643.553 1404.34H643.641C646.512 1404.39 648.709 1405.22 650.232 1406.84ZM675.246 1418.38C674.836 1418.79 674.344 1419 673.77 1419C673.195 1419 672.703 1418.79 672.293 1418.38C671.883 1417.97 671.678 1417.48 671.678 1416.91V1408.49H660.85V1416.91C660.85 1417.48 660.65 1417.97 660.252 1418.38C659.842 1418.79 659.35 1419 658.775 1419C658.201 1419 657.709 1418.79 657.299 1418.38C656.889 1417.97 656.684 1417.48 656.684 1416.91V1395.9C656.684 1395.33 656.889 1394.84 657.299 1394.43C657.709 1394.02 658.201 1393.81 658.775 1393.81C659.35 1393.81 659.842 1394.02 660.252 1394.43C660.65 1394.84 660.85 1395.33 660.85 1395.9V1404.32H671.678V1395.9C671.678 1395.33 671.883 1394.84 672.293 1394.43C672.703 1394.02 673.195 1393.81 673.77 1393.81C674.344 1393.81 674.836 1394.02 675.246 1394.43C675.656 1394.84 675.861 1395.33 675.861 1395.9V1416.91C675.861 1417.48 675.656 1417.97 675.246 1418.38Z" fill="white"/>
<path d="M696.646 1413.64C697.361 1414.35 698.223 1414.71 699.23 1414.71C700.238 1414.71 701.1 1414.35 701.814 1413.64C702.518 1412.92 702.869 1412.06 702.869 1411.05C702.869 1410.05 702.518 1409.19 701.814 1408.47C701.1 1407.77 700.238 1407.42 699.23 1407.42C698.223 1407.42 697.361 1407.77 696.646 1408.47C695.932 1409.19 695.574 1410.05 695.574 1411.05C695.574 1412.06 695.932 1412.92 696.646 1413.64ZM702.271 1398.61C701.873 1398.2 701.393 1397.99 700.83 1397.99C700.256 1397.99 699.77 1398.2 699.371 1398.61C698.973 1399.01 698.773 1399.49 698.773 1400.05C698.773 1400.61 698.973 1401.1 699.371 1401.51C699.77 1401.91 700.256 1402.11 700.83 1402.11C701.393 1402.11 701.873 1401.91 702.271 1401.51C702.67 1401.1 702.869 1400.61 702.869 1400.05C702.869 1399.49 702.67 1399.01 702.271 1398.61ZM704.873 1404.94L712.432 1415.29C712.783 1415.77 712.912 1416.3 712.818 1416.89C712.725 1417.48 712.443 1417.95 711.975 1418.3C711.6 1418.57 711.178 1418.7 710.709 1418.7C709.982 1418.7 709.402 1418.41 708.969 1417.82L706.437 1414.36C705.805 1415.75 704.85 1416.87 703.572 1417.7C702.248 1418.57 700.801 1419 699.23 1419C697.039 1419 695.164 1418.23 693.605 1416.68C692.059 1415.12 691.285 1413.25 691.285 1411.05C691.285 1409.51 691.701 1408.08 692.533 1406.78C693.354 1405.52 694.437 1404.56 695.785 1403.9C694.918 1402.76 694.484 1401.48 694.484 1400.05C694.484 1398.3 695.1 1396.81 696.33 1395.57C697.572 1394.33 699.072 1393.71 700.83 1393.71C702.576 1393.71 704.07 1394.33 705.312 1395.57C706.543 1396.81 707.158 1398.3 707.158 1400.05C707.158 1402.03 706.396 1403.66 704.873 1404.94Z" fill="white"/>
<path d="M746.783 1415.73C744.381 1417.91 741.557 1419 738.311 1419C734.854 1419 731.895 1417.78 729.434 1415.33C726.984 1412.87 725.76 1409.91 725.76 1406.45C725.76 1402.98 726.984 1400.02 729.434 1397.57C731.895 1395.11 734.854 1393.88 738.311 1393.88C741.158 1393.88 743.713 1394.75 745.975 1396.48C746.42 1396.83 746.684 1397.29 746.766 1397.85C746.836 1398.43 746.695 1398.94 746.344 1399.4C745.992 1399.86 745.535 1400.12 744.973 1400.19C744.398 1400.26 743.883 1400.13 743.426 1399.79C741.926 1398.63 740.221 1398.05 738.311 1398.05C736.002 1398.05 734.027 1398.87 732.387 1400.51C730.746 1402.15 729.926 1404.13 729.926 1406.45C729.926 1408.76 730.746 1410.73 732.387 1412.37C734.027 1414.01 736.002 1414.83 738.311 1414.83C740.49 1414.83 742.377 1414.11 743.971 1412.65C744.393 1412.27 744.891 1412.09 745.465 1412.11C746.039 1412.13 746.52 1412.36 746.906 1412.79C747.293 1413.22 747.475 1413.71 747.451 1414.29C747.428 1414.86 747.205 1415.34 746.783 1415.73ZM757.312 1409.51H764.08L760.687 1401.35L757.312 1409.51ZM752.004 1419C751.734 1419 751.471 1418.95 751.213 1418.84C750.686 1418.62 750.311 1418.24 750.088 1417.72C749.877 1417.19 749.877 1416.66 750.088 1416.13L752.32 1410.77C752.32 1410.77 752.32 1410.77 752.32 1410.76L758.789 1395.15C758.812 1395.09 758.842 1395.03 758.877 1394.97C758.877 1394.97 758.889 1394.94 758.912 1394.88C758.947 1394.84 758.971 1394.81 758.982 1394.79C758.982 1394.78 759 1394.75 759.035 1394.71C759.07 1394.67 759.094 1394.65 759.105 1394.64C759.105 1394.62 759.123 1394.6 759.158 1394.57C759.205 1394.52 759.229 1394.49 759.229 1394.48C759.24 1394.47 759.264 1394.45 759.299 1394.43C759.346 1394.38 759.375 1394.36 759.387 1394.36C759.375 1394.36 759.398 1394.34 759.457 1394.3C759.504 1394.27 759.533 1394.24 759.545 1394.23C759.545 1394.23 759.568 1394.21 759.615 1394.18C759.674 1394.14 759.709 1394.13 759.721 1394.13C759.744 1394.12 759.785 1394.1 759.844 1394.07C759.902 1394.04 759.92 1394.03 759.896 1394.04C759.873 1394.05 759.896 1394.04 759.967 1394C760.025 1393.99 760.066 1393.98 760.09 1393.97C760.102 1393.97 760.143 1393.96 760.213 1393.93L760.283 1393.92C760.307 1393.92 760.348 1393.91 760.406 1393.9C760.465 1393.89 760.494 1393.88 760.494 1393.88C760.506 1393.88 760.541 1393.88 760.6 1393.88C760.646 1393.88 760.676 1393.88 760.687 1393.88C760.711 1393.88 760.746 1393.88 760.793 1393.88C760.863 1393.88 760.898 1393.88 760.898 1393.88C760.898 1393.88 760.934 1393.89 761.004 1393.9C761.062 1393.91 761.092 1393.92 761.092 1393.92C761.115 1393.92 761.156 1393.93 761.215 1393.95C761.285 1393.96 761.309 1393.97 761.285 1393.97C761.426 1394 761.555 1394.06 761.672 1394.13C761.66 1394.12 761.684 1394.13 761.742 1394.16C761.801 1394.2 761.836 1394.22 761.848 1394.23C761.848 1394.23 761.871 1394.25 761.918 1394.29C761.965 1394.32 761.994 1394.34 762.006 1394.36C762.018 1394.36 762.041 1394.37 762.076 1394.41C762.111 1394.44 762.141 1394.47 762.164 1394.48C762.164 1394.49 762.182 1394.51 762.217 1394.55C762.264 1394.6 762.287 1394.62 762.287 1394.64L762.34 1394.71C762.387 1394.75 762.41 1394.78 762.41 1394.79C762.41 1394.81 762.428 1394.84 762.463 1394.88C762.498 1394.93 762.516 1394.96 762.516 1394.97C762.551 1395.03 762.58 1395.09 762.604 1395.15L769.072 1410.76C769.072 1410.77 769.072 1410.77 769.072 1410.77L771.305 1416.13C771.516 1416.66 771.516 1417.19 771.305 1417.72C771.082 1418.24 770.707 1418.62 770.18 1418.84C769.922 1418.95 769.658 1419 769.389 1419C768.463 1419 767.824 1418.57 767.473 1417.72L765.785 1413.64H755.607L753.92 1417.72C753.568 1418.57 752.93 1419 752.004 1419ZM779.268 1404.27H784.611C785.596 1404.23 786.439 1403.91 787.143 1403.3C787.834 1402.68 788.18 1401.94 788.18 1401.09C788.18 1400.2 787.816 1399.44 787.09 1398.82C786.363 1398.2 785.49 1397.89 784.471 1397.89H779.268V1404.27ZM790.008 1395.9C791.543 1397.33 792.311 1399.06 792.311 1401.09C792.311 1402.63 791.83 1404.04 790.869 1405.29C789.943 1406.53 788.725 1407.42 787.213 1407.94L791.203 1416.03C791.449 1416.53 791.479 1417.05 791.291 1417.59C791.115 1418.13 790.77 1418.53 790.254 1418.79C789.961 1418.93 789.656 1419 789.34 1419C788.484 1419 787.869 1418.61 787.494 1417.84L782.836 1408.4H779.268V1416.79C779.268 1417.35 779.062 1417.83 778.652 1418.24C778.254 1418.64 777.768 1418.84 777.193 1418.84C776.631 1418.84 776.145 1418.64 775.734 1418.24C775.336 1417.83 775.137 1417.35 775.137 1416.79V1395.83C775.137 1395.26 775.336 1394.77 775.734 1394.37C776.145 1393.96 776.631 1393.76 777.193 1393.76H784.471C786.639 1393.76 788.484 1394.47 790.008 1395.9ZM800.924 1397.96V1414.82L804.141 1414.76C806.473 1414.76 808.459 1413.94 810.1 1412.3C811.74 1410.66 812.561 1408.68 812.561 1406.36C812.561 1404.05 811.74 1402.08 810.1 1400.44C808.459 1398.79 806.479 1397.96 804.158 1397.96H800.924ZM798.867 1419H798.832C798.27 1419 797.783 1418.8 797.373 1418.4C796.963 1417.99 796.758 1417.5 796.758 1416.93V1395.88C796.758 1395.31 796.963 1394.82 797.373 1394.41C797.771 1394.01 798.258 1393.81 798.832 1393.81H804.158C807.627 1393.81 810.592 1395.04 813.053 1397.48C815.502 1399.95 816.727 1402.9 816.727 1406.36C816.727 1409.83 815.502 1412.79 813.053 1415.24C810.592 1417.7 807.627 1418.93 804.158 1418.93L798.867 1419Z" fill="white"/>
</g>
<path opacity="0.02" d="M380.892 512.004C377.073 514.126 371.134 516.954 367.315 518.227C359.113 520.772 232.258 521.762 212.035 519.358C177.104 514.974 152.638 502.105 116.01 469.154L91.9679 447.375L49.8244 447.092L7.68081 447.092L2.44822 440.162C-4.48143 430.97 -3.91575 421.636 4.14527 413.575C9.80213 407.918 11.2163 407.635 58.7339 407.918L107.383 407.918L123.788 422.626C170.174 464.204 182.619 472.406 206.661 477.78C223.773 481.882 350.486 482.164 357.982 478.346C374.669 469.861 369.154 447.375 349.496 444.405C335.496 442.284 327.576 430.404 331.96 418.101C335.778 407.494 341.859 405.373 368.447 404.807C390.367 404.383 392.913 403.817 398.004 398.726C402.671 394.059 403.519 391.513 402.954 384.725C402.105 375.108 397.155 370.724 384.852 368.603C369.154 365.916 361.376 349.935 370.002 337.349C374.669 330.419 379.902 328.864 400.832 328.298C415.257 328.015 418.651 327.167 423.035 322.783C429.965 315.853 429.965 305.671 423.035 298.741C418.934 294.64 415.116 293.65 401.822 293.084C387.68 292.518 384.852 291.67 379.76 286.579C375.235 282.053 373.962 279.083 373.962 272.578C373.962 262.113 380.043 255.749 392.63 252.779C404.933 249.809 409.742 244.718 409.883 234.394C409.883 225.626 406.63 220.959 399.135 218.555C396.59 217.707 368.447 216.999 336.485 216.717C280.058 216.575 278.503 216.434 272.846 210.777C264.078 202.009 263.795 192.109 272.28 183.624C278.644 177.26 279.21 177.26 312.444 177.119L345.819 177.119L344.971 171.462C343.132 161.704 337.051 152.794 328.566 147.703C322.06 144.026 313.01 143.46 266.906 143.46C192.801 143.743 186.013 146.006 141.607 185.604C127.606 197.908 113.747 209.787 111.201 211.767C107.524 214.312 97.6248 215.444 75.1388 215.302C45.7231 215.302 43.7432 215.019 38.2278 209.504C33.4195 204.696 32.571 202.15 32.9952 194.938C33.8438 179.381 40.3491 175.987 71.0376 175.846L92.1094 175.704L116.858 153.784C146.274 127.763 162.537 117.439 187.003 109.661C202.559 104.852 211.186 104.145 266.906 104.145C324.04 103.862 330.404 104.287 341.011 109.236C363.921 119.702 381.033 141.905 384.144 165.381L385.559 176.694L395.317 177.401C433.359 179.806 458.815 215.161 448.067 250.799L444.249 263.386L451.461 270.598C466.169 285.306 471.543 306.236 466.169 327.167C463.765 336.359 461.926 339.046 451.178 349.794L438.875 362.098L441.703 371.432C445.238 382.887 443.824 399.292 438.45 410.605C433.642 420.788 420.914 434.081 411.297 438.89C405.641 441.718 404.651 442.991 405.641 445.112C408.328 450.345 407.62 473.679 404.509 482.447C400.549 493.478 390.226 506.348 380.892 512.004Z" fill="white"/>
<g opacity="0.02">
<path d="M-25.4764 1051.75C-22.6927 1048.54 -10.154 1036.47 2.58775 1025.01C55.5435 976.939 74.7087 970.041 151.514 970.85C195.716 971.225 196.316 971.222 207.545 976.764C230 987.65 246.715 1010.17 249.028 1032.35C249.661 1038.75 250.877 1041.94 252.677 1041.94C254.277 1041.93 295.231 1032.72 343.973 1021.27C418.286 1003.89 434.27 1000.81 444.274 1001.56C494.093 1005.11 516.194 1064.19 481.377 1100.17C476.8 1104.79 469.029 1110.43 464.039 1112.46C459.051 1114.68 433.684 1121.41 407.914 1127.35C382.144 1133.28 360.371 1138.59 359.375 1139.39C358.578 1140 381.409 1146.08 409.845 1152.94C465.712 1166.05 473.729 1169.41 485.804 1183.95C499.89 1200.88 502.617 1225.86 492.322 1246.32C485.592 1260.15 478.228 1267.19 463.662 1274.06C447.501 1281.75 436.896 1280.8 374.817 1265.32C344.777 1257.67 318.946 1251.6 317.346 1251.61C315.746 1251.62 314.556 1253.62 314.57 1256.22C314.658 1273.62 299.179 1297.3 283.017 1304.78L274.835 1308.43L276.308 1322.82C277.163 1333.61 276.595 1339.82 274.234 1347.43C269.703 1361.05 256.18 1376.12 242.81 1382.19C232.235 1387.04 231.635 1387.05 166.235 1387.18C105.036 1387.49 99.0337 1387.12 84.8135 1383.19C65.5873 1378.09 47.9437 1369.58 42.9122 1363.41C37.0735 1355.84 37.8226 1345.83 44.9858 1338.6C50.3592 1333.37 52.1562 1332.76 59.5601 1333.52C64.1621 1333.9 73.5763 1336.65 80.1915 1339.62C97.8289 1346.93 113.838 1348.65 169.637 1348.36C222.236 1348.09 230.23 1346.85 234.787 1338.43C241.126 1326.4 233.861 1313.63 219.65 1311.51C208.841 1309.76 201.21 1303.6 199.568 1295.41C198.129 1287.82 202.477 1277.59 208.46 1274.16C210.655 1273.15 222.849 1272.09 235.649 1272.03C252.449 1271.94 260.445 1271.1 264.633 1268.88C276.602 1262.62 277.942 1250.81 267.69 1240.66C261.458 1234.49 259.655 1233.9 249.655 1233.95C235.256 1234.03 226.22 1227.07 225.762 1215.67C225.519 1207.28 230.475 1198.65 237.462 1196.01C245.646 1192.77 261.65 1193.69 273.872 1197.83C290.502 1203.74 434.884 1239.01 441.883 1238.97C450.883 1238.93 458.44 1230.49 458.389 1220.49C458.314 1205.69 458.714 1205.69 356.989 1181.41C306.527 1169.26 262.669 1158.09 259.662 1156.7C248.834 1151.16 245.954 1135.57 254.109 1126.73C259.68 1120.9 253.488 1122.53 360.561 1097.39C408.904 1086.14 449.652 1075.73 451.245 1074.32C457.021 1069.69 459.771 1059.88 457.337 1053.09C455.104 1046.7 446.675 1040.95 439.875 1040.98C437.675 1040.99 396.122 1050.4 347.38 1061.85L258.685 1082.71L213.086 1082.94L167.287 1083.37L161.454 1076.8C155.017 1069.63 154.183 1063.04 158.341 1054.62C162.5 1046.59 169.488 1044.36 190.488 1044.25L209.488 1044.16L209.458 1038.36C209.425 1031.76 202.772 1021.39 194.741 1015.43C189.522 1011.66 185.92 1011.28 148.118 1010.87C84.9133 1010.19 74.7328 1014.04 27.9453 1055.88C1.06796 1080.02 -3.31569 1083.24 -9.51561 1083.27C-18.7155 1083.32 -23.5297 1080.54 -27.3663 1073.36C-31.8091 1064.98 -31.2417 1058.58 -25.4764 1051.75Z" fill="white"/>
</g>
<g opacity="0.02">
<path d="M467.364 862.881C458.172 847.749 455.768 825.828 461.849 810.979C464.536 804.615 464.253 804.332 454.636 793.302C443.181 780.149 439.08 768.129 440.353 751.017C441.484 736.309 448.131 723.722 460.152 713.116L469.768 704.63L466.798 697.135C462.839 686.67 463.404 671.114 468.213 658.951C475.284 640.284 497.487 623.172 515.872 622.323C520.68 622.04 520.68 621.757 519.549 617.798C516.862 608.888 518.7 589.513 523.084 580.604C529.872 566.745 544.156 553.592 556.884 549.35C571.45 544.4 808.472 542.703 831.241 547.37C851.747 551.471 868.152 558.259 884.84 569.573C901.669 581.028 962.763 633.637 966.44 639.859C975.774 655.416 954.702 676.205 939.711 666.305C937.166 664.608 921.61 651.88 905.346 637.879C889.083 623.879 872.536 609.878 868.577 606.767C856.697 597.716 838.737 589.372 824.029 586.544C815.826 584.846 762.369 584.281 689.961 584.846C577.673 585.978 569.329 586.402 564.803 590.928C557.874 597.857 556.601 601.393 559.005 608.322C562.682 620.485 564.238 620.626 629.574 620.909C685.153 621.05 692.507 621.616 696.608 625.717C706.508 635.617 705.801 650.466 694.911 657.396C691.376 659.8 664.506 660.931 602.987 661.638C553.348 662.063 514.175 663.618 511.77 665.174C506.538 668.144 502.437 679.033 504.275 685.114C507.952 696.994 509.225 697.135 601.29 697.276C649.373 697.276 690.951 698.408 693.638 699.681C703.679 704.348 707.356 718.49 701.134 727.823C696.325 734.612 688.689 737.157 673.415 736.874C667.051 736.733 623.352 737.157 576.117 737.723C495.648 738.713 490.274 738.996 485.325 743.946C478.254 751.017 478.395 761.057 485.608 768.27C490.699 773.644 494.093 773.644 589.269 773.22C643.292 772.937 689.679 773.503 692.083 774.21C700.285 776.755 704.104 782.554 704.104 792.736C704.104 803.201 700.285 808.716 690.81 811.686C687.557 812.676 649.232 813.383 605.533 813.242C520.397 812.959 508.942 813.666 503.002 819.606C494.658 827.95 497.487 842.375 508.376 847.325C511.346 848.597 568.198 849.446 634.666 849.163C750.914 848.597 755.722 848.597 760.672 853.83C764.066 857.224 766.046 861.749 766.47 866.982C767.036 873.77 766.187 876.033 760.672 881.548L754.167 888.054L703.538 888.337C635.656 888.902 641.03 888.054 643.292 897.388C645.414 906.58 655.879 917.894 664.506 920.581C672.425 923.126 810.311 922.136 823.887 919.591C836.05 917.328 838.878 917.894 846.091 925.106C854.293 933.309 851.889 949.006 841.424 955.229C833.645 959.896 810.028 961.452 737.196 961.876C651.778 962.441 647.111 961.734 626.605 942.925C612.18 929.632 605.674 917.752 603.412 901.065L601.997 889.751L553.49 889.609C502.154 889.468 494.093 887.912 479.244 875.892C475.001 872.498 469.627 866.558 467.364 862.881Z" fill="white"/>
</g>
</g>
<defs>
<clipPath id="clip0_191_89">
<rect x="60" y="60" width="780" height="1380" rx="20" fill="white"/>
</clipPath>
</defs>
</svg>
