<svg width="150" height="250" viewBox="0 0 150 250" fill="none" xmlns="http://www.w3.org/2000/svg">
<rect width="150" height="250" rx="6" fill="#242424"/>
<rect width="150" height="250" rx="6" fill="white" fill-opacity="0.1"/>
<rect x="10" y="10" width="130" height="230" rx="3" fill="#141414"/>
<rect x="10" y="10" width="130" height="230" rx="3" fill="white" fill-opacity="0.2"/>
<path d="M59.5332 86.0068L91.2665 117.74L96.9198 112.087L100.68 115.847L94.0932 122.434L102.573 130.914C103.613 131.954 103.613 133.634 102.573 134.674L100.68 136.567C99.6398 137.607 97.9598 137.607 96.9198 136.567L88.3332 128.114L81.8265 134.7L78.0665 130.94L83.7198 125.287L51.9865 93.5535V86.0068H59.5332ZM85.3732 106.167L98.0131 93.5268V86.0068H90.4665L77.8265 98.6468L85.3732 106.167ZM72.1731 119.5L64.6265 111.847L58.7332 117.74L53.0798 112.087L49.3198 115.847L55.9065 122.434L47.4265 130.94C46.3865 131.98 46.3865 133.66 47.4265 134.7L49.3198 136.594C50.3598 137.634 52.0398 137.634 53.0798 136.594L61.6665 128.114L68.1731 134.7L71.9332 130.94L66.2798 125.287L72.1731 119.5Z" fill="white"/>
<path d="M52.8828 159.391C53.112 159.281 53.349 159.268 53.5938 159.352C53.8333 159.44 54.0078 159.599 54.1172 159.828C54.2266 160.057 54.2396 160.292 54.1562 160.531L50.8672 169.883V169.891C50.8568 169.927 50.8411 169.966 50.8203 170.008C50.8099 170.018 50.8047 170.026 50.8047 170.031C50.7839 170.068 50.7604 170.102 50.7344 170.133C50.7448 170.117 50.7396 170.125 50.7188 170.156C50.6979 170.182 50.6745 170.208 50.6484 170.234C50.6328 170.25 50.6276 170.255 50.6328 170.25C50.6016 170.276 50.5703 170.302 50.5391 170.328C50.5443 170.323 50.5365 170.328 50.5156 170.344C50.4844 170.365 50.4531 170.383 50.4219 170.398C50.4062 170.404 50.401 170.406 50.4062 170.406C50.3698 170.422 50.3359 170.435 50.3047 170.445C50.2839 170.456 50.2812 170.458 50.2969 170.453C50.2656 170.464 50.2292 170.471 50.1875 170.477C50.1458 170.487 50.1328 170.49 50.1484 170.484C50.0964 170.495 50.0469 170.5 50 170.5C49.9531 170.5 49.9036 170.495 49.8516 170.484C49.8672 170.49 49.8542 170.487 49.8125 170.477C49.7708 170.471 49.737 170.464 49.7109 170.453C49.7214 170.458 49.7161 170.456 49.6953 170.445C49.6641 170.435 49.6328 170.422 49.6016 170.406C49.6016 170.406 49.5938 170.404 49.5781 170.398C49.5469 170.383 49.5156 170.365 49.4844 170.344C49.4844 170.339 49.4818 170.336 49.4766 170.336C49.4714 170.331 49.4688 170.328 49.4688 170.328C49.4323 170.302 49.401 170.276 49.375 170.25C49.375 170.255 49.3672 170.25 49.3516 170.234C49.3255 170.208 49.3021 170.18 49.2812 170.148C49.2708 170.138 49.2656 170.133 49.2656 170.133C49.2448 170.102 49.224 170.068 49.2031 170.031C49.1979 170.021 49.1927 170.013 49.1875 170.008C49.1667 169.966 49.1484 169.927 49.1328 169.891C49.1328 169.885 49.1328 169.883 49.1328 169.883L46.7188 163.008L44.3047 169.883C44.3047 169.883 44.3047 169.885 44.3047 169.891C44.2891 169.927 44.2708 169.966 44.25 170.008C44.2448 170.018 44.2396 170.026 44.2344 170.031C44.2135 170.068 44.1927 170.102 44.1719 170.133C44.1823 170.117 44.1771 170.125 44.1562 170.156C44.1302 170.182 44.1042 170.208 44.0781 170.234C44.0625 170.25 44.0573 170.255 44.0625 170.25C44.0365 170.276 44.0052 170.302 43.9688 170.328C43.9792 170.323 43.9714 170.328 43.9453 170.344C43.9141 170.365 43.8828 170.383 43.8516 170.398C43.8359 170.404 43.8307 170.406 43.8359 170.406C43.7995 170.422 43.7682 170.435 43.7422 170.445C43.7161 170.456 43.7109 170.458 43.7266 170.453C43.6953 170.464 43.6589 170.471 43.6172 170.477C43.5807 170.487 43.5677 170.49 43.5781 170.484C43.5312 170.495 43.4844 170.5 43.4375 170.5C43.3854 170.5 43.3359 170.495 43.2891 170.484C43.3047 170.49 43.2917 170.487 43.25 170.477C43.2083 170.471 43.1719 170.464 43.1406 170.453C43.1562 170.458 43.1536 170.456 43.1328 170.445C43.1016 170.435 43.0677 170.422 43.0312 170.406C43.0365 170.406 43.0312 170.404 43.0156 170.398C42.9844 170.383 42.9531 170.365 42.9219 170.344C42.9167 170.339 42.9115 170.336 42.9062 170.336C42.9062 170.331 42.9036 170.328 42.8984 170.328C42.8672 170.302 42.8359 170.276 42.8047 170.25C42.8099 170.255 42.8047 170.25 42.7891 170.234C42.763 170.208 42.737 170.18 42.7109 170.148C42.7057 170.138 42.7031 170.133 42.7031 170.133C42.6771 170.102 42.6536 170.068 42.6328 170.031C42.6276 170.021 42.6224 170.013 42.6172 170.008C42.5964 169.966 42.5807 169.927 42.5703 169.891C42.5651 169.885 42.5625 169.883 42.5625 169.883L39.2812 160.531C39.1979 160.292 39.2109 160.057 39.3203 159.828C39.4297 159.599 39.6042 159.44 39.8438 159.352C40.0833 159.268 40.3177 159.281 40.5469 159.391C40.776 159.505 40.9349 159.682 41.0234 159.922L43.4375 166.797L45.8516 159.922V159.914C45.8568 159.904 45.862 159.888 45.8672 159.867C45.8828 159.836 45.888 159.823 45.8828 159.828C45.888 159.828 45.8958 159.818 45.9062 159.797C45.9479 159.714 46 159.641 46.0625 159.578C46.1302 159.51 46.2083 159.453 46.2969 159.406C46.3177 159.396 46.3255 159.391 46.3203 159.391L46.3594 159.375C46.3854 159.365 46.401 159.359 46.4062 159.359C46.401 159.359 46.4036 159.357 46.4141 159.352C46.4089 159.357 46.4193 159.354 46.4453 159.344C46.4661 159.339 46.4818 159.333 46.4922 159.328C46.5026 159.328 46.5182 159.326 46.5391 159.32C46.5547 159.315 46.5677 159.312 46.5781 159.312C46.5885 159.312 46.6068 159.31 46.6328 159.305C46.6484 159.305 46.6615 159.305 46.6719 159.305H46.7578C46.7734 159.305 46.7917 159.307 46.8125 159.312H46.8516C46.862 159.312 46.8802 159.315 46.9062 159.32L46.9375 159.328C46.9531 159.333 46.974 159.339 47 159.344C47 159.349 47.0026 159.352 47.0078 159.352C47.013 159.352 47.0182 159.352 47.0234 159.352V159.359H47.0312C47.0417 159.365 47.0573 159.372 47.0781 159.383C47.1042 159.388 47.1172 159.391 47.1172 159.391C47.1172 159.391 47.1276 159.398 47.1484 159.414C47.2318 159.456 47.3073 159.51 47.375 159.578C47.4375 159.641 47.4896 159.711 47.5312 159.789C47.5417 159.815 47.5469 159.828 47.5469 159.828C47.5469 159.828 47.5521 159.839 47.5625 159.859C47.5729 159.885 47.5807 159.904 47.5859 159.914C47.5859 159.919 47.5859 159.922 47.5859 159.922L50 166.797L52.4141 159.922C52.4974 159.682 52.6536 159.505 52.8828 159.391ZM59.0156 166.281H62.0234L60.5156 162.656L59.0156 166.281ZM56.6562 170.5C56.5365 170.5 56.4193 170.477 56.3047 170.43C56.0703 170.331 55.9036 170.164 55.8047 169.93C55.7109 169.695 55.7109 169.461 55.8047 169.227L56.7969 166.844C56.7969 166.844 56.7969 166.841 56.7969 166.836L59.6719 159.898C59.6823 159.872 59.6953 159.846 59.7109 159.82C59.7109 159.82 59.7161 159.807 59.7266 159.781C59.7422 159.76 59.7526 159.747 59.7578 159.742C59.7578 159.737 59.7656 159.724 59.7812 159.703C59.7969 159.688 59.8073 159.677 59.8125 159.672C59.8125 159.667 59.8203 159.656 59.8359 159.641C59.8568 159.62 59.8672 159.607 59.8672 159.602C59.8724 159.596 59.8828 159.589 59.8984 159.578C59.9193 159.557 59.9323 159.547 59.9375 159.547C59.9323 159.547 59.9427 159.539 59.9688 159.523C59.9896 159.508 60.0026 159.497 60.0078 159.492C60.0078 159.492 60.0182 159.484 60.0391 159.469C60.0651 159.453 60.0807 159.445 60.0859 159.445C60.0964 159.44 60.1146 159.432 60.1406 159.422C60.1667 159.406 60.1745 159.401 60.1641 159.406C60.1536 159.411 60.1641 159.406 60.1953 159.391C60.2214 159.385 60.2396 159.38 60.25 159.375C60.2552 159.375 60.2734 159.37 60.3047 159.359L60.3359 159.352C60.3464 159.352 60.3646 159.349 60.3906 159.344C60.4167 159.339 60.4297 159.336 60.4297 159.336C60.4349 159.336 60.4505 159.336 60.4766 159.336C60.4974 159.336 60.5104 159.336 60.5156 159.336C60.526 159.336 60.5417 159.336 60.5625 159.336C60.5938 159.336 60.6094 159.336 60.6094 159.336C60.6094 159.336 60.625 159.339 60.6562 159.344C60.6823 159.349 60.6953 159.352 60.6953 159.352C60.7057 159.352 60.724 159.357 60.75 159.367C60.7812 159.372 60.7917 159.375 60.7812 159.375C60.8438 159.391 60.901 159.414 60.9531 159.445C60.9479 159.44 60.9583 159.445 60.9844 159.461C61.0104 159.477 61.026 159.487 61.0312 159.492C61.0312 159.492 61.0417 159.5 61.0625 159.516C61.0833 159.531 61.0964 159.542 61.1016 159.547C61.1068 159.547 61.1172 159.555 61.1328 159.57C61.1484 159.586 61.1615 159.596 61.1719 159.602C61.1719 159.607 61.1797 159.617 61.1953 159.633C61.2161 159.654 61.2266 159.667 61.2266 159.672L61.25 159.703C61.2708 159.724 61.2812 159.737 61.2812 159.742C61.2812 159.747 61.2891 159.76 61.3047 159.781C61.3203 159.802 61.3281 159.815 61.3281 159.82C61.3438 159.846 61.3568 159.872 61.3672 159.898L64.2422 166.836C64.2422 166.841 64.2422 166.844 64.2422 166.844L65.2344 169.227C65.3281 169.461 65.3281 169.695 65.2344 169.93C65.1354 170.164 64.9688 170.331 64.7344 170.43C64.6198 170.477 64.5026 170.5 64.3828 170.5C63.9714 170.5 63.6875 170.31 63.5312 169.93L62.7812 168.117H58.2578L57.5078 169.93C57.3516 170.31 57.0677 170.5 56.6562 170.5ZM69.0625 170.227C68.8854 170.409 68.6693 170.5 68.4141 170.5C68.1589 170.5 67.9427 170.409 67.7656 170.227C67.5833 170.049 67.4922 169.833 67.4922 169.578V160.258C67.4922 160.003 67.5833 159.786 67.7656 159.609C67.9427 159.427 68.1589 159.336 68.4141 159.336C68.6693 159.336 68.8854 159.427 69.0625 159.609C69.2448 159.786 69.3359 160.003 69.3359 160.258V169.578C69.3359 169.833 69.2448 170.049 69.0625 170.227ZM74.8672 169.578V161.125H72.5469C72.2917 161.125 72.0729 161.034 71.8906 160.852C71.7135 160.674 71.625 160.458 71.625 160.203C71.625 159.948 71.7135 159.732 71.8906 159.555C72.0729 159.372 72.2917 159.281 72.5469 159.281H79.0391C79.2891 159.281 79.5052 159.372 79.6875 159.555C79.8646 159.732 79.9531 159.948 79.9531 160.203C79.9531 160.458 79.8646 160.674 79.6875 160.852C79.5052 161.034 79.2891 161.125 79.0391 161.125H76.7109V169.578C76.7109 169.833 76.6198 170.052 76.4375 170.234C76.2604 170.411 76.0443 170.5 75.7891 170.5C75.5339 170.5 75.3177 170.411 75.1406 170.234C74.9583 170.052 74.8672 169.833 74.8672 169.578ZM83.5781 170.227C83.401 170.409 83.1849 170.5 82.9297 170.5C82.6745 170.5 82.4583 170.409 82.2812 170.227C82.099 170.049 82.0078 169.833 82.0078 169.578V160.258C82.0078 160.003 82.099 159.786 82.2812 159.609C82.4583 159.427 82.6745 159.336 82.9297 159.336C83.1849 159.336 83.401 159.427 83.5781 159.609C83.7604 159.786 83.8516 160.003 83.8516 160.258V169.578C83.8516 169.833 83.7604 170.049 83.5781 170.227ZM94.75 170.211C94.7292 170.19 94.7109 170.169 94.6953 170.148C94.6901 170.148 94.6875 170.148 94.6875 170.148C94.6875 170.148 94.6875 170.146 94.6875 170.141L89.0703 162.914V169.578C89.0703 169.833 88.9792 170.049 88.7969 170.227C88.6198 170.409 88.4036 170.5 88.1484 170.5C87.8932 170.5 87.6771 170.409 87.5 170.227C87.3177 170.049 87.2266 169.833 87.2266 169.578V160.219C87.2266 160.021 87.2839 159.844 87.3984 159.688C87.513 159.526 87.6641 159.414 87.8516 159.352C88.0339 159.284 88.2214 159.279 88.4141 159.336C88.6016 159.393 88.7552 159.5 88.875 159.656L94.4922 166.891V160.219C94.4922 159.964 94.5807 159.747 94.7578 159.57C94.9401 159.388 95.1589 159.297 95.4141 159.297C95.6693 159.297 95.8854 159.388 96.0625 159.57C96.2448 159.747 96.3359 159.964 96.3359 160.219V169.594C96.3359 169.604 96.3333 169.62 96.3281 169.641C96.3281 169.661 96.3281 169.674 96.3281 169.68C96.3281 169.69 96.3255 169.706 96.3203 169.727C96.3203 169.747 96.3177 169.763 96.3125 169.773C96.3125 169.773 96.3099 169.786 96.3047 169.812C96.2995 169.839 96.2943 169.854 96.2891 169.859C96.2891 169.865 96.2839 169.878 96.2734 169.898C96.2682 169.919 96.263 169.935 96.2578 169.945C96.2578 169.945 96.2526 169.958 96.2422 169.984C96.2266 170.01 96.2188 170.023 96.2188 170.023C96.2135 170.034 96.2057 170.049 96.1953 170.07L96.1719 170.094C96.1667 170.104 96.1562 170.12 96.1406 170.141C96.125 170.161 96.1172 170.172 96.1172 170.172C96.112 170.177 96.1016 170.188 96.0859 170.203C96.0703 170.224 96.0599 170.234 96.0547 170.234C96.0547 170.24 96.0443 170.25 96.0234 170.266C96.0078 170.281 95.9948 170.292 95.9844 170.297C96 170.286 95.9974 170.289 95.9766 170.305C95.9766 170.305 95.974 170.307 95.9688 170.312C95.9271 170.344 95.888 170.37 95.8516 170.391C95.8464 170.391 95.8438 170.391 95.8438 170.391C95.8021 170.411 95.7604 170.43 95.7188 170.445C95.6979 170.456 95.6927 170.458 95.7031 170.453C95.6615 170.469 95.6172 170.479 95.5703 170.484C95.5703 170.484 95.5625 170.487 95.5469 170.492C95.5 170.497 95.4557 170.5 95.4141 170.5C95.3828 170.5 95.349 170.497 95.3125 170.492C95.3229 170.497 95.3177 170.497 95.2969 170.492C95.2656 170.487 95.2396 170.482 95.2188 170.477C95.224 170.482 95.2135 170.479 95.1875 170.469C95.1615 170.464 95.1406 170.458 95.125 170.453C95.1198 170.453 95.1094 170.448 95.0938 170.438C95.0677 170.432 95.0469 170.424 95.0312 170.414C95.0208 170.414 95.0104 170.409 95 170.398C94.9792 170.388 94.9609 170.38 94.9453 170.375C94.9297 170.365 94.9193 170.357 94.9141 170.352C94.8984 170.341 94.8802 170.328 94.8594 170.312C94.8438 170.302 94.8333 170.294 94.8281 170.289C94.8021 170.268 94.7786 170.247 94.7578 170.227C94.7578 170.227 94.7552 170.224 94.75 170.219C94.75 170.219 94.75 170.216 94.75 170.211ZM107.242 169.828C106.424 170.255 105.557 170.469 104.641 170.469C103.099 170.469 101.781 169.922 100.688 168.828C99.5938 167.734 99.0469 166.417 99.0469 164.875C99.0469 163.333 99.5938 162.018 100.688 160.93C101.781 159.836 103.099 159.289 104.641 159.289C105.906 159.289 107.039 159.674 108.039 160.445C108.242 160.602 108.362 160.807 108.398 161.062C108.43 161.312 108.367 161.539 108.211 161.742C108.055 161.945 107.852 162.062 107.602 162.094C107.346 162.13 107.117 162.07 106.914 161.914C106.242 161.398 105.484 161.141 104.641 161.141C103.609 161.141 102.727 161.505 101.992 162.234C101.263 162.969 100.898 163.849 100.898 164.875C100.898 165.906 101.263 166.789 101.992 167.523C102.727 168.253 103.609 168.617 104.641 168.617C105.604 168.617 106.443 168.292 107.156 167.641C107.167 167.63 107.185 167.615 107.211 167.594L107.219 165.547H104.164C103.904 165.547 103.685 165.458 103.508 165.281C103.326 165.099 103.234 164.88 103.234 164.625C103.234 164.37 103.326 164.151 103.508 163.969C103.685 163.786 103.904 163.695 104.164 163.695H108.148C108.404 163.695 108.622 163.786 108.805 163.969C108.987 164.151 109.078 164.37 109.078 164.625L109.055 169.578C109.055 169.833 108.964 170.049 108.781 170.227C108.604 170.409 108.388 170.5 108.133 170.5H108.125C107.917 170.5 107.729 170.435 107.562 170.305C107.401 170.18 107.294 170.021 107.242 169.828Z" fill="white"/>
</svg>
