<svg width="700" height="1200" viewBox="0 0 700 1200" fill="none" xmlns="http://www.w3.org/2000/svg">
<g clip-path="url(#clip0_190_62)">
<rect width="700" height="1200" rx="20" fill="#4646C8"/>
<rect width="700" height="1200" rx="20" fill="white" fill-opacity="0.6"/>
<rect width="85.1694" height="90.4377" transform="translate(580 821.759) rotate(-60)" fill="#4646C8"/>
<rect width="85.1694" height="90.4377" transform="translate(580 821.759) rotate(-60)" fill="white" fill-opacity="0.1"/>
<rect width="85.1694" height="90.4377" transform="translate(1 792.585) rotate(-30)" fill="#4646C8"/>
<rect width="85.1694" height="90.4377" transform="translate(1 792.585) rotate(-30)" fill="white" fill-opacity="0.1"/>
<rect x="60" y="60" width="580" height="1080" rx="20" fill="#4646C8"/>
<rect x="60" y="60" width="580" height="1080" rx="20" fill="white" fill-opacity="0.4"/>
<circle cx="350" cy="435" r="250" fill="#4646C8"/>
<circle cx="350" cy="435" r="250" fill="white" fill-opacity="0.2"/>
<path d="M408.286 308.065C400.215 303.163 388.524 301.881 380.605 305.124C377.211 306.557 377.06 306.406 371.177 301.277C364.162 295.168 357.751 292.981 348.625 293.659C340.781 294.263 334.068 297.808 328.411 304.219L323.885 309.348L319.888 307.764C314.306 305.652 306.01 305.954 299.523 308.518C289.567 312.289 280.441 324.131 279.988 333.936C279.837 336.501 279.687 336.501 277.575 335.897C272.823 334.464 262.49 335.445 257.738 337.783C250.346 341.403 243.332 349.021 241.069 355.809C238.429 363.578 237.524 489.99 240.013 502.133C242.2 513.07 245.821 521.819 251.855 530.719C257.964 539.695 286.022 572.278 289.341 574.239C297.638 579.217 308.725 567.979 303.445 559.984C302.54 558.626 295.752 550.33 288.285 541.656C280.818 532.982 273.351 524.157 271.692 522.045C266.864 515.71 262.414 506.131 260.906 498.287C260.001 493.912 259.699 465.401 260.001 426.784C260.604 366.897 260.83 362.447 263.244 360.033C266.94 356.337 268.825 355.658 272.521 356.941C279.008 358.902 279.083 359.731 279.234 394.578C279.309 424.22 279.611 428.142 281.798 430.329C287.078 435.609 294.998 435.232 298.694 429.424C299.976 427.538 300.579 413.208 300.956 380.398C301.183 353.924 302.012 333.031 302.842 331.749C304.426 328.958 310.234 326.771 313.477 327.751C319.812 329.712 319.888 330.391 319.963 379.493C319.963 405.137 320.567 427.312 321.246 428.745C323.735 434.1 331.277 436.061 336.255 432.743C339.875 430.178 341.233 426.105 341.082 417.959C341.007 414.565 341.233 391.259 341.535 366.067C342.063 323.15 342.214 320.284 344.853 317.644C348.625 313.873 353.98 313.949 357.827 317.795C360.693 320.511 360.693 322.321 360.466 373.082C360.316 401.894 360.617 426.633 360.994 427.915C362.352 432.29 365.444 434.326 370.875 434.326C376.456 434.326 379.398 432.29 380.982 427.237C381.51 425.502 381.887 405.062 381.812 381.755C381.661 336.35 382.038 330.24 385.206 327.072C389.656 322.622 397.349 324.131 399.989 329.939C400.668 331.523 401.12 361.843 400.969 397.293C400.668 459.292 400.668 461.856 403.458 464.496C405.269 466.307 407.682 467.362 410.473 467.589C414.093 467.89 415.3 467.438 418.242 464.496L421.711 461.027L421.862 434.025C422.164 397.821 421.711 400.687 426.689 401.894C431.592 403.025 437.626 408.607 439.059 413.208C440.417 417.431 439.889 490.97 438.531 498.211C437.324 504.698 437.626 506.206 441.473 510.053C445.847 514.427 454.219 513.145 457.538 507.564C460.027 503.415 460.857 490.82 461.083 451.976C461.385 406.419 461.008 403.93 450.976 392.994C443.886 385.3 437.55 381.831 428.65 380.624L422.616 379.87L422.541 353.999C422.466 326.62 421.636 322.321 415.225 314.401C413.415 312.138 410.247 309.272 408.286 308.065Z" fill="white"/>
<rect width="700" height="276" transform="translate(0 793)" fill="#4646C8"/>
<rect width="700" height="276" transform="translate(0 793)" fill="white" fill-opacity="0.2"/>
<path d="M176.688 923.812H195.812C199.354 923.729 202.375 922.583 204.875 920.375C207.375 918.125 208.625 915.458 208.625 912.375C208.625 909.25 207.333 906.562 204.75 904.312C202.167 902.062 199.042 900.938 195.375 900.938H176.688V923.812ZM169.312 886.188H195.375C203.125 886.188 209.729 888.75 215.188 893.875C220.688 899 223.438 905.167 223.438 912.375C223.438 919.458 220.792 925.542 215.5 930.625C210.25 935.667 203.875 938.312 196.375 938.562H196.312C196.312 938.562 196.292 938.562 196.25 938.562H196.125C195.667 938.604 195.417 938.625 195.375 938.625C195.375 938.625 195.25 938.604 195 938.562H176.688V968.625C176.688 970.667 175.979 972.396 174.562 973.812C173.104 975.271 171.354 976 169.312 976C167.271 976 165.542 975.271 164.125 973.812C162.667 972.396 161.938 970.667 161.938 968.625V893.562C161.938 891.521 162.667 889.792 164.125 888.375C165.542 886.917 167.271 886.188 169.312 886.188ZM259.5 942.25H283.562L271.5 913.25L259.5 942.25ZM240.625 976C239.667 976 238.729 975.812 237.812 975.438C235.938 974.646 234.604 973.312 233.812 971.438C233.062 969.562 233.062 967.688 233.812 965.812L241.75 946.75C241.75 946.75 241.75 946.729 241.75 946.688L264.75 891.188C264.833 890.979 264.938 890.771 265.062 890.562C265.062 890.562 265.104 890.458 265.188 890.25C265.312 890.083 265.396 889.979 265.438 889.938C265.438 889.896 265.5 889.792 265.625 889.625C265.75 889.5 265.833 889.417 265.875 889.375C265.875 889.333 265.938 889.25 266.062 889.125C266.229 888.958 266.312 888.854 266.312 888.812C266.354 888.771 266.438 888.708 266.562 888.625C266.729 888.458 266.833 888.375 266.875 888.375C266.833 888.375 266.917 888.312 267.125 888.188C267.292 888.062 267.396 887.979 267.438 887.938C267.438 887.938 267.521 887.875 267.688 887.75C267.896 887.625 268.021 887.562 268.062 887.562C268.146 887.521 268.292 887.458 268.5 887.375C268.708 887.25 268.771 887.208 268.688 887.25C268.604 887.292 268.688 887.25 268.938 887.125C269.146 887.083 269.292 887.042 269.375 887C269.417 887 269.562 886.958 269.812 886.875L270.062 886.812C270.146 886.812 270.292 886.792 270.5 886.75C270.708 886.708 270.812 886.688 270.812 886.688C270.854 886.688 270.979 886.688 271.188 886.688C271.354 886.688 271.458 886.688 271.5 886.688C271.583 886.688 271.708 886.688 271.875 886.688C272.125 886.688 272.25 886.688 272.25 886.688C272.25 886.688 272.375 886.708 272.625 886.75C272.833 886.792 272.938 886.812 272.938 886.812C273.021 886.812 273.167 886.854 273.375 886.938C273.625 886.979 273.708 887 273.625 887C274.125 887.125 274.583 887.312 275 887.562C274.958 887.521 275.042 887.562 275.25 887.688C275.458 887.812 275.583 887.896 275.625 887.938C275.625 887.938 275.708 888 275.875 888.125C276.042 888.25 276.146 888.333 276.188 888.375C276.229 888.375 276.312 888.438 276.438 888.562C276.562 888.688 276.667 888.771 276.75 888.812C276.75 888.854 276.812 888.938 276.938 889.062C277.104 889.229 277.188 889.333 277.188 889.375L277.375 889.625C277.542 889.792 277.625 889.896 277.625 889.938C277.625 889.979 277.688 890.083 277.812 890.25C277.938 890.417 278 890.521 278 890.562C278.125 890.771 278.229 890.979 278.312 891.188L301.312 946.688C301.312 946.729 301.312 946.75 301.312 946.75L309.25 965.812C310 967.688 310 969.562 309.25 971.438C308.458 973.312 307.125 974.646 305.25 975.438C304.333 975.812 303.396 976 302.438 976C299.146 976 296.875 974.479 295.625 971.438L289.625 956.938H253.438L247.438 971.438C246.188 974.479 243.917 976 240.625 976ZM337.688 923.812H356.812C360.354 923.729 363.375 922.583 365.875 920.375C368.375 918.125 369.625 915.458 369.625 912.375C369.625 909.25 368.333 906.562 365.75 904.312C363.167 902.062 360.042 900.938 356.375 900.938H337.688V923.812ZM330.312 886.188H356.375C364.125 886.188 370.729 888.75 376.188 893.875C381.688 899 384.438 905.167 384.438 912.375C384.438 919.458 381.792 925.542 376.5 930.625C371.25 935.667 364.875 938.312 357.375 938.562H357.312C357.312 938.562 357.292 938.562 357.25 938.562H357.125C356.667 938.604 356.417 938.625 356.375 938.625C356.375 938.625 356.25 938.604 356 938.562H337.688V968.625C337.688 970.667 336.979 972.396 335.562 973.812C334.104 975.271 332.354 976 330.312 976C328.271 976 326.542 975.271 325.125 973.812C323.667 972.396 322.938 970.667 322.938 968.625V893.562C322.938 891.521 323.667 889.792 325.125 888.375C326.542 886.917 328.271 886.188 330.312 886.188ZM414.562 961.188H452.375C454.417 961.188 456.146 961.917 457.562 963.375C459.021 964.833 459.75 966.583 459.75 968.625C459.75 970.667 459.021 972.396 457.562 973.812C456.146 975.271 454.417 976 452.375 976H407.125C405.083 976 403.354 975.271 401.938 973.812C400.479 972.396 399.75 970.667 399.75 968.625V893.688C399.75 891.604 400.479 889.854 401.938 888.438C403.354 886.979 405.083 886.25 407.125 886.25H407.188L452.375 886.375C454.417 886.375 456.167 887.104 457.625 888.562C459.042 890.021 459.75 891.771 459.75 893.812C459.75 895.854 459.021 897.583 457.562 899C456.146 900.458 454.417 901.188 452.375 901.188H452.312L414.562 901.062V923.75H441.812C443.854 923.75 445.604 924.458 447.062 925.875C448.521 927.333 449.25 929.083 449.25 931.125C449.25 933.167 448.521 934.917 447.062 936.375C445.604 937.792 443.854 938.5 441.812 938.5H414.562V961.188ZM488.188 923.625H507.188C510.688 923.5 513.688 922.354 516.188 920.188C518.646 917.979 519.875 915.354 519.875 912.312C519.875 909.146 518.583 906.458 516 904.25C513.417 902.042 510.312 900.938 506.688 900.938H488.188V923.625ZM526.375 893.875C531.833 898.958 534.562 905.104 534.562 912.312C534.562 917.812 532.854 922.792 529.438 927.25C526.146 931.667 521.812 934.812 516.438 936.688L530.625 965.438C531.5 967.229 531.604 969.083 530.938 971C530.312 972.917 529.083 974.333 527.25 975.25C526.208 975.75 525.125 976 524 976C520.958 976 518.771 974.625 517.438 971.875L500.875 938.312H488.188V968.125C488.188 970.125 487.458 971.854 486 973.312C484.583 974.729 482.854 975.438 480.812 975.438C478.812 975.438 477.083 974.729 475.625 973.312C474.208 971.854 473.5 970.125 473.5 968.125V893.625C473.5 891.583 474.208 889.854 475.625 888.438C477.083 886.979 478.812 886.25 480.812 886.25H506.688C514.396 886.25 520.958 888.792 526.375 893.875Z" fill="white"/>
</g>
<defs>
<clipPath id="clip0_190_62">
<rect width="700" height="1200" rx="20" fill="white"/>
</clipPath>
</defs>
</svg>
