<svg width="32" height="32" viewBox="0 0 32 32" fill="none" xmlns="http://www.w3.org/2000/svg">
<circle cx="16" cy="16" r="16" fill="#4646C8"/>
<circle cx="16" cy="16" r="16" fill="white" fill-opacity="0.2"/>
<path d="M19.926 7.81231C19.4095 7.49854 18.6612 7.41648 18.1544 7.62405C17.9372 7.71576 17.9275 7.70611 17.551 7.37786C17.1021 6.98686 16.6918 6.84687 16.1077 6.89031C15.6056 6.92893 15.176 7.15581 14.814 7.56612L14.5244 7.89437L14.2685 7.793C13.9113 7.65784 13.3803 7.67715 12.9652 7.84127C12.328 8.08263 11.7439 8.8405 11.7149 9.46803C11.7053 9.63215 11.6956 9.63215 11.5605 9.59354C11.2564 9.50182 10.595 9.56457 10.2909 9.71422C9.81785 9.94592 9.36892 10.4335 9.22411 10.8679C9.05516 11.3651 8.99723 19.4555 9.15653 20.2326C9.29652 20.9326 9.52822 21.4925 9.91439 22.0621C10.3054 22.6366 12.1011 24.7219 12.3135 24.8474C12.8445 25.166 13.5541 24.4468 13.2162 23.9351C13.1583 23.8482 12.7238 23.3172 12.2459 22.7621C11.768 22.207 11.2901 21.6422 11.1839 21.507C10.875 21.1015 10.5902 20.4885 10.4937 19.9865C10.4357 19.7065 10.4164 17.8818 10.4357 15.4103C10.4743 11.5775 10.4888 11.2927 10.6433 11.1382C10.8798 10.9017 11.0005 10.8583 11.237 10.9403C11.6522 11.0658 11.657 11.1189 11.6667 13.3491C11.6715 15.2462 11.6908 15.4972 11.8308 15.6372C12.1687 15.9751 12.6755 15.9509 12.9121 15.5792C12.9941 15.4586 13.0328 14.5414 13.0569 12.4416C13.0714 10.7472 13.1245 9.4101 13.1776 9.32804C13.2789 9.14944 13.6506 9.00945 13.8582 9.0722C14.2637 9.19771 14.2685 9.24115 14.2733 12.3836C14.2733 14.0249 14.312 15.4441 14.3554 15.5358C14.5147 15.8785 14.9974 16.004 15.316 15.7916C15.5477 15.6275 15.6346 15.3668 15.625 14.8455C15.6201 14.6283 15.6346 13.1367 15.6539 11.5244C15.6877 8.77774 15.6974 8.59431 15.8663 8.42536C16.1077 8.184 16.4504 8.18883 16.6966 8.43501C16.88 8.60879 16.88 8.72464 16.8655 11.9733C16.8559 13.8173 16.8752 15.4006 16.8993 15.4827C16.9862 15.7627 17.1841 15.893 17.5317 15.893C17.8889 15.893 18.0772 15.7627 18.1785 15.4393C18.2123 15.3282 18.2365 14.0201 18.2316 12.5285C18.222 9.6225 18.2461 9.2315 18.4489 9.02876C18.7337 8.74395 19.226 8.8405 19.395 9.21219C19.4384 9.31356 19.4674 11.2541 19.4577 13.5229C19.4384 17.4908 19.4384 17.6549 19.617 17.8239C19.7329 17.9397 19.8874 18.0073 20.066 18.0218C20.2977 18.0411 20.3749 18.0121 20.5632 17.8239L20.7852 17.6018L20.7949 15.8737C20.8142 13.5567 20.7852 13.7401 21.1038 13.8173C21.4176 13.8897 21.8037 14.2469 21.8955 14.5414C21.9824 14.8117 21.9486 19.5182 21.8617 19.9816C21.7844 20.3968 21.8037 20.4933 22.0499 20.7395C22.3299 21.0195 22.8657 20.9374 23.0781 20.5802C23.2374 20.3147 23.2905 19.5086 23.305 17.0226C23.3243 14.107 23.3002 13.9477 22.6582 13.2477C22.2044 12.7553 21.7989 12.5333 21.2293 12.4561L20.8431 12.4078L20.8383 10.7521C20.8335 8.99979 20.7804 8.72464 20.3701 8.21779C20.2542 8.07297 20.0515 7.88954 19.926 7.81231Z" fill="white"/>
</svg>
