<svg width="900" height="1500" viewBox="0 0 900 1500" fill="none" xmlns="http://www.w3.org/2000/svg">
<rect width="900" height="1500" rx="20" fill="#4646C8"/>
<rect width="900" height="1500" rx="20" fill="white" fill-opacity="0.6"/>
<rect width="85.1694" height="90.4377" transform="translate(779 1031.76) rotate(-60)" fill="#4646C8"/>
<rect width="85.1694" height="90.4377" transform="translate(779 1031.76) rotate(-60)" fill="white" fill-opacity="0.1"/>
<rect width="85.1694" height="90.4377" transform="translate(0 1002.58) rotate(-30)" fill="#4646C8"/>
<rect width="85.1694" height="90.4377" transform="translate(0 1002.58) rotate(-30)" fill="white" fill-opacity="0.1"/>
<rect x="60" y="60" width="780" height="1380" rx="20" fill="#4646C8"/>
<rect x="60" y="60" width="780" height="1380" rx="20" fill="white" fill-opacity="0.4"/>
<circle cx="450" cy="539" r="250" fill="#4646C8"/>
<circle cx="450" cy="539" r="250" fill="white" fill-opacity="0.2"/>
<path d="M511.336 411.062C503.266 406.159 491.575 404.877 483.656 408.12C480.261 409.553 480.111 409.402 474.228 404.273C467.213 398.164 460.802 395.977 451.676 396.655C443.831 397.259 437.119 400.804 431.462 407.215L426.936 412.344L422.939 410.76C417.357 408.648 409.061 408.95 402.574 411.514C392.618 415.285 383.492 427.127 383.039 436.932C382.888 439.497 382.737 439.497 380.625 438.893C375.874 437.46 365.54 438.441 360.789 440.779C353.397 444.399 346.383 452.017 344.12 458.805C341.48 466.574 340.575 592.986 343.064 605.129C345.251 616.066 348.872 624.815 354.906 633.715C361.015 642.691 389.073 675.274 392.392 677.235C400.688 682.213 411.776 670.975 406.496 662.98C405.591 661.622 398.803 653.326 391.336 644.652C383.869 635.978 376.402 627.153 374.742 625.041C369.915 618.706 365.465 609.127 363.957 601.283C363.051 596.908 362.75 568.398 363.051 529.78C363.655 469.893 363.881 465.443 366.295 463.029C369.991 459.333 371.876 458.655 375.572 459.937C382.058 461.898 382.134 462.727 382.285 497.574C382.36 527.216 382.662 531.138 384.849 533.325C390.129 538.605 398.049 538.228 401.744 532.42C403.027 530.534 403.63 516.204 404.007 483.394C404.233 456.92 405.063 436.027 405.893 434.745C407.477 431.954 413.284 429.767 416.528 430.747C422.863 432.708 422.939 433.387 423.014 482.489C423.014 508.133 423.618 530.308 424.296 531.741C426.785 537.096 434.328 539.057 439.306 535.739C442.926 533.174 444.284 529.101 444.133 520.955C444.058 517.561 444.284 494.255 444.586 469.063C445.114 426.146 445.264 423.28 447.904 420.64C451.676 416.869 457.031 416.945 460.877 420.791C463.743 423.507 463.743 425.317 463.517 476.078C463.366 504.89 463.668 529.629 464.045 530.911C465.403 535.286 468.495 537.323 473.926 537.323C479.507 537.323 482.449 535.286 484.033 530.233C484.561 528.498 484.938 508.058 484.862 484.751C484.712 439.346 485.089 433.236 488.256 430.069C492.707 425.619 500.4 427.127 503.04 432.935C503.719 434.519 504.171 464.839 504.02 500.289C503.719 562.288 503.719 564.853 506.509 567.492C508.319 569.303 510.733 570.359 513.524 570.585C517.144 570.887 518.351 570.434 521.293 567.492L524.762 564.023L524.913 537.021C525.215 500.817 524.762 503.683 529.74 504.89C534.643 506.021 540.677 511.603 542.11 516.204C543.467 520.427 542.939 593.966 541.582 601.207C540.375 607.694 540.677 609.202 544.523 613.049C548.898 617.424 557.27 616.141 560.589 610.56C563.078 606.412 563.907 593.816 564.134 554.972C564.435 509.415 564.058 506.926 554.027 495.99C546.937 488.296 540.601 484.827 531.701 483.62L525.667 482.866L525.592 456.995C525.516 429.616 524.687 425.317 518.276 417.397C516.465 415.134 513.298 412.268 511.336 411.062Z" fill="white"/>
<rect width="900" height="276" transform="translate(0 1003)" fill="#4646C8"/>
<rect width="900" height="276" transform="translate(0 1003)" fill="white" fill-opacity="0.2"/>
<path d="M276.688 1133.81H295.812C299.354 1133.73 302.375 1132.58 304.875 1130.38C307.375 1128.12 308.625 1125.46 308.625 1122.38C308.625 1119.25 307.333 1116.56 304.75 1114.31C302.167 1112.06 299.042 1110.94 295.375 1110.94H276.688V1133.81ZM269.312 1096.19H295.375C303.125 1096.19 309.729 1098.75 315.188 1103.88C320.688 1109 323.438 1115.17 323.438 1122.38C323.438 1129.46 320.792 1135.54 315.5 1140.62C310.25 1145.67 303.875 1148.31 296.375 1148.56H296.312C296.312 1148.56 296.292 1148.56 296.25 1148.56H296.125C295.667 1148.6 295.417 1148.62 295.375 1148.62C295.375 1148.62 295.25 1148.6 295 1148.56H276.688V1178.62C276.688 1180.67 275.979 1182.4 274.562 1183.81C273.104 1185.27 271.354 1186 269.312 1186C267.271 1186 265.542 1185.27 264.125 1183.81C262.667 1182.4 261.938 1180.67 261.938 1178.62V1103.56C261.938 1101.52 262.667 1099.79 264.125 1098.38C265.542 1096.92 267.271 1096.19 269.312 1096.19ZM359.5 1152.25H383.562L371.5 1123.25L359.5 1152.25ZM340.625 1186C339.667 1186 338.729 1185.81 337.812 1185.44C335.938 1184.65 334.604 1183.31 333.812 1181.44C333.062 1179.56 333.062 1177.69 333.812 1175.81L341.75 1156.75C341.75 1156.75 341.75 1156.73 341.75 1156.69L364.75 1101.19C364.833 1100.98 364.938 1100.77 365.062 1100.56C365.062 1100.56 365.104 1100.46 365.188 1100.25C365.312 1100.08 365.396 1099.98 365.438 1099.94C365.438 1099.9 365.5 1099.79 365.625 1099.62C365.75 1099.5 365.833 1099.42 365.875 1099.38C365.875 1099.33 365.938 1099.25 366.062 1099.12C366.229 1098.96 366.312 1098.85 366.312 1098.81C366.354 1098.77 366.438 1098.71 366.562 1098.62C366.729 1098.46 366.833 1098.38 366.875 1098.38C366.833 1098.38 366.917 1098.31 367.125 1098.19C367.292 1098.06 367.396 1097.98 367.438 1097.94C367.438 1097.94 367.521 1097.88 367.688 1097.75C367.896 1097.62 368.021 1097.56 368.062 1097.56C368.146 1097.52 368.292 1097.46 368.5 1097.38C368.708 1097.25 368.771 1097.21 368.688 1097.25C368.604 1097.29 368.688 1097.25 368.938 1097.12C369.146 1097.08 369.292 1097.04 369.375 1097C369.417 1097 369.562 1096.96 369.812 1096.88L370.062 1096.81C370.146 1096.81 370.292 1096.79 370.5 1096.75C370.708 1096.71 370.812 1096.69 370.812 1096.69C370.854 1096.69 370.979 1096.69 371.188 1096.69C371.354 1096.69 371.458 1096.69 371.5 1096.69C371.583 1096.69 371.708 1096.69 371.875 1096.69C372.125 1096.69 372.25 1096.69 372.25 1096.69C372.25 1096.69 372.375 1096.71 372.625 1096.75C372.833 1096.79 372.938 1096.81 372.938 1096.81C373.021 1096.81 373.167 1096.85 373.375 1096.94C373.625 1096.98 373.708 1097 373.625 1097C374.125 1097.12 374.583 1097.31 375 1097.56C374.958 1097.52 375.042 1097.56 375.25 1097.69C375.458 1097.81 375.583 1097.9 375.625 1097.94C375.625 1097.94 375.708 1098 375.875 1098.12C376.042 1098.25 376.146 1098.33 376.188 1098.38C376.229 1098.38 376.312 1098.44 376.438 1098.56C376.562 1098.69 376.667 1098.77 376.75 1098.81C376.75 1098.85 376.812 1098.94 376.938 1099.06C377.104 1099.23 377.188 1099.33 377.188 1099.38L377.375 1099.62C377.542 1099.79 377.625 1099.9 377.625 1099.94C377.625 1099.98 377.688 1100.08 377.812 1100.25C377.938 1100.42 378 1100.52 378 1100.56C378.125 1100.77 378.229 1100.98 378.312 1101.19L401.312 1156.69C401.312 1156.73 401.312 1156.75 401.312 1156.75L409.25 1175.81C410 1177.69 410 1179.56 409.25 1181.44C408.458 1183.31 407.125 1184.65 405.25 1185.44C404.333 1185.81 403.396 1186 402.438 1186C399.146 1186 396.875 1184.48 395.625 1181.44L389.625 1166.94H353.438L347.438 1181.44C346.188 1184.48 343.917 1186 340.625 1186ZM437.688 1133.81H456.812C460.354 1133.73 463.375 1132.58 465.875 1130.38C468.375 1128.12 469.625 1125.46 469.625 1122.38C469.625 1119.25 468.333 1116.56 465.75 1114.31C463.167 1112.06 460.042 1110.94 456.375 1110.94H437.688V1133.81ZM430.312 1096.19H456.375C464.125 1096.19 470.729 1098.75 476.188 1103.88C481.688 1109 484.438 1115.17 484.438 1122.38C484.438 1129.46 481.792 1135.54 476.5 1140.62C471.25 1145.67 464.875 1148.31 457.375 1148.56H457.312C457.312 1148.56 457.292 1148.56 457.25 1148.56H457.125C456.667 1148.6 456.417 1148.62 456.375 1148.62C456.375 1148.62 456.25 1148.6 456 1148.56H437.688V1178.62C437.688 1180.67 436.979 1182.4 435.562 1183.81C434.104 1185.27 432.354 1186 430.312 1186C428.271 1186 426.542 1185.27 425.125 1183.81C423.667 1182.4 422.938 1180.67 422.938 1178.62V1103.56C422.938 1101.52 423.667 1099.79 425.125 1098.38C426.542 1096.92 428.271 1096.19 430.312 1096.19ZM514.562 1171.19H552.375C554.417 1171.19 556.146 1171.92 557.562 1173.38C559.021 1174.83 559.75 1176.58 559.75 1178.62C559.75 1180.67 559.021 1182.4 557.562 1183.81C556.146 1185.27 554.417 1186 552.375 1186H507.125C505.083 1186 503.354 1185.27 501.938 1183.81C500.479 1182.4 499.75 1180.67 499.75 1178.62V1103.69C499.75 1101.6 500.479 1099.85 501.938 1098.44C503.354 1096.98 505.083 1096.25 507.125 1096.25H507.188L552.375 1096.38C554.417 1096.38 556.167 1097.1 557.625 1098.56C559.042 1100.02 559.75 1101.77 559.75 1103.81C559.75 1105.85 559.021 1107.58 557.562 1109C556.146 1110.46 554.417 1111.19 552.375 1111.19H552.312L514.562 1111.06V1133.75H541.812C543.854 1133.75 545.604 1134.46 547.062 1135.88C548.521 1137.33 549.25 1139.08 549.25 1141.12C549.25 1143.17 548.521 1144.92 547.062 1146.38C545.604 1147.79 543.854 1148.5 541.812 1148.5H514.562V1171.19ZM588.188 1133.62H607.188C610.688 1133.5 613.688 1132.35 616.188 1130.19C618.646 1127.98 619.875 1125.35 619.875 1122.31C619.875 1119.15 618.583 1116.46 616 1114.25C613.417 1112.04 610.312 1110.94 606.688 1110.94H588.188V1133.62ZM626.375 1103.88C631.833 1108.96 634.562 1115.1 634.562 1122.31C634.562 1127.81 632.854 1132.79 629.438 1137.25C626.146 1141.67 621.812 1144.81 616.438 1146.69L630.625 1175.44C631.5 1177.23 631.604 1179.08 630.938 1181C630.312 1182.92 629.083 1184.33 627.25 1185.25C626.208 1185.75 625.125 1186 624 1186C620.958 1186 618.771 1184.62 617.438 1181.88L600.875 1148.31H588.188V1178.12C588.188 1180.12 587.458 1181.85 586 1183.31C584.583 1184.73 582.854 1185.44 580.812 1185.44C578.812 1185.44 577.083 1184.73 575.625 1183.31C574.208 1181.85 573.5 1180.12 573.5 1178.12V1103.62C573.5 1101.58 574.208 1099.85 575.625 1098.44C577.083 1096.98 578.812 1096.25 580.812 1096.25H606.688C614.396 1096.25 620.958 1098.79 626.375 1103.88Z" fill="white"/>
</svg>
