<svg width="225" height="375" viewBox="0 0 225 375" fill="none" xmlns="http://www.w3.org/2000/svg">
<g clip-path="url(#clip0_224_295)">
<rect width="225" height="375" rx="6" fill="#4A0000"/>
<rect width="225" height="375" rx="6" fill="white" fill-opacity="0.2"/>
<circle cx="163.471" cy="62.4707" r="50" fill="#4A0000"/>
<circle cx="163.471" cy="62.4707" r="50" fill="white" fill-opacity="0.4"/>
<g clip-path="url(#clip1_224_295)">
<path d="M182.451 47.6907C189.851 60.5079 187.903 77.6137 177.667 87.4035C164.07 91.3737 148.282 84.5079 140.882 71.6907L132.882 57.8343L148.333 36.5967L174.451 33.8343L182.451 47.6907ZM175 82.7847C182.327 75.4753 183.886 60.842 178.126 50.8654L171.566 39.5032L151.24 41.6312L139.234 58.1698L145.794 69.5321C151.554 79.5087 165.007 85.4753 175 82.7847Z" fill="white"/>
</g>
<circle cx="73" cy="294" r="90" fill="#4A0000"/>
<circle cx="73" cy="294" r="90" fill="white" fill-opacity="0.4"/>
<g clip-path="url(#clip2_224_295)">
<path d="M71.7032 231.378L94.9336 318.075L110.379 313.936L113.131 324.209L95.1362 329.031L101.344 352.199C102.105 355.04 100.425 357.95 97.584 358.711L92.4113 360.097C89.57 360.858 86.6601 359.178 85.8988 356.337L79.4796 333.109L61.623 338.011L58.8705 327.738L74.3157 323.6L51.0853 236.902L58.632 223.831L71.7032 231.378ZM96.2994 292.136L130.832 282.883L138.352 269.858L125.281 262.311L90.7482 271.564L96.2994 292.136ZM60.103 302.03L54.6851 281.227L38.5842 285.542L34.4457 270.096L24.1732 272.849L28.9949 290.844L5.80048 297.098C2.95914 297.859 1.27914 300.769 2.04048 303.611L3.4265 308.783C4.18783 311.625 7.09767 313.305 9.93901 312.543L33.2916 306.442L37.9748 324.357L48.2473 321.605L44.1087 306.159L60.103 302.03Z" fill="white"/>
</g>
<path d="M92.4678 150.02L96.7975 151.181C97.6043 151.377 98.3577 151.3 99.0576 150.952C99.7601 150.594 100.205 150.066 100.392 149.368C100.581 148.661 100.452 147.974 100.004 147.308C99.5553 146.642 98.9161 146.198 98.086 145.975L93.8554 144.842L92.4678 150.02ZM93.0805 141.055L98.9808 142.636C100.735 143.106 102.075 144.087 103 145.578C103.934 147.072 104.183 148.635 103.745 150.267C103.316 151.871 102.348 153.087 100.841 153.917C99.3469 154.74 97.7431 154.952 96.0301 154.554L96.0159 154.55C96.0159 154.55 96.0112 154.549 96.0018 154.546L95.9735 154.539C95.8672 154.52 95.8093 154.51 95.7999 154.507C95.7999 154.507 95.7728 154.495 95.7188 154.471L91.573 153.36L89.7494 160.165C89.6256 160.628 89.3603 160.976 88.9537 161.211C88.5351 161.453 88.0946 161.512 87.6324 161.388C87.1702 161.264 86.823 160.994 86.5907 160.578C86.3465 160.169 86.2863 159.733 86.4102 159.271L90.9635 142.277C91.0874 141.815 91.3573 141.468 91.7734 141.236C92.1826 140.992 92.6183 140.931 93.0805 141.055ZM120.313 148.655C120.781 148.568 121.212 148.659 121.605 148.926C121.999 149.193 122.239 149.561 122.326 150.029C122.413 150.497 122.322 150.928 122.055 151.321L111.604 166.613C111.604 166.613 111.602 166.617 111.6 166.627C111.554 166.685 111.502 166.747 111.444 166.813C111.43 166.829 111.416 166.841 111.404 166.847C111.349 166.903 111.295 166.955 111.242 167.001C111.266 166.987 111.253 166.999 111.202 167.036C111.142 167.07 111.083 167.105 111.023 167.14C110.987 167.16 110.975 167.167 110.987 167.16C110.927 167.195 110.858 167.227 110.779 167.256C110.801 167.252 110.789 167.259 110.743 167.277C110.677 167.3 110.606 167.316 110.533 167.327C110.511 167.331 110.501 167.333 110.501 167.333C110.437 167.346 110.374 167.355 110.312 167.359C110.269 167.367 110.259 167.369 110.28 167.365C110.228 167.371 110.163 167.369 110.085 167.358C110.004 167.357 109.979 167.355 110.01 167.353C109.911 167.347 109.819 167.332 109.734 167.31C109.649 167.287 109.562 167.254 109.472 167.209C109.498 167.226 109.476 167.215 109.405 167.176C109.332 167.147 109.275 167.116 109.233 167.085C109.249 167.099 109.241 167.092 109.208 167.063C109.157 167.029 109.107 166.99 109.058 166.947C109.058 166.947 109.045 166.938 109.019 166.921C108.97 166.878 108.922 166.829 108.876 166.777C108.876 166.777 108.872 166.771 108.865 166.759C108.858 166.747 108.855 166.741 108.855 166.741C108.799 166.685 108.755 166.623 108.723 166.554C108.72 166.563 108.709 166.55 108.688 166.514C108.654 166.454 108.624 166.396 108.599 166.338C108.585 166.314 108.579 166.298 108.582 166.288C108.559 166.222 108.538 166.15 108.518 166.074C108.511 166.062 108.505 166.045 108.501 166.024C108.483 165.938 108.469 165.859 108.459 165.785C108.461 165.776 108.463 165.771 108.463 165.771L107.057 147.302C107.022 146.828 107.16 146.41 107.469 146.048C107.778 145.686 108.17 145.488 108.644 145.453C109.119 145.418 109.537 145.556 109.899 145.865C110.261 146.174 110.459 146.566 110.494 147.04L111.527 160.617L119.21 149.376C119.477 148.982 119.845 148.742 120.313 148.655ZM127.02 159.279L131.35 160.439C132.157 160.635 132.91 160.559 133.61 160.21C134.313 159.853 134.757 159.325 134.944 158.627C135.134 157.919 135.005 157.233 134.556 156.566C134.108 155.9 133.469 155.456 132.639 155.234L128.408 154.1L127.02 159.279ZM127.633 150.314L133.533 151.894C135.288 152.365 136.628 153.345 137.552 154.837C138.487 156.331 138.735 157.893 138.298 159.525C137.868 161.129 136.9 162.346 135.394 163.175C133.899 163.998 132.296 164.211 130.583 163.812L130.569 163.808C130.569 163.808 130.564 163.807 130.554 163.805L130.526 163.797C130.42 163.779 130.362 163.768 130.352 163.766C130.352 163.766 130.325 163.753 130.271 163.729L126.126 162.618L124.302 169.424C124.178 169.886 123.913 170.235 123.506 170.469C123.088 170.711 122.647 170.77 122.185 170.646C121.723 170.522 121.376 170.252 121.143 169.836C120.899 169.427 120.839 168.991 120.963 168.529L125.516 151.536C125.64 151.074 125.91 150.726 126.326 150.494C126.735 150.25 127.171 150.19 127.633 150.314Z" fill="white"/>
</g>
<defs>
<clipPath id="clip0_224_295">
<rect width="225" height="375" rx="6" fill="white"/>
</clipPath>
<clipPath id="clip1_224_295">
<rect width="64" height="64" fill="white" transform="translate(119.287 50.2871) rotate(-30)"/>
</clipPath>
<clipPath id="clip2_224_295">
<rect width="128" height="128" fill="white" transform="translate(49.5742 203.574) rotate(30)"/>
</clipPath>
</defs>
</svg>
