<svg width="225" height="375" viewBox="0 0 225 375" fill="none" xmlns="http://www.w3.org/2000/svg">
<g clip-path="url(#clip0_224_215)">
<rect width="225" height="375" rx="6" fill="#640000"/>
<rect width="225" height="375" rx="6" fill="white" fill-opacity="0.6"/>
<rect width="21.2946" height="22.6118" transform="translate(194.771 252.441) rotate(-60)" fill="#4A0000"/>
<rect width="21.2946" height="22.6118" transform="translate(194.771 252.441) rotate(-60)" fill="white" fill-opacity="0.1"/>
<rect width="21.2946" height="22.6118" transform="translate(0 245.146) rotate(-30)" fill="#4A0000"/>
<rect width="21.2946" height="22.6118" transform="translate(0 245.146) rotate(-30)" fill="white" fill-opacity="0.1"/>
<g clip-path="url(#clip1_224_215)">
<rect x="15" y="15" width="195" height="345" rx="3" fill="#4A0000"/>
<rect x="15" y="15" width="195" height="345" rx="3" fill="white" fill-opacity="0.4"/>
<circle cx="112.5" cy="135" r="60" fill="#4A0000"/>
<circle cx="112.5" cy="135" r="60" fill="white" fill-opacity="0.2"/>
<path d="M97.0332 109.507L128.766 141.24L134.42 135.587L138.18 139.347L131.593 145.934L140.073 154.414C141.113 155.454 141.113 157.134 140.073 158.174L138.18 160.067C137.14 161.107 135.46 161.107 134.42 160.067L125.833 151.614L119.326 158.2L115.566 154.44L121.22 148.787L89.4865 117.054V109.507H97.0332ZM122.873 129.667L135.513 117.027V109.507H127.966L115.326 122.147L122.873 129.667ZM109.673 143L102.126 135.347L96.2332 141.24L90.5798 135.587L86.8198 139.347L93.4065 145.934L84.9265 154.44C83.8865 155.48 83.8865 157.16 84.9265 158.2L86.8198 160.094C87.8598 161.134 89.5398 161.134 90.5798 160.094L99.1665 151.614L105.673 158.2L109.433 154.44L103.78 148.787L109.673 143Z" fill="white"/>
</g>
<rect width="225" height="75" transform="translate(0 246)" fill="#4A0000"/>
<rect width="225" height="75" transform="translate(0 246)" fill="white" fill-opacity="0.2"/>
<path d="M91.083 281.769H95.5654C96.3955 281.749 97.1035 281.48 97.6895 280.963C98.2754 280.436 98.5684 279.811 98.5684 279.088C98.5684 278.355 98.2656 277.726 97.6602 277.198C97.0547 276.671 96.3223 276.407 95.4629 276.407H91.083V281.769ZM89.3545 272.95H95.4629C97.2793 272.95 98.8271 273.551 100.106 274.752C101.396 275.953 102.04 277.398 102.04 279.088C102.04 280.748 101.42 282.174 100.18 283.365C98.9492 284.547 97.4551 285.167 95.6973 285.226H95.6826C95.6826 285.226 95.6777 285.226 95.668 285.226H95.6387C95.5312 285.235 95.4727 285.24 95.4629 285.24C95.4629 285.24 95.4336 285.235 95.375 285.226H91.083V292.271C91.083 292.75 90.917 293.155 90.585 293.487C90.2432 293.829 89.833 294 89.3545 294C88.876 294 88.4707 293.829 88.1387 293.487C87.7969 293.155 87.626 292.75 87.626 292.271V274.679C87.626 274.2 87.7969 273.795 88.1387 273.463C88.4707 273.121 88.876 272.95 89.3545 272.95ZM117.626 273.243C118.056 273.038 118.495 273.014 118.944 273.17C119.394 273.326 119.721 273.619 119.926 274.049C120.131 274.479 120.155 274.918 119.999 275.367L113.861 292.843C113.861 292.843 113.861 292.848 113.861 292.857C113.832 292.926 113.798 292.999 113.759 293.077C113.749 293.097 113.739 293.111 113.729 293.121C113.69 293.189 113.651 293.253 113.612 293.312C113.632 293.292 113.622 293.307 113.583 293.355C113.534 293.404 113.485 293.453 113.437 293.502C113.407 293.531 113.397 293.541 113.407 293.531C113.358 293.58 113.3 293.629 113.231 293.678C113.251 293.668 113.241 293.678 113.202 293.707C113.144 293.746 113.08 293.78 113.012 293.81C112.992 293.819 112.982 293.824 112.982 293.824C112.924 293.854 112.865 293.878 112.807 293.897C112.768 293.917 112.758 293.922 112.777 293.912C112.729 293.932 112.665 293.946 112.587 293.956C112.509 293.976 112.484 293.98 112.514 293.971C112.416 293.99 112.323 294 112.235 294C112.147 294 112.055 293.99 111.957 293.971C111.986 293.98 111.962 293.976 111.884 293.956C111.806 293.946 111.742 293.932 111.693 293.912C111.713 293.922 111.703 293.917 111.664 293.897C111.605 293.878 111.547 293.854 111.488 293.824C111.488 293.824 111.474 293.819 111.444 293.81C111.386 293.78 111.327 293.746 111.269 293.707C111.269 293.707 111.264 293.702 111.254 293.692C111.244 293.683 111.239 293.678 111.239 293.678C111.171 293.639 111.112 293.59 111.063 293.531C111.063 293.541 111.049 293.531 111.02 293.502C110.971 293.453 110.927 293.404 110.888 293.355C110.868 293.336 110.858 293.321 110.858 293.312C110.819 293.253 110.78 293.189 110.741 293.121C110.731 293.111 110.722 293.097 110.712 293.077C110.673 292.999 110.639 292.926 110.609 292.857C110.609 292.848 110.609 292.843 110.609 292.843L104.472 275.367C104.315 274.918 104.34 274.479 104.545 274.049C104.75 273.619 105.077 273.326 105.526 273.17C105.976 273.014 106.415 273.038 106.845 273.243C107.274 273.448 107.567 273.775 107.724 274.225L112.235 287.071L116.747 274.225C116.903 273.775 117.196 273.448 117.626 273.243ZM126.854 281.769H131.337C132.167 281.749 132.875 281.48 133.461 280.963C134.047 280.436 134.34 279.811 134.34 279.088C134.34 278.355 134.037 277.726 133.432 277.198C132.826 276.671 132.094 276.407 131.234 276.407H126.854V281.769ZM125.126 272.95H131.234C133.051 272.95 134.599 273.551 135.878 274.752C137.167 275.953 137.812 277.398 137.812 279.088C137.812 280.748 137.191 282.174 135.951 283.365C134.721 284.547 133.227 285.167 131.469 285.226H131.454C131.454 285.226 131.449 285.226 131.439 285.226H131.41C131.303 285.235 131.244 285.24 131.234 285.24C131.234 285.24 131.205 285.235 131.146 285.226H126.854V292.271C126.854 292.75 126.688 293.155 126.356 293.487C126.015 293.829 125.604 294 125.126 294C124.647 294 124.242 293.829 123.91 293.487C123.568 293.155 123.397 292.75 123.397 292.271V274.679C123.397 274.2 123.568 273.795 123.91 273.463C124.242 273.121 124.647 272.95 125.126 272.95Z" fill="white"/>
</g>
<defs>
<clipPath id="clip0_224_215">
<rect width="225" height="375" rx="6" fill="white"/>
</clipPath>
<clipPath id="clip1_224_215">
<rect x="15" y="15" width="195" height="345" rx="3" fill="white"/>
</clipPath>
</defs>
</svg>
