<svg width="700" height="1200" viewBox="0 0 700 1200" fill="none" xmlns="http://www.w3.org/2000/svg">
<g clip-path="url(#clip0_189_3)">
<rect width="700" height="1200" rx="20" fill="#C84646"/>
<rect width="700" height="1200" rx="20" fill="white" fill-opacity="0.6"/>
<rect width="85.1694" height="90.4377" transform="translate(580 821.759) rotate(-60)" fill="#C84646"/>
<rect width="85.1694" height="90.4377" transform="translate(580 821.759) rotate(-60)" fill="white" fill-opacity="0.1"/>
<rect width="85.1694" height="90.4377" transform="translate(1 792.585) rotate(-30)" fill="#C84646"/>
<rect width="85.1694" height="90.4377" transform="translate(1 792.585) rotate(-30)" fill="white" fill-opacity="0.1"/>
<rect x="60" y="60" width="580" height="1080" rx="20" fill="#C84646"/>
<rect x="60" y="60" width="580" height="1080" rx="20" fill="white" fill-opacity="0.4"/>
<circle cx="350" cy="435" r="250" fill="#C84646"/>
<circle cx="350" cy="435" r="250" fill="white" fill-opacity="0.2"/>
<path d="M245.66 354.253C244.529 356.29 243.02 359.457 242.341 361.494C240.984 365.868 240.456 433.524 241.738 444.31C244.076 462.94 250.94 475.989 268.514 495.524L280.129 508.346L280.28 530.822L280.28 553.299L283.976 556.09C288.878 559.785 293.856 559.484 298.156 555.185C301.173 552.168 301.323 551.413 301.173 526.071L301.173 500.124L293.328 491.375C271.153 466.636 266.779 459.999 263.913 447.176C261.725 438.05 261.575 370.469 263.611 366.472C268.137 357.572 280.129 360.513 281.713 370.997C282.844 378.464 289.18 382.688 295.742 380.35C301.399 378.314 302.53 375.07 302.832 360.89C303.058 349.2 303.36 347.842 306.075 345.127C308.564 342.638 309.922 342.185 313.542 342.487C318.671 342.939 321.009 345.579 322.141 352.141C323.574 360.513 332.097 364.662 338.809 360.061C342.505 357.572 343.335 354.781 343.637 343.618C343.788 335.925 344.24 334.115 346.578 331.776C350.274 328.081 355.705 328.081 359.4 331.776C361.588 333.964 362.116 336 362.417 343.09C362.719 350.633 363.172 352.141 365.887 354.856C368.301 357.27 369.884 357.949 373.354 357.949C378.935 357.949 382.33 354.706 383.913 347.993C385.497 341.431 388.213 338.866 393.719 338.791C398.395 338.791 400.884 340.526 402.166 344.523C402.619 345.881 402.996 360.89 403.147 377.936C403.222 408.031 403.298 408.861 406.315 411.878C410.991 416.554 416.271 416.705 420.796 412.179C424.19 408.785 424.19 408.483 424.266 390.759L424.266 372.958L427.283 373.411C432.487 374.391 437.239 377.635 439.954 382.16C441.915 385.63 442.217 390.457 442.217 415.045C442.066 454.568 440.859 458.188 419.74 481.872C413.178 489.339 406.843 496.73 405.787 498.088C404.429 500.049 403.826 505.329 403.901 517.321C403.901 533.01 404.052 534.066 406.993 537.007C409.558 539.572 410.916 540.024 414.762 539.798C423.059 539.345 424.869 535.876 424.945 519.509L425.02 508.27L436.711 495.071C450.589 479.383 456.095 470.709 460.243 457.66C462.808 449.364 463.185 444.763 463.185 415.045C463.336 384.574 463.109 381.18 460.47 375.523C454.888 363.304 443.046 354.178 430.526 352.518L424.492 351.764L424.115 346.56C422.833 326.27 403.976 312.694 384.969 318.426L378.257 320.463L374.41 316.616C366.566 308.772 355.403 305.906 344.24 308.772C339.337 310.054 337.904 311.035 332.172 316.767L325.61 323.329L320.632 321.82C314.523 319.935 305.773 320.689 299.739 323.555C294.309 326.12 287.219 332.908 284.655 338.037C283.146 341.054 282.467 341.582 281.336 341.054C278.545 339.621 266.1 339.998 261.424 341.657C255.541 343.769 248.677 349.275 245.66 354.253Z" fill="white"/>
<rect width="700" height="276" transform="translate(0 793)" fill="#C84646"/>
<rect width="700" height="276" transform="translate(0 793)" fill="white" fill-opacity="0.2"/>
<path d="M199.562 923.625H218.562C222.062 923.5 225.062 922.354 227.562 920.188C230.021 917.979 231.25 915.354 231.25 912.312C231.25 909.146 229.958 906.458 227.375 904.25C224.792 902.042 221.688 900.938 218.062 900.938H199.562V923.625ZM237.75 893.875C243.208 898.958 245.938 905.104 245.938 912.312C245.938 917.812 244.229 922.792 240.812 927.25C237.521 931.667 233.188 934.812 227.812 936.688L242 965.438C242.875 967.229 242.979 969.083 242.312 971C241.688 972.917 240.458 974.333 238.625 975.25C237.583 975.75 236.5 976 235.375 976C232.333 976 230.146 974.625 228.812 971.875L212.25 938.312H199.562V968.125C199.562 970.125 198.833 971.854 197.375 973.312C195.958 974.729 194.229 975.438 192.188 975.438C190.188 975.438 188.458 974.729 187 973.312C185.583 971.854 184.875 970.125 184.875 968.125V893.625C184.875 891.583 185.583 889.854 187 888.438C188.458 886.979 190.188 886.25 192.188 886.25H218.062C225.771 886.25 232.333 888.792 237.75 893.875ZM322.75 909.812C316.833 903.938 309.729 901 301.438 901C293.146 901 286.062 903.938 280.188 909.812C274.271 915.729 271.312 922.833 271.312 931.125C271.312 939.417 274.271 946.5 280.188 952.375C286.062 958.292 293.146 961.25 301.438 961.25C309.729 961.25 316.833 958.292 322.75 952.375C328.625 946.5 331.562 939.417 331.562 931.125C331.562 922.833 328.625 915.729 322.75 909.812ZM333.188 962.812C324.396 971.604 313.812 976 301.438 976C289.062 976 278.5 971.604 269.75 962.812C260.958 954.062 256.562 943.5 256.562 931.125C256.562 918.75 260.958 908.167 269.75 899.375C278.5 890.625 289.062 886.25 301.438 886.25C313.812 886.25 324.396 890.625 333.188 899.375C341.938 908.167 346.312 918.75 346.312 931.125C346.312 943.5 341.938 954.062 333.188 962.812ZM434.438 964.375C425.896 972.125 415.854 976 404.312 976C392.021 976 381.5 971.646 372.75 962.938C364.042 954.188 359.688 943.667 359.688 931.375C359.688 919.042 364.042 908.521 372.75 899.812C381.5 891.062 392.021 886.688 404.312 886.688C414.438 886.688 423.521 889.771 431.562 895.938C433.146 897.188 434.083 898.812 434.375 900.812C434.625 902.854 434.125 904.688 432.875 906.312C431.625 907.938 430 908.875 428 909.125C425.958 909.375 424.125 908.896 422.5 907.688C417.167 903.562 411.104 901.5 404.312 901.5C396.104 901.5 389.083 904.417 383.25 910.25C377.417 916.083 374.5 923.125 374.5 931.375C374.5 939.583 377.417 946.604 383.25 952.438C389.083 958.271 396.104 961.188 404.312 961.188C412.062 961.188 418.771 958.604 424.438 953.438C425.938 952.062 427.708 951.417 429.75 951.5C431.792 951.583 433.5 952.396 434.875 953.938C436.25 955.438 436.896 957.208 436.812 959.25C436.729 961.292 435.938 963 434.438 964.375ZM463.625 973.25C462.167 974.708 460.438 975.438 458.438 975.438C456.438 975.438 454.708 974.708 453.25 973.25C451.833 971.833 451.125 970.125 451.125 968.125V893.875C451.125 891.875 451.833 890.167 453.25 888.75C454.708 887.292 456.438 886.562 458.438 886.562C460.438 886.562 462.167 887.292 463.625 888.75C465.042 890.167 465.75 891.875 465.75 893.875V926.75L501.5 889.188C502.875 887.729 504.583 886.958 506.625 886.875C508.625 886.833 510.354 887.521 511.812 888.938C513.271 890.312 514.021 892 514.062 894C514.146 896.042 513.479 897.792 512.062 899.25L482.062 930.812L513.25 963.625C514.625 965.125 515.292 966.875 515.25 968.875C515.208 970.875 514.458 972.583 513 974C511.583 975.333 509.896 976 507.938 976C505.854 976 504.083 975.25 502.625 973.75L471.938 941.438L465.75 948V968.125C465.75 970.125 465.042 971.833 463.625 973.25Z" fill="white"/>
</g>
<defs>
<clipPath id="clip0_189_3">
<rect width="700" height="1200" rx="20" fill="white"/>
</clipPath>
</defs>
</svg>
