<svg width="900" height="1500" viewBox="0 0 900 1500" fill="none" xmlns="http://www.w3.org/2000/svg">
<rect width="900" height="1500" rx="20" fill="#C84646"/>
<rect width="900" height="1500" rx="20" fill="white" fill-opacity="0.6"/>
<rect width="85.1694" height="90.4377" transform="translate(779 1031.76) rotate(-60)" fill="#C84646"/>
<rect width="85.1694" height="90.4377" transform="translate(779 1031.76) rotate(-60)" fill="white" fill-opacity="0.1"/>
<rect width="85.1694" height="90.4377" transform="translate(0 1002.58) rotate(-30)" fill="#C84646"/>
<rect width="85.1694" height="90.4377" transform="translate(0 1002.58) rotate(-30)" fill="white" fill-opacity="0.1"/>
<rect x="60" y="60" width="780" height="1380" rx="20" fill="#C84646"/>
<rect x="60" y="60" width="780" height="1380" rx="20" fill="white" fill-opacity="0.4"/>
<circle cx="450" cy="539" r="250" fill="#C84646"/>
<circle cx="450" cy="539" r="250" fill="white" fill-opacity="0.2"/>
<path d="M345.66 458.254C344.529 460.29 343.02 463.458 342.341 465.494C340.984 469.869 340.456 537.525 341.738 548.311C344.076 566.941 350.94 579.989 368.514 599.524L380.129 612.346L380.28 634.823L380.28 657.299L383.976 660.09C388.878 663.786 393.856 663.484 398.156 659.185C401.173 656.168 401.323 655.414 401.173 630.071L401.173 604.125L393.328 595.376C371.153 570.636 366.779 563.999 363.913 551.177C361.725 542.05 361.575 474.47 363.611 470.472C368.137 461.572 380.129 464.514 381.713 474.998C382.844 482.465 389.18 486.689 395.742 484.351C401.399 482.314 402.53 479.071 402.832 464.891C403.058 453.2 403.36 451.842 406.075 449.127C408.564 446.638 409.922 446.186 413.542 446.487C418.671 446.94 421.009 449.58 422.141 456.142C423.574 464.514 432.097 468.662 438.809 464.061C442.505 461.572 443.335 458.782 443.637 447.619C443.788 439.925 444.24 438.115 446.578 435.777C450.274 432.081 455.705 432.081 459.4 435.777C461.588 437.964 462.116 440.001 462.417 447.091C462.719 454.633 463.172 456.142 465.887 458.857C468.301 461.271 469.884 461.949 473.354 461.949C478.935 461.949 482.33 458.706 483.913 451.993C485.497 445.431 488.213 442.867 493.719 442.791C498.395 442.791 500.884 444.526 502.166 448.524C502.619 449.881 502.996 464.891 503.147 481.937C503.222 512.031 503.298 512.861 506.315 515.878C510.991 520.554 516.271 520.705 520.796 516.18C524.19 512.786 524.19 512.484 524.266 494.759L524.266 476.959L527.283 477.411C532.487 478.392 537.239 481.635 539.954 486.161C541.915 489.63 542.217 494.457 542.217 519.046C542.066 558.568 540.859 562.189 519.74 585.872C513.178 593.339 506.843 600.731 505.787 602.088C504.429 604.05 503.826 609.329 503.901 621.322C503.901 637.01 504.052 638.066 506.993 641.008C509.558 643.572 510.916 644.025 514.762 643.798C523.059 643.346 524.869 639.876 524.945 623.509L525.02 612.271L536.711 599.072C550.589 583.383 556.095 574.709 560.243 561.661C562.808 553.364 563.185 548.763 563.185 519.046C563.336 488.574 563.109 485.18 560.47 479.523C554.888 467.304 543.046 458.178 530.526 456.519L524.492 455.765L524.115 450.56C522.833 430.271 503.976 416.695 484.969 422.427L478.257 424.463L474.41 420.617C466.566 412.772 455.403 409.906 444.24 412.772C439.337 414.055 437.904 415.035 432.172 420.767L425.61 427.329L420.632 425.821C414.523 423.935 405.773 424.69 399.739 427.556C394.309 430.12 387.219 436.908 384.655 442.037C383.146 445.054 382.467 445.582 381.336 445.054C378.545 443.621 366.1 443.998 361.424 445.658C355.541 447.77 348.677 453.276 345.66 458.254Z" fill="white"/>
<rect width="900" height="276" transform="translate(0 1003)" fill="#C84646"/>
<rect width="900" height="276" transform="translate(0 1003)" fill="white" fill-opacity="0.2"/>
<path d="M299.562 1133.62H318.562C322.062 1133.5 325.062 1132.35 327.562 1130.19C330.021 1127.98 331.25 1125.35 331.25 1122.31C331.25 1119.15 329.958 1116.46 327.375 1114.25C324.792 1112.04 321.688 1110.94 318.062 1110.94H299.562V1133.62ZM337.75 1103.88C343.208 1108.96 345.938 1115.1 345.938 1122.31C345.938 1127.81 344.229 1132.79 340.812 1137.25C337.521 1141.67 333.188 1144.81 327.812 1146.69L342 1175.44C342.875 1177.23 342.979 1179.08 342.312 1181C341.688 1182.92 340.458 1184.33 338.625 1185.25C337.583 1185.75 336.5 1186 335.375 1186C332.333 1186 330.146 1184.62 328.812 1181.88L312.25 1148.31H299.562V1178.12C299.562 1180.12 298.833 1181.85 297.375 1183.31C295.958 1184.73 294.229 1185.44 292.188 1185.44C290.188 1185.44 288.458 1184.73 287 1183.31C285.583 1181.85 284.875 1180.12 284.875 1178.12V1103.62C284.875 1101.58 285.583 1099.85 287 1098.44C288.458 1096.98 290.188 1096.25 292.188 1096.25H318.062C325.771 1096.25 332.333 1098.79 337.75 1103.88ZM422.75 1119.81C416.833 1113.94 409.729 1111 401.438 1111C393.146 1111 386.062 1113.94 380.188 1119.81C374.271 1125.73 371.312 1132.83 371.312 1141.12C371.312 1149.42 374.271 1156.5 380.188 1162.38C386.062 1168.29 393.146 1171.25 401.438 1171.25C409.729 1171.25 416.833 1168.29 422.75 1162.38C428.625 1156.5 431.562 1149.42 431.562 1141.12C431.562 1132.83 428.625 1125.73 422.75 1119.81ZM433.188 1172.81C424.396 1181.6 413.812 1186 401.438 1186C389.062 1186 378.5 1181.6 369.75 1172.81C360.958 1164.06 356.562 1153.5 356.562 1141.12C356.562 1128.75 360.958 1118.17 369.75 1109.38C378.5 1100.62 389.062 1096.25 401.438 1096.25C413.812 1096.25 424.396 1100.62 433.188 1109.38C441.938 1118.17 446.312 1128.75 446.312 1141.12C446.312 1153.5 441.938 1164.06 433.188 1172.81ZM534.438 1174.38C525.896 1182.12 515.854 1186 504.312 1186C492.021 1186 481.5 1181.65 472.75 1172.94C464.042 1164.19 459.688 1153.67 459.688 1141.38C459.688 1129.04 464.042 1118.52 472.75 1109.81C481.5 1101.06 492.021 1096.69 504.312 1096.69C514.438 1096.69 523.521 1099.77 531.562 1105.94C533.146 1107.19 534.083 1108.81 534.375 1110.81C534.625 1112.85 534.125 1114.69 532.875 1116.31C531.625 1117.94 530 1118.88 528 1119.12C525.958 1119.38 524.125 1118.9 522.5 1117.69C517.167 1113.56 511.104 1111.5 504.312 1111.5C496.104 1111.5 489.083 1114.42 483.25 1120.25C477.417 1126.08 474.5 1133.12 474.5 1141.38C474.5 1149.58 477.417 1156.6 483.25 1162.44C489.083 1168.27 496.104 1171.19 504.312 1171.19C512.062 1171.19 518.771 1168.6 524.438 1163.44C525.938 1162.06 527.708 1161.42 529.75 1161.5C531.792 1161.58 533.5 1162.4 534.875 1163.94C536.25 1165.44 536.896 1167.21 536.812 1169.25C536.729 1171.29 535.938 1173 534.438 1174.38ZM563.625 1183.25C562.167 1184.71 560.438 1185.44 558.438 1185.44C556.438 1185.44 554.708 1184.71 553.25 1183.25C551.833 1181.83 551.125 1180.12 551.125 1178.12V1103.88C551.125 1101.88 551.833 1100.17 553.25 1098.75C554.708 1097.29 556.438 1096.56 558.438 1096.56C560.438 1096.56 562.167 1097.29 563.625 1098.75C565.042 1100.17 565.75 1101.88 565.75 1103.88V1136.75L601.5 1099.19C602.875 1097.73 604.583 1096.96 606.625 1096.88C608.625 1096.83 610.354 1097.52 611.812 1098.94C613.271 1100.31 614.021 1102 614.062 1104C614.146 1106.04 613.479 1107.79 612.062 1109.25L582.062 1140.81L613.25 1173.62C614.625 1175.12 615.292 1176.88 615.25 1178.88C615.208 1180.88 614.458 1182.58 613 1184C611.583 1185.33 609.896 1186 607.938 1186C605.854 1186 604.083 1185.25 602.625 1183.75L571.938 1151.44L565.75 1158V1178.12C565.75 1180.12 565.042 1181.83 563.625 1183.25Z" fill="white"/>
</svg>
