<svg width="150" height="250" viewBox="0 0 150 250" fill="none" xmlns="http://www.w3.org/2000/svg">
<rect width="150" height="250" rx="4" fill="#C8C846"/>
<rect width="150" height="250" rx="4" fill="white" fill-opacity="0.6"/>
<rect width="14.1964" height="15.0745" transform="translate(129.847 168.294) rotate(-60)" fill="#C8C846"/>
<rect width="14.1964" height="15.0745" transform="translate(129.847 168.294) rotate(-60)" fill="white" fill-opacity="0.1"/>
<rect width="14.1964" height="15.0745" transform="translate(0 163.431) rotate(-30)" fill="#C8C846"/>
<rect width="14.1964" height="15.0745" transform="translate(0 163.431) rotate(-30)" fill="white" fill-opacity="0.1"/>
<g clip-path="url(#clip0_205_130)">
<rect x="10" y="10" width="130" height="230" rx="2" fill="#C8C846"/>
<rect x="10" y="10" width="130" height="230" rx="2" fill="white" fill-opacity="0.4"/>
<circle cx="75" cy="90" r="40" fill="#C8C846"/>
<circle cx="75" cy="90" r="40" fill="white" fill-opacity="0.2"/>
<path d="M64.0774 112.132C63.8044 111.894 62.7804 110.818 61.8076 109.726C57.7286 105.186 57.1484 103.548 57.2508 96.9944C57.302 93.2226 57.302 93.1714 57.7798 92.2157C58.7185 90.3042 60.647 88.8877 62.5414 88.7C63.0876 88.6488 63.3606 88.5464 63.3606 88.3928C63.3606 88.2562 62.5926 84.7576 61.6369 80.5933C60.1862 74.2445 59.9302 72.8792 59.9985 72.0258C60.3228 67.7762 65.3745 65.916 68.4294 68.9026C68.822 69.2952 69.2998 69.9608 69.4705 70.3874C69.6582 70.8141 70.2214 72.9816 70.7164 75.1832C71.2113 77.3848 71.655 79.245 71.7233 79.3304C71.7745 79.3986 72.3036 77.453 72.9009 75.0296C74.0444 70.268 74.3345 69.5853 75.5804 68.5613C77.031 67.3666 79.1644 67.1448 80.9052 68.0322C82.0828 68.6125 82.6801 69.244 83.2604 70.4898C83.9089 71.8722 83.8236 72.7768 82.4753 78.0674C81.8097 80.6274 81.2806 82.829 81.2806 82.9656C81.2806 83.1021 81.4513 83.2045 81.6732 83.2045C83.158 83.2045 85.1718 84.5357 85.8033 85.9181L86.1105 86.6178L87.3393 86.4984C88.2609 86.4301 88.79 86.4813 89.4385 86.6861C90.599 87.0786 91.879 88.2392 92.391 89.3826C92.8006 90.2872 92.8006 90.3384 92.7836 95.9192C92.7836 101.142 92.7494 101.654 92.4081 102.865C91.9644 104.504 91.2305 106.006 90.7014 106.432C90.0529 106.927 89.1996 106.859 88.5852 106.244C88.1414 105.784 88.0902 105.63 88.1585 104.999C88.1926 104.606 88.4316 103.804 88.6876 103.241C89.319 101.739 89.4726 100.374 89.4726 95.612C89.4726 91.1234 89.3702 90.4408 88.6534 90.0482C87.6294 89.5021 86.5372 90.1165 86.3494 91.3282C86.1958 92.2498 85.6668 92.8984 84.967 93.0349C84.3185 93.1544 83.4481 92.7789 83.158 92.2669C83.0726 92.0792 82.9873 91.0381 82.9873 89.9458C82.9873 88.5122 82.919 87.8296 82.7313 87.4712C82.2022 86.4472 81.1953 86.3277 80.3249 87.1981C79.7958 87.7272 79.7446 87.8808 79.7446 88.7341C79.7446 89.9629 79.1473 90.7309 78.1745 90.765C77.4577 90.7821 76.7238 90.3554 76.502 89.7581C76.2289 89.0584 76.3142 87.693 76.6726 86.652C77.1846 85.2354 80.2566 72.9304 80.2566 72.333C80.2566 71.565 79.5398 70.9165 78.6865 70.9165C77.4236 70.9165 77.4236 70.8824 75.3073 79.5522C74.2492 83.853 73.2764 87.5906 73.1569 87.8466C72.679 88.7682 71.3478 89.0072 70.5969 88.3074C70.102 87.8296 70.2385 88.3586 68.1393 79.2109C67.2006 75.0808 66.3302 71.5992 66.2108 71.4626C65.8182 70.9677 64.982 70.7288 64.4017 70.9336C63.8556 71.1213 63.3606 71.8381 63.3606 72.4184C63.3606 72.6061 64.1457 76.156 65.1014 80.3202L66.8422 87.8978V91.789L66.8593 95.6973L66.2961 96.1922C65.6817 96.7384 65.1185 96.8066 64.4017 96.4482C63.719 96.0898 63.5313 95.4925 63.5313 93.7005V92.0792H63.0364C62.4732 92.0792 61.5857 92.6424 61.0737 93.325C60.7494 93.7688 60.7153 94.076 60.6641 97.3016C60.5788 102.695 60.903 103.565 64.4529 107.576C66.5009 109.88 66.774 110.255 66.774 110.784C66.774 111.569 66.535 111.979 65.9206 112.303C65.2038 112.679 64.6577 112.627 64.0774 112.132Z" fill="white"/>
<path d="M83.7385 111.979C83.3289 111.569 83.1582 111.245 83.1582 110.852C83.1582 110.152 84.1139 109.146 84.7625 109.146C86.5545 109.146 87.2542 111.518 85.7011 112.32C84.9331 112.712 84.3699 112.61 83.7385 111.979Z" fill="white"/>
</g>
<rect width="150" height="50" transform="translate(0 164)" fill="#C8C846"/>
<rect width="150" height="50" transform="translate(0 164)" fill="white" fill-opacity="0.2"/>
<path d="M36.9941 189.242C37.6908 189.978 38.0163 190.84 37.9707 191.83C37.9186 192.995 37.4531 193.982 36.5742 194.789C35.6888 195.596 34.6341 196 33.4102 196C32.349 196 31.3984 195.772 30.5586 195.316C29.5495 194.77 28.9082 193.975 28.6348 192.934C28.5566 192.628 28.5957 192.338 28.752 192.064C28.9147 191.791 29.1491 191.615 29.4551 191.537C29.7611 191.459 30.0508 191.498 30.3242 191.654C30.5977 191.817 30.7734 192.051 30.8516 192.357C30.9688 192.794 31.2878 193.135 31.8086 193.383C32.2773 193.598 32.8112 193.705 33.4102 193.705C34.0221 193.705 34.5462 193.513 34.9824 193.129C35.4251 192.751 35.6595 192.283 35.6855 191.723C35.6986 191.384 35.5781 191.081 35.3242 190.814C34.9206 190.385 34.2435 190.163 33.293 190.15H33.2832C33.2572 190.15 33.2507 190.15 33.2637 190.15C33.2572 190.15 33.2507 190.15 33.2441 190.15C31.6491 190.124 30.4284 189.665 29.582 188.773C28.8854 188.031 28.5599 187.169 28.6055 186.186C28.6576 185.014 29.123 184.024 30.002 183.217C30.8809 182.41 31.9355 182.006 33.166 182.006C34.2272 182.006 35.1777 182.234 36.0176 182.689C37.0267 183.236 37.668 184.031 37.9414 185.072C38.0195 185.378 37.9772 185.668 37.8145 185.941C37.6582 186.215 37.4271 186.391 37.1211 186.469C36.8151 186.547 36.5254 186.508 36.252 186.352C35.9785 186.189 35.8027 185.954 35.7246 185.648C35.6074 185.212 35.2852 184.87 34.7578 184.623C34.2956 184.408 33.765 184.301 33.166 184.301C32.554 184.301 32.0267 184.493 31.584 184.877C31.1478 185.261 30.9167 185.73 30.8906 186.283C30.8776 186.622 30.998 186.928 31.252 187.201C31.6556 187.624 32.3327 187.842 33.2832 187.855H33.332C34.9271 187.882 36.1478 188.344 36.9941 189.242ZM51.5059 194.184C50.1712 195.395 48.6022 196 46.7988 196C44.8783 196 43.2344 195.32 41.8672 193.959C40.5065 192.592 39.8262 190.948 39.8262 189.027C39.8262 187.1 40.5065 185.456 41.8672 184.096C43.2344 182.729 44.8783 182.045 46.7988 182.045C48.3809 182.045 49.8001 182.527 51.0566 183.49C51.304 183.686 51.4505 183.939 51.4961 184.252C51.5352 184.571 51.457 184.857 51.2617 185.111C51.0664 185.365 50.8125 185.512 50.5 185.551C50.181 185.59 49.8945 185.515 49.6406 185.326C48.8073 184.682 47.86 184.359 46.7988 184.359C45.5163 184.359 44.4193 184.815 43.5078 185.727C42.5964 186.638 42.1406 187.738 42.1406 189.027C42.1406 190.31 42.5964 191.407 43.5078 192.318C44.4193 193.23 45.5163 193.686 46.7988 193.686C48.0098 193.686 49.0579 193.282 49.9434 192.475C50.1777 192.26 50.4544 192.159 50.7734 192.172C51.0924 192.185 51.3594 192.312 51.5742 192.553C51.7891 192.787 51.89 193.064 51.877 193.383C51.8639 193.702 51.7402 193.969 51.5059 194.184ZM56.0762 195.658C55.8548 195.886 55.5846 196 55.2656 196C54.9466 196 54.6764 195.886 54.4551 195.658C54.2272 195.437 54.1133 195.167 54.1133 194.848V183.197C54.1133 182.878 54.2272 182.608 54.4551 182.387C54.6764 182.159 54.9466 182.045 55.2656 182.045C55.5846 182.045 55.8548 182.159 56.0762 182.387C56.304 182.608 56.418 182.878 56.418 183.197V194.848C56.418 195.167 56.304 195.437 56.0762 195.658ZM67.3652 189.242C68.0618 189.978 68.3874 190.84 68.3418 191.83C68.2897 192.995 67.8242 193.982 66.9453 194.789C66.0599 195.596 65.0052 196 63.7812 196C62.7201 196 61.7695 195.772 60.9297 195.316C59.9206 194.77 59.2793 193.975 59.0059 192.934C58.9277 192.628 58.9668 192.338 59.123 192.064C59.2858 191.791 59.5202 191.615 59.8262 191.537C60.1322 191.459 60.4219 191.498 60.6953 191.654C60.9688 191.817 61.1445 192.051 61.2227 192.357C61.3398 192.794 61.6589 193.135 62.1797 193.383C62.6484 193.598 63.1823 193.705 63.7812 193.705C64.3932 193.705 64.9173 193.513 65.3535 193.129C65.7962 192.751 66.0306 192.283 66.0566 191.723C66.0697 191.384 65.9492 191.081 65.6953 190.814C65.2917 190.385 64.6146 190.163 63.6641 190.15H63.6543C63.6283 190.15 63.6217 190.15 63.6348 190.15C63.6283 190.15 63.6217 190.15 63.6152 190.15C62.0202 190.124 60.7995 189.665 59.9531 188.773C59.2565 188.031 58.931 187.169 58.9766 186.186C59.0286 185.014 59.4941 184.024 60.373 183.217C61.252 182.41 62.3066 182.006 63.5371 182.006C64.5983 182.006 65.5488 182.234 66.3887 182.689C67.3978 183.236 68.0391 184.031 68.3125 185.072C68.3906 185.378 68.3483 185.668 68.1855 185.941C68.0293 186.215 67.7982 186.391 67.4922 186.469C67.1862 186.547 66.8965 186.508 66.623 186.352C66.3496 186.189 66.1738 185.954 66.0957 185.648C65.9785 185.212 65.6562 184.87 65.1289 184.623C64.6667 184.408 64.1361 184.301 63.5371 184.301C62.9251 184.301 62.3978 184.493 61.9551 184.877C61.5189 185.261 61.2878 185.73 61.2617 186.283C61.2487 186.622 61.3691 186.928 61.623 187.201C62.0267 187.624 62.7038 187.842 63.6543 187.855H63.7031C65.2982 187.882 66.5189 188.344 67.3652 189.242ZM78.8301 189.242C79.5267 189.978 79.8522 190.84 79.8066 191.83C79.7546 192.995 79.2891 193.982 78.4102 194.789C77.5247 195.596 76.4701 196 75.2461 196C74.1849 196 73.2344 195.772 72.3945 195.316C71.3854 194.77 70.7441 193.975 70.4707 192.934C70.3926 192.628 70.4316 192.338 70.5879 192.064C70.7507 191.791 70.985 191.615 71.291 191.537C71.597 191.459 71.8867 191.498 72.1602 191.654C72.4336 191.817 72.6094 192.051 72.6875 192.357C72.8047 192.794 73.1237 193.135 73.6445 193.383C74.1133 193.598 74.6471 193.705 75.2461 193.705C75.8581 193.705 76.3822 193.513 76.8184 193.129C77.2611 192.751 77.4954 192.283 77.5215 191.723C77.5345 191.384 77.4141 191.081 77.1602 190.814C76.7565 190.385 76.0794 190.163 75.1289 190.15H75.1191C75.0931 190.15 75.0866 190.15 75.0996 190.15C75.0931 190.15 75.0866 190.15 75.0801 190.15C73.485 190.124 72.2643 189.665 71.418 188.773C70.7214 188.031 70.3958 187.169 70.4414 186.186C70.4935 185.014 70.959 184.024 71.8379 183.217C72.7168 182.41 73.7715 182.006 75.002 182.006C76.0632 182.006 77.0137 182.234 77.8535 182.689C78.8626 183.236 79.5039 184.031 79.7773 185.072C79.8555 185.378 79.8132 185.668 79.6504 185.941C79.4941 186.215 79.263 186.391 78.957 186.469C78.651 186.547 78.3613 186.508 78.0879 186.352C77.8145 186.189 77.6387 185.954 77.5605 185.648C77.4434 185.212 77.1211 184.87 76.5938 184.623C76.1315 184.408 75.6009 184.301 75.002 184.301C74.39 184.301 73.8626 184.493 73.4199 184.877C72.9837 185.261 72.7526 185.73 72.7266 186.283C72.7135 186.622 72.834 186.928 73.0879 187.201C73.4915 187.624 74.1686 187.842 75.1191 187.855H75.168C76.763 187.882 77.9837 188.344 78.8301 189.242ZM91.9453 185.658C91.0208 184.74 89.9108 184.281 88.6152 184.281C87.3197 184.281 86.2129 184.74 85.2949 185.658C84.3704 186.583 83.9082 187.693 83.9082 188.988C83.9082 190.284 84.3704 191.391 85.2949 192.309C86.2129 193.233 87.3197 193.695 88.6152 193.695C89.9108 193.695 91.0208 193.233 91.9453 192.309C92.8633 191.391 93.3223 190.284 93.3223 188.988C93.3223 187.693 92.8633 186.583 91.9453 185.658ZM93.5762 193.939C92.2025 195.313 90.5488 196 88.6152 196C86.6816 196 85.0312 195.313 83.6641 193.939C82.2904 192.572 81.6035 190.922 81.6035 188.988C81.6035 187.055 82.2904 185.401 83.6641 184.027C85.0312 182.66 86.6816 181.977 88.6152 181.977C90.5488 181.977 92.2025 182.66 93.5762 184.027C94.9434 185.401 95.627 187.055 95.627 188.988C95.627 190.922 94.9434 192.572 93.5762 193.939ZM100.725 187.816H103.693C104.24 187.797 104.709 187.618 105.1 187.279C105.484 186.934 105.676 186.524 105.676 186.049C105.676 185.554 105.474 185.134 105.07 184.789C104.667 184.444 104.182 184.271 103.615 184.271H100.725V187.816ZM106.691 183.168C107.544 183.962 107.971 184.923 107.971 186.049C107.971 186.908 107.704 187.686 107.17 188.383C106.656 189.073 105.979 189.564 105.139 189.857L107.355 194.35C107.492 194.63 107.508 194.919 107.404 195.219C107.307 195.518 107.115 195.74 106.828 195.883C106.665 195.961 106.496 196 106.32 196C105.845 196 105.503 195.785 105.295 195.355L102.707 190.111H100.725V194.77C100.725 195.082 100.611 195.352 100.383 195.58C100.161 195.801 99.8913 195.912 99.5723 195.912C99.2598 195.912 98.9896 195.801 98.7617 195.58C98.5404 195.352 98.4297 195.082 98.4297 194.77V183.129C98.4297 182.81 98.5404 182.54 98.7617 182.318C98.9896 182.09 99.2598 181.977 99.5723 181.977H103.615C104.82 181.977 105.845 182.374 106.691 183.168ZM118.322 189.242C119.019 189.978 119.344 190.84 119.299 191.83C119.247 192.995 118.781 193.982 117.902 194.789C117.017 195.596 115.962 196 114.738 196C113.677 196 112.727 195.772 111.887 195.316C110.878 194.77 110.236 193.975 109.963 192.934C109.885 192.628 109.924 192.338 110.08 192.064C110.243 191.791 110.477 191.615 110.783 191.537C111.089 191.459 111.379 191.498 111.652 191.654C111.926 191.817 112.102 192.051 112.18 192.357C112.297 192.794 112.616 193.135 113.137 193.383C113.605 193.598 114.139 193.705 114.738 193.705C115.35 193.705 115.874 193.513 116.311 193.129C116.753 192.751 116.988 192.283 117.014 191.723C117.027 191.384 116.906 191.081 116.652 190.814C116.249 190.385 115.572 190.163 114.621 190.15H114.611C114.585 190.15 114.579 190.15 114.592 190.15C114.585 190.15 114.579 190.15 114.572 190.15C112.977 190.124 111.757 189.665 110.91 188.773C110.214 188.031 109.888 187.169 109.934 186.186C109.986 185.014 110.451 184.024 111.33 183.217C112.209 182.41 113.264 182.006 114.494 182.006C115.555 182.006 116.506 182.234 117.346 182.689C118.355 183.236 118.996 184.031 119.27 185.072C119.348 185.378 119.305 185.668 119.143 185.941C118.986 186.215 118.755 186.391 118.449 186.469C118.143 186.547 117.854 186.508 117.58 186.352C117.307 186.189 117.131 185.954 117.053 185.648C116.936 185.212 116.613 184.87 116.086 184.623C115.624 184.408 115.093 184.301 114.494 184.301C113.882 184.301 113.355 184.493 112.912 184.877C112.476 185.261 112.245 185.73 112.219 186.283C112.206 186.622 112.326 186.928 112.58 187.201C112.984 187.624 113.661 187.842 114.611 187.855H114.66C116.255 187.882 117.476 188.344 118.322 189.242Z" fill="white"/>
<defs>
<clipPath id="clip0_205_130">
<rect x="10" y="10" width="130" height="230" rx="2" fill="white"/>
</clipPath>
</defs>
</svg>
