<svg width="900" height="1500" viewBox="0 0 900 1500" fill="none" xmlns="http://www.w3.org/2000/svg">
<rect width="900" height="1500" rx="20" fill="#C8C846"/>
<rect width="900" height="1500" rx="20" fill="white" fill-opacity="0.6"/>
<rect width="85.1694" height="90.4377" transform="translate(779 1031.76) rotate(-60)" fill="#C8C846"/>
<rect width="85.1694" height="90.4377" transform="translate(779 1031.76) rotate(-60)" fill="white" fill-opacity="0.1"/>
<rect width="85.1694" height="90.4377" transform="translate(0 1002.58) rotate(-30)" fill="#C8C846"/>
<rect width="85.1694" height="90.4377" transform="translate(0 1002.58) rotate(-30)" fill="white" fill-opacity="0.1"/>
<rect x="60" y="60" width="780" height="1380" rx="20" fill="#C8C846"/>
<rect x="60" y="60" width="780" height="1380" rx="20" fill="white" fill-opacity="0.4"/>
<circle cx="450" cy="539" r="250" fill="#C8C846"/>
<circle cx="450" cy="539" r="250" fill="white" fill-opacity="0.2"/>
<path d="M381.733 677.325C380.026 675.832 373.626 669.112 367.546 662.285C342.053 633.912 338.426 623.672 339.066 582.712C339.386 559.139 339.386 558.819 342.373 552.845C348.239 540.899 360.293 532.045 372.133 530.872C375.546 530.552 377.253 529.912 377.253 528.952C377.253 528.099 372.453 506.232 366.479 480.205C357.413 440.525 355.813 431.992 356.239 426.659C358.266 400.099 389.839 388.472 408.933 407.139C411.386 409.592 414.373 413.752 415.439 416.419C416.613 419.085 420.133 432.632 423.226 446.392C426.319 460.152 429.093 471.779 429.519 472.312C429.839 472.739 433.146 460.579 436.879 445.432C444.026 415.672 445.839 411.405 453.626 405.005C462.693 397.539 476.026 396.152 486.906 401.699C494.266 405.325 497.999 409.272 501.626 417.059C505.679 425.699 505.146 431.352 496.719 464.419C492.559 480.419 489.253 494.179 489.253 495.032C489.253 495.885 490.319 496.525 491.706 496.525C500.986 496.525 513.573 504.845 517.519 513.485L519.439 517.859L527.119 517.112C532.879 516.685 536.186 517.005 540.239 518.285C547.493 520.739 555.493 527.992 558.693 535.139C561.253 540.792 561.253 541.112 561.146 575.992C561.146 608.632 560.933 611.832 558.799 619.405C556.026 629.645 551.439 639.032 548.133 641.699C544.079 644.792 538.746 644.365 534.906 640.525C532.133 637.645 531.813 636.685 532.239 632.739C532.453 630.285 533.946 625.272 535.546 621.752C539.493 612.365 540.453 603.832 540.453 574.072C540.453 546.019 539.813 541.752 535.333 539.299C528.933 535.885 522.106 539.725 520.933 547.299C519.973 553.059 516.666 557.112 512.293 557.965C508.239 558.712 502.799 556.365 500.986 553.165C500.453 551.992 499.919 545.485 499.919 538.659C499.919 529.699 499.493 525.432 498.319 523.192C495.013 516.792 488.719 516.045 483.279 521.485C479.973 524.792 479.653 525.752 479.653 531.085C479.653 538.765 475.919 543.565 469.839 543.779C465.359 543.885 460.773 541.219 459.386 537.485C457.679 533.112 458.213 524.579 460.453 518.072C463.653 509.219 482.853 432.312 482.853 428.579C482.853 423.779 478.373 419.725 473.039 419.725C465.146 419.725 465.146 419.512 451.919 473.699C445.306 500.579 439.226 523.939 438.479 525.539C435.493 531.299 427.173 532.792 422.479 528.419C419.386 525.432 420.239 528.739 407.119 471.565C401.253 445.752 395.813 423.992 395.066 423.139C392.613 420.045 387.386 418.552 383.759 419.832C380.346 421.005 377.253 425.485 377.253 429.112C377.253 430.285 382.159 452.472 388.133 478.499L399.013 525.859V550.179L399.119 574.605L395.599 577.699C391.759 581.112 388.239 581.539 383.759 579.299C379.493 577.059 378.319 573.325 378.319 562.125V551.992H375.226C371.706 551.992 366.159 555.512 362.959 559.779C360.933 562.552 360.719 564.472 360.399 584.632C359.866 618.339 361.893 623.779 384.079 648.845C396.879 663.245 398.586 665.592 398.586 668.899C398.586 673.805 397.093 676.365 393.253 678.392C388.773 680.739 385.359 680.419 381.733 677.325Z" fill="white"/>
<path d="M504.613 676.365C502.053 673.805 500.986 671.778 500.986 669.325C500.986 664.952 506.96 658.658 511.013 658.658C522.213 658.658 526.586 673.485 516.88 678.498C512.08 680.952 508.56 680.312 504.613 676.365Z" fill="white"/>
<rect width="900" height="276" transform="translate(0 1003)" fill="#C8C846"/>
<rect width="900" height="276" transform="translate(0 1003)" fill="white" fill-opacity="0.2"/>
<path d="M210.562 1142.75C215.021 1147.46 217.104 1152.98 216.812 1159.31C216.479 1166.77 213.5 1173.08 207.875 1178.25C202.208 1183.42 195.458 1186 187.625 1186C180.833 1186 174.75 1184.54 169.375 1181.62C162.917 1178.12 158.812 1173.04 157.062 1166.38C156.562 1164.42 156.812 1162.56 157.812 1160.81C158.854 1159.06 160.354 1157.94 162.312 1157.44C164.271 1156.94 166.125 1157.19 167.875 1158.19C169.625 1159.23 170.75 1160.73 171.25 1162.69C172 1165.48 174.042 1167.67 177.375 1169.25C180.375 1170.62 183.792 1171.31 187.625 1171.31C191.542 1171.31 194.896 1170.08 197.688 1167.62C200.521 1165.21 202.021 1162.21 202.188 1158.62C202.271 1156.46 201.5 1154.52 199.875 1152.81C197.292 1150.06 192.958 1148.65 186.875 1148.56H186.812C186.646 1148.56 186.604 1148.56 186.688 1148.56C186.646 1148.56 186.604 1148.56 186.562 1148.56C176.354 1148.4 168.542 1145.46 163.125 1139.75C158.667 1135 156.583 1129.48 156.875 1123.19C157.208 1115.69 160.188 1109.35 165.812 1104.19C171.438 1099.02 178.188 1096.44 186.062 1096.44C192.854 1096.44 198.938 1097.9 204.312 1100.81C210.771 1104.31 214.875 1109.4 216.625 1116.06C217.125 1118.02 216.854 1119.88 215.812 1121.62C214.812 1123.38 213.333 1124.5 211.375 1125C209.417 1125.5 207.562 1125.25 205.812 1124.25C204.062 1123.21 202.938 1121.71 202.438 1119.75C201.688 1116.96 199.625 1114.77 196.25 1113.19C193.292 1111.81 189.896 1111.12 186.062 1111.12C182.146 1111.12 178.771 1112.35 175.938 1114.81C173.146 1117.27 171.667 1120.27 171.5 1123.81C171.417 1125.98 172.188 1127.94 173.812 1129.69C176.396 1132.4 180.729 1133.79 186.812 1133.88H187.125C197.333 1134.04 205.146 1137 210.562 1142.75ZM303.438 1174.38C294.896 1182.12 284.854 1186 273.312 1186C261.021 1186 250.5 1181.65 241.75 1172.94C233.042 1164.19 228.688 1153.67 228.688 1141.38C228.688 1129.04 233.042 1118.52 241.75 1109.81C250.5 1101.06 261.021 1096.69 273.312 1096.69C283.438 1096.69 292.521 1099.77 300.562 1105.94C302.146 1107.19 303.083 1108.81 303.375 1110.81C303.625 1112.85 303.125 1114.69 301.875 1116.31C300.625 1117.94 299 1118.88 297 1119.12C294.958 1119.38 293.125 1118.9 291.5 1117.69C286.167 1113.56 280.104 1111.5 273.312 1111.5C265.104 1111.5 258.083 1114.42 252.25 1120.25C246.417 1126.08 243.5 1133.12 243.5 1141.38C243.5 1149.58 246.417 1156.6 252.25 1162.44C258.083 1168.27 265.104 1171.19 273.312 1171.19C281.062 1171.19 287.771 1168.6 293.438 1163.44C294.938 1162.06 296.708 1161.42 298.75 1161.5C300.792 1161.58 302.5 1162.4 303.875 1163.94C305.25 1165.44 305.896 1167.21 305.812 1169.25C305.729 1171.29 304.938 1173 303.438 1174.38ZM332.688 1183.81C331.271 1185.27 329.542 1186 327.5 1186C325.458 1186 323.729 1185.27 322.312 1183.81C320.854 1182.4 320.125 1180.67 320.125 1178.62V1104.06C320.125 1102.02 320.854 1100.29 322.312 1098.88C323.729 1097.42 325.458 1096.69 327.5 1096.69C329.542 1096.69 331.271 1097.42 332.688 1098.88C334.146 1100.29 334.875 1102.02 334.875 1104.06V1178.62C334.875 1180.67 334.146 1182.4 332.688 1183.81ZM404.938 1142.75C409.396 1147.46 411.479 1152.98 411.188 1159.31C410.854 1166.77 407.875 1173.08 402.25 1178.25C396.583 1183.42 389.833 1186 382 1186C375.208 1186 369.125 1184.54 363.75 1181.62C357.292 1178.12 353.188 1173.04 351.438 1166.38C350.938 1164.42 351.188 1162.56 352.188 1160.81C353.229 1159.06 354.729 1157.94 356.688 1157.44C358.646 1156.94 360.5 1157.19 362.25 1158.19C364 1159.23 365.125 1160.73 365.625 1162.69C366.375 1165.48 368.417 1167.67 371.75 1169.25C374.75 1170.62 378.167 1171.31 382 1171.31C385.917 1171.31 389.271 1170.08 392.062 1167.62C394.896 1165.21 396.396 1162.21 396.562 1158.62C396.646 1156.46 395.875 1154.52 394.25 1152.81C391.667 1150.06 387.333 1148.65 381.25 1148.56H381.188C381.021 1148.56 380.979 1148.56 381.062 1148.56C381.021 1148.56 380.979 1148.56 380.938 1148.56C370.729 1148.4 362.917 1145.46 357.5 1139.75C353.042 1135 350.958 1129.48 351.25 1123.19C351.583 1115.69 354.562 1109.35 360.188 1104.19C365.812 1099.02 372.562 1096.44 380.438 1096.44C387.229 1096.44 393.312 1097.9 398.688 1100.81C405.146 1104.31 409.25 1109.4 411 1116.06C411.5 1118.02 411.229 1119.88 410.188 1121.62C409.188 1123.38 407.708 1124.5 405.75 1125C403.792 1125.5 401.938 1125.25 400.188 1124.25C398.438 1123.21 397.312 1121.71 396.812 1119.75C396.062 1116.96 394 1114.77 390.625 1113.19C387.667 1111.81 384.271 1111.12 380.438 1111.12C376.521 1111.12 373.146 1112.35 370.312 1114.81C367.521 1117.27 366.042 1120.27 365.875 1123.81C365.792 1125.98 366.562 1127.94 368.188 1129.69C370.771 1132.4 375.104 1133.79 381.188 1133.88H381.5C391.708 1134.04 399.521 1137 404.938 1142.75ZM478.312 1142.75C482.771 1147.46 484.854 1152.98 484.562 1159.31C484.229 1166.77 481.25 1173.08 475.625 1178.25C469.958 1183.42 463.208 1186 455.375 1186C448.583 1186 442.5 1184.54 437.125 1181.62C430.667 1178.12 426.562 1173.04 424.812 1166.38C424.312 1164.42 424.562 1162.56 425.562 1160.81C426.604 1159.06 428.104 1157.94 430.062 1157.44C432.021 1156.94 433.875 1157.19 435.625 1158.19C437.375 1159.23 438.5 1160.73 439 1162.69C439.75 1165.48 441.792 1167.67 445.125 1169.25C448.125 1170.62 451.542 1171.31 455.375 1171.31C459.292 1171.31 462.646 1170.08 465.438 1167.62C468.271 1165.21 469.771 1162.21 469.938 1158.62C470.021 1156.46 469.25 1154.52 467.625 1152.81C465.042 1150.06 460.708 1148.65 454.625 1148.56H454.562C454.396 1148.56 454.354 1148.56 454.438 1148.56C454.396 1148.56 454.354 1148.56 454.312 1148.56C444.104 1148.4 436.292 1145.46 430.875 1139.75C426.417 1135 424.333 1129.48 424.625 1123.19C424.958 1115.69 427.938 1109.35 433.562 1104.19C439.188 1099.02 445.938 1096.44 453.812 1096.44C460.604 1096.44 466.688 1097.9 472.062 1100.81C478.521 1104.31 482.625 1109.4 484.375 1116.06C484.875 1118.02 484.604 1119.88 483.562 1121.62C482.562 1123.38 481.083 1124.5 479.125 1125C477.167 1125.5 475.312 1125.25 473.562 1124.25C471.812 1123.21 470.688 1121.71 470.188 1119.75C469.438 1116.96 467.375 1114.77 464 1113.19C461.042 1111.81 457.646 1111.12 453.812 1111.12C449.896 1111.12 446.521 1112.35 443.688 1114.81C440.896 1117.27 439.417 1120.27 439.25 1123.81C439.167 1125.98 439.938 1127.94 441.562 1129.69C444.146 1132.4 448.479 1133.79 454.562 1133.88H454.875C465.083 1134.04 472.896 1137 478.312 1142.75ZM562.25 1119.81C556.333 1113.94 549.229 1111 540.938 1111C532.646 1111 525.562 1113.94 519.688 1119.81C513.771 1125.73 510.812 1132.83 510.812 1141.12C510.812 1149.42 513.771 1156.5 519.688 1162.38C525.562 1168.29 532.646 1171.25 540.938 1171.25C549.229 1171.25 556.333 1168.29 562.25 1162.38C568.125 1156.5 571.062 1149.42 571.062 1141.12C571.062 1132.83 568.125 1125.73 562.25 1119.81ZM572.688 1172.81C563.896 1181.6 553.312 1186 540.938 1186C528.562 1186 518 1181.6 509.25 1172.81C500.458 1164.06 496.062 1153.5 496.062 1141.12C496.062 1128.75 500.458 1118.17 509.25 1109.38C518 1100.62 528.562 1096.25 540.938 1096.25C553.312 1096.25 563.896 1100.62 572.688 1109.38C581.438 1118.17 585.812 1128.75 585.812 1141.12C585.812 1153.5 581.438 1164.06 572.688 1172.81ZM618.438 1133.62H637.438C640.938 1133.5 643.938 1132.35 646.438 1130.19C648.896 1127.98 650.125 1125.35 650.125 1122.31C650.125 1119.15 648.833 1116.46 646.25 1114.25C643.667 1112.04 640.562 1110.94 636.938 1110.94H618.438V1133.62ZM656.625 1103.88C662.083 1108.96 664.812 1115.1 664.812 1122.31C664.812 1127.81 663.104 1132.79 659.688 1137.25C656.396 1141.67 652.062 1144.81 646.688 1146.69L660.875 1175.44C661.75 1177.23 661.854 1179.08 661.188 1181C660.562 1182.92 659.333 1184.33 657.5 1185.25C656.458 1185.75 655.375 1186 654.25 1186C651.208 1186 649.021 1184.62 647.688 1181.88L631.125 1148.31H618.438V1178.12C618.438 1180.12 617.708 1181.85 616.25 1183.31C614.833 1184.73 613.104 1185.44 611.062 1185.44C609.062 1185.44 607.333 1184.73 605.875 1183.31C604.458 1181.85 603.75 1180.12 603.75 1178.12V1103.62C603.75 1101.58 604.458 1099.85 605.875 1098.44C607.333 1096.98 609.062 1096.25 611.062 1096.25H636.938C644.646 1096.25 651.208 1098.79 656.625 1103.88ZM731.062 1142.75C735.521 1147.46 737.604 1152.98 737.312 1159.31C736.979 1166.77 734 1173.08 728.375 1178.25C722.708 1183.42 715.958 1186 708.125 1186C701.333 1186 695.25 1184.54 689.875 1181.62C683.417 1178.12 679.312 1173.04 677.562 1166.38C677.062 1164.42 677.312 1162.56 678.312 1160.81C679.354 1159.06 680.854 1157.94 682.812 1157.44C684.771 1156.94 686.625 1157.19 688.375 1158.19C690.125 1159.23 691.25 1160.73 691.75 1162.69C692.5 1165.48 694.542 1167.67 697.875 1169.25C700.875 1170.62 704.292 1171.31 708.125 1171.31C712.042 1171.31 715.396 1170.08 718.188 1167.62C721.021 1165.21 722.521 1162.21 722.688 1158.62C722.771 1156.46 722 1154.52 720.375 1152.81C717.792 1150.06 713.458 1148.65 707.375 1148.56H707.312C707.146 1148.56 707.104 1148.56 707.188 1148.56C707.146 1148.56 707.104 1148.56 707.062 1148.56C696.854 1148.4 689.042 1145.46 683.625 1139.75C679.167 1135 677.083 1129.48 677.375 1123.19C677.708 1115.69 680.688 1109.35 686.312 1104.19C691.938 1099.02 698.688 1096.44 706.562 1096.44C713.354 1096.44 719.438 1097.9 724.812 1100.81C731.271 1104.31 735.375 1109.4 737.125 1116.06C737.625 1118.02 737.354 1119.88 736.312 1121.62C735.312 1123.38 733.833 1124.5 731.875 1125C729.917 1125.5 728.062 1125.25 726.312 1124.25C724.562 1123.21 723.438 1121.71 722.938 1119.75C722.188 1116.96 720.125 1114.77 716.75 1113.19C713.792 1111.81 710.396 1111.12 706.562 1111.12C702.646 1111.12 699.271 1112.35 696.438 1114.81C693.646 1117.27 692.167 1120.27 692 1123.81C691.917 1125.98 692.688 1127.94 694.312 1129.69C696.896 1132.4 701.229 1133.79 707.312 1133.88H707.625C717.833 1134.04 725.646 1137 731.062 1142.75Z" fill="white"/>
</svg>
