<svg width="700" height="1200" viewBox="0 0 700 1200" fill="none" xmlns="http://www.w3.org/2000/svg">
<g clip-path="url(#clip0_190_73)">
<rect width="700" height="1200" rx="20" fill="#C8C846"/>
<rect width="700" height="1200" rx="20" fill="white" fill-opacity="0.6"/>
<rect width="85.1694" height="90.4377" transform="translate(580 821.759) rotate(-60)" fill="#C8C846"/>
<rect width="85.1694" height="90.4377" transform="translate(580 821.759) rotate(-60)" fill="white" fill-opacity="0.1"/>
<rect width="85.1694" height="90.4377" transform="translate(1 792.585) rotate(-30)" fill="#C8C846"/>
<rect width="85.1694" height="90.4377" transform="translate(1 792.585) rotate(-30)" fill="white" fill-opacity="0.1"/>
<rect x="60" y="60" width="580" height="1080" rx="20" fill="#C8C846"/>
<rect x="60" y="60" width="580" height="1080" rx="20" fill="white" fill-opacity="0.4"/>
<circle cx="350" cy="435" r="250" fill="#C8C846"/>
<circle cx="350" cy="435" r="250" fill="white" fill-opacity="0.2"/>
<path d="M281.733 573.325C280.026 571.832 273.626 565.112 267.546 558.285C242.053 529.912 238.426 519.672 239.066 478.712C239.386 455.139 239.386 454.819 242.373 448.845C248.239 436.899 260.293 428.045 272.133 426.872C275.546 426.552 277.253 425.912 277.253 424.952C277.253 424.099 272.453 402.232 266.479 376.205C257.413 336.525 255.813 327.992 256.239 322.659C258.266 296.099 289.839 284.472 308.933 303.139C311.386 305.592 314.373 309.752 315.439 312.419C316.613 315.085 320.133 328.632 323.226 342.392C326.319 356.152 329.093 367.779 329.519 368.312C329.839 368.739 333.146 356.579 336.879 341.432C344.026 311.672 345.839 307.405 353.626 301.005C362.693 293.539 376.026 292.152 386.906 297.699C394.266 301.325 397.999 305.272 401.626 313.059C405.679 321.699 405.146 327.352 396.719 360.419C392.559 376.419 389.253 390.179 389.253 391.032C389.253 391.885 390.319 392.525 391.706 392.525C400.986 392.525 413.573 400.845 417.519 409.485L419.439 413.859L427.119 413.112C432.879 412.685 436.186 413.005 440.239 414.285C447.493 416.739 455.493 423.992 458.693 431.139C461.253 436.792 461.253 437.112 461.146 471.992C461.146 504.632 460.933 507.832 458.799 515.405C456.026 525.645 451.439 535.032 448.133 537.699C444.079 540.792 438.746 540.365 434.906 536.525C432.133 533.645 431.813 532.685 432.239 528.739C432.453 526.285 433.946 521.272 435.546 517.752C439.493 508.365 440.453 499.832 440.453 470.072C440.453 442.019 439.813 437.752 435.333 435.299C428.933 431.885 422.106 435.725 420.933 443.299C419.973 449.059 416.666 453.112 412.293 453.965C408.239 454.712 402.799 452.365 400.986 449.165C400.453 447.992 399.919 441.485 399.919 434.659C399.919 425.699 399.493 421.432 398.319 419.192C395.013 412.792 388.719 412.045 383.279 417.485C379.973 420.792 379.653 421.752 379.653 427.085C379.653 434.765 375.919 439.565 369.839 439.779C365.359 439.885 360.773 437.219 359.386 433.485C357.679 429.112 358.213 420.579 360.453 414.072C363.653 405.219 382.853 328.312 382.853 324.579C382.853 319.779 378.373 315.725 373.039 315.725C365.146 315.725 365.146 315.512 351.919 369.699C345.306 396.579 339.226 419.939 338.479 421.539C335.493 427.299 327.173 428.792 322.479 424.419C319.386 421.432 320.239 424.739 307.119 367.565C301.253 341.752 295.813 319.992 295.066 319.139C292.613 316.045 287.386 314.552 283.759 315.832C280.346 317.005 277.253 321.485 277.253 325.112C277.253 326.285 282.159 348.472 288.133 374.499L299.013 421.859V446.179L299.119 470.605L295.599 473.699C291.759 477.112 288.239 477.539 283.759 475.299C279.493 473.059 278.319 469.325 278.319 458.125V447.992H275.226C271.706 447.992 266.159 451.512 262.959 455.779C260.933 458.552 260.719 460.472 260.399 480.632C259.866 514.339 261.893 519.779 284.079 544.845C296.879 559.245 298.586 561.592 298.586 564.899C298.586 569.805 297.093 572.365 293.253 574.392C288.773 576.739 285.359 576.419 281.733 573.325Z" fill="white"/>
<path d="M404.613 572.365C402.053 569.805 400.986 567.779 400.986 565.325C400.986 560.952 406.96 554.659 411.013 554.659C422.213 554.659 426.586 569.485 416.88 574.499C412.08 576.952 408.56 576.312 404.613 572.365Z" fill="white"/>
<rect width="700" height="276" transform="translate(0 793)" fill="#C8C846"/>
<rect width="700" height="276" transform="translate(0 793)" fill="white" fill-opacity="0.2"/>
<path d="M110.562 932.75C115.021 937.458 117.104 942.979 116.812 949.312C116.479 956.771 113.5 963.083 107.875 968.25C102.208 973.417 95.4583 976 87.625 976C80.8333 976 74.75 974.542 69.375 971.625C62.9167 968.125 58.8125 963.042 57.0625 956.375C56.5625 954.417 56.8125 952.562 57.8125 950.812C58.8542 949.062 60.3542 947.938 62.3125 947.438C64.2708 946.938 66.125 947.188 67.875 948.188C69.625 949.229 70.75 950.729 71.25 952.688C72 955.479 74.0417 957.667 77.375 959.25C80.375 960.625 83.7917 961.312 87.625 961.312C91.5417 961.312 94.8958 960.083 97.6875 957.625C100.521 955.208 102.021 952.208 102.188 948.625C102.271 946.458 101.5 944.521 99.875 942.812C97.2917 940.062 92.9583 938.646 86.875 938.562H86.8125C86.6458 938.562 86.6042 938.562 86.6875 938.562C86.6458 938.562 86.6042 938.562 86.5625 938.562C76.3542 938.396 68.5417 935.458 63.125 929.75C58.6667 925 56.5833 919.479 56.875 913.188C57.2083 905.688 60.1875 899.354 65.8125 894.188C71.4375 889.021 78.1875 886.438 86.0625 886.438C92.8542 886.438 98.9375 887.896 104.312 890.812C110.771 894.312 114.875 899.396 116.625 906.062C117.125 908.021 116.854 909.875 115.812 911.625C114.812 913.375 113.333 914.5 111.375 915C109.417 915.5 107.562 915.25 105.812 914.25C104.062 913.208 102.938 911.708 102.438 909.75C101.688 906.958 99.625 904.771 96.25 903.188C93.2917 901.812 89.8958 901.125 86.0625 901.125C82.1458 901.125 78.7708 902.354 75.9375 904.812C73.1458 907.271 71.6667 910.271 71.5 913.812C71.4167 915.979 72.1875 917.938 73.8125 919.688C76.3958 922.396 80.7292 923.792 86.8125 923.875H87.125C97.3333 924.042 105.146 927 110.562 932.75ZM203.438 964.375C194.896 972.125 184.854 976 173.312 976C161.021 976 150.5 971.646 141.75 962.938C133.042 954.188 128.688 943.667 128.688 931.375C128.688 919.042 133.042 908.521 141.75 899.812C150.5 891.062 161.021 886.688 173.312 886.688C183.438 886.688 192.521 889.771 200.562 895.938C202.146 897.188 203.083 898.812 203.375 900.812C203.625 902.854 203.125 904.688 201.875 906.312C200.625 907.938 199 908.875 197 909.125C194.958 909.375 193.125 908.896 191.5 907.688C186.167 903.562 180.104 901.5 173.312 901.5C165.104 901.5 158.083 904.417 152.25 910.25C146.417 916.083 143.5 923.125 143.5 931.375C143.5 939.583 146.417 946.604 152.25 952.438C158.083 958.271 165.104 961.188 173.312 961.188C181.062 961.188 187.771 958.604 193.438 953.438C194.938 952.062 196.708 951.417 198.75 951.5C200.792 951.583 202.5 952.396 203.875 953.938C205.25 955.438 205.896 957.208 205.812 959.25C205.729 961.292 204.938 963 203.438 964.375ZM232.688 973.812C231.271 975.271 229.542 976 227.5 976C225.458 976 223.729 975.271 222.312 973.812C220.854 972.396 220.125 970.667 220.125 968.625V894.062C220.125 892.021 220.854 890.292 222.312 888.875C223.729 887.417 225.458 886.688 227.5 886.688C229.542 886.688 231.271 887.417 232.688 888.875C234.146 890.292 234.875 892.021 234.875 894.062V968.625C234.875 970.667 234.146 972.396 232.688 973.812ZM304.938 932.75C309.396 937.458 311.479 942.979 311.188 949.312C310.854 956.771 307.875 963.083 302.25 968.25C296.583 973.417 289.833 976 282 976C275.208 976 269.125 974.542 263.75 971.625C257.292 968.125 253.188 963.042 251.438 956.375C250.938 954.417 251.188 952.562 252.188 950.812C253.229 949.062 254.729 947.938 256.688 947.438C258.646 946.938 260.5 947.188 262.25 948.188C264 949.229 265.125 950.729 265.625 952.688C266.375 955.479 268.417 957.667 271.75 959.25C274.75 960.625 278.167 961.312 282 961.312C285.917 961.312 289.271 960.083 292.062 957.625C294.896 955.208 296.396 952.208 296.562 948.625C296.646 946.458 295.875 944.521 294.25 942.812C291.667 940.062 287.333 938.646 281.25 938.562H281.188C281.021 938.562 280.979 938.562 281.062 938.562C281.021 938.562 280.979 938.562 280.938 938.562C270.729 938.396 262.917 935.458 257.5 929.75C253.042 925 250.958 919.479 251.25 913.188C251.583 905.688 254.562 899.354 260.188 894.188C265.812 889.021 272.562 886.438 280.438 886.438C287.229 886.438 293.312 887.896 298.688 890.812C305.146 894.312 309.25 899.396 311 906.062C311.5 908.021 311.229 909.875 310.188 911.625C309.188 913.375 307.708 914.5 305.75 915C303.792 915.5 301.938 915.25 300.188 914.25C298.438 913.208 297.312 911.708 296.812 909.75C296.062 906.958 294 904.771 290.625 903.188C287.667 901.812 284.271 901.125 280.438 901.125C276.521 901.125 273.146 902.354 270.312 904.812C267.521 907.271 266.042 910.271 265.875 913.812C265.792 915.979 266.562 917.938 268.188 919.688C270.771 922.396 275.104 923.792 281.188 923.875H281.5C291.708 924.042 299.521 927 304.938 932.75ZM378.312 932.75C382.771 937.458 384.854 942.979 384.562 949.312C384.229 956.771 381.25 963.083 375.625 968.25C369.958 973.417 363.208 976 355.375 976C348.583 976 342.5 974.542 337.125 971.625C330.667 968.125 326.562 963.042 324.812 956.375C324.312 954.417 324.562 952.562 325.562 950.812C326.604 949.062 328.104 947.938 330.062 947.438C332.021 946.938 333.875 947.188 335.625 948.188C337.375 949.229 338.5 950.729 339 952.688C339.75 955.479 341.792 957.667 345.125 959.25C348.125 960.625 351.542 961.312 355.375 961.312C359.292 961.312 362.646 960.083 365.438 957.625C368.271 955.208 369.771 952.208 369.938 948.625C370.021 946.458 369.25 944.521 367.625 942.812C365.042 940.062 360.708 938.646 354.625 938.562H354.562C354.396 938.562 354.354 938.562 354.438 938.562C354.396 938.562 354.354 938.562 354.312 938.562C344.104 938.396 336.292 935.458 330.875 929.75C326.417 925 324.333 919.479 324.625 913.188C324.958 905.688 327.938 899.354 333.562 894.188C339.188 889.021 345.938 886.438 353.812 886.438C360.604 886.438 366.688 887.896 372.062 890.812C378.521 894.312 382.625 899.396 384.375 906.062C384.875 908.021 384.604 909.875 383.562 911.625C382.562 913.375 381.083 914.5 379.125 915C377.167 915.5 375.312 915.25 373.562 914.25C371.812 913.208 370.688 911.708 370.188 909.75C369.438 906.958 367.375 904.771 364 903.188C361.042 901.812 357.646 901.125 353.812 901.125C349.896 901.125 346.521 902.354 343.688 904.812C340.896 907.271 339.417 910.271 339.25 913.812C339.167 915.979 339.938 917.938 341.562 919.688C344.146 922.396 348.479 923.792 354.562 923.875H354.875C365.083 924.042 372.896 927 378.312 932.75ZM462.25 909.812C456.333 903.938 449.229 901 440.938 901C432.646 901 425.562 903.938 419.688 909.812C413.771 915.729 410.812 922.833 410.812 931.125C410.812 939.417 413.771 946.5 419.688 952.375C425.562 958.292 432.646 961.25 440.938 961.25C449.229 961.25 456.333 958.292 462.25 952.375C468.125 946.5 471.062 939.417 471.062 931.125C471.062 922.833 468.125 915.729 462.25 909.812ZM472.688 962.812C463.896 971.604 453.312 976 440.938 976C428.562 976 418 971.604 409.25 962.812C400.458 954.062 396.062 943.5 396.062 931.125C396.062 918.75 400.458 908.167 409.25 899.375C418 890.625 428.562 886.25 440.938 886.25C453.312 886.25 463.896 890.625 472.688 899.375C481.438 908.167 485.812 918.75 485.812 931.125C485.812 943.5 481.438 954.062 472.688 962.812ZM518.438 923.625H537.438C540.938 923.5 543.938 922.354 546.438 920.188C548.896 917.979 550.125 915.354 550.125 912.312C550.125 909.146 548.833 906.458 546.25 904.25C543.667 902.042 540.562 900.938 536.938 900.938H518.438V923.625ZM556.625 893.875C562.083 898.958 564.812 905.104 564.812 912.312C564.812 917.812 563.104 922.792 559.688 927.25C556.396 931.667 552.062 934.812 546.688 936.688L560.875 965.438C561.75 967.229 561.854 969.083 561.188 971C560.562 972.917 559.333 974.333 557.5 975.25C556.458 975.75 555.375 976 554.25 976C551.208 976 549.021 974.625 547.688 971.875L531.125 938.312H518.438V968.125C518.438 970.125 517.708 971.854 516.25 973.312C514.833 974.729 513.104 975.438 511.062 975.438C509.062 975.438 507.333 974.729 505.875 973.312C504.458 971.854 503.75 970.125 503.75 968.125V893.625C503.75 891.583 504.458 889.854 505.875 888.438C507.333 886.979 509.062 886.25 511.062 886.25H536.938C544.646 886.25 551.208 888.792 556.625 893.875ZM631.062 932.75C635.521 937.458 637.604 942.979 637.312 949.312C636.979 956.771 634 963.083 628.375 968.25C622.708 973.417 615.958 976 608.125 976C601.333 976 595.25 974.542 589.875 971.625C583.417 968.125 579.312 963.042 577.562 956.375C577.062 954.417 577.312 952.562 578.312 950.812C579.354 949.062 580.854 947.938 582.812 947.438C584.771 946.938 586.625 947.188 588.375 948.188C590.125 949.229 591.25 950.729 591.75 952.688C592.5 955.479 594.542 957.667 597.875 959.25C600.875 960.625 604.292 961.312 608.125 961.312C612.042 961.312 615.396 960.083 618.188 957.625C621.021 955.208 622.521 952.208 622.688 948.625C622.771 946.458 622 944.521 620.375 942.812C617.792 940.062 613.458 938.646 607.375 938.562H607.312C607.146 938.562 607.104 938.562 607.188 938.562C607.146 938.562 607.104 938.562 607.062 938.562C596.854 938.396 589.042 935.458 583.625 929.75C579.167 925 577.083 919.479 577.375 913.188C577.708 905.688 580.688 899.354 586.312 894.188C591.938 889.021 598.688 886.438 606.562 886.438C613.354 886.438 619.438 887.896 624.812 890.812C631.271 894.312 635.375 899.396 637.125 906.062C637.625 908.021 637.354 909.875 636.312 911.625C635.312 913.375 633.833 914.5 631.875 915C629.917 915.5 628.062 915.25 626.312 914.25C624.562 913.208 623.438 911.708 622.938 909.75C622.188 906.958 620.125 904.771 616.75 903.188C613.792 901.812 610.396 901.125 606.562 901.125C602.646 901.125 599.271 902.354 596.438 904.812C593.646 907.271 592.167 910.271 592 913.812C591.917 915.979 592.688 917.938 594.312 919.688C596.896 922.396 601.229 923.792 607.312 923.875H607.625C617.833 924.042 625.646 927 631.062 932.75Z" fill="white"/>
</g>
<defs>
<clipPath id="clip0_190_73">
<rect width="700" height="1200" rx="20" fill="white"/>
</clipPath>
</defs>
</svg>
