<svg width="32" height="32" viewBox="0 0 32 32" fill="none" xmlns="http://www.w3.org/2000/svg">
<circle cx="16" cy="16" r="16" fill="#C8C846"/>
<circle cx="16" cy="16" r="16" fill="white" fill-opacity="0.2"/>
<path d="M11.6314 24.8524C11.5221 24.7568 11.1125 24.3268 10.7234 23.8898C9.09185 22.074 8.85974 21.4186 8.9007 18.7972C8.92118 17.2885 8.92118 17.268 9.11233 16.8857C9.4878 16.1211 10.2592 15.5545 11.017 15.4794C11.2354 15.4589 11.3446 15.418 11.3446 15.3565C11.3446 15.3019 11.0374 13.9024 10.6552 12.2367C10.0749 9.69721 9.97249 9.15108 9.9998 8.80974C10.1295 7.1099 12.1502 6.3658 13.3722 7.56046C13.5292 7.71748 13.7203 7.98372 13.7886 8.15438C13.8637 8.32505 14.089 9.19204 14.2869 10.0727C14.4849 10.9533 14.6624 11.6974 14.6897 11.7316C14.7102 11.7589 14.9218 10.9806 15.1608 10.0112C15.6181 8.1066 15.7342 7.83353 16.2325 7.42393C16.8128 6.94606 17.6661 6.85732 18.3625 7.2123C18.8335 7.44441 19.0724 7.697 19.3045 8.19534C19.564 8.7483 19.5298 9.11012 18.9905 11.2264C18.7243 12.2504 18.5126 13.131 18.5126 13.1856C18.5126 13.2403 18.5809 13.2812 18.6697 13.2812C19.2636 13.2812 20.0691 13.8137 20.3217 14.3667L20.4446 14.6465L20.9361 14.5988C21.3048 14.5715 21.5164 14.5919 21.7758 14.6739C22.24 14.8309 22.752 15.2951 22.9568 15.7525C23.1206 16.1143 23.1206 16.1348 23.1138 18.3671C23.1138 20.456 23.1002 20.6608 22.9636 21.1455C22.7861 21.8009 22.4926 22.4016 22.281 22.5723C22.0216 22.7703 21.6802 22.743 21.4345 22.4972C21.257 22.3129 21.2365 22.2515 21.2638 21.9989C21.2774 21.8419 21.373 21.521 21.4754 21.2957C21.728 20.695 21.7894 20.1488 21.7894 18.2442C21.7894 16.4488 21.7485 16.1757 21.4618 16.0187C21.0522 15.8003 20.6153 16.046 20.5402 16.5307C20.4787 16.8993 20.2671 17.1588 19.9872 17.2134C19.7278 17.2612 19.3796 17.111 19.2636 16.9062C19.2294 16.8311 19.1953 16.4147 19.1953 15.9777C19.1953 15.4043 19.168 15.1312 19.0929 14.9879C18.8813 14.5783 18.4785 14.5305 18.1304 14.8787C17.9187 15.0903 17.8982 15.1517 17.8982 15.4931C17.8982 15.9846 17.6593 16.2918 17.2702 16.3054C16.9835 16.3123 16.6899 16.1416 16.6012 15.9027C16.492 15.6228 16.5261 15.0766 16.6694 14.6602C16.8742 14.0936 18.103 9.17156 18.103 8.93262C18.103 8.62542 17.8163 8.36601 17.475 8.36601C16.9698 8.36601 16.9698 8.35236 16.1233 11.8203C15.7001 13.5406 15.3109 15.0357 15.2632 15.1381C15.072 15.5067 14.5395 15.6023 14.2392 15.3224C14.0412 15.1312 14.0958 15.3429 13.2561 11.6838C12.8806 10.0317 12.5325 8.63908 12.4847 8.58446C12.3277 8.38649 11.9932 8.29092 11.7611 8.37284C11.5426 8.44793 11.3446 8.73465 11.3446 8.96676C11.3446 9.04185 11.6587 10.4618 12.041 12.1275L12.7373 15.1585L12.7373 16.715L12.7441 18.2783L12.5188 18.4763C12.2731 18.6948 12.0478 18.7221 11.7611 18.5787C11.488 18.4353 11.4129 18.1964 11.4129 17.4796V16.8311H11.2149C10.9897 16.8311 10.6347 17.0564 10.4299 17.3294C10.3002 17.5069 10.2865 17.6298 10.266 18.92C10.2319 21.0773 10.3616 21.4254 11.7816 23.0297C12.6008 23.9513 12.71 24.1015 12.71 24.3131C12.71 24.6271 12.6144 24.791 12.3686 24.9207C12.0819 25.0709 11.8635 25.0504 11.6314 24.8524Z" fill="white"/>
<path d="M19.4958 24.7914C19.3319 24.6276 19.2637 24.4979 19.2637 24.3409C19.2637 24.061 19.646 23.6582 19.9054 23.6582C20.6222 23.6582 20.9021 24.6071 20.2808 24.928C19.9736 25.085 19.7484 25.044 19.4958 24.7914Z" fill="white"/>
</svg>
