<svg width="32" height="32" viewBox="0 0 32 32" fill="none" xmlns="http://www.w3.org/2000/svg">
<circle cx="16" cy="16" r="16" fill="#646400"/>
<circle cx="16" cy="16" r="16" fill="white" fill-opacity="0.2"/>
<path d="M19.7493 11.5833C20.1914 11.5833 20.6153 11.4077 20.9279 11.0952C21.2404 10.7826 21.416 10.3587 21.416 9.91667C21.416 9.47464 21.2404 9.05072 20.9279 8.73816C20.6153 8.42559 20.1914 8.25 19.7493 8.25C19.3073 8.25 18.8834 8.42559 18.5708 8.73816C18.2583 9.05072 18.0827 9.47464 18.0827 9.91667C18.0827 10.3587 18.2583 10.7826 18.5708 11.0952C18.8834 11.4077 19.3073 11.5833 19.7493 11.5833ZM16.7493 23.1667L17.5827 19.5L19.3327 21.1667V26.1667H20.9993V19.9167L19.2493 18.25L19.7493 15.75C20.9077 17.075 22.5743 17.8333 24.3327 17.8333V16.1667C22.866 16.1917 21.4994 15.425 20.7494 14.1667L19.916 12.8333C19.616 12.3333 19.0827 12 18.4993 12C18.2493 12 18.0827 12.0833 17.8327 12.0833L13.4993 13.9167V17.8333H15.166V15L16.666 14.4167L15.3327 21.1667L11.2493 20.3333L10.916 22L16.7493 23.1667ZM9.33268 14.5C9.11167 14.5 8.89971 14.4122 8.74343 14.2559C8.58715 14.0996 8.49935 13.8877 8.49935 13.6667C8.49935 13.4457 8.58715 13.2337 8.74343 13.0774C8.89971 12.9211 9.11167 12.8333 9.33268 12.8333H11.8327V14.5H9.33268ZM10.166 11.1667C9.945 11.1667 9.73304 11.0789 9.57676 10.9226C9.42048 10.7663 9.33268 10.5543 9.33268 10.3333C9.33268 10.1123 9.42048 9.90036 9.57676 9.74408C9.73304 9.5878 9.945 9.5 10.166 9.5H14.3327V11.1667H10.166ZM8.49935 17.8333C8.27834 17.8333 8.06637 17.7455 7.91009 17.5893C7.75381 17.433 7.66602 17.221 7.66602 17C7.66602 16.779 7.75381 16.567 7.91009 16.4107C8.06637 16.2545 8.27834 16.1667 8.49935 16.1667H11.8327V17.8333H8.49935Z" fill="white"/>
</svg>
