<svg width="150" height="251" viewBox="0 0 150 251" fill="none" xmlns="http://www.w3.org/2000/svg">
<g clip-path="url(#clip0_325_62)">
<rect y="0.5" width="150" height="250" rx="4" fill="#C84646"/>
<rect y="0.5" width="150" height="250" rx="4" fill="white" fill-opacity="0.6"/>
<rect width="14.1964" height="15.0745" transform="translate(129.848 168.794) rotate(-60)" fill="#C84646"/>
<rect width="14.1964" height="15.0745" transform="translate(129.848 168.794) rotate(-60)" fill="white" fill-opacity="0.1"/>
<rect width="14.1964" height="15.0745" transform="translate(0 163.931) rotate(-30)" fill="#C84646"/>
<rect width="14.1964" height="15.0745" transform="translate(0 163.931) rotate(-30)" fill="white" fill-opacity="0.1"/>
<g clip-path="url(#clip1_325_62)">
<rect x="10" y="10.5" width="130" height="230" rx="2" fill="#C84646"/>
<rect x="10" y="10.5" width="130" height="230" rx="2" fill="white" fill-opacity="0.4"/>
<circle cx="75" cy="90.5" r="40" fill="#C84646"/>
<circle cx="75" cy="90.5" r="40" fill="white" fill-opacity="0.2"/>
<path d="M64.84 76.5H61L79 94.5L81 92.62L64.84 76.5ZM90.92 104.74L89.24 106.42C88.46 107.2 87.2 107.2 86.42 106.42L80.18 100.18L74.82 105.5L72 102.68L74.84 99.84L57 82V72.5H66.5L84.34 90.34L87.18 87.5L90 90.32L84.66 95.66L90.9 101.9C91.7 102.7 91.7 103.96 90.92 104.74Z" fill="white"/>
</g>
<rect width="150" height="50" transform="translate(0 164.5)" fill="#C84646"/>
<rect width="150" height="50" transform="translate(0 164.5)" fill="white" fill-opacity="0.2"/>
<path d="M47.0605 182.613C47.347 182.477 47.6432 182.46 47.9492 182.564C48.2487 182.675 48.4668 182.874 48.6035 183.16C48.7402 183.447 48.7565 183.74 48.6523 184.039L44.541 195.729V195.738C44.528 195.784 44.5085 195.833 44.4824 195.885C44.4694 195.898 44.4629 195.908 44.4629 195.914C44.4368 195.96 44.4076 196.002 44.375 196.041C44.388 196.021 44.3815 196.031 44.3555 196.07C44.3294 196.103 44.3001 196.135 44.2676 196.168C44.248 196.188 44.2415 196.194 44.248 196.188C44.209 196.22 44.1699 196.253 44.1309 196.285C44.1374 196.279 44.1276 196.285 44.1016 196.305C44.0625 196.331 44.0234 196.354 43.9844 196.373C43.9648 196.38 43.9583 196.383 43.9648 196.383C43.9193 196.402 43.877 196.419 43.8379 196.432C43.8118 196.445 43.8086 196.448 43.8281 196.441C43.7891 196.454 43.7435 196.464 43.6914 196.471C43.6393 196.484 43.623 196.487 43.6426 196.48C43.5775 196.493 43.5156 196.5 43.457 196.5C43.3984 196.5 43.3366 196.493 43.2715 196.48C43.291 196.487 43.2747 196.484 43.2227 196.471C43.1706 196.464 43.1283 196.454 43.0957 196.441C43.1087 196.448 43.1022 196.445 43.0762 196.432C43.0371 196.419 42.998 196.402 42.959 196.383C42.959 196.383 42.9492 196.38 42.9297 196.373C42.8906 196.354 42.8516 196.331 42.8125 196.305C42.8125 196.298 42.8092 196.295 42.8027 196.295C42.7962 196.288 42.793 196.285 42.793 196.285C42.7474 196.253 42.7083 196.22 42.6758 196.188C42.6758 196.194 42.666 196.188 42.6465 196.168C42.6139 196.135 42.5846 196.1 42.5586 196.061C42.5456 196.048 42.5391 196.041 42.5391 196.041C42.513 196.002 42.487 195.96 42.4609 195.914C42.4544 195.901 42.4479 195.891 42.4414 195.885C42.4154 195.833 42.3926 195.784 42.373 195.738C42.373 195.732 42.373 195.729 42.373 195.729L39.3555 187.135L36.3379 195.729C36.3379 195.729 36.3379 195.732 36.3379 195.738C36.3184 195.784 36.2956 195.833 36.2695 195.885C36.263 195.898 36.2565 195.908 36.25 195.914C36.224 195.96 36.1979 196.002 36.1719 196.041C36.1849 196.021 36.1784 196.031 36.1523 196.07C36.1198 196.103 36.0872 196.135 36.0547 196.168C36.0352 196.188 36.0286 196.194 36.0352 196.188C36.0026 196.22 35.9635 196.253 35.918 196.285C35.931 196.279 35.9212 196.285 35.8887 196.305C35.8496 196.331 35.8105 196.354 35.7715 196.373C35.752 196.38 35.7454 196.383 35.752 196.383C35.7064 196.402 35.6673 196.419 35.6348 196.432C35.6022 196.445 35.5957 196.448 35.6152 196.441C35.5762 196.454 35.5306 196.464 35.4785 196.471C35.4329 196.484 35.4167 196.487 35.4297 196.48C35.3711 196.493 35.3125 196.5 35.2539 196.5C35.1888 196.5 35.127 196.493 35.0684 196.48C35.0879 196.487 35.0716 196.484 35.0195 196.471C34.9674 196.464 34.9219 196.454 34.8828 196.441C34.9023 196.448 34.8991 196.445 34.873 196.432C34.834 196.419 34.7917 196.402 34.7461 196.383C34.7526 196.383 34.7461 196.38 34.7266 196.373C34.6875 196.354 34.6484 196.331 34.6094 196.305C34.6029 196.298 34.5964 196.295 34.5898 196.295C34.5898 196.288 34.5866 196.285 34.5801 196.285C34.541 196.253 34.502 196.22 34.4629 196.188C34.4694 196.194 34.4629 196.188 34.4434 196.168C34.4108 196.135 34.3783 196.1 34.3457 196.061C34.3392 196.048 34.3359 196.041 34.3359 196.041C34.3034 196.002 34.2741 195.96 34.248 195.914C34.2415 195.901 34.235 195.891 34.2285 195.885C34.2025 195.833 34.1829 195.784 34.1699 195.738C34.1634 195.732 34.1602 195.729 34.1602 195.729L30.0586 184.039C29.9544 183.74 29.9707 183.447 30.1074 183.16C30.2441 182.874 30.4622 182.675 30.7617 182.564C31.0612 182.46 31.3542 182.477 31.6406 182.613C31.9271 182.757 32.1257 182.978 32.2363 183.277L35.2539 191.871L38.2715 183.277V183.268C38.278 183.255 38.2845 183.235 38.291 183.209C38.3105 183.17 38.3171 183.154 38.3105 183.16C38.3171 183.16 38.3268 183.147 38.3398 183.121C38.3919 183.017 38.457 182.926 38.5352 182.848C38.6198 182.763 38.7174 182.691 38.8281 182.633C38.8542 182.62 38.8639 182.613 38.8574 182.613L38.9062 182.594C38.9388 182.581 38.9583 182.574 38.9648 182.574C38.9583 182.574 38.9616 182.571 38.9746 182.564C38.9681 182.571 38.9811 182.568 39.0137 182.555C39.0397 182.548 39.0592 182.542 39.0723 182.535C39.0853 182.535 39.1048 182.532 39.1309 182.525C39.1504 182.519 39.1667 182.516 39.1797 182.516C39.1927 182.516 39.2155 182.512 39.248 182.506C39.2676 182.506 39.2839 182.506 39.2969 182.506H39.4043C39.4238 182.506 39.4466 182.509 39.4727 182.516H39.5215C39.5345 182.516 39.5573 182.519 39.5898 182.525L39.6289 182.535C39.6484 182.542 39.6745 182.548 39.707 182.555C39.707 182.561 39.7103 182.564 39.7168 182.564C39.7233 182.564 39.7298 182.564 39.7363 182.564V182.574H39.7461C39.7591 182.581 39.7786 182.59 39.8047 182.604C39.8372 182.61 39.8535 182.613 39.8535 182.613C39.8535 182.613 39.8665 182.623 39.8926 182.643C39.9967 182.695 40.0911 182.763 40.1758 182.848C40.2539 182.926 40.319 183.014 40.3711 183.111C40.3841 183.144 40.3906 183.16 40.3906 183.16C40.3906 183.16 40.3971 183.173 40.4102 183.199C40.4232 183.232 40.4329 183.255 40.4395 183.268C40.4395 183.274 40.4395 183.277 40.4395 183.277L43.457 191.871L46.4746 183.277C46.5788 182.978 46.7741 182.757 47.0605 182.613ZM54.1211 191.227H57.8809L55.9961 186.695L54.1211 191.227ZM51.1719 196.5C51.0221 196.5 50.8757 196.471 50.7324 196.412C50.4395 196.288 50.2311 196.08 50.1074 195.787C49.9902 195.494 49.9902 195.201 50.1074 194.908L51.3477 191.93C51.3477 191.93 51.3477 191.926 51.3477 191.92L54.9414 183.248C54.9544 183.215 54.9707 183.183 54.9902 183.15C54.9902 183.15 54.9967 183.134 55.0098 183.102C55.0293 183.076 55.0423 183.059 55.0488 183.053C55.0488 183.046 55.0586 183.03 55.0781 183.004C55.0977 182.984 55.1107 182.971 55.1172 182.965C55.1172 182.958 55.127 182.945 55.1465 182.926C55.1725 182.9 55.1855 182.883 55.1855 182.877C55.1921 182.87 55.2051 182.861 55.2246 182.848C55.2507 182.822 55.2669 182.809 55.2734 182.809C55.2669 182.809 55.2799 182.799 55.3125 182.779C55.3385 182.76 55.3548 182.747 55.3613 182.74C55.3613 182.74 55.3743 182.73 55.4004 182.711C55.4329 182.691 55.4525 182.682 55.459 182.682C55.472 182.675 55.4948 182.665 55.5273 182.652C55.5599 182.633 55.5697 182.626 55.5566 182.633C55.5436 182.639 55.5566 182.633 55.5957 182.613C55.6283 182.607 55.651 182.6 55.6641 182.594C55.6706 182.594 55.6934 182.587 55.7324 182.574L55.7715 182.564C55.7845 182.564 55.8073 182.561 55.8398 182.555C55.8724 182.548 55.8887 182.545 55.8887 182.545C55.8952 182.545 55.9147 182.545 55.9473 182.545C55.9733 182.545 55.9896 182.545 55.9961 182.545C56.0091 182.545 56.0286 182.545 56.0547 182.545C56.0938 182.545 56.1133 182.545 56.1133 182.545C56.1133 182.545 56.1328 182.548 56.1719 182.555C56.2044 182.561 56.2207 182.564 56.2207 182.564C56.2337 182.564 56.2565 182.571 56.2891 182.584C56.3281 182.59 56.3411 182.594 56.3281 182.594C56.4062 182.613 56.4779 182.643 56.543 182.682C56.5365 182.675 56.5495 182.682 56.582 182.701C56.6146 182.721 56.6341 182.734 56.6406 182.74C56.6406 182.74 56.6536 182.75 56.6797 182.77C56.7057 182.789 56.722 182.802 56.7285 182.809C56.735 182.809 56.748 182.818 56.7676 182.838C56.7871 182.857 56.8034 182.87 56.8164 182.877C56.8164 182.883 56.8262 182.896 56.8457 182.916C56.8717 182.942 56.8848 182.958 56.8848 182.965L56.9141 183.004C56.9401 183.03 56.9531 183.046 56.9531 183.053C56.9531 183.059 56.9629 183.076 56.9824 183.102C57.002 183.128 57.0117 183.144 57.0117 183.15C57.0312 183.183 57.0475 183.215 57.0605 183.248L60.6543 191.92C60.6543 191.926 60.6543 191.93 60.6543 191.93L61.8945 194.908C62.0117 195.201 62.0117 195.494 61.8945 195.787C61.7708 196.08 61.5625 196.288 61.2695 196.412C61.1263 196.471 60.9798 196.5 60.8301 196.5C60.3158 196.5 59.9609 196.262 59.7656 195.787L58.8281 193.521H53.1738L52.2363 195.787C52.041 196.262 51.6862 196.5 51.1719 196.5ZM66.3184 188.316H69.2871C69.834 188.297 70.3027 188.118 70.6934 187.779C71.0775 187.434 71.2695 187.024 71.2695 186.549C71.2695 186.054 71.0677 185.634 70.6641 185.289C70.2604 184.944 69.7754 184.771 69.209 184.771H66.3184V188.316ZM72.2852 183.668C73.138 184.462 73.5645 185.423 73.5645 186.549C73.5645 187.408 73.2975 188.186 72.7637 188.883C72.2493 189.573 71.5723 190.064 70.7324 190.357L72.9492 194.85C73.0859 195.13 73.1022 195.419 72.998 195.719C72.9004 196.018 72.7083 196.24 72.4219 196.383C72.2591 196.461 72.0898 196.5 71.9141 196.5C71.4388 196.5 71.097 196.285 70.8887 195.855L68.3008 190.611H66.3184V195.27C66.3184 195.582 66.2044 195.852 65.9766 196.08C65.7552 196.301 65.485 196.412 65.166 196.412C64.8535 196.412 64.5833 196.301 64.3555 196.08C64.1341 195.852 64.0234 195.582 64.0234 195.27V183.629C64.0234 183.31 64.1341 183.04 64.3555 182.818C64.5833 182.59 64.8535 182.477 65.166 182.477H69.209C70.4134 182.477 71.4388 182.874 72.2852 183.668ZM78.291 188.316H81.2598C81.8066 188.297 82.2754 188.118 82.666 187.779C83.0501 187.434 83.2422 187.024 83.2422 186.549C83.2422 186.054 83.0404 185.634 82.6367 185.289C82.2331 184.944 81.748 184.771 81.1816 184.771H78.291V188.316ZM84.2578 183.668C85.1107 184.462 85.5371 185.423 85.5371 186.549C85.5371 187.408 85.2702 188.186 84.7363 188.883C84.222 189.573 83.5449 190.064 82.7051 190.357L84.9219 194.85C85.0586 195.13 85.0749 195.419 84.9707 195.719C84.873 196.018 84.681 196.24 84.3945 196.383C84.2318 196.461 84.0625 196.5 83.8867 196.5C83.4115 196.5 83.0697 196.285 82.8613 195.855L80.2734 190.611H78.291V195.27C78.291 195.582 78.1771 195.852 77.9492 196.08C77.7279 196.301 77.4577 196.412 77.1387 196.412C76.8262 196.412 76.556 196.301 76.3281 196.08C76.1068 195.852 75.9961 195.582 75.9961 195.27V183.629C75.9961 183.31 76.1068 183.04 76.3281 182.818C76.556 182.59 76.8262 182.477 77.1387 182.477H81.1816C82.3861 182.477 83.4115 182.874 84.2578 183.668ZM89.9707 196.158C89.7493 196.386 89.4792 196.5 89.1602 196.5C88.8411 196.5 88.571 196.386 88.3496 196.158C88.1217 195.937 88.0078 195.667 88.0078 195.348V183.697C88.0078 183.378 88.1217 183.108 88.3496 182.887C88.571 182.659 88.8411 182.545 89.1602 182.545C89.4792 182.545 89.7493 182.659 89.9707 182.887C90.1986 183.108 90.3125 183.378 90.3125 183.697V195.348C90.3125 195.667 90.1986 195.937 89.9707 196.158ZM102.91 186.158C101.986 185.24 100.876 184.781 99.5801 184.781C98.2845 184.781 97.1777 185.24 96.2598 186.158C95.3353 187.083 94.873 188.193 94.873 189.488C94.873 190.784 95.3353 191.891 96.2598 192.809C97.1777 193.733 98.2845 194.195 99.5801 194.195C100.876 194.195 101.986 193.733 102.91 192.809C103.828 191.891 104.287 190.784 104.287 189.488C104.287 188.193 103.828 187.083 102.91 186.158ZM104.541 194.439C103.167 195.813 101.514 196.5 99.5801 196.5C97.6465 196.5 95.9961 195.813 94.6289 194.439C93.2552 193.072 92.5684 191.422 92.5684 189.488C92.5684 187.555 93.2552 185.901 94.6289 184.527C95.9961 183.16 97.6465 182.477 99.5801 182.477C101.514 182.477 103.167 183.16 104.541 184.527C105.908 185.901 106.592 187.555 106.592 189.488C106.592 191.422 105.908 193.072 104.541 194.439ZM111.689 188.316H114.658C115.205 188.297 115.674 188.118 116.064 187.779C116.449 187.434 116.641 187.024 116.641 186.549C116.641 186.054 116.439 185.634 116.035 185.289C115.632 184.944 115.146 184.771 114.58 184.771H111.689V188.316ZM117.656 183.668C118.509 184.462 118.936 185.423 118.936 186.549C118.936 187.408 118.669 188.186 118.135 188.883C117.62 189.573 116.943 190.064 116.104 190.357L118.32 194.85C118.457 195.13 118.473 195.419 118.369 195.719C118.271 196.018 118.079 196.24 117.793 196.383C117.63 196.461 117.461 196.5 117.285 196.5C116.81 196.5 116.468 196.285 116.26 195.855L113.672 190.611H111.689V195.27C111.689 195.582 111.576 195.852 111.348 196.08C111.126 196.301 110.856 196.412 110.537 196.412C110.225 196.412 109.954 196.301 109.727 196.08C109.505 195.852 109.395 195.582 109.395 195.27V183.629C109.395 183.31 109.505 183.04 109.727 182.818C109.954 182.59 110.225 182.477 110.537 182.477H114.58C115.785 182.477 116.81 182.874 117.656 183.668Z" fill="white"/>
</g>
<defs>
<clipPath id="clip0_325_62">
<rect y="0.5" width="150" height="250" rx="4" fill="white"/>
</clipPath>
<clipPath id="clip1_325_62">
<rect x="10" y="10.5" width="130" height="230" rx="2" fill="white"/>
</clipPath>
</defs>
</svg>
