<svg width="32" height="32" viewBox="0 0 32 32" fill="none" xmlns="http://www.w3.org/2000/svg">
<circle cx="16" cy="16" r="16" fill="#640000"/>
<circle cx="16" cy="16" r="16" fill="white" fill-opacity="0.2"/>
<circle cx="16" cy="16" r="16" fill="black" fill-opacity="0.2"/>
<path d="M11.1658 8.0332L21.0824 17.9499L22.8491 16.1832L24.0241 17.3582L21.9658 19.4165L24.6158 22.0665C24.9408 22.3915 24.9408 22.9165 24.6158 23.2415L24.0241 23.8332C23.6991 24.1582 23.1741 24.1582 22.8491 23.8332L20.1658 21.1915L18.1324 23.2499L16.9574 22.0749L18.7241 20.3082L8.80742 10.3915V8.0332H11.1658ZM19.2408 14.3332L23.1908 10.3832V8.0332H20.8324L16.8824 11.9832L19.2408 14.3332ZM15.1158 18.4999L12.7574 16.1082L10.9158 17.9499L9.14909 16.1832L7.97409 17.3582L10.0324 19.4165L7.38242 22.0749C7.05742 22.3999 7.05742 22.9249 7.38242 23.2499L7.97409 23.8415C8.29909 24.1665 8.82409 24.1665 9.14909 23.8415L11.8324 21.1915L13.8658 23.2499L15.0408 22.0749L13.2741 20.3082L15.1158 18.4999Z" fill="white"/>
</svg>
