<svg width="24" height="24" viewBox="0 0 24 24" fill="none" xmlns="http://www.w3.org/2000/svg">
<path fill-rule="evenodd" clip-rule="evenodd" d="M16.243 7.75774C16.6335 8.14826 16.6335 8.78143 16.243 9.17195L13.4146 12.0004L16.243 14.8288C16.6335 15.2193 16.6335 15.8525 16.243 16.243C15.8525 16.6335 15.2193 16.6335 14.8288 16.243L12.0004 13.4146L9.17195 16.243C8.78143 16.6335 8.14826 16.6335 7.75774 16.243C7.36721 15.8525 7.36721 15.2193 7.75774 14.8288L10.5862 12.0004L7.75774 9.17195C7.36721 8.78143 7.36721 8.14826 7.75774 7.75774C8.14826 7.36721 8.78143 7.36721 9.17195 7.75774L12.0004 10.5862L14.8288 7.75774C15.2193 7.36721 15.8525 7.36721 16.243 7.75774Z" fill="white"/>
</svg>
