<svg width="33" height="33" viewBox="0 0 33 33" fill="none" xmlns="http://www.w3.org/2000/svg">
<path d="M14.9349 3.01562C15.9749 3.02896 16.9623 3.65595 17.3489 4.68262L24.0149 20.6162C24.1349 20.9629 24.2021 21.3496 24.1888 21.6963C24.162 22.6828 23.5488 23.6696 22.5491 24.083L12.722 28.1494C12.3753 28.2961 12.0149 28.3623 11.6683 28.3623C10.6417 28.3355 9.66846 27.7092 9.25517 26.6826L2.64189 10.749C2.08212 9.40245 2.73517 7.84222 4.09502 7.28223L13.9085 3.21582C14.2417 3.09587 14.5883 3.01569 14.9349 3.01562ZM12.5628 11.6436C12.0044 11.4697 11.4681 11.5179 10.9534 11.7881C10.4352 12.0602 10.0883 12.4756 9.91435 13.0342C9.74404 13.5908 9.79448 14.1269 10.0647 14.6416C10.2861 15.0629 10.6128 15.3734 11.0442 15.5742C10.7486 15.9762 10.5775 16.4277 10.5315 16.9277C10.4876 17.44 10.585 17.9248 10.8245 18.3809C11.1638 19.0269 11.6828 19.4597 12.3802 19.6797C13.079 19.8943 13.7518 19.8324 14.3978 19.4932C14.8605 19.2501 15.2198 18.898 15.4759 18.4375C15.7237 17.9944 15.8333 17.5179 15.804 17.0088L17.0862 17.6377C17.3048 17.7433 17.5214 17.7404 17.7356 17.6279C17.8737 17.5554 17.9774 17.4499 18.0462 17.3125C18.1298 17.1364 18.1395 16.9547 18.0765 16.7676C18.0134 16.5804 17.8931 16.4427 17.7151 16.3555L13.8841 14.4736C14.1355 13.8612 14.1077 13.2626 13.8011 12.6787C13.5307 12.164 13.1178 11.8193 12.5628 11.6436ZM12.6038 16.0781C12.9009 15.9221 13.21 15.8917 13.5296 15.9883C13.8474 16.0902 14.0846 16.2899 14.2405 16.5869C14.3966 16.884 14.426 17.1931 14.3294 17.5127C14.2293 17.8339 14.0306 18.0725 13.7337 18.2285C13.4367 18.3845 13.1272 18.4124 12.806 18.3125C12.4846 18.2124 12.2452 18.0139 12.0892 17.7168C11.9332 17.4198 11.9052 17.1104 12.0052 16.7891C12.107 16.4712 12.3068 16.2342 12.6038 16.0781ZM28.6419 5.81641C30.0152 6.37643 30.6417 7.93592 30.095 9.2959L26.8558 17.1094V5.06934L28.6419 5.81641ZM11.6165 13.0527C11.7823 12.9657 11.9561 12.9515 12.137 13.0107C12.3161 13.0665 12.4493 13.1771 12.5364 13.3428C12.6234 13.5085 12.64 13.6828 12.5862 13.8652C12.5305 14.0442 12.4197 14.1776 12.2542 14.2646C12.0849 14.3535 11.9099 14.3702 11.7308 14.3145C11.5502 14.2552 11.4164 14.143 11.3294 13.9775C11.2423 13.8118 11.2268 13.6391 11.2825 13.46C11.3364 13.2775 11.4475 13.1416 11.6165 13.0527ZM21.5091 3.01562C22.216 3.01574 22.8939 3.29706 23.3938 3.79688C23.8314 4.23443 24.1018 4.80854 24.1624 5.41895L24.1751 14.1357L19.5755 3.01562H21.5091Z" fill="white"/>
</svg>
