<svg width="32" height="32" viewBox="0 0 32 32" fill="none" xmlns="http://www.w3.org/2000/svg">
<circle cx="16" cy="16" r="16" fill="black"/>
<circle cx="16" cy="16" r="16" fill="white" fill-opacity="0.2"/>
<path d="M9.32217 10.8321C9.24977 10.9625 9.15322 11.1652 9.10978 11.2955C9.02289 11.5755 8.9891 15.9055 9.07116 16.5958C9.2208 17.7881 9.66008 18.6232 10.7848 19.8734L11.5282 20.6941L11.5378 22.1326L11.5378 23.5711L11.7744 23.7497C12.0881 23.9862 12.4067 23.9669 12.6819 23.6917C12.875 23.4986 12.8846 23.4504 12.875 21.8284L12.875 20.1679L12.373 19.6079C10.9538 18.0246 10.6738 17.5998 10.4904 16.7792C10.3504 16.1951 10.3407 11.87 10.471 11.6141C10.7607 11.0445 11.5282 11.2328 11.6296 11.9038C11.702 12.3816 12.1075 12.652 12.5274 12.5023C12.8895 12.372 12.9619 12.1644 12.9812 11.2569C12.9957 10.5087 13.015 10.4218 13.1887 10.248C13.348 10.0887 13.4349 10.0598 13.6666 10.0791C13.9949 10.108 14.1445 10.277 14.2169 10.697C14.3087 11.2328 14.8541 11.4983 15.2837 11.2038C15.5203 11.0445 15.5734 10.8659 15.5927 10.1515C15.6023 9.65911 15.6313 9.54326 15.7809 9.39362C16.0175 9.15708 16.365 9.15708 16.6016 9.39362C16.7416 9.5336 16.7753 9.66394 16.7947 10.1177C16.814 10.6004 16.8429 10.697 17.0167 10.8707C17.1712 11.0252 17.2725 11.0686 17.4946 11.0686C17.8518 11.0686 18.069 10.8611 18.1704 10.4315C18.2718 10.0115 18.4455 9.84737 18.7979 9.84254C19.0972 9.84254 19.2565 9.95357 19.3386 10.2094C19.3675 10.2963 19.3917 11.2569 19.4013 12.3479C19.4062 14.2739 19.411 14.327 19.6041 14.5201C19.9034 14.8194 20.2413 14.829 20.5309 14.5394C20.7481 14.3222 20.7481 14.3029 20.7529 13.1685L20.7529 12.0293L20.946 12.0582C21.2791 12.121 21.5832 12.3285 21.757 12.6182C21.8825 12.8402 21.9018 13.1492 21.9018 14.7228C21.8922 17.2523 21.8149 17.484 20.4633 18.9997C20.0433 19.4776 19.6379 19.9507 19.5703 20.0376C19.4834 20.1631 19.4448 20.501 19.4496 21.2685C19.4496 22.2725 19.4593 22.3401 19.6475 22.5284C19.8116 22.6925 19.8985 22.7215 20.1447 22.707C20.6757 22.678 20.7916 22.456 20.7964 21.4085L20.8012 20.6892L21.5494 19.8445C22.4376 18.8404 22.79 18.2853 23.0555 17.4502C23.2196 16.9192 23.2438 16.6247 23.2438 14.7228C23.2534 12.7726 23.2389 12.5554 23.07 12.1934C22.7128 11.4114 21.9549 10.8273 21.1536 10.7211L20.7674 10.6728L20.7433 10.3397C20.6612 9.04123 19.4544 8.17234 18.238 8.5392L17.8084 8.66954L17.5622 8.42335C17.0601 7.92132 16.3457 7.73789 15.6313 7.92132C15.3175 8.00339 15.2258 8.06614 14.859 8.43301L14.439 8.85297L14.1204 8.75643C13.7294 8.63575 13.1694 8.68402 12.7833 8.86745C12.4357 9.03158 11.982 9.46602 11.8178 9.79427C11.7213 9.98736 11.6778 10.0211 11.6054 9.98736C11.4268 9.89564 10.6303 9.91978 10.3311 10.026C9.95453 10.1611 9.51526 10.5135 9.32217 10.8321Z" fill="white"/>
</svg>
