<svg width="120" height="24" viewBox="0 0 120 24" fill="none" xmlns="http://www.w3.org/2000/svg">
<path d="M9.63281 16.0469C8.5651 17.0156 7.3099 17.5 5.86719 17.5C4.33073 17.5 3.01562 16.9557 1.92188 15.8672C0.833333 14.7734 0.289062 13.4583 0.289062 11.9219C0.289062 10.3802 0.833333 9.0651 1.92188 7.97656C3.01562 6.88281 4.33073 6.33594 5.86719 6.33594C7.13281 6.33594 8.26823 6.72135 9.27344 7.49219C9.47135 7.64844 9.58854 7.85156 9.625 8.10156C9.65625 8.35677 9.59375 8.58594 9.4375 8.78906C9.28125 8.99219 9.07812 9.10938 8.82812 9.14062C8.57292 9.17188 8.34375 9.11198 8.14062 8.96094C7.47396 8.44531 6.71615 8.1875 5.86719 8.1875C4.84115 8.1875 3.96354 8.55208 3.23438 9.28125C2.50521 10.0104 2.14062 10.8906 2.14062 11.9219C2.14062 12.9479 2.50521 13.8255 3.23438 14.5547C3.96354 15.2839 4.84115 15.6484 5.86719 15.6484C6.83594 15.6484 7.67448 15.3255 8.38281 14.6797C8.57031 14.5078 8.79167 14.4271 9.04688 14.4375C9.30208 14.4479 9.51562 14.5495 9.6875 14.7422C9.85938 14.9297 9.9401 15.151 9.92969 15.4062C9.91927 15.6615 9.82031 15.875 9.63281 16.0469ZM12.0234 6.57031C12.2005 6.38802 12.4167 6.29688 12.6719 6.29688C12.9271 6.29688 13.1432 6.38802 13.3203 6.57031C13.5026 6.7474 13.5938 6.96354 13.5938 7.21875V15.6562H17.7266C17.9818 15.6562 18.2005 15.7474 18.3828 15.9297C18.5599 16.1068 18.6484 16.3229 18.6484 16.5781C18.6484 16.8333 18.5599 17.0495 18.3828 17.2266C18.2005 17.4089 17.9818 17.5 17.7266 17.5H12.6719C12.4167 17.5 12.2005 17.4089 12.0234 17.2266C11.8411 17.0495 11.75 16.8333 11.75 16.5781V7.21875C11.75 6.96354 11.8411 6.7474 12.0234 6.57031ZM22.7344 13.2812H25.7422L24.2344 9.65625L22.7344 13.2812ZM20.375 17.5C20.2552 17.5 20.138 17.4766 20.0234 17.4297C19.7891 17.3307 19.6224 17.1641 19.5234 16.9297C19.4297 16.6953 19.4297 16.4609 19.5234 16.2266L20.5156 13.8438C20.5156 13.8438 20.5156 13.8411 20.5156 13.8359L23.3906 6.89844C23.401 6.8724 23.4141 6.84635 23.4297 6.82031C23.4297 6.82031 23.4349 6.80729 23.4453 6.78125C23.4609 6.76042 23.4714 6.7474 23.4766 6.74219C23.4766 6.73698 23.4844 6.72396 23.5 6.70312C23.5156 6.6875 23.526 6.67708 23.5312 6.67188C23.5312 6.66667 23.5391 6.65625 23.5547 6.64062C23.5755 6.61979 23.5859 6.60677 23.5859 6.60156C23.5911 6.59635 23.6016 6.58854 23.6172 6.57812C23.638 6.55729 23.651 6.54688 23.6562 6.54688C23.651 6.54688 23.6615 6.53906 23.6875 6.52344C23.7083 6.50781 23.7214 6.4974 23.7266 6.49219C23.7266 6.49219 23.737 6.48438 23.7578 6.46875C23.7839 6.45312 23.7995 6.44531 23.8047 6.44531C23.8151 6.4401 23.8333 6.43229 23.8594 6.42188C23.8854 6.40625 23.8932 6.40104 23.8828 6.40625C23.8724 6.41146 23.8828 6.40625 23.9141 6.39062C23.9401 6.38542 23.9583 6.38021 23.9688 6.375C23.974 6.375 23.9922 6.36979 24.0234 6.35938L24.0547 6.35156C24.0651 6.35156 24.0833 6.34896 24.1094 6.34375C24.1354 6.33854 24.1484 6.33594 24.1484 6.33594C24.1536 6.33594 24.1693 6.33594 24.1953 6.33594C24.2161 6.33594 24.2292 6.33594 24.2344 6.33594C24.2448 6.33594 24.2604 6.33594 24.2812 6.33594C24.3125 6.33594 24.3281 6.33594 24.3281 6.33594C24.3281 6.33594 24.3438 6.33854 24.375 6.34375C24.401 6.34896 24.4141 6.35156 24.4141 6.35156C24.4245 6.35156 24.4427 6.35677 24.4688 6.36719C24.5 6.3724 24.5104 6.375 24.5 6.375C24.5625 6.39062 24.6198 6.41406 24.6719 6.44531C24.6667 6.4401 24.6771 6.44531 24.7031 6.46094C24.7292 6.47656 24.7448 6.48698 24.75 6.49219C24.75 6.49219 24.7604 6.5 24.7812 6.51562C24.8021 6.53125 24.8151 6.54167 24.8203 6.54688C24.8255 6.54688 24.8359 6.55469 24.8516 6.57031C24.8672 6.58594 24.8802 6.59635 24.8906 6.60156C24.8906 6.60677 24.8984 6.61719 24.9141 6.63281C24.9349 6.65365 24.9453 6.66667 24.9453 6.67188L24.9688 6.70312C24.9896 6.72396 25 6.73698 25 6.74219C25 6.7474 25.0078 6.76042 25.0234 6.78125C25.0391 6.80208 25.0469 6.8151 25.0469 6.82031C25.0625 6.84635 25.0755 6.8724 25.0859 6.89844L27.9609 13.8359C27.9609 13.8411 27.9609 13.8438 27.9609 13.8438L28.9531 16.2266C29.0469 16.4609 29.0469 16.6953 28.9531 16.9297C28.8542 17.1641 28.6875 17.3307 28.4531 17.4297C28.3385 17.4766 28.2214 17.5 28.1016 17.5C27.6901 17.5 27.4062 17.3099 27.25 16.9297L26.5 15.1172H21.9766L21.2266 16.9297C21.0703 17.3099 20.7865 17.5 20.375 17.5ZM36.9922 12.0938C37.5495 12.6823 37.8099 13.3724 37.7734 14.1641C37.7318 15.0964 37.3594 15.8854 36.6562 16.5312C35.9479 17.1771 35.1042 17.5 34.125 17.5C33.276 17.5 32.5156 17.3177 31.8438 16.9531C31.0365 16.5156 30.5234 15.8802 30.3047 15.0469C30.2422 14.8021 30.2734 14.5703 30.3984 14.3516C30.5286 14.1328 30.7161 13.9922 30.9609 13.9297C31.2057 13.8672 31.4375 13.8984 31.6562 14.0234C31.875 14.1536 32.0156 14.3411 32.0781 14.5859C32.1719 14.9349 32.4271 15.2083 32.8438 15.4062C33.2188 15.5781 33.6458 15.6641 34.125 15.6641C34.6146 15.6641 35.0339 15.5104 35.3828 15.2031C35.737 14.901 35.9245 14.526 35.9453 14.0781C35.9557 13.8073 35.8594 13.5651 35.6562 13.3516C35.3333 13.0078 34.7917 12.8307 34.0312 12.8203H34.0234C34.0026 12.8203 33.9974 12.8203 34.0078 12.8203C34.0026 12.8203 33.9974 12.8203 33.9922 12.8203C32.7161 12.7995 31.7396 12.4323 31.0625 11.7188C30.5052 11.125 30.2448 10.4349 30.2812 9.64844C30.3229 8.71094 30.6953 7.91927 31.3984 7.27344C32.1016 6.6276 32.9453 6.30469 33.9297 6.30469C34.7786 6.30469 35.5391 6.48698 36.2109 6.85156C37.0182 7.28906 37.5312 7.92448 37.75 8.75781C37.8125 9.0026 37.7786 9.23438 37.6484 9.45312C37.5234 9.67188 37.3385 9.8125 37.0938 9.875C36.849 9.9375 36.6172 9.90625 36.3984 9.78125C36.1797 9.65104 36.0391 9.46354 35.9766 9.21875C35.8828 8.86979 35.625 8.59635 35.2031 8.39844C34.8333 8.22656 34.4089 8.14062 33.9297 8.14062C33.4401 8.14062 33.0182 8.29427 32.6641 8.60156C32.3151 8.90885 32.1302 9.28385 32.1094 9.72656C32.099 9.9974 32.1953 10.2422 32.3984 10.4609C32.7214 10.7995 33.263 10.974 34.0234 10.9844H34.0625C35.3385 11.0052 36.3151 11.375 36.9922 12.0938ZM48.1094 17.2266C47.9271 17.4089 47.7083 17.5 47.4531 17.5C47.1979 17.5 46.9792 17.4089 46.7969 17.2266C46.6146 17.0443 46.5234 16.8255 46.5234 16.5703V12.8281H41.7109V16.5703C41.7109 16.8255 41.6224 17.0443 41.4453 17.2266C41.263 17.4089 41.0443 17.5 40.7891 17.5C40.5339 17.5 40.3151 17.4089 40.1328 17.2266C39.9505 17.0443 39.8594 16.8255 39.8594 16.5703V7.23438C39.8594 6.97917 39.9505 6.76042 40.1328 6.57812C40.3151 6.39583 40.5339 6.30469 40.7891 6.30469C41.0443 6.30469 41.263 6.39583 41.4453 6.57812C41.6224 6.76042 41.7109 6.97917 41.7109 7.23438V10.9766H46.5234V7.23438C46.5234 6.97917 46.6146 6.76042 46.7969 6.57812C46.9792 6.39583 47.1979 6.30469 47.4531 6.30469C47.7083 6.30469 47.9271 6.39583 48.1094 6.57812C48.2917 6.76042 48.3828 6.97917 48.3828 7.23438V16.5703C48.3828 16.8255 48.2917 17.0443 48.1094 17.2266Z" fill="white"/>
<path d="M62.1904 2.25C62.9704 2.26 63.7109 2.73 64.0009 3.5L69.0009 15.4502C69.0909 15.71 69.1408 15.9999 69.1308 16.2598C69.1108 16.9998 68.6504 17.7398 67.9004 18.0498L60.5302 21.0996C60.2703 21.2095 60.0001 21.2598 59.7402 21.2598C58.9704 21.2396 58.2406 20.7698 57.9306 20L52.9707 8.0498C52.5508 7.03991 53.0407 5.87024 54.0605 5.4502L61.4209 2.40039C61.6708 2.31043 61.9305 2.25004 62.1904 2.25ZM60.4121 8.71387C59.9928 8.5833 59.5896 8.61932 59.2031 8.82227C58.8142 9.02658 58.5543 9.3386 58.4238 9.75781C58.296 10.1755 58.3334 10.5776 58.5361 10.9639C58.7022 11.2802 58.9475 11.5142 59.2715 11.665C59.0496 11.9668 58.9212 12.3054 58.8867 12.6807C58.8537 13.0653 58.9276 13.4291 59.1074 13.7715C59.3621 14.2565 59.7509 14.5819 60.2744 14.7471C60.7991 14.9083 61.304 14.8611 61.789 14.6064C62.1366 14.4239 62.4073 14.1603 62.5996 13.8145C62.7856 13.4819 62.8667 13.1243 62.8447 12.7422L63.8076 13.2139C63.9716 13.2932 64.1341 13.2905 64.2949 13.2061C64.3986 13.1516 64.4766 13.073 64.5283 12.9697C64.5911 12.8375 64.5991 12.7011 64.5517 12.5605C64.5044 12.42 64.4139 12.3165 64.2802 12.251L61.4033 10.8379C61.5919 10.3782 61.5718 9.92945 61.3418 9.49121C61.1388 9.10477 60.8287 8.84581 60.4121 8.71387ZM60.4433 12.043C60.6663 11.9259 60.8978 11.9031 61.1377 11.9756C61.3761 12.052 61.5538 12.202 61.6709 12.4248C61.788 12.6479 61.8108 12.8802 61.7383 13.1201C61.6631 13.3612 61.5138 13.5401 61.291 13.6572C61.0679 13.7744 60.835 13.7958 60.5937 13.7207C60.3527 13.6456 60.1737 13.4962 60.0566 13.2734C59.9395 13.0504 59.918 12.8175 59.9931 12.5762C60.0697 12.3376 60.2203 12.1601 60.4433 12.043ZM72.4707 4.34961C73.5007 4.76961 73.9705 5.93996 73.5605 6.95996L71.1308 12.8203V3.79004L72.4707 4.34961ZM59.7021 9.77148C59.8266 9.70618 59.9569 9.69578 60.0927 9.74023C60.227 9.78214 60.3272 9.86494 60.3926 9.98926C60.4579 10.1137 60.4701 10.2448 60.4297 10.3818C60.3878 10.5163 60.3042 10.6163 60.1797 10.6816C60.0526 10.7483 59.9215 10.7606 59.7871 10.7188C59.6515 10.6742 59.5506 10.5902 59.4853 10.4658C59.42 10.3413 59.4083 10.2116 59.4502 10.0771C59.4907 9.94006 59.575 9.83822 59.7021 9.77148ZM67.1211 2.25C67.6514 2.2501 68.1601 2.46096 68.5351 2.83594C68.8633 3.16421 69.0659 3.59481 69.1113 4.05273L69.1211 10.5898L65.6709 2.25H67.1211Z" fill="white"/>
<path d="M86.6328 16.0469C85.5651 17.0156 84.3099 17.5 82.8672 17.5C81.3307 17.5 80.0156 16.9557 78.9219 15.8672C77.8333 14.7734 77.2891 13.4583 77.2891 11.9219C77.2891 10.3802 77.8333 9.0651 78.9219 7.97656C80.0156 6.88281 81.3307 6.33594 82.8672 6.33594C84.1328 6.33594 85.2682 6.72135 86.2734 7.49219C86.4714 7.64844 86.5885 7.85156 86.625 8.10156C86.6562 8.35677 86.5938 8.58594 86.4375 8.78906C86.2812 8.99219 86.0781 9.10938 85.8281 9.14062C85.5729 9.17188 85.3438 9.11198 85.1406 8.96094C84.474 8.44531 83.7161 8.1875 82.8672 8.1875C81.8411 8.1875 80.9635 8.55208 80.2344 9.28125C79.5052 10.0104 79.1406 10.8906 79.1406 11.9219C79.1406 12.9479 79.5052 13.8255 80.2344 14.5547C80.9635 15.2839 81.8411 15.6484 82.8672 15.6484C83.8359 15.6484 84.6745 15.3255 85.3828 14.6797C85.5703 14.5078 85.7917 14.4271 86.0469 14.4375C86.3021 14.4479 86.5156 14.5495 86.6875 14.7422C86.8594 14.9297 86.9401 15.151 86.9297 15.4062C86.9193 15.6615 86.8203 15.875 86.6328 16.0469ZM91.3125 13.2812H94.3203L92.8125 9.65625L91.3125 13.2812ZM88.9531 17.5C88.8333 17.5 88.7161 17.4766 88.6016 17.4297C88.3672 17.3307 88.2005 17.1641 88.1016 16.9297C88.0078 16.6953 88.0078 16.4609 88.1016 16.2266L89.0938 13.8438C89.0938 13.8438 89.0938 13.8411 89.0938 13.8359L91.9688 6.89844C91.9792 6.8724 91.9922 6.84635 92.0078 6.82031C92.0078 6.82031 92.013 6.80729 92.0234 6.78125C92.0391 6.76042 92.0495 6.7474 92.0547 6.74219C92.0547 6.73698 92.0625 6.72396 92.0781 6.70312C92.0938 6.6875 92.1042 6.67708 92.1094 6.67188C92.1094 6.66667 92.1172 6.65625 92.1328 6.64062C92.1536 6.61979 92.1641 6.60677 92.1641 6.60156C92.1693 6.59635 92.1797 6.58854 92.1953 6.57812C92.2161 6.55729 92.2292 6.54688 92.2344 6.54688C92.2292 6.54688 92.2396 6.53906 92.2656 6.52344C92.2865 6.50781 92.2995 6.4974 92.3047 6.49219C92.3047 6.49219 92.3151 6.48438 92.3359 6.46875C92.362 6.45312 92.3776 6.44531 92.3828 6.44531C92.3932 6.4401 92.4115 6.43229 92.4375 6.42188C92.4635 6.40625 92.4714 6.40104 92.4609 6.40625C92.4505 6.41146 92.4609 6.40625 92.4922 6.39062C92.5182 6.38542 92.5365 6.38021 92.5469 6.375C92.5521 6.375 92.5703 6.36979 92.6016 6.35938L92.6328 6.35156C92.6432 6.35156 92.6615 6.34896 92.6875 6.34375C92.7135 6.33854 92.7266 6.33594 92.7266 6.33594C92.7318 6.33594 92.7474 6.33594 92.7734 6.33594C92.7943 6.33594 92.8073 6.33594 92.8125 6.33594C92.8229 6.33594 92.8385 6.33594 92.8594 6.33594C92.8906 6.33594 92.9062 6.33594 92.9062 6.33594C92.9062 6.33594 92.9219 6.33854 92.9531 6.34375C92.9792 6.34896 92.9922 6.35156 92.9922 6.35156C93.0026 6.35156 93.0208 6.35677 93.0469 6.36719C93.0781 6.3724 93.0885 6.375 93.0781 6.375C93.1406 6.39062 93.1979 6.41406 93.25 6.44531C93.2448 6.4401 93.2552 6.44531 93.2812 6.46094C93.3073 6.47656 93.3229 6.48698 93.3281 6.49219C93.3281 6.49219 93.3385 6.5 93.3594 6.51562C93.3802 6.53125 93.3932 6.54167 93.3984 6.54688C93.4036 6.54688 93.4141 6.55469 93.4297 6.57031C93.4453 6.58594 93.4583 6.59635 93.4688 6.60156C93.4688 6.60677 93.4766 6.61719 93.4922 6.63281C93.513 6.65365 93.5234 6.66667 93.5234 6.67188L93.5469 6.70312C93.5677 6.72396 93.5781 6.73698 93.5781 6.74219C93.5781 6.7474 93.5859 6.76042 93.6016 6.78125C93.6172 6.80208 93.625 6.8151 93.625 6.82031C93.6406 6.84635 93.6536 6.8724 93.6641 6.89844L96.5391 13.8359C96.5391 13.8411 96.5391 13.8438 96.5391 13.8438L97.5312 16.2266C97.625 16.4609 97.625 16.6953 97.5312 16.9297C97.4323 17.1641 97.2656 17.3307 97.0312 17.4297C96.9167 17.4766 96.7995 17.5 96.6797 17.5C96.2682 17.5 95.9844 17.3099 95.8281 16.9297L95.0781 15.1172H90.5547L89.8047 16.9297C89.6484 17.3099 89.3646 17.5 88.9531 17.5ZM101.07 10.9531H103.445C103.883 10.9375 104.258 10.7943 104.57 10.5234C104.878 10.2474 105.031 9.91927 105.031 9.53906C105.031 9.14323 104.87 8.80729 104.547 8.53125C104.224 8.25521 103.836 8.11719 103.383 8.11719H101.07V10.9531ZM105.844 7.23438C106.526 7.86979 106.867 8.63802 106.867 9.53906C106.867 10.2266 106.654 10.849 106.227 11.4062C105.815 11.9583 105.273 12.3516 104.602 12.5859L106.375 16.1797C106.484 16.4036 106.497 16.6354 106.414 16.875C106.336 17.1146 106.182 17.2917 105.953 17.4062C105.823 17.4688 105.688 17.5 105.547 17.5C105.167 17.5 104.893 17.3281 104.727 16.9844L102.656 12.7891H101.07V16.5156C101.07 16.7656 100.979 16.9818 100.797 17.1641C100.62 17.3411 100.404 17.4297 100.148 17.4297C99.8984 17.4297 99.6823 17.3411 99.5 17.1641C99.3229 16.9818 99.2344 16.7656 99.2344 16.5156V7.20312C99.2344 6.94792 99.3229 6.73177 99.5 6.55469C99.6823 6.3724 99.8984 6.28125 100.148 6.28125H103.383C104.346 6.28125 105.167 6.59896 105.844 7.23438ZM110.695 8.14844V15.6406L112.125 15.6172C113.161 15.6172 114.044 15.2526 114.773 14.5234C115.503 13.7943 115.867 12.9141 115.867 11.8828C115.867 10.8568 115.503 9.97917 114.773 9.25C114.044 8.51562 113.164 8.14844 112.133 8.14844H110.695ZM109.781 17.5H109.766C109.516 17.5 109.299 17.4115 109.117 17.2344C108.935 17.0521 108.844 16.8333 108.844 16.5781V7.22656C108.844 6.97135 108.935 6.7526 109.117 6.57031C109.294 6.39323 109.51 6.30469 109.766 6.30469H112.133C113.674 6.30469 114.992 6.84896 116.086 7.9375C117.174 9.03125 117.719 10.3464 117.719 11.8828C117.719 13.4245 117.174 14.7396 116.086 15.8281C114.992 16.9219 113.674 17.4688 112.133 17.4688L109.781 17.5Z" fill="white"/>
</svg>
