<svg width="474" height="97" viewBox="0 0 474 97" fill="none" xmlns="http://www.w3.org/2000/svg">
<path d="M38.5312 65.1875C34.2604 69.0625 29.2396 71 23.4688 71C17.3229 71 12.0625 68.8229 7.6875 64.4688C3.33333 60.0938 1.15625 54.8333 1.15625 48.6875C1.15625 42.5208 3.33333 37.2604 7.6875 32.9062C12.0625 28.5312 17.3229 26.3438 23.4688 26.3438C28.5312 26.3438 33.0729 27.8854 37.0938 30.9688C37.8854 31.5938 38.3542 32.4062 38.5 33.4062C38.625 34.4271 38.375 35.3438 37.75 36.1562C37.125 36.9688 36.3125 37.4375 35.3125 37.5625C34.2917 37.6875 33.375 37.4479 32.5625 36.8438C29.8958 34.7812 26.8646 33.75 23.4688 33.75C19.3646 33.75 15.8542 35.2083 12.9375 38.125C10.0208 41.0417 8.5625 44.5625 8.5625 48.6875C8.5625 52.7917 10.0208 56.3021 12.9375 59.2188C15.8542 62.1354 19.3646 63.5938 23.4688 63.5938C27.3438 63.5938 30.6979 62.3021 33.5312 59.7188C34.2812 59.0312 35.1667 58.7083 36.1875 58.75C37.2083 58.7917 38.0625 59.1979 38.75 59.9688C39.4375 60.7188 39.7604 61.6042 39.7188 62.625C39.6771 63.6458 39.2812 64.5 38.5312 65.1875ZM48.0938 27.2812C48.8021 26.5521 49.6667 26.1875 50.6875 26.1875C51.7083 26.1875 52.5729 26.5521 53.2812 27.2812C54.0104 27.9896 54.375 28.8542 54.375 29.875V63.625H70.9062C71.9271 63.625 72.8021 63.9896 73.5312 64.7188C74.2396 65.4271 74.5938 66.2917 74.5938 67.3125C74.5938 68.3333 74.2396 69.1979 73.5312 69.9062C72.8021 70.6354 71.9271 71 70.9062 71H50.6875C49.6667 71 48.8021 70.6354 48.0938 69.9062C47.3646 69.1979 47 68.3333 47 67.3125V29.875C47 28.8542 47.3646 27.9896 48.0938 27.2812ZM90.9375 54.125H102.969L96.9375 39.625L90.9375 54.125ZM81.5 71C81.0208 71 80.5521 70.9062 80.0938 70.7188C79.1562 70.3229 78.4896 69.6562 78.0938 68.7188C77.7188 67.7812 77.7188 66.8438 78.0938 65.9062L82.0625 56.375C82.0625 56.375 82.0625 56.3646 82.0625 56.3438L93.5625 28.5938C93.6042 28.4896 93.6562 28.3854 93.7188 28.2812C93.7188 28.2812 93.7396 28.2292 93.7812 28.125C93.8438 28.0417 93.8854 27.9896 93.9062 27.9688C93.9062 27.9479 93.9375 27.8958 94 27.8125C94.0625 27.75 94.1042 27.7083 94.125 27.6875C94.125 27.6667 94.1562 27.625 94.2188 27.5625C94.3021 27.4792 94.3438 27.4271 94.3438 27.4062C94.3646 27.3854 94.4062 27.3542 94.4688 27.3125C94.5521 27.2292 94.6042 27.1875 94.625 27.1875C94.6042 27.1875 94.6458 27.1562 94.75 27.0938C94.8333 27.0312 94.8854 26.9896 94.9062 26.9688C94.9062 26.9688 94.9479 26.9375 95.0312 26.875C95.1354 26.8125 95.1979 26.7812 95.2188 26.7812C95.2604 26.7604 95.3333 26.7292 95.4375 26.6875C95.5417 26.625 95.5729 26.6042 95.5312 26.625C95.4896 26.6458 95.5312 26.625 95.6562 26.5625C95.7604 26.5417 95.8333 26.5208 95.875 26.5C95.8958 26.5 95.9688 26.4792 96.0938 26.4375L96.2188 26.4062C96.2604 26.4062 96.3333 26.3958 96.4375 26.375C96.5417 26.3542 96.5938 26.3438 96.5938 26.3438C96.6146 26.3438 96.6771 26.3438 96.7812 26.3438C96.8646 26.3438 96.9167 26.3438 96.9375 26.3438C96.9792 26.3438 97.0417 26.3438 97.125 26.3438C97.25 26.3438 97.3125 26.3438 97.3125 26.3438C97.3125 26.3438 97.375 26.3542 97.5 26.375C97.6042 26.3958 97.6562 26.4062 97.6562 26.4062C97.6979 26.4062 97.7708 26.4271 97.875 26.4688C98 26.4896 98.0417 26.5 98 26.5C98.25 26.5625 98.4792 26.6562 98.6875 26.7812C98.6667 26.7604 98.7083 26.7812 98.8125 26.8438C98.9167 26.9062 98.9792 26.9479 99 26.9688C99 26.9688 99.0417 27 99.125 27.0625C99.2083 27.125 99.2604 27.1667 99.2812 27.1875C99.3021 27.1875 99.3438 27.2188 99.4062 27.2812C99.4688 27.3438 99.5208 27.3854 99.5625 27.4062C99.5625 27.4271 99.5938 27.4688 99.6562 27.5312C99.7396 27.6146 99.7812 27.6667 99.7812 27.6875L99.875 27.8125C99.9583 27.8958 100 27.9479 100 27.9688C100 27.9896 100.031 28.0417 100.094 28.125C100.156 28.2083 100.188 28.2604 100.188 28.2812C100.25 28.3854 100.302 28.4896 100.344 28.5938L111.844 56.3438C111.844 56.3646 111.844 56.375 111.844 56.375L115.812 65.9062C116.188 66.8438 116.188 67.7812 115.812 68.7188C115.417 69.6562 114.75 70.3229 113.812 70.7188C113.354 70.9062 112.885 71 112.406 71C110.76 71 109.625 70.2396 109 68.7188L106 61.4688H87.9062L84.9062 68.7188C84.2812 70.2396 83.1458 71 81.5 71ZM147.969 49.375C150.198 51.7292 151.24 54.4896 151.094 57.6562C150.927 61.3854 149.438 64.5417 146.625 67.125C143.792 69.7083 140.417 71 136.5 71C133.104 71 130.062 70.2708 127.375 68.8125C124.146 67.0625 122.094 64.5208 121.219 61.1875C120.969 60.2083 121.094 59.2812 121.594 58.4062C122.115 57.5312 122.865 56.9688 123.844 56.7188C124.823 56.4688 125.75 56.5938 126.625 57.0938C127.5 57.6146 128.062 58.3646 128.312 59.3438C128.688 60.7396 129.708 61.8333 131.375 62.625C132.875 63.3125 134.583 63.6562 136.5 63.6562C138.458 63.6562 140.135 63.0417 141.531 61.8125C142.948 60.6042 143.698 59.1042 143.781 57.3125C143.823 56.2292 143.438 55.2604 142.625 54.4062C141.333 53.0312 139.167 52.3229 136.125 52.2812H136.094C136.01 52.2812 135.99 52.2812 136.031 52.2812C136.01 52.2812 135.99 52.2812 135.969 52.2812C130.865 52.1979 126.958 50.7292 124.25 47.875C122.021 45.5 120.979 42.7396 121.125 39.5938C121.292 35.8438 122.781 32.6771 125.594 30.0938C128.406 27.5104 131.781 26.2188 135.719 26.2188C139.115 26.2188 142.156 26.9479 144.844 28.4062C148.073 30.1562 150.125 32.6979 151 36.0312C151.25 37.0104 151.115 37.9375 150.594 38.8125C150.094 39.6875 149.354 40.25 148.375 40.5C147.396 40.75 146.469 40.625 145.594 40.125C144.719 39.6042 144.156 38.8542 143.906 37.875C143.531 36.4792 142.5 35.3854 140.812 34.5938C139.333 33.9062 137.635 33.5625 135.719 33.5625C133.76 33.5625 132.073 34.1771 130.656 35.4062C129.26 36.6354 128.521 38.1354 128.438 39.9062C128.396 40.9896 128.781 41.9688 129.594 42.8438C130.885 44.1979 133.052 44.8958 136.094 44.9375H136.25C141.354 45.0208 145.26 46.5 147.969 49.375ZM192.438 69.9062C191.708 70.6354 190.833 71 189.812 71C188.792 71 187.917 70.6354 187.188 69.9062C186.458 69.1771 186.094 68.3021 186.094 67.2812V52.3125H166.844V67.2812C166.844 68.3021 166.49 69.1771 165.781 69.9062C165.052 70.6354 164.177 71 163.156 71C162.135 71 161.26 70.6354 160.531 69.9062C159.802 69.1771 159.438 68.3021 159.438 67.2812V29.9375C159.438 28.9167 159.802 28.0417 160.531 27.3125C161.26 26.5833 162.135 26.2188 163.156 26.2188C164.177 26.2188 165.052 26.5833 165.781 27.3125C166.49 28.0417 166.844 28.9167 166.844 29.9375V44.9062H186.094V29.9375C186.094 28.9167 186.458 28.0417 187.188 27.3125C187.917 26.5833 188.792 26.2188 189.812 26.2188C190.833 26.2188 191.708 26.5833 192.438 27.3125C193.167 28.0417 193.531 28.9167 193.531 29.9375V67.2812C193.531 68.3021 193.167 69.1771 192.438 69.9062Z" fill="white"/>
<path d="M245.763 9.5C248.883 9.54 251.843 11.42 253.003 14.5L273.003 62.2998C273.363 63.3398 273.563 64.5 273.523 65.54C273.443 68.5 271.603 71.4602 268.603 72.7002L239.123 84.9004C238.083 85.3404 237.003 85.54 235.963 85.54C232.883 85.46 229.963 83.58 228.723 80.5L208.883 32.7002C207.203 28.6602 209.163 23.9798 213.243 22.2998L242.683 10.0996C243.683 9.73964 244.723 9.50004 245.763 9.5ZM239.113 36.2393C237.436 35.717 235.824 35.862 234.278 36.6738C232.722 37.491 231.683 38.7379 231.16 40.415C230.648 42.0869 230.799 43.6963 231.61 45.2422C232.275 46.5079 233.256 47.4427 234.552 48.0459C233.664 49.2533 233.151 50.6077 233.013 52.1094C232.881 53.6478 233.175 55.1022 233.894 56.4717C234.912 58.4119 236.469 59.7123 238.564 60.373C240.663 61.0179 242.682 60.8312 244.622 59.8125C246.012 59.0824 247.092 58.025 247.861 56.6416C248.605 55.3112 248.934 53.8813 248.846 52.3525L252.696 54.2422C253.353 54.5593 254.002 54.5487 254.646 54.2109C255.061 53.993 255.372 53.6776 255.578 53.2646C255.83 52.7356 255.861 52.1901 255.672 51.6279C255.483 51.0656 255.121 50.6526 254.586 50.3906L243.08 44.7383C243.835 42.8992 243.752 41.1029 242.831 39.3496C242.019 37.8038 240.78 36.767 239.113 36.2393ZM239.236 49.5566C240.129 49.0881 241.055 48.9989 242.015 49.2891C242.969 49.595 243.681 50.1939 244.15 51.0859C244.618 51.9782 244.707 52.9045 244.417 53.8643C244.117 54.8294 243.52 55.5461 242.628 56.0146C241.736 56.4832 240.807 56.5672 239.842 56.2666C238.877 55.966 238.16 55.3698 237.692 54.4775C237.223 53.5853 237.139 52.6566 237.44 51.6914C237.746 50.7367 238.344 50.0252 239.236 49.5566ZM286.883 17.9004C291.003 19.5804 292.883 24.2599 291.243 28.3398L281.523 51.7803V15.6602L286.883 17.9004ZM236.273 40.4707C236.771 40.2092 237.292 40.1678 237.835 40.3457C238.373 40.5133 238.773 40.8458 239.034 41.3438C239.296 41.8417 239.345 42.3648 239.183 42.9131C239.015 43.4511 238.683 43.8508 238.185 44.1123C237.676 44.3792 237.153 44.4292 236.615 44.2617C236.072 44.0839 235.67 43.7459 235.408 43.248C235.147 42.7502 235.099 42.2322 235.267 41.6943C235.429 41.146 235.764 40.7377 236.273 40.4707ZM265.483 9.5C267.605 9.50012 269.64 10.3428 271.14 11.8428C272.546 13.2493 273.375 15.1261 273.473 17.1035L273.483 42.8604L259.683 9.5H265.483Z" fill="white"/>
<path d="M343.531 65.1875C339.26 69.0625 334.24 71 328.469 71C322.323 71 317.062 68.8229 312.688 64.4688C308.333 60.0938 306.156 54.8333 306.156 48.6875C306.156 42.5208 308.333 37.2604 312.688 32.9062C317.062 28.5312 322.323 26.3438 328.469 26.3438C333.531 26.3438 338.073 27.8854 342.094 30.9688C342.885 31.5938 343.354 32.4062 343.5 33.4062C343.625 34.4271 343.375 35.3438 342.75 36.1562C342.125 36.9688 341.312 37.4375 340.312 37.5625C339.292 37.6875 338.375 37.4479 337.562 36.8438C334.896 34.7812 331.865 33.75 328.469 33.75C324.365 33.75 320.854 35.2083 317.938 38.125C315.021 41.0417 313.562 44.5625 313.562 48.6875C313.562 52.7917 315.021 56.3021 317.938 59.2188C320.854 62.1354 324.365 63.5938 328.469 63.5938C332.344 63.5938 335.698 62.3021 338.531 59.7188C339.281 59.0312 340.167 58.7083 341.188 58.75C342.208 58.7917 343.062 59.1979 343.75 59.9688C344.438 60.7188 344.76 61.6042 344.719 62.625C344.677 63.6458 344.281 64.5 343.531 65.1875ZM362.25 54.125H374.281L368.25 39.625L362.25 54.125ZM352.812 71C352.333 71 351.865 70.9062 351.406 70.7188C350.469 70.3229 349.802 69.6562 349.406 68.7188C349.031 67.7812 349.031 66.8438 349.406 65.9062L353.375 56.375C353.375 56.375 353.375 56.3646 353.375 56.3438L364.875 28.5938C364.917 28.4896 364.969 28.3854 365.031 28.2812C365.031 28.2812 365.052 28.2292 365.094 28.125C365.156 28.0417 365.198 27.9896 365.219 27.9688C365.219 27.9479 365.25 27.8958 365.312 27.8125C365.375 27.75 365.417 27.7083 365.438 27.6875C365.438 27.6667 365.469 27.625 365.531 27.5625C365.615 27.4792 365.656 27.4271 365.656 27.4062C365.677 27.3854 365.719 27.3542 365.781 27.3125C365.865 27.2292 365.917 27.1875 365.938 27.1875C365.917 27.1875 365.958 27.1562 366.062 27.0938C366.146 27.0312 366.198 26.9896 366.219 26.9688C366.219 26.9688 366.26 26.9375 366.344 26.875C366.448 26.8125 366.51 26.7812 366.531 26.7812C366.573 26.7604 366.646 26.7292 366.75 26.6875C366.854 26.625 366.885 26.6042 366.844 26.625C366.802 26.6458 366.844 26.625 366.969 26.5625C367.073 26.5417 367.146 26.5208 367.188 26.5C367.208 26.5 367.281 26.4792 367.406 26.4375L367.531 26.4062C367.573 26.4062 367.646 26.3958 367.75 26.375C367.854 26.3542 367.906 26.3438 367.906 26.3438C367.927 26.3438 367.99 26.3438 368.094 26.3438C368.177 26.3438 368.229 26.3438 368.25 26.3438C368.292 26.3438 368.354 26.3438 368.438 26.3438C368.562 26.3438 368.625 26.3438 368.625 26.3438C368.625 26.3438 368.688 26.3542 368.812 26.375C368.917 26.3958 368.969 26.4062 368.969 26.4062C369.01 26.4062 369.083 26.4271 369.188 26.4688C369.312 26.4896 369.354 26.5 369.312 26.5C369.562 26.5625 369.792 26.6562 370 26.7812C369.979 26.7604 370.021 26.7812 370.125 26.8438C370.229 26.9062 370.292 26.9479 370.312 26.9688C370.312 26.9688 370.354 27 370.438 27.0625C370.521 27.125 370.573 27.1667 370.594 27.1875C370.615 27.1875 370.656 27.2188 370.719 27.2812C370.781 27.3438 370.833 27.3854 370.875 27.4062C370.875 27.4271 370.906 27.4688 370.969 27.5312C371.052 27.6146 371.094 27.6667 371.094 27.6875L371.188 27.8125C371.271 27.8958 371.312 27.9479 371.312 27.9688C371.312 27.9896 371.344 28.0417 371.406 28.125C371.469 28.2083 371.5 28.2604 371.5 28.2812C371.562 28.3854 371.615 28.4896 371.656 28.5938L383.156 56.3438C383.156 56.3646 383.156 56.375 383.156 56.375L387.125 65.9062C387.5 66.8438 387.5 67.7812 387.125 68.7188C386.729 69.6562 386.062 70.3229 385.125 70.7188C384.667 70.9062 384.198 71 383.719 71C382.073 71 380.938 70.2396 380.312 68.7188L377.312 61.4688H359.219L356.219 68.7188C355.594 70.2396 354.458 71 352.812 71ZM401.281 44.8125H410.781C412.531 44.75 414.031 44.1771 415.281 43.0938C416.51 41.9896 417.125 40.6771 417.125 39.1562C417.125 37.5729 416.479 36.2292 415.188 35.125C413.896 34.0208 412.344 33.4688 410.531 33.4688H401.281V44.8125ZM420.375 29.9375C423.104 32.4792 424.469 35.5521 424.469 39.1562C424.469 41.9062 423.615 44.3958 421.906 46.625C420.26 48.8333 418.094 50.4062 415.406 51.3438L422.5 65.7188C422.938 66.6146 422.99 67.5417 422.656 68.5C422.344 69.4583 421.729 70.1667 420.812 70.625C420.292 70.875 419.75 71 419.188 71C417.667 71 416.573 70.3125 415.906 68.9375L407.625 52.1562H401.281V67.0625C401.281 68.0625 400.917 68.9271 400.188 69.6562C399.479 70.3646 398.615 70.7188 397.594 70.7188C396.594 70.7188 395.729 70.3646 395 69.6562C394.292 68.9271 393.938 68.0625 393.938 67.0625V29.8125C393.938 28.7917 394.292 27.9271 395 27.2188C395.729 26.4896 396.594 26.125 397.594 26.125H410.531C414.385 26.125 417.667 27.3958 420.375 29.9375ZM439.781 33.5938V63.5625L445.5 63.4688C449.646 63.4688 453.177 62.0104 456.094 59.0938C459.01 56.1771 460.469 52.6562 460.469 48.5312C460.469 44.4271 459.01 40.9167 456.094 38C453.177 35.0625 449.656 33.5938 445.531 33.5938H439.781ZM436.125 71H436.062C435.062 71 434.198 70.6458 433.469 69.9375C432.74 69.2083 432.375 68.3333 432.375 67.3125V29.9062C432.375 28.8854 432.74 28.0104 433.469 27.2812C434.177 26.5729 435.042 26.2188 436.062 26.2188H445.531C451.698 26.2188 456.969 28.3958 461.344 32.75C465.698 37.125 467.875 42.3854 467.875 48.5312C467.875 54.6979 465.698 59.9583 461.344 64.3125C456.969 68.6875 451.698 70.875 445.531 70.875L436.125 71Z" fill="white"/>
</svg>
