<svg width="150" height="250" viewBox="0 0 150 250" fill="none" xmlns="http://www.w3.org/2000/svg">
<g clip-path="url(#clip0_325_85)">
<rect width="150" height="250" rx="4" fill="#C8C846"/>
<rect width="150" height="250" rx="4" fill="white" fill-opacity="0.6"/>
<rect width="14.1964" height="15.0745" transform="translate(129.848 168.294) rotate(-60)" fill="#C8C846"/>
<rect width="14.1964" height="15.0745" transform="translate(129.848 168.294) rotate(-60)" fill="white" fill-opacity="0.1"/>
<rect width="14.1964" height="15.0745" transform="translate(0 163.431) rotate(-30)" fill="#C8C846"/>
<rect width="14.1964" height="15.0745" transform="translate(0 163.431) rotate(-30)" fill="white" fill-opacity="0.1"/>
<g clip-path="url(#clip1_325_85)">
<rect x="10" y="10" width="130" height="230" rx="2" fill="#C8C846"/>
<rect x="10" y="10" width="130" height="230" rx="2" fill="white" fill-opacity="0.4"/>
<circle cx="75" cy="90" r="40" fill="#C8C846"/>
<circle cx="75" cy="90" r="40" fill="white" fill-opacity="0.2"/>
<path d="M94.9994 70L85.7794 73.5L71.9194 87.36L78.9994 94.44L92.8394 80.58C95.8594 77.56 94.9994 70 94.9994 70ZM67.6594 86L64.8394 88.78L67.6594 91.6L56.3594 102.92L63.4194 110L74.7394 98.68L77.5594 101.52L80.3994 98.68L67.6594 86Z" fill="white"/>
</g>
<rect width="150" height="50" transform="translate(0 164)" fill="#C8C846"/>
<rect width="150" height="50" transform="translate(0 164)" fill="white" fill-opacity="0.2"/>
<path d="M33.2324 190.727H36.9922L35.1074 186.195L33.2324 190.727ZM30.2832 196C30.1335 196 29.987 195.971 29.8438 195.912C29.5508 195.788 29.3424 195.58 29.2188 195.287C29.1016 194.994 29.1016 194.701 29.2188 194.408L30.459 191.43C30.459 191.43 30.459 191.426 30.459 191.42L34.0527 182.748C34.0658 182.715 34.082 182.683 34.1016 182.65C34.1016 182.65 34.1081 182.634 34.1211 182.602C34.1406 182.576 34.1536 182.559 34.1602 182.553C34.1602 182.546 34.1699 182.53 34.1895 182.504C34.209 182.484 34.222 182.471 34.2285 182.465C34.2285 182.458 34.2383 182.445 34.2578 182.426C34.2839 182.4 34.2969 182.383 34.2969 182.377C34.3034 182.37 34.3164 182.361 34.3359 182.348C34.362 182.322 34.3783 182.309 34.3848 182.309C34.3783 182.309 34.3913 182.299 34.4238 182.279C34.4499 182.26 34.4661 182.247 34.4727 182.24C34.4727 182.24 34.4857 182.23 34.5117 182.211C34.5443 182.191 34.5638 182.182 34.5703 182.182C34.5833 182.175 34.6061 182.165 34.6387 182.152C34.6712 182.133 34.681 182.126 34.668 182.133C34.6549 182.139 34.668 182.133 34.707 182.113C34.7396 182.107 34.7624 182.1 34.7754 182.094C34.7819 182.094 34.8047 182.087 34.8438 182.074L34.8828 182.064C34.8958 182.064 34.9186 182.061 34.9512 182.055C34.9837 182.048 35 182.045 35 182.045C35.0065 182.045 35.026 182.045 35.0586 182.045C35.0846 182.045 35.1009 182.045 35.1074 182.045C35.1204 182.045 35.14 182.045 35.166 182.045C35.2051 182.045 35.2246 182.045 35.2246 182.045C35.2246 182.045 35.2441 182.048 35.2832 182.055C35.3158 182.061 35.332 182.064 35.332 182.064C35.3451 182.064 35.3678 182.071 35.4004 182.084C35.4395 182.09 35.4525 182.094 35.4395 182.094C35.5176 182.113 35.5892 182.143 35.6543 182.182C35.6478 182.175 35.6608 182.182 35.6934 182.201C35.7259 182.221 35.7454 182.234 35.752 182.24C35.752 182.24 35.765 182.25 35.791 182.27C35.8171 182.289 35.8333 182.302 35.8398 182.309C35.8464 182.309 35.8594 182.318 35.8789 182.338C35.8984 182.357 35.9147 182.37 35.9277 182.377C35.9277 182.383 35.9375 182.396 35.957 182.416C35.9831 182.442 35.9961 182.458 35.9961 182.465L36.0254 182.504C36.0514 182.53 36.0645 182.546 36.0645 182.553C36.0645 182.559 36.0742 182.576 36.0938 182.602C36.1133 182.628 36.123 182.644 36.123 182.65C36.1426 182.683 36.1589 182.715 36.1719 182.748L39.7656 191.42C39.7656 191.426 39.7656 191.43 39.7656 191.43L41.0059 194.408C41.123 194.701 41.123 194.994 41.0059 195.287C40.8822 195.58 40.6738 195.788 40.3809 195.912C40.2376 195.971 40.0911 196 39.9414 196C39.4271 196 39.0723 195.762 38.877 195.287L37.9395 193.021H32.2852L31.3477 195.287C31.1523 195.762 30.7975 196 30.2832 196ZM51.0547 189.242C51.7513 189.978 52.0768 190.84 52.0312 191.83C51.9792 192.995 51.5137 193.982 50.6348 194.789C49.7493 195.596 48.6947 196 47.4707 196C46.4095 196 45.459 195.772 44.6191 195.316C43.61 194.77 42.9688 193.975 42.6953 192.934C42.6172 192.628 42.6562 192.338 42.8125 192.064C42.9753 191.791 43.2096 191.615 43.5156 191.537C43.8216 191.459 44.1113 191.498 44.3848 191.654C44.6582 191.817 44.834 192.051 44.9121 192.357C45.0293 192.794 45.3483 193.135 45.8691 193.383C46.3379 193.598 46.8717 193.705 47.4707 193.705C48.0827 193.705 48.6068 193.513 49.043 193.129C49.4857 192.751 49.7201 192.283 49.7461 191.723C49.7591 191.384 49.6387 191.081 49.3848 190.814C48.9811 190.385 48.304 190.163 47.3535 190.15H47.3438C47.3177 190.15 47.3112 190.15 47.3242 190.15C47.3177 190.15 47.3112 190.15 47.3047 190.15C45.7096 190.124 44.4889 189.665 43.6426 188.773C42.946 188.031 42.6204 187.169 42.666 186.186C42.7181 185.014 43.1836 184.024 44.0625 183.217C44.9414 182.41 45.9961 182.006 47.2266 182.006C48.2878 182.006 49.2383 182.234 50.0781 182.689C51.0872 183.236 51.7285 184.031 52.002 185.072C52.0801 185.378 52.0378 185.668 51.875 185.941C51.7188 186.215 51.4876 186.391 51.1816 186.469C50.8757 186.547 50.5859 186.508 50.3125 186.352C50.0391 186.189 49.8633 185.954 49.7852 185.648C49.668 185.212 49.3457 184.87 48.8184 184.623C48.3561 184.408 47.8255 184.301 47.2266 184.301C46.6146 184.301 46.0872 184.493 45.6445 184.877C45.2083 185.261 44.9772 185.73 44.9512 186.283C44.9382 186.622 45.0586 186.928 45.3125 187.201C45.7161 187.624 46.3932 187.842 47.3438 187.855H47.3926C48.9876 187.882 50.2083 188.344 51.0547 189.242ZM62.5195 189.242C63.2161 189.978 63.5417 190.84 63.4961 191.83C63.444 192.995 62.9785 193.982 62.0996 194.789C61.2142 195.596 60.1595 196 58.9355 196C57.8743 196 56.9238 195.772 56.084 195.316C55.0749 194.77 54.4336 193.975 54.1602 192.934C54.082 192.628 54.1211 192.338 54.2773 192.064C54.4401 191.791 54.6745 191.615 54.9805 191.537C55.2865 191.459 55.5762 191.498 55.8496 191.654C56.123 191.817 56.2988 192.051 56.377 192.357C56.4941 192.794 56.8132 193.135 57.334 193.383C57.8027 193.598 58.3366 193.705 58.9355 193.705C59.5475 193.705 60.0716 193.513 60.5078 193.129C60.9505 192.751 61.1849 192.283 61.2109 191.723C61.224 191.384 61.1035 191.081 60.8496 190.814C60.446 190.385 59.7689 190.163 58.8184 190.15H58.8086C58.7826 190.15 58.776 190.15 58.7891 190.15C58.7826 190.15 58.776 190.15 58.7695 190.15C57.1745 190.124 55.9538 189.665 55.1074 188.773C54.4108 188.031 54.0853 187.169 54.1309 186.186C54.1829 185.014 54.6484 184.024 55.5273 183.217C56.4062 182.41 57.4609 182.006 58.6914 182.006C59.7526 182.006 60.7031 182.234 61.543 182.689C62.5521 183.236 63.1934 184.031 63.4668 185.072C63.5449 185.378 63.5026 185.668 63.3398 185.941C63.1836 186.215 62.9525 186.391 62.6465 186.469C62.3405 186.547 62.0508 186.508 61.7773 186.352C61.5039 186.189 61.3281 185.954 61.25 185.648C61.1328 185.212 60.8105 184.87 60.2832 184.623C59.821 184.408 59.2904 184.301 58.6914 184.301C58.0794 184.301 57.5521 184.493 57.1094 184.877C56.6732 185.261 56.4421 185.73 56.416 186.283C56.403 186.622 56.5234 186.928 56.7773 187.201C57.181 187.624 57.8581 187.842 58.8086 187.855H58.8574C60.4525 187.882 61.6732 188.344 62.5195 189.242ZM69.3457 190.727H73.1055L71.2207 186.195L69.3457 190.727ZM66.3965 196C66.2467 196 66.1003 195.971 65.957 195.912C65.6641 195.788 65.4557 195.58 65.332 195.287C65.2148 194.994 65.2148 194.701 65.332 194.408L66.5723 191.43C66.5723 191.43 66.5723 191.426 66.5723 191.42L70.166 182.748C70.179 182.715 70.1953 182.683 70.2148 182.65C70.2148 182.65 70.2214 182.634 70.2344 182.602C70.2539 182.576 70.2669 182.559 70.2734 182.553C70.2734 182.546 70.2832 182.53 70.3027 182.504C70.3223 182.484 70.3353 182.471 70.3418 182.465C70.3418 182.458 70.3516 182.445 70.3711 182.426C70.3971 182.4 70.4102 182.383 70.4102 182.377C70.4167 182.37 70.4297 182.361 70.4492 182.348C70.4753 182.322 70.4915 182.309 70.498 182.309C70.4915 182.309 70.5046 182.299 70.5371 182.279C70.5632 182.26 70.5794 182.247 70.5859 182.24C70.5859 182.24 70.599 182.23 70.625 182.211C70.6576 182.191 70.6771 182.182 70.6836 182.182C70.6966 182.175 70.7194 182.165 70.752 182.152C70.7845 182.133 70.7943 182.126 70.7812 182.133C70.7682 182.139 70.7812 182.133 70.8203 182.113C70.8529 182.107 70.8757 182.1 70.8887 182.094C70.8952 182.094 70.918 182.087 70.957 182.074L70.9961 182.064C71.0091 182.064 71.0319 182.061 71.0645 182.055C71.097 182.048 71.1133 182.045 71.1133 182.045C71.1198 182.045 71.1393 182.045 71.1719 182.045C71.1979 182.045 71.2142 182.045 71.2207 182.045C71.2337 182.045 71.2533 182.045 71.2793 182.045C71.3184 182.045 71.3379 182.045 71.3379 182.045C71.3379 182.045 71.3574 182.048 71.3965 182.055C71.429 182.061 71.4453 182.064 71.4453 182.064C71.4583 182.064 71.4811 182.071 71.5137 182.084C71.5527 182.09 71.5658 182.094 71.5527 182.094C71.6309 182.113 71.7025 182.143 71.7676 182.182C71.7611 182.175 71.7741 182.182 71.8066 182.201C71.8392 182.221 71.8587 182.234 71.8652 182.24C71.8652 182.24 71.8783 182.25 71.9043 182.27C71.9303 182.289 71.9466 182.302 71.9531 182.309C71.9596 182.309 71.9727 182.318 71.9922 182.338C72.0117 182.357 72.028 182.37 72.041 182.377C72.041 182.383 72.0508 182.396 72.0703 182.416C72.0964 182.442 72.1094 182.458 72.1094 182.465L72.1387 182.504C72.1647 182.53 72.1777 182.546 72.1777 182.553C72.1777 182.559 72.1875 182.576 72.207 182.602C72.2266 182.628 72.2363 182.644 72.2363 182.65C72.2559 182.683 72.2721 182.715 72.2852 182.748L75.8789 191.42C75.8789 191.426 75.8789 191.43 75.8789 191.43L77.1191 194.408C77.2363 194.701 77.2363 194.994 77.1191 195.287C76.9954 195.58 76.7871 195.788 76.4941 195.912C76.3509 195.971 76.2044 196 76.0547 196C75.5404 196 75.1855 195.762 74.9902 195.287L74.0527 193.021H68.3984L67.4609 195.287C67.2656 195.762 66.9108 196 66.3965 196ZM87.168 189.242C87.8646 189.978 88.1901 190.84 88.1445 191.83C88.0924 192.995 87.627 193.982 86.748 194.789C85.8626 195.596 84.8079 196 83.584 196C82.5228 196 81.5723 195.772 80.7324 195.316C79.7233 194.77 79.082 193.975 78.8086 192.934C78.7305 192.628 78.7695 192.338 78.9258 192.064C79.0885 191.791 79.3229 191.615 79.6289 191.537C79.9349 191.459 80.2246 191.498 80.498 191.654C80.7715 191.817 80.9473 192.051 81.0254 192.357C81.1426 192.794 81.4616 193.135 81.9824 193.383C82.4512 193.598 82.985 193.705 83.584 193.705C84.196 193.705 84.7201 193.513 85.1562 193.129C85.599 192.751 85.8333 192.283 85.8594 191.723C85.8724 191.384 85.752 191.081 85.498 190.814C85.0944 190.385 84.4173 190.163 83.4668 190.15H83.457C83.431 190.15 83.4245 190.15 83.4375 190.15C83.431 190.15 83.4245 190.15 83.418 190.15C81.8229 190.124 80.6022 189.665 79.7559 188.773C79.0592 188.031 78.7337 187.169 78.7793 186.186C78.8314 185.014 79.2969 184.024 80.1758 183.217C81.0547 182.41 82.1094 182.006 83.3398 182.006C84.401 182.006 85.3516 182.234 86.1914 182.689C87.2005 183.236 87.8418 184.031 88.1152 185.072C88.1934 185.378 88.151 185.668 87.9883 185.941C87.832 186.215 87.6009 186.391 87.2949 186.469C86.9889 186.547 86.6992 186.508 86.4258 186.352C86.1523 186.189 85.9766 185.954 85.8984 185.648C85.7812 185.212 85.459 184.87 84.9316 184.623C84.4694 184.408 83.9388 184.301 83.3398 184.301C82.7279 184.301 82.2005 184.493 81.7578 184.877C81.3216 185.261 81.0905 185.73 81.0645 186.283C81.0514 186.622 81.1719 186.928 81.4258 187.201C81.8294 187.624 82.5065 187.842 83.457 187.855H83.5059C85.1009 187.882 86.3216 188.344 87.168 189.242ZM98.6328 189.242C99.3294 189.978 99.6549 190.84 99.6094 191.83C99.5573 192.995 99.0918 193.982 98.2129 194.789C97.3275 195.596 96.2728 196 95.0488 196C93.9876 196 93.0371 195.772 92.1973 195.316C91.1882 194.77 90.5469 193.975 90.2734 192.934C90.1953 192.628 90.2344 192.338 90.3906 192.064C90.5534 191.791 90.7878 191.615 91.0938 191.537C91.3997 191.459 91.6895 191.498 91.9629 191.654C92.2363 191.817 92.4121 192.051 92.4902 192.357C92.6074 192.794 92.9264 193.135 93.4473 193.383C93.916 193.598 94.4499 193.705 95.0488 193.705C95.6608 193.705 96.1849 193.513 96.6211 193.129C97.0638 192.751 97.2982 192.283 97.3242 191.723C97.3372 191.384 97.2168 191.081 96.9629 190.814C96.5592 190.385 95.8822 190.163 94.9316 190.15H94.9219C94.8958 190.15 94.8893 190.15 94.9023 190.15C94.8958 190.15 94.8893 190.15 94.8828 190.15C93.2878 190.124 92.0671 189.665 91.2207 188.773C90.5241 188.031 90.1986 187.169 90.2441 186.186C90.2962 185.014 90.7617 184.024 91.6406 183.217C92.5195 182.41 93.5742 182.006 94.8047 182.006C95.8659 182.006 96.8164 182.234 97.6562 182.689C98.6654 183.236 99.3066 184.031 99.5801 185.072C99.6582 185.378 99.6159 185.668 99.4531 185.941C99.2969 186.215 99.0658 186.391 98.7598 186.469C98.4538 186.547 98.1641 186.508 97.8906 186.352C97.6172 186.189 97.4414 185.954 97.3633 185.648C97.2461 185.212 96.9238 184.87 96.3965 184.623C95.9342 184.408 95.4036 184.301 94.8047 184.301C94.1927 184.301 93.6654 184.493 93.2227 184.877C92.7865 185.261 92.5553 185.73 92.5293 186.283C92.5163 186.622 92.6367 186.928 92.8906 187.201C93.2943 187.624 93.9714 187.842 94.9219 187.855H94.9707C96.5658 187.882 97.7865 188.344 98.6328 189.242ZM104.18 195.658C103.958 195.886 103.688 196 103.369 196C103.05 196 102.78 195.886 102.559 195.658C102.331 195.437 102.217 195.167 102.217 194.848V183.197C102.217 182.878 102.331 182.608 102.559 182.387C102.78 182.159 103.05 182.045 103.369 182.045C103.688 182.045 103.958 182.159 104.18 182.387C104.408 182.608 104.521 182.878 104.521 183.197V194.848C104.521 195.167 104.408 195.437 104.18 195.658ZM116.992 195.639C116.966 195.613 116.943 195.587 116.924 195.561C116.917 195.561 116.914 195.561 116.914 195.561C116.914 195.561 116.914 195.557 116.914 195.551L109.893 186.518V194.848C109.893 195.167 109.779 195.437 109.551 195.658C109.329 195.886 109.059 196 108.74 196C108.421 196 108.151 195.886 107.93 195.658C107.702 195.437 107.588 195.167 107.588 194.848V183.148C107.588 182.901 107.66 182.68 107.803 182.484C107.946 182.283 108.135 182.143 108.369 182.064C108.597 181.98 108.831 181.973 109.072 182.045C109.307 182.117 109.499 182.25 109.648 182.445L116.67 191.488V183.148C116.67 182.829 116.781 182.559 117.002 182.338C117.23 182.11 117.503 181.996 117.822 181.996C118.141 181.996 118.411 182.11 118.633 182.338C118.861 182.559 118.975 182.829 118.975 183.148V194.867C118.975 194.88 118.971 194.9 118.965 194.926C118.965 194.952 118.965 194.968 118.965 194.975C118.965 194.988 118.962 195.007 118.955 195.033C118.955 195.059 118.952 195.079 118.945 195.092C118.945 195.092 118.942 195.108 118.936 195.141C118.929 195.173 118.923 195.193 118.916 195.199C118.916 195.206 118.91 195.222 118.896 195.248C118.89 195.274 118.883 195.294 118.877 195.307C118.877 195.307 118.87 195.323 118.857 195.355C118.838 195.388 118.828 195.404 118.828 195.404C118.822 195.417 118.812 195.437 118.799 195.463L118.77 195.492C118.763 195.505 118.75 195.525 118.73 195.551C118.711 195.577 118.701 195.59 118.701 195.59C118.695 195.596 118.682 195.609 118.662 195.629C118.643 195.655 118.63 195.668 118.623 195.668C118.623 195.674 118.61 195.688 118.584 195.707C118.564 195.727 118.548 195.74 118.535 195.746C118.555 195.733 118.551 195.736 118.525 195.756C118.525 195.756 118.522 195.759 118.516 195.766C118.464 195.805 118.415 195.837 118.369 195.863C118.363 195.863 118.359 195.863 118.359 195.863C118.307 195.889 118.255 195.912 118.203 195.932C118.177 195.945 118.171 195.948 118.184 195.941C118.132 195.961 118.076 195.974 118.018 195.98C118.018 195.98 118.008 195.984 117.988 195.99C117.93 195.997 117.874 196 117.822 196C117.783 196 117.741 195.997 117.695 195.99C117.708 195.997 117.702 195.997 117.676 195.99C117.637 195.984 117.604 195.977 117.578 195.971C117.585 195.977 117.572 195.974 117.539 195.961C117.507 195.954 117.48 195.948 117.461 195.941C117.454 195.941 117.441 195.935 117.422 195.922C117.389 195.915 117.363 195.906 117.344 195.893C117.331 195.893 117.318 195.886 117.305 195.873C117.279 195.86 117.256 195.85 117.236 195.844C117.217 195.831 117.204 195.821 117.197 195.814C117.178 195.801 117.155 195.785 117.129 195.766C117.109 195.753 117.096 195.743 117.09 195.736C117.057 195.71 117.028 195.684 117.002 195.658C117.002 195.658 116.999 195.655 116.992 195.648C116.992 195.648 116.992 195.645 116.992 195.639Z" fill="white"/>
</g>
<defs>
<clipPath id="clip0_325_85">
<rect width="150" height="250" rx="4" fill="white"/>
</clipPath>
<clipPath id="clip1_325_85">
<rect x="10" y="10" width="130" height="230" rx="2" fill="white"/>
</clipPath>
</defs>
</svg>
