<svg width="170" height="270" viewBox="0 0 170 270" fill="none" xmlns="http://www.w3.org/2000/svg">
<rect width="170" height="270" rx="6" fill="#242424"/>
<rect width="170" height="270" rx="6" fill="white" fill-opacity="0.1"/>
<rect width="170" height="270" rx="6" fill="url(#paint0_linear_206_205)" fill-opacity="0.5"/>
<g clip-path="url(#clip0_206_205)">
<rect x="10" y="10" width="150" height="250" rx="4" fill="#1E1E1E"/>
<path d="M54.8535 127.686H60.7617C61.0807 127.686 61.3509 127.799 61.5723 128.027C61.8001 128.255 61.9141 128.529 61.9141 128.848C61.9141 129.167 61.8001 129.437 61.5723 129.658C61.3509 129.886 61.0807 130 60.7617 130H53.6914C53.3724 130 53.1022 129.886 52.8809 129.658C52.653 129.437 52.5391 129.167 52.5391 128.848V117.139C52.5391 116.813 52.653 116.54 52.8809 116.318C53.1022 116.09 53.3724 115.977 53.6914 115.977H53.7012L60.7617 115.996C61.0807 115.996 61.3542 116.11 61.582 116.338C61.8034 116.566 61.9141 116.839 61.9141 117.158C61.9141 117.477 61.8001 117.747 61.5723 117.969C61.3509 118.197 61.0807 118.311 60.7617 118.311H60.752L54.8535 118.291V121.836H59.1113C59.4303 121.836 59.7038 121.947 59.9316 122.168C60.1595 122.396 60.2734 122.669 60.2734 122.988C60.2734 123.307 60.1595 123.581 59.9316 123.809C59.7038 124.03 59.4303 124.141 59.1113 124.141H54.8535V127.686ZM73.5059 129.639C73.4798 129.613 73.457 129.587 73.4375 129.561C73.431 129.561 73.4277 129.561 73.4277 129.561C73.4277 129.561 73.4277 129.557 73.4277 129.551L66.4062 120.518V128.848C66.4062 129.167 66.2923 129.437 66.0645 129.658C65.8431 129.886 65.5729 130 65.2539 130C64.9349 130 64.6647 129.886 64.4434 129.658C64.2155 129.437 64.1016 129.167 64.1016 128.848V117.148C64.1016 116.901 64.1732 116.68 64.3164 116.484C64.4596 116.283 64.6484 116.143 64.8828 116.064C65.1107 115.98 65.3451 115.973 65.5859 116.045C65.8203 116.117 66.0124 116.25 66.1621 116.445L73.1836 125.488V117.148C73.1836 116.829 73.2943 116.559 73.5156 116.338C73.7435 116.11 74.0169 115.996 74.3359 115.996C74.6549 115.996 74.9251 116.11 75.1465 116.338C75.3743 116.559 75.4883 116.829 75.4883 117.148V128.867C75.4883 128.88 75.485 128.9 75.4785 128.926C75.4785 128.952 75.4785 128.968 75.4785 128.975C75.4785 128.988 75.4753 129.007 75.4688 129.033C75.4688 129.059 75.4655 129.079 75.459 129.092C75.459 129.092 75.4557 129.108 75.4492 129.141C75.4427 129.173 75.4362 129.193 75.4297 129.199C75.4297 129.206 75.4232 129.222 75.4102 129.248C75.4036 129.274 75.3971 129.294 75.3906 129.307C75.3906 129.307 75.3841 129.323 75.3711 129.355C75.3516 129.388 75.3418 129.404 75.3418 129.404C75.3353 129.417 75.3255 129.437 75.3125 129.463L75.2832 129.492C75.2767 129.505 75.2637 129.525 75.2441 129.551C75.2246 129.577 75.2148 129.59 75.2148 129.59C75.2083 129.596 75.1953 129.609 75.1758 129.629C75.1562 129.655 75.1432 129.668 75.1367 129.668C75.1367 129.674 75.1237 129.688 75.0977 129.707C75.0781 129.727 75.0618 129.74 75.0488 129.746C75.0684 129.733 75.0651 129.736 75.0391 129.756C75.0391 129.756 75.0358 129.759 75.0293 129.766C74.9772 129.805 74.9284 129.837 74.8828 129.863C74.8763 129.863 74.873 129.863 74.873 129.863C74.821 129.889 74.7689 129.912 74.7168 129.932C74.6908 129.945 74.6842 129.948 74.6973 129.941C74.6452 129.961 74.5898 129.974 74.5312 129.98C74.5312 129.98 74.5215 129.984 74.502 129.99C74.4434 129.997 74.388 130 74.3359 130C74.2969 130 74.2546 129.997 74.209 129.99C74.222 129.997 74.2155 129.997 74.1895 129.99C74.1504 129.984 74.1178 129.977 74.0918 129.971C74.0983 129.977 74.0853 129.974 74.0527 129.961C74.0202 129.954 73.9941 129.948 73.9746 129.941C73.9681 129.941 73.9551 129.935 73.9355 129.922C73.903 129.915 73.877 129.906 73.8574 129.893C73.8444 129.893 73.8314 129.886 73.8184 129.873C73.7923 129.86 73.7695 129.85 73.75 129.844C73.7305 129.831 73.7174 129.821 73.7109 129.814C73.6914 129.801 73.6686 129.785 73.6426 129.766C73.623 129.753 73.61 129.743 73.6035 129.736C73.571 129.71 73.5417 129.684 73.5156 129.658C73.5156 129.658 73.5124 129.655 73.5059 129.648C73.5059 129.648 73.5059 129.645 73.5059 129.639ZM81.0645 127.686H86.9727C87.2917 127.686 87.5618 127.799 87.7832 128.027C88.0111 128.255 88.125 128.529 88.125 128.848C88.125 129.167 88.0111 129.437 87.7832 129.658C87.5618 129.886 87.2917 130 86.9727 130H79.9023C79.5833 130 79.3132 129.886 79.0918 129.658C78.8639 129.437 78.75 129.167 78.75 128.848V117.139C78.75 116.813 78.8639 116.54 79.0918 116.318C79.3132 116.09 79.5833 115.977 79.9023 115.977H79.9121L86.9727 115.996C87.2917 115.996 87.5651 116.11 87.793 116.338C88.0143 116.566 88.125 116.839 88.125 117.158C88.125 117.477 88.0111 117.747 87.7832 117.969C87.5618 118.197 87.2917 118.311 86.9727 118.311H86.9629L81.0645 118.291V121.836H85.3223C85.6413 121.836 85.9147 121.947 86.1426 122.168C86.3704 122.396 86.4844 122.669 86.4844 122.988C86.4844 123.307 86.3704 123.581 86.1426 123.809C85.9147 124.03 85.6413 124.141 85.3223 124.141H81.0645V127.686ZM102.627 116.035C102.868 115.944 103.115 115.931 103.369 115.996C103.617 116.068 103.818 116.208 103.975 116.416C104.131 116.618 104.209 116.849 104.209 117.109V128.848C104.209 129.167 104.098 129.437 103.877 129.658C103.649 129.886 103.376 130 103.057 130C102.738 130 102.464 129.886 102.236 129.658C102.015 129.437 101.904 129.167 101.904 128.848V121.25L98.2617 127.266C98.2617 127.266 98.2617 127.269 98.2617 127.275L98.252 127.285C98.252 127.285 98.2487 127.288 98.2422 127.295C98.2357 127.301 98.2324 127.305 98.2324 127.305C98.2129 127.337 98.1999 127.36 98.1934 127.373L98.1641 127.412C98.138 127.438 98.1217 127.454 98.1152 127.461C98.1087 127.467 98.0957 127.48 98.0762 127.5C98.0566 127.52 98.0436 127.533 98.0371 127.539C98.0241 127.552 98.0046 127.568 97.9785 127.588C97.959 127.607 97.9492 127.617 97.9492 127.617C97.9297 127.63 97.9069 127.643 97.8809 127.656C97.8809 127.663 97.8776 127.666 97.8711 127.666C97.8646 127.673 97.8613 127.676 97.8613 127.676C97.8613 127.676 97.8581 127.676 97.8516 127.676C97.8385 127.689 97.8158 127.702 97.7832 127.715C97.7572 127.728 97.7474 127.734 97.7539 127.734C97.7474 127.734 97.7279 127.741 97.6953 127.754C97.5456 127.819 97.3893 127.848 97.2266 127.842H97.207C97.2201 127.842 97.207 127.839 97.168 127.832C97.0833 127.826 96.9987 127.809 96.9141 127.783C96.8815 127.777 96.8685 127.773 96.875 127.773C96.888 127.78 96.875 127.777 96.8359 127.764C96.8034 127.751 96.7806 127.741 96.7676 127.734C96.7741 127.734 96.7676 127.728 96.748 127.715C96.7155 127.702 96.6895 127.689 96.6699 127.676H96.6602C96.6602 127.676 96.6569 127.673 96.6504 127.666C96.6504 127.666 96.6471 127.663 96.6406 127.656C96.6146 127.643 96.5918 127.627 96.5723 127.607C96.5723 127.614 96.5625 127.607 96.543 127.588C96.5169 127.568 96.4974 127.552 96.4844 127.539C96.4779 127.533 96.4648 127.52 96.4453 127.5C96.4258 127.48 96.4128 127.467 96.4062 127.461C96.3997 127.448 96.3835 127.432 96.3574 127.412C96.3444 127.393 96.3379 127.38 96.3379 127.373C96.3249 127.36 96.3086 127.337 96.2891 127.305C96.2891 127.305 96.2858 127.301 96.2793 127.295C96.2793 127.288 96.276 127.285 96.2695 127.285V127.275C96.2695 127.269 96.2663 127.266 96.2598 127.266L92.627 121.25V128.848C92.627 129.167 92.513 129.437 92.2852 129.658C92.0573 129.886 91.7839 130 91.4648 130C91.1458 130 90.8757 129.886 90.6543 129.658C90.4264 129.437 90.3125 129.167 90.3125 128.848V117.109C90.3125 116.849 90.3906 116.618 90.5469 116.416C90.7031 116.208 90.9082 116.068 91.1621 115.996C91.4095 115.931 91.6536 115.944 91.8945 116.035C92.1354 116.133 92.3242 116.292 92.4609 116.514L97.2656 124.453L102.07 116.514C102.201 116.292 102.386 116.133 102.627 116.035ZM116.289 116.035C116.608 116.003 116.891 116.087 117.139 116.289C117.386 116.484 117.529 116.738 117.568 117.051C117.601 117.37 117.516 117.653 117.314 117.9L113.086 123.193V128.848C113.086 129.167 112.972 129.44 112.744 129.668C112.523 129.889 112.253 130 111.934 130C111.615 130 111.344 129.889 111.123 129.668C110.895 129.44 110.781 129.167 110.781 128.848V123.193L106.553 117.9C106.351 117.653 106.27 117.37 106.309 117.051C106.341 116.738 106.481 116.484 106.729 116.289C106.976 116.087 107.259 116.003 107.578 116.035C107.891 116.074 108.148 116.217 108.35 116.465L111.934 120.957L115.527 116.465C115.723 116.217 115.977 116.074 116.289 116.035ZM70.7129 151.184C69.3783 152.395 67.8092 153 66.0059 153C64.0853 153 62.4414 152.32 61.0742 150.959C59.7135 149.592 59.0332 147.948 59.0332 146.027C59.0332 144.1 59.7135 142.456 61.0742 141.096C62.4414 139.729 64.0853 139.045 66.0059 139.045C67.5879 139.045 69.0072 139.527 70.2637 140.49C70.5111 140.686 70.6576 140.939 70.7031 141.252C70.7422 141.571 70.6641 141.857 70.4688 142.111C70.2734 142.365 70.0195 142.512 69.707 142.551C69.388 142.59 69.1016 142.515 68.8477 142.326C68.0143 141.682 67.0671 141.359 66.0059 141.359C64.7233 141.359 63.6263 141.815 62.7148 142.727C61.8034 143.638 61.3477 144.738 61.3477 146.027C61.3477 147.31 61.8034 148.407 62.7148 149.318C63.6263 150.23 64.7233 150.686 66.0059 150.686C67.2168 150.686 68.265 150.282 69.1504 149.475C69.3848 149.26 69.6615 149.159 69.9805 149.172C70.2995 149.185 70.5664 149.312 70.7812 149.553C70.9961 149.787 71.097 150.064 71.084 150.383C71.071 150.702 70.9473 150.969 70.7129 151.184ZM76.5625 147.727H80.3223L78.4375 143.195L76.5625 147.727ZM73.6133 153C73.4635 153 73.3171 152.971 73.1738 152.912C72.8809 152.788 72.6725 152.58 72.5488 152.287C72.4316 151.994 72.4316 151.701 72.5488 151.408L73.7891 148.43C73.7891 148.43 73.7891 148.426 73.7891 148.42L77.3828 139.748C77.3958 139.715 77.4121 139.683 77.4316 139.65C77.4316 139.65 77.4382 139.634 77.4512 139.602C77.4707 139.576 77.4837 139.559 77.4902 139.553C77.4902 139.546 77.5 139.53 77.5195 139.504C77.5391 139.484 77.5521 139.471 77.5586 139.465C77.5586 139.458 77.5684 139.445 77.5879 139.426C77.6139 139.4 77.627 139.383 77.627 139.377C77.6335 139.37 77.6465 139.361 77.666 139.348C77.6921 139.322 77.7083 139.309 77.7148 139.309C77.7083 139.309 77.7214 139.299 77.7539 139.279C77.7799 139.26 77.7962 139.247 77.8027 139.24C77.8027 139.24 77.8158 139.23 77.8418 139.211C77.8743 139.191 77.8939 139.182 77.9004 139.182C77.9134 139.175 77.9362 139.165 77.9688 139.152C78.0013 139.133 78.0111 139.126 77.998 139.133C77.985 139.139 77.998 139.133 78.0371 139.113C78.0697 139.107 78.0924 139.1 78.1055 139.094C78.112 139.094 78.1348 139.087 78.1738 139.074L78.2129 139.064C78.2259 139.064 78.2487 139.061 78.2812 139.055C78.3138 139.048 78.3301 139.045 78.3301 139.045C78.3366 139.045 78.3561 139.045 78.3887 139.045C78.4147 139.045 78.431 139.045 78.4375 139.045C78.4505 139.045 78.4701 139.045 78.4961 139.045C78.5352 139.045 78.5547 139.045 78.5547 139.045C78.5547 139.045 78.5742 139.048 78.6133 139.055C78.6458 139.061 78.6621 139.064 78.6621 139.064C78.6751 139.064 78.6979 139.071 78.7305 139.084C78.7695 139.09 78.7826 139.094 78.7695 139.094C78.8477 139.113 78.9193 139.143 78.9844 139.182C78.9779 139.175 78.9909 139.182 79.0234 139.201C79.056 139.221 79.0755 139.234 79.082 139.24C79.082 139.24 79.0951 139.25 79.1211 139.27C79.1471 139.289 79.1634 139.302 79.1699 139.309C79.1764 139.309 79.1895 139.318 79.209 139.338C79.2285 139.357 79.2448 139.37 79.2578 139.377C79.2578 139.383 79.2676 139.396 79.2871 139.416C79.3132 139.442 79.3262 139.458 79.3262 139.465L79.3555 139.504C79.3815 139.53 79.3945 139.546 79.3945 139.553C79.3945 139.559 79.4043 139.576 79.4238 139.602C79.4434 139.628 79.4531 139.644 79.4531 139.65C79.4727 139.683 79.4889 139.715 79.502 139.748L83.0957 148.42C83.0957 148.426 83.0957 148.43 83.0957 148.43L84.3359 151.408C84.4531 151.701 84.4531 151.994 84.3359 152.287C84.2122 152.58 84.0039 152.788 83.7109 152.912C83.5677 152.971 83.4212 153 83.2715 153C82.7572 153 82.4023 152.762 82.207 152.287L81.2695 150.021H75.6152L74.6777 152.287C74.4824 152.762 74.1276 153 73.6133 153ZM88.7598 144.816H91.7285C92.2754 144.797 92.7441 144.618 93.1348 144.279C93.5189 143.934 93.7109 143.524 93.7109 143.049C93.7109 142.554 93.5091 142.134 93.1055 141.789C92.7018 141.444 92.2168 141.271 91.6504 141.271H88.7598V144.816ZM94.7266 140.168C95.5794 140.962 96.0059 141.923 96.0059 143.049C96.0059 143.908 95.7389 144.686 95.2051 145.383C94.6908 146.073 94.0137 146.564 93.1738 146.857L95.3906 151.35C95.5273 151.63 95.5436 151.919 95.4395 152.219C95.3418 152.518 95.1497 152.74 94.8633 152.883C94.7005 152.961 94.5312 153 94.3555 153C93.8802 153 93.5384 152.785 93.3301 152.355L90.7422 147.111H88.7598V151.77C88.7598 152.082 88.6458 152.352 88.418 152.58C88.1966 152.801 87.9264 152.912 87.6074 152.912C87.2949 152.912 87.0247 152.801 86.7969 152.58C86.5755 152.352 86.4648 152.082 86.4648 151.77V140.129C86.4648 139.81 86.5755 139.54 86.7969 139.318C87.0247 139.09 87.2949 138.977 87.6074 138.977H91.6504C92.8548 138.977 93.8802 139.374 94.7266 140.168ZM100.791 141.311V150.676L102.578 150.646C103.874 150.646 104.977 150.191 105.889 149.279C106.8 148.368 107.256 147.268 107.256 145.979C107.256 144.696 106.8 143.599 105.889 142.688C104.977 141.77 103.877 141.311 102.588 141.311H100.791ZM99.6484 153H99.6289C99.3164 153 99.0462 152.889 98.8184 152.668C98.5905 152.44 98.4766 152.167 98.4766 151.848V140.158C98.4766 139.839 98.5905 139.566 98.8184 139.338C99.0397 139.117 99.3099 139.006 99.6289 139.006H102.588C104.515 139.006 106.162 139.686 107.529 141.047C108.89 142.414 109.57 144.058 109.57 145.979C109.57 147.906 108.89 149.549 107.529 150.91C106.162 152.277 104.515 152.961 102.588 152.961L99.6484 153Z" fill="white"/>
</g>
<defs>
<linearGradient id="paint0_linear_206_205" x1="0" y1="0" x2="168.201" y2="271.116" gradientUnits="userSpaceOnUse">
<stop stop-color="#C84646"/>
<stop offset="0.5" stop-color="#4646C8"/>
<stop offset="1" stop-color="#C8C846"/>
</linearGradient>
<clipPath id="clip0_206_205">
<rect x="10" y="10" width="150" height="250" rx="4" fill="white"/>
</clipPath>
</defs>
</svg>
