<svg width="170" height="270" viewBox="0 0 170 270" fill="none" xmlns="http://www.w3.org/2000/svg">
<rect width="170" height="270" rx="6" fill="#242424"/>
<rect width="170" height="270" rx="6" fill="white" fill-opacity="0.1"/>
<rect width="170" height="270" rx="6" fill="url(#paint0_linear_205_38)" fill-opacity="0.5"/>
<g clip-path="url(#clip0_205_38)">
<rect x="10" y="10" width="150" height="250" rx="4" fill="#1E1E1E"/>
<path d="M68.3691 116.035C68.6882 116.003 68.9714 116.087 69.2188 116.289C69.4661 116.484 69.6094 116.738 69.6484 117.051C69.681 117.37 69.5964 117.653 69.3945 117.9L65.166 123.193V128.848C65.166 129.167 65.0521 129.44 64.8242 129.668C64.6029 129.889 64.3327 130 64.0137 130C63.6947 130 63.4245 129.889 63.2031 129.668C62.9753 129.44 62.8613 129.167 62.8613 128.848V123.193L58.6328 117.9C58.431 117.653 58.3496 117.37 58.3887 117.051C58.4212 116.738 58.5612 116.484 58.8086 116.289C59.056 116.087 59.3392 116.003 59.6582 116.035C59.9707 116.074 60.2279 116.217 60.4297 116.465L64.0137 120.957L67.6074 116.465C67.8027 116.217 68.0566 116.074 68.3691 116.035ZM81.2988 119.658C80.3743 118.74 79.2643 118.281 77.9688 118.281C76.6732 118.281 75.5664 118.74 74.6484 119.658C73.724 120.583 73.2617 121.693 73.2617 122.988C73.2617 124.284 73.724 125.391 74.6484 126.309C75.5664 127.233 76.6732 127.695 77.9688 127.695C79.2643 127.695 80.3743 127.233 81.2988 126.309C82.2168 125.391 82.6758 124.284 82.6758 122.988C82.6758 121.693 82.2168 120.583 81.2988 119.658ZM82.9297 127.939C81.556 129.313 79.9023 130 77.9688 130C76.0352 130 74.3848 129.313 73.0176 127.939C71.6439 126.572 70.957 124.922 70.957 122.988C70.957 121.055 71.6439 119.401 73.0176 118.027C74.3848 116.66 76.0352 115.977 77.9688 115.977C79.9023 115.977 81.556 116.66 82.9297 118.027C84.2969 119.401 84.9805 121.055 84.9805 122.988C84.9805 124.922 84.2969 126.572 82.9297 127.939ZM95.6543 116.328C95.8757 116.107 96.1426 115.996 96.4551 115.996C96.7676 115.996 97.0345 116.107 97.2559 116.328C97.4772 116.549 97.5879 116.816 97.5879 117.129V125C97.5879 126.38 97.0996 127.559 96.123 128.535C95.1465 129.512 93.9714 130 92.5977 130C91.2174 130 90.0391 129.512 89.0625 128.535C88.0859 127.559 87.5977 126.38 87.5977 125V117.129C87.5977 116.816 87.7083 116.549 87.9297 116.328C88.151 116.107 88.418 115.996 88.7305 115.996C89.043 115.996 89.3099 116.107 89.5312 116.328C89.7526 116.549 89.8633 116.816 89.8633 117.129V125C89.8633 125.755 90.1302 126.4 90.6641 126.934C91.1979 127.467 91.8424 127.734 92.5977 127.734C93.3464 127.734 93.9876 127.467 94.5215 126.934C95.0553 126.4 95.3223 125.755 95.3223 125V117.129C95.3223 116.816 95.4329 116.549 95.6543 116.328ZM102.949 121.816H105.918C106.465 121.797 106.934 121.618 107.324 121.279C107.708 120.934 107.9 120.524 107.9 120.049C107.9 119.554 107.699 119.134 107.295 118.789C106.891 118.444 106.406 118.271 105.84 118.271H102.949V121.816ZM108.916 117.168C109.769 117.962 110.195 118.923 110.195 120.049C110.195 120.908 109.928 121.686 109.395 122.383C108.88 123.073 108.203 123.564 107.363 123.857L109.58 128.35C109.717 128.63 109.733 128.919 109.629 129.219C109.531 129.518 109.339 129.74 109.053 129.883C108.89 129.961 108.721 130 108.545 130C108.07 130 107.728 129.785 107.52 129.355L104.932 124.111H102.949V128.77C102.949 129.082 102.835 129.352 102.607 129.58C102.386 129.801 102.116 129.912 101.797 129.912C101.484 129.912 101.214 129.801 100.986 129.58C100.765 129.352 100.654 129.082 100.654 128.77V117.129C100.654 116.81 100.765 116.54 100.986 116.318C101.214 116.09 101.484 115.977 101.797 115.977H105.84C107.044 115.977 108.07 116.374 108.916 117.168ZM70.7129 151.184C69.3783 152.395 67.8092 153 66.0059 153C64.0853 153 62.4414 152.32 61.0742 150.959C59.7135 149.592 59.0332 147.948 59.0332 146.027C59.0332 144.1 59.7135 142.456 61.0742 141.096C62.4414 139.729 64.0853 139.045 66.0059 139.045C67.5879 139.045 69.0072 139.527 70.2637 140.49C70.5111 140.686 70.6576 140.939 70.7031 141.252C70.7422 141.571 70.6641 141.857 70.4688 142.111C70.2734 142.365 70.0195 142.512 69.707 142.551C69.388 142.59 69.1016 142.515 68.8477 142.326C68.0143 141.682 67.0671 141.359 66.0059 141.359C64.7233 141.359 63.6263 141.815 62.7148 142.727C61.8034 143.638 61.3477 144.738 61.3477 146.027C61.3477 147.31 61.8034 148.407 62.7148 149.318C63.6263 150.23 64.7233 150.686 66.0059 150.686C67.2168 150.686 68.265 150.282 69.1504 149.475C69.3848 149.26 69.6615 149.159 69.9805 149.172C70.2995 149.185 70.5664 149.312 70.7812 149.553C70.9961 149.787 71.097 150.064 71.084 150.383C71.071 150.702 70.9473 150.969 70.7129 151.184ZM76.5625 147.727H80.3223L78.4375 143.195L76.5625 147.727ZM73.6133 153C73.4635 153 73.3171 152.971 73.1738 152.912C72.8809 152.788 72.6725 152.58 72.5488 152.287C72.4316 151.994 72.4316 151.701 72.5488 151.408L73.7891 148.43C73.7891 148.43 73.7891 148.426 73.7891 148.42L77.3828 139.748C77.3958 139.715 77.4121 139.683 77.4316 139.65C77.4316 139.65 77.4382 139.634 77.4512 139.602C77.4707 139.576 77.4837 139.559 77.4902 139.553C77.4902 139.546 77.5 139.53 77.5195 139.504C77.5391 139.484 77.5521 139.471 77.5586 139.465C77.5586 139.458 77.5684 139.445 77.5879 139.426C77.6139 139.4 77.627 139.383 77.627 139.377C77.6335 139.37 77.6465 139.361 77.666 139.348C77.6921 139.322 77.7083 139.309 77.7148 139.309C77.7083 139.309 77.7214 139.299 77.7539 139.279C77.7799 139.26 77.7962 139.247 77.8027 139.24C77.8027 139.24 77.8158 139.23 77.8418 139.211C77.8743 139.191 77.8939 139.182 77.9004 139.182C77.9134 139.175 77.9362 139.165 77.9688 139.152C78.0013 139.133 78.0111 139.126 77.998 139.133C77.985 139.139 77.998 139.133 78.0371 139.113C78.0697 139.107 78.0924 139.1 78.1055 139.094C78.112 139.094 78.1348 139.087 78.1738 139.074L78.2129 139.064C78.2259 139.064 78.2487 139.061 78.2812 139.055C78.3138 139.048 78.3301 139.045 78.3301 139.045C78.3366 139.045 78.3561 139.045 78.3887 139.045C78.4147 139.045 78.431 139.045 78.4375 139.045C78.4505 139.045 78.4701 139.045 78.4961 139.045C78.5352 139.045 78.5547 139.045 78.5547 139.045C78.5547 139.045 78.5742 139.048 78.6133 139.055C78.6458 139.061 78.6621 139.064 78.6621 139.064C78.6751 139.064 78.6979 139.071 78.7305 139.084C78.7695 139.09 78.7826 139.094 78.7695 139.094C78.8477 139.113 78.9193 139.143 78.9844 139.182C78.9779 139.175 78.9909 139.182 79.0234 139.201C79.056 139.221 79.0755 139.234 79.082 139.24C79.082 139.24 79.0951 139.25 79.1211 139.27C79.1471 139.289 79.1634 139.302 79.1699 139.309C79.1764 139.309 79.1895 139.318 79.209 139.338C79.2285 139.357 79.2448 139.37 79.2578 139.377C79.2578 139.383 79.2676 139.396 79.2871 139.416C79.3132 139.442 79.3262 139.458 79.3262 139.465L79.3555 139.504C79.3815 139.53 79.3945 139.546 79.3945 139.553C79.3945 139.559 79.4043 139.576 79.4238 139.602C79.4434 139.628 79.4531 139.644 79.4531 139.65C79.4727 139.683 79.4889 139.715 79.502 139.748L83.0957 148.42C83.0957 148.426 83.0957 148.43 83.0957 148.43L84.3359 151.408C84.4531 151.701 84.4531 151.994 84.3359 152.287C84.2122 152.58 84.0039 152.788 83.7109 152.912C83.5677 152.971 83.4212 153 83.2715 153C82.7572 153 82.4023 152.762 82.207 152.287L81.2695 150.021H75.6152L74.6777 152.287C74.4824 152.762 74.1276 153 73.6133 153ZM88.7598 144.816H91.7285C92.2754 144.797 92.7441 144.618 93.1348 144.279C93.5189 143.934 93.7109 143.524 93.7109 143.049C93.7109 142.554 93.5091 142.134 93.1055 141.789C92.7018 141.444 92.2168 141.271 91.6504 141.271H88.7598V144.816ZM94.7266 140.168C95.5794 140.962 96.0059 141.923 96.0059 143.049C96.0059 143.908 95.7389 144.686 95.2051 145.383C94.6908 146.073 94.0137 146.564 93.1738 146.857L95.3906 151.35C95.5273 151.63 95.5436 151.919 95.4395 152.219C95.3418 152.518 95.1497 152.74 94.8633 152.883C94.7005 152.961 94.5312 153 94.3555 153C93.8802 153 93.5384 152.785 93.3301 152.355L90.7422 147.111H88.7598V151.77C88.7598 152.082 88.6458 152.352 88.418 152.58C88.1966 152.801 87.9264 152.912 87.6074 152.912C87.2949 152.912 87.0247 152.801 86.7969 152.58C86.5755 152.352 86.4648 152.082 86.4648 151.77V140.129C86.4648 139.81 86.5755 139.54 86.7969 139.318C87.0247 139.09 87.2949 138.977 87.6074 138.977H91.6504C92.8548 138.977 93.8802 139.374 94.7266 140.168ZM100.791 141.311V150.676L102.578 150.646C103.874 150.646 104.977 150.191 105.889 149.279C106.8 148.368 107.256 147.268 107.256 145.979C107.256 144.696 106.8 143.599 105.889 142.688C104.977 141.77 103.877 141.311 102.588 141.311H100.791ZM99.6484 153H99.6289C99.3164 153 99.0462 152.889 98.8184 152.668C98.5905 152.44 98.4766 152.167 98.4766 151.848V140.158C98.4766 139.839 98.5905 139.566 98.8184 139.338C99.0397 139.117 99.3099 139.006 99.6289 139.006H102.588C104.515 139.006 106.162 139.686 107.529 141.047C108.89 142.414 109.57 144.058 109.57 145.979C109.57 147.906 108.89 149.549 107.529 150.91C106.162 152.277 104.515 152.961 102.588 152.961L99.6484 153Z" fill="white"/>
</g>
<defs>
<linearGradient id="paint0_linear_205_38" x1="0" y1="0" x2="168.201" y2="271.116" gradientUnits="userSpaceOnUse">
<stop stop-color="#C84646"/>
<stop offset="0.5" stop-color="#4646C8"/>
<stop offset="1" stop-color="#C8C846"/>
</linearGradient>
<clipPath id="clip0_205_38">
<rect x="10" y="10" width="150" height="250" rx="4" fill="white"/>
</clipPath>
</defs>
</svg>
