<svg width="150" height="250" viewBox="0 0 150 250" fill="none" xmlns="http://www.w3.org/2000/svg">
<g clip-path="url(#clip0_325_73)">
<rect width="150" height="250" rx="4" fill="#4646C8"/>
<rect width="150" height="250" rx="4" fill="white" fill-opacity="0.6"/>
<rect width="14.1964" height="15.0745" transform="translate(129.848 168.294) rotate(-60)" fill="#4646C8"/>
<rect width="14.1964" height="15.0745" transform="translate(129.848 168.294) rotate(-60)" fill="white" fill-opacity="0.1"/>
<rect width="14.1964" height="15.0745" transform="translate(0 163.431) rotate(-30)" fill="#4646C8"/>
<rect width="14.1964" height="15.0745" transform="translate(0 163.431) rotate(-30)" fill="white" fill-opacity="0.1"/>
<g clip-path="url(#clip1_325_73)">
<rect x="10" y="10" width="130" height="230" rx="2" fill="#4646C8"/>
<rect x="10" y="10" width="130" height="230" rx="2" fill="white" fill-opacity="0.4"/>
<circle cx="75" cy="90" r="40" fill="#4646C8"/>
<circle cx="75" cy="90" r="40" fill="white" fill-opacity="0.2"/>
<path d="M86 84C83.24 84 81 81.76 81 79C81 76.24 83.24 74 86 74C88.76 74 91 76.24 91 79C91 81.76 88.76 84 86 84ZM79.86 82.3L55 107.18L57.82 110L82.7 85.14C81.5 84.48 80.52 83.5 79.86 82.3ZM77 76L78.26 73.26L81 72L78.26 70.74L77 68L75.76 70.74L73 72L75.76 73.26L77 76ZM93 76L94.26 73.26L97 72L94.26 70.74L93 68L91.76 70.74L89 72L91.76 73.26L93 76ZM93 84L91.76 86.74L89 88L91.76 89.26L93 92L94.26 89.26L97 88L94.26 86.74L93 84Z" fill="white"/>
</g>
<rect width="150" height="50" transform="translate(0 164)" fill="#4646C8"/>
<rect width="150" height="50" transform="translate(0 164)" fill="white" fill-opacity="0.2"/>
<path d="M60.1953 182.035C60.4362 181.944 60.6836 181.931 60.9375 181.996C61.1849 182.068 61.3867 182.208 61.543 182.416C61.6992 182.618 61.7773 182.849 61.7773 183.109V194.848C61.7773 195.167 61.6667 195.437 61.4453 195.658C61.2174 195.886 60.944 196 60.625 196C60.306 196 60.0326 195.886 59.8047 195.658C59.5833 195.437 59.4727 195.167 59.4727 194.848V187.25L55.8301 193.266C55.8301 193.266 55.8301 193.269 55.8301 193.275L55.8203 193.285C55.8203 193.285 55.8171 193.288 55.8105 193.295C55.804 193.301 55.8008 193.305 55.8008 193.305C55.7812 193.337 55.7682 193.36 55.7617 193.373L55.7324 193.412C55.7064 193.438 55.6901 193.454 55.6836 193.461C55.6771 193.467 55.6641 193.48 55.6445 193.5C55.625 193.52 55.612 193.533 55.6055 193.539C55.5924 193.552 55.5729 193.568 55.5469 193.588C55.5273 193.607 55.5176 193.617 55.5176 193.617C55.498 193.63 55.4753 193.643 55.4492 193.656C55.4492 193.663 55.446 193.666 55.4395 193.666C55.4329 193.673 55.4297 193.676 55.4297 193.676C55.4297 193.676 55.4264 193.676 55.4199 193.676C55.4069 193.689 55.3841 193.702 55.3516 193.715C55.3255 193.728 55.3158 193.734 55.3223 193.734C55.3158 193.734 55.2962 193.741 55.2637 193.754C55.1139 193.819 54.9577 193.848 54.7949 193.842H54.7754C54.7884 193.842 54.7754 193.839 54.7363 193.832C54.6517 193.826 54.5671 193.809 54.4824 193.783C54.4499 193.777 54.4368 193.773 54.4434 193.773C54.4564 193.78 54.4434 193.777 54.4043 193.764C54.3717 193.751 54.349 193.741 54.3359 193.734C54.3424 193.734 54.3359 193.728 54.3164 193.715C54.2839 193.702 54.2578 193.689 54.2383 193.676H54.2285C54.2285 193.676 54.2253 193.673 54.2188 193.666C54.2188 193.666 54.2155 193.663 54.209 193.656C54.1829 193.643 54.1602 193.627 54.1406 193.607C54.1406 193.614 54.1309 193.607 54.1113 193.588C54.0853 193.568 54.0658 193.552 54.0527 193.539C54.0462 193.533 54.0332 193.52 54.0137 193.5C53.9941 193.48 53.9811 193.467 53.9746 193.461C53.9681 193.448 53.9518 193.432 53.9258 193.412C53.9128 193.393 53.9062 193.38 53.9062 193.373C53.8932 193.36 53.877 193.337 53.8574 193.305C53.8574 193.305 53.8542 193.301 53.8477 193.295C53.8477 193.288 53.8444 193.285 53.8379 193.285V193.275C53.8379 193.269 53.8346 193.266 53.8281 193.266L50.1953 187.25V194.848C50.1953 195.167 50.0814 195.437 49.8535 195.658C49.6257 195.886 49.3522 196 49.0332 196C48.7142 196 48.444 195.886 48.2227 195.658C47.9948 195.437 47.8809 195.167 47.8809 194.848V183.109C47.8809 182.849 47.959 182.618 48.1152 182.416C48.2715 182.208 48.4766 182.068 48.7305 181.996C48.9779 181.931 49.222 181.944 49.4629 182.035C49.7038 182.133 49.8926 182.292 50.0293 182.514L54.834 190.453L59.6387 182.514C59.7689 182.292 59.9544 182.133 60.1953 182.035ZM68.291 190.727H72.0508L70.166 186.195L68.291 190.727ZM65.3418 196C65.1921 196 65.0456 195.971 64.9023 195.912C64.6094 195.788 64.401 195.58 64.2773 195.287C64.1602 194.994 64.1602 194.701 64.2773 194.408L65.5176 191.43C65.5176 191.43 65.5176 191.426 65.5176 191.42L69.1113 182.748C69.1243 182.715 69.1406 182.683 69.1602 182.65C69.1602 182.65 69.1667 182.634 69.1797 182.602C69.1992 182.576 69.2122 182.559 69.2188 182.553C69.2188 182.546 69.2285 182.53 69.248 182.504C69.2676 182.484 69.2806 182.471 69.2871 182.465C69.2871 182.458 69.2969 182.445 69.3164 182.426C69.3424 182.4 69.3555 182.383 69.3555 182.377C69.362 182.37 69.375 182.361 69.3945 182.348C69.4206 182.322 69.4368 182.309 69.4434 182.309C69.4368 182.309 69.4499 182.299 69.4824 182.279C69.5085 182.26 69.5247 182.247 69.5312 182.24C69.5312 182.24 69.5443 182.23 69.5703 182.211C69.6029 182.191 69.6224 182.182 69.6289 182.182C69.6419 182.175 69.6647 182.165 69.6973 182.152C69.7298 182.133 69.7396 182.126 69.7266 182.133C69.7135 182.139 69.7266 182.133 69.7656 182.113C69.7982 182.107 69.821 182.1 69.834 182.094C69.8405 182.094 69.8633 182.087 69.9023 182.074L69.9414 182.064C69.9544 182.064 69.9772 182.061 70.0098 182.055C70.0423 182.048 70.0586 182.045 70.0586 182.045C70.0651 182.045 70.0846 182.045 70.1172 182.045C70.1432 182.045 70.1595 182.045 70.166 182.045C70.179 182.045 70.1986 182.045 70.2246 182.045C70.2637 182.045 70.2832 182.045 70.2832 182.045C70.2832 182.045 70.3027 182.048 70.3418 182.055C70.3743 182.061 70.3906 182.064 70.3906 182.064C70.4036 182.064 70.4264 182.071 70.459 182.084C70.498 182.09 70.5111 182.094 70.498 182.094C70.5762 182.113 70.6478 182.143 70.7129 182.182C70.7064 182.175 70.7194 182.182 70.752 182.201C70.7845 182.221 70.804 182.234 70.8105 182.24C70.8105 182.24 70.8236 182.25 70.8496 182.27C70.8757 182.289 70.8919 182.302 70.8984 182.309C70.9049 182.309 70.918 182.318 70.9375 182.338C70.957 182.357 70.9733 182.37 70.9863 182.377C70.9863 182.383 70.9961 182.396 71.0156 182.416C71.0417 182.442 71.0547 182.458 71.0547 182.465L71.084 182.504C71.11 182.53 71.123 182.546 71.123 182.553C71.123 182.559 71.1328 182.576 71.1523 182.602C71.1719 182.628 71.1816 182.644 71.1816 182.65C71.2012 182.683 71.2174 182.715 71.2305 182.748L74.8242 191.42C74.8242 191.426 74.8242 191.43 74.8242 191.43L76.0645 194.408C76.1816 194.701 76.1816 194.994 76.0645 195.287C75.9408 195.58 75.7324 195.788 75.4395 195.912C75.2962 195.971 75.1497 196 75 196C74.4857 196 74.1309 195.762 73.9355 195.287L72.998 193.021H67.3438L66.4062 195.287C66.2109 195.762 65.8561 196 65.3418 196ZM87.6562 195.16C86.6341 195.694 85.5501 195.961 84.4043 195.961C82.4772 195.961 80.8301 195.277 79.4629 193.91C78.0957 192.543 77.4121 190.896 77.4121 188.969C77.4121 187.042 78.0957 185.398 79.4629 184.037C80.8301 182.67 82.4772 181.986 84.4043 181.986C85.9863 181.986 87.4023 182.468 88.6523 183.432C88.9062 183.627 89.056 183.884 89.1016 184.203C89.1406 184.516 89.0625 184.799 88.8672 185.053C88.6719 185.307 88.418 185.453 88.1055 185.492C87.7865 185.538 87.5 185.463 87.2461 185.268C86.4062 184.623 85.459 184.301 84.4043 184.301C83.1152 184.301 82.0117 184.757 81.0938 185.668C80.1823 186.586 79.7266 187.686 79.7266 188.969C79.7266 190.258 80.1823 191.361 81.0938 192.279C82.0117 193.191 83.1152 193.646 84.4043 193.646C85.6087 193.646 86.6569 193.24 87.5488 192.426C87.5618 192.413 87.5846 192.393 87.6172 192.367L87.627 189.809H83.8086C83.4831 189.809 83.2096 189.698 82.9883 189.477C82.7604 189.249 82.6465 188.975 82.6465 188.656C82.6465 188.337 82.7604 188.064 82.9883 187.836C83.2096 187.608 83.4831 187.494 83.8086 187.494H88.7891C89.1081 187.494 89.3815 187.608 89.6094 187.836C89.8372 188.064 89.9512 188.337 89.9512 188.656L89.9219 194.848C89.9219 195.167 89.8079 195.437 89.5801 195.658C89.3587 195.886 89.0885 196 88.7695 196H88.7598C88.4993 196 88.265 195.919 88.0566 195.756C87.8548 195.6 87.7214 195.401 87.6562 195.16ZM95.0977 193.686H101.006C101.325 193.686 101.595 193.799 101.816 194.027C102.044 194.255 102.158 194.529 102.158 194.848C102.158 195.167 102.044 195.437 101.816 195.658C101.595 195.886 101.325 196 101.006 196H93.9355C93.6165 196 93.3464 195.886 93.125 195.658C92.8971 195.437 92.7832 195.167 92.7832 194.848V183.139C92.7832 182.813 92.8971 182.54 93.125 182.318C93.3464 182.09 93.6165 181.977 93.9355 181.977H93.9453L101.006 181.996C101.325 181.996 101.598 182.11 101.826 182.338C102.048 182.566 102.158 182.839 102.158 183.158C102.158 183.477 102.044 183.747 101.816 183.969C101.595 184.197 101.325 184.311 101.006 184.311H100.996L95.0977 184.291V187.836H99.3555C99.6745 187.836 99.9479 187.947 100.176 188.168C100.404 188.396 100.518 188.669 100.518 188.988C100.518 189.307 100.404 189.581 100.176 189.809C99.9479 190.03 99.6745 190.141 99.3555 190.141H95.0977V193.686Z" fill="white"/>
</g>
<defs>
<clipPath id="clip0_325_73">
<rect width="150" height="250" rx="4" fill="white"/>
</clipPath>
<clipPath id="clip1_325_73">
<rect x="10" y="10" width="130" height="230" rx="2" fill="white"/>
</clipPath>
</defs>
</svg>
