<svg width="150" height="250" viewBox="0 0 150 250" fill="none" xmlns="http://www.w3.org/2000/svg">
<rect width="150" height="250" rx="4" fill="#4646C8"/>
<rect width="150" height="250" rx="4" fill="white" fill-opacity="0.6"/>
<rect width="14.1964" height="15.0745" transform="translate(129.847 168.294) rotate(-60)" fill="#4646C8"/>
<rect width="14.1964" height="15.0745" transform="translate(129.847 168.294) rotate(-60)" fill="white" fill-opacity="0.1"/>
<rect width="14.1964" height="15.0745" transform="translate(0 163.431) rotate(-30)" fill="#4646C8"/>
<rect width="14.1964" height="15.0745" transform="translate(0 163.431) rotate(-30)" fill="white" fill-opacity="0.1"/>
<g clip-path="url(#clip0_205_119)">
<rect x="10" y="10" width="130" height="230" rx="2" fill="#4646C8"/>
<rect x="10" y="10" width="130" height="230" rx="2" fill="white" fill-opacity="0.4"/>
<circle cx="75" cy="90" r="40" fill="#4646C8"/>
<circle cx="75" cy="90" r="40" fill="white" fill-opacity="0.2"/>
<path d="M84.8139 69.5293C83.5227 68.7449 81.6521 68.5397 80.385 69.0587C79.8419 69.2879 79.8178 69.2638 78.8765 68.4432C77.7542 67.4657 76.7284 67.1157 75.2682 67.2243C74.0131 67.3209 72.9391 67.8881 72.034 68.9138L71.3099 69.7345L70.6703 69.481C69.7773 69.1431 68.4498 69.1914 67.412 69.6017C65.819 70.2051 64.3588 72.0998 64.2864 73.6686C64.2622 74.0789 64.2381 74.0789 63.9002 73.9824C63.1399 73.7531 61.4866 73.91 60.7263 74.2841C59.5437 74.8633 58.4213 76.0822 58.0593 77.1683C57.6369 78.4113 57.4921 98.6372 57.8903 100.58C58.2403 102.33 58.8196 103.73 59.785 105.154C60.7625 106.59 65.2518 111.803 65.7828 112.117C67.1103 112.914 68.8842 111.115 68.0395 109.836C67.8947 109.619 66.8086 108.292 65.6138 106.904C64.4191 105.516 63.2244 104.104 62.9589 103.766C62.1865 102.752 61.4745 101.22 61.2332 99.9647C61.0883 99.2647 61.0401 94.7031 61.0883 88.5243C61.1849 78.9423 61.2211 78.2303 61.6073 77.8441C62.1986 77.2528 62.5003 77.1442 63.0916 77.3493C64.1295 77.6631 64.1415 77.7959 64.1657 83.3712C64.1777 88.114 64.226 88.7415 64.576 89.0915C65.4207 89.9362 66.6879 89.8759 67.2792 88.9466C67.4844 88.6449 67.5809 86.352 67.6412 81.1025C67.6775 76.8666 67.8102 73.5238 67.9429 73.3186C68.1964 72.8721 69.1256 72.5222 69.6445 72.679C70.6582 72.9928 70.6703 73.1014 70.6824 80.9577C70.6824 85.0608 70.7789 88.6087 70.8875 88.838C71.2858 89.6949 72.4926 90.0086 73.2891 89.4776C73.8683 89.0673 74.0855 88.4157 74.0614 87.1123C74.0493 86.5693 74.0855 82.8403 74.1338 78.8096C74.2183 71.9429 74.2424 71.4843 74.6648 71.0619C75.2682 70.4585 76.125 70.4706 76.7405 71.0861C77.1991 71.5205 77.1991 71.8101 77.1629 79.9319C77.1387 84.5418 77.187 88.5001 77.2473 88.7053C77.4646 89.4052 77.9593 89.7311 78.8282 89.7311C79.7213 89.7311 80.1919 89.4052 80.4453 88.5967C80.5298 88.3191 80.5902 85.0487 80.5781 81.3197C80.554 74.0548 80.6143 73.0773 81.1212 72.5704C81.8332 71.8584 83.0641 72.0998 83.4865 73.029C83.5951 73.2824 83.6675 78.1338 83.6434 83.8057C83.5951 93.7256 83.5951 94.1359 84.0416 94.5582C84.3312 94.8479 84.7174 95.0168 85.1639 95.053C85.7432 95.1013 85.9363 95.0289 86.4069 94.5582L86.962 94.0031L86.9862 89.6828C87.0345 83.8902 86.962 84.3488 87.7585 84.5418C88.5429 84.7229 89.5084 85.6159 89.7377 86.352C89.9549 87.0278 89.8704 98.7941 89.6532 99.9526C89.4601 100.99 89.5084 101.232 90.1238 101.847C90.8238 102.547 92.1633 102.342 92.6943 101.449C93.0926 100.785 93.2253 98.77 93.2615 92.555C93.3098 85.2659 93.2494 84.8677 91.6444 83.1178C90.51 81.8869 89.4963 81.3318 88.0723 81.1387L87.1069 81.018L87.0948 76.8787C87.0827 72.498 86.95 71.8101 85.9242 70.543C85.6346 70.181 85.1277 69.7224 84.8139 69.5293Z" fill="white"/>
</g>
<rect width="150" height="50" transform="translate(0 164)" fill="#4646C8"/>
<rect width="150" height="50" transform="translate(0 164)" fill="white" fill-opacity="0.2"/>
<path d="M47.3887 187.846H50.377C50.9303 187.833 51.4023 187.654 51.793 187.309C52.1836 186.957 52.3789 186.54 52.3789 186.059C52.3789 185.57 52.1771 185.15 51.7734 184.799C51.3698 184.447 50.8815 184.271 50.3086 184.271H47.3887V187.846ZM46.2363 181.967H50.3086C51.5195 181.967 52.5514 182.367 53.4043 183.168C54.2637 183.969 54.6934 184.932 54.6934 186.059C54.6934 187.165 54.2799 188.116 53.4531 188.91C52.6328 189.698 51.6367 190.111 50.4648 190.15H50.4551C50.4551 190.15 50.4518 190.15 50.4453 190.15H50.4258C50.3542 190.157 50.3151 190.16 50.3086 190.16C50.3086 190.16 50.2891 190.157 50.25 190.15H47.3887V194.848C47.3887 195.167 47.278 195.437 47.0566 195.658C46.8288 195.886 46.5553 196 46.2363 196C45.9173 196 45.6471 195.886 45.4258 195.658C45.1979 195.437 45.084 195.167 45.084 194.848V183.119C45.084 182.8 45.1979 182.53 45.4258 182.309C45.6471 182.081 45.9173 181.967 46.2363 181.967ZM60.3281 190.727H64.0879L62.2031 186.195L60.3281 190.727ZM57.3789 196C57.2292 196 57.0827 195.971 56.9395 195.912C56.6465 195.788 56.4382 195.58 56.3145 195.287C56.1973 194.994 56.1973 194.701 56.3145 194.408L57.5547 191.43C57.5547 191.43 57.5547 191.426 57.5547 191.42L61.1484 182.748C61.1615 182.715 61.1777 182.683 61.1973 182.65C61.1973 182.65 61.2038 182.634 61.2168 182.602C61.2363 182.576 61.2493 182.559 61.2559 182.553C61.2559 182.546 61.2656 182.53 61.2852 182.504C61.3047 182.484 61.3177 182.471 61.3242 182.465C61.3242 182.458 61.334 182.445 61.3535 182.426C61.3796 182.4 61.3926 182.383 61.3926 182.377C61.3991 182.37 61.4121 182.361 61.4316 182.348C61.4577 182.322 61.474 182.309 61.4805 182.309C61.474 182.309 61.487 182.299 61.5195 182.279C61.5456 182.26 61.5618 182.247 61.5684 182.24C61.5684 182.24 61.5814 182.23 61.6074 182.211C61.64 182.191 61.6595 182.182 61.666 182.182C61.679 182.175 61.7018 182.165 61.7344 182.152C61.7669 182.133 61.7767 182.126 61.7637 182.133C61.7507 182.139 61.7637 182.133 61.8027 182.113C61.8353 182.107 61.8581 182.1 61.8711 182.094C61.8776 182.094 61.9004 182.087 61.9395 182.074L61.9785 182.064C61.9915 182.064 62.0143 182.061 62.0469 182.055C62.0794 182.048 62.0957 182.045 62.0957 182.045C62.1022 182.045 62.1217 182.045 62.1543 182.045C62.1803 182.045 62.1966 182.045 62.2031 182.045C62.2161 182.045 62.2357 182.045 62.2617 182.045C62.3008 182.045 62.3203 182.045 62.3203 182.045C62.3203 182.045 62.3398 182.048 62.3789 182.055C62.4115 182.061 62.4277 182.064 62.4277 182.064C62.4408 182.064 62.4635 182.071 62.4961 182.084C62.5352 182.09 62.5482 182.094 62.5352 182.094C62.6133 182.113 62.6849 182.143 62.75 182.182C62.7435 182.175 62.7565 182.182 62.7891 182.201C62.8216 182.221 62.8411 182.234 62.8477 182.24C62.8477 182.24 62.8607 182.25 62.8867 182.27C62.9128 182.289 62.929 182.302 62.9355 182.309C62.9421 182.309 62.9551 182.318 62.9746 182.338C62.9941 182.357 63.0104 182.37 63.0234 182.377C63.0234 182.383 63.0332 182.396 63.0527 182.416C63.0788 182.442 63.0918 182.458 63.0918 182.465L63.1211 182.504C63.1471 182.53 63.1602 182.546 63.1602 182.553C63.1602 182.559 63.1699 182.576 63.1895 182.602C63.209 182.628 63.2188 182.644 63.2188 182.65C63.2383 182.683 63.2546 182.715 63.2676 182.748L66.8613 191.42C66.8613 191.426 66.8613 191.43 66.8613 191.43L68.1016 194.408C68.2188 194.701 68.2188 194.994 68.1016 195.287C67.9779 195.58 67.7695 195.788 67.4766 195.912C67.3333 195.971 67.1868 196 67.0371 196C66.5228 196 66.168 195.762 65.9727 195.287L65.0352 193.021H59.3809L58.4434 195.287C58.248 195.762 57.8932 196 57.3789 196ZM72.5449 187.846H75.5332C76.0866 187.833 76.5586 187.654 76.9492 187.309C77.3398 186.957 77.5352 186.54 77.5352 186.059C77.5352 185.57 77.3333 185.15 76.9297 184.799C76.526 184.447 76.0378 184.271 75.4648 184.271H72.5449V187.846ZM71.3926 181.967H75.4648C76.6758 181.967 77.7077 182.367 78.5605 183.168C79.4199 183.969 79.8496 184.932 79.8496 186.059C79.8496 187.165 79.4362 188.116 78.6094 188.91C77.7891 189.698 76.793 190.111 75.6211 190.15H75.6113C75.6113 190.15 75.6081 190.15 75.6016 190.15H75.582C75.5104 190.157 75.4714 190.16 75.4648 190.16C75.4648 190.16 75.4453 190.157 75.4062 190.15H72.5449V194.848C72.5449 195.167 72.4342 195.437 72.2129 195.658C71.985 195.886 71.7116 196 71.3926 196C71.0736 196 70.8034 195.886 70.582 195.658C70.3542 195.437 70.2402 195.167 70.2402 194.848V183.119C70.2402 182.8 70.3542 182.53 70.582 182.309C70.8034 182.081 71.0736 181.967 71.3926 181.967ZM84.5566 193.686H90.4648C90.7839 193.686 91.054 193.799 91.2754 194.027C91.5033 194.255 91.6172 194.529 91.6172 194.848C91.6172 195.167 91.5033 195.437 91.2754 195.658C91.054 195.886 90.7839 196 90.4648 196H83.3945C83.0755 196 82.8053 195.886 82.584 195.658C82.3561 195.437 82.2422 195.167 82.2422 194.848V183.139C82.2422 182.813 82.3561 182.54 82.584 182.318C82.8053 182.09 83.0755 181.977 83.3945 181.977H83.4043L90.4648 181.996C90.7839 181.996 91.0573 182.11 91.2852 182.338C91.5065 182.566 91.6172 182.839 91.6172 183.158C91.6172 183.477 91.5033 183.747 91.2754 183.969C91.054 184.197 90.7839 184.311 90.4648 184.311H90.4551L84.5566 184.291V187.836H88.8145C89.1335 187.836 89.4069 187.947 89.6348 188.168C89.8626 188.396 89.9766 188.669 89.9766 188.988C89.9766 189.307 89.8626 189.581 89.6348 189.809C89.4069 190.03 89.1335 190.141 88.8145 190.141H84.5566V193.686ZM96.0605 187.816H99.0293C99.5762 187.797 100.045 187.618 100.436 187.279C100.82 186.934 101.012 186.524 101.012 186.049C101.012 185.554 100.81 185.134 100.406 184.789C100.003 184.444 99.5176 184.271 98.9512 184.271H96.0605V187.816ZM102.027 183.168C102.88 183.962 103.307 184.923 103.307 186.049C103.307 186.908 103.04 187.686 102.506 188.383C101.992 189.073 101.314 189.564 100.475 189.857L102.691 194.35C102.828 194.63 102.844 194.919 102.74 195.219C102.643 195.518 102.451 195.74 102.164 195.883C102.001 195.961 101.832 196 101.656 196C101.181 196 100.839 195.785 100.631 195.355L98.043 190.111H96.0605V194.77C96.0605 195.082 95.9466 195.352 95.7188 195.58C95.4974 195.801 95.2272 195.912 94.9082 195.912C94.5957 195.912 94.3255 195.801 94.0977 195.58C93.8763 195.352 93.7656 195.082 93.7656 194.77V183.129C93.7656 182.81 93.8763 182.54 94.0977 182.318C94.3255 182.09 94.5957 181.977 94.9082 181.977H98.9512C100.156 181.977 101.181 182.374 102.027 183.168Z" fill="white"/>
<defs>
<clipPath id="clip0_205_119">
<rect x="10" y="10" width="130" height="230" rx="2" fill="white"/>
</clipPath>
</defs>
</svg>
