<svg width="150" height="250" viewBox="0 0 150 250" fill="none" xmlns="http://www.w3.org/2000/svg">
<rect width="150" height="250" rx="4" fill="#C84646"/>
<rect width="150" height="250" rx="4" fill="white" fill-opacity="0.6"/>
<rect width="14.1964" height="15.0745" transform="translate(129.847 168.294) rotate(-60)" fill="#C84646"/>
<rect width="14.1964" height="15.0745" transform="translate(129.847 168.294) rotate(-60)" fill="white" fill-opacity="0.1"/>
<rect width="14.1964" height="15.0745" transform="translate(0 163.431) rotate(-30)" fill="#C84646"/>
<rect width="14.1964" height="15.0745" transform="translate(0 163.431) rotate(-30)" fill="white" fill-opacity="0.1"/>
<g clip-path="url(#clip0_205_82)">
<rect x="10" y="10" width="130" height="230" rx="2" fill="#C84646"/>
<rect x="10" y="10" width="130" height="230" rx="2" fill="white" fill-opacity="0.4"/>
<circle cx="75" cy="90" r="40" fill="#C84646"/>
<circle cx="75" cy="90" r="40" fill="white" fill-opacity="0.2"/>
<path d="M58.3054 77.0813C58.1244 77.4071 57.883 77.914 57.7744 78.2398C57.5572 78.9397 57.4727 89.7647 57.6779 91.4904C58.052 94.4712 59.1502 96.559 61.962 99.6846L63.8205 101.736L63.8446 105.332L63.8446 108.929L64.436 109.375C65.2204 109.966 66.0169 109.918 66.7047 109.23C67.1874 108.748 67.2116 108.627 67.1874 104.572L67.1874 100.421L65.9324 99.0208C62.3844 95.0625 61.6845 94.0005 61.2259 91.949C60.8759 90.4888 60.8518 79.6759 61.1776 79.0363C61.9017 77.6123 63.8205 78.0829 64.0739 79.7604C64.2549 80.9551 65.2686 81.6309 66.3186 81.2568C67.2237 80.9309 67.4047 80.412 67.4529 78.1432C67.4891 76.2727 67.5374 76.0555 67.9719 75.621C68.3701 75.2228 68.5873 75.1504 69.1666 75.1987C69.9872 75.2711 70.3613 75.6935 70.5423 76.7434C70.7716 78.0829 72.1353 78.7466 73.2094 78.0105C73.8007 77.6123 73.9334 77.1657 73.9817 75.3797C74.0058 74.1488 74.0783 73.8591 74.4524 73.485C75.0437 72.8937 75.9126 72.8937 76.5039 73.485C76.8539 73.835 76.9384 74.1608 76.9866 75.2952C77.0349 76.502 77.1073 76.7434 77.5418 77.1778C77.9279 77.564 78.1814 77.6726 78.7365 77.6726C79.6295 77.6726 80.1726 77.1537 80.426 76.0796C80.6794 75.0297 81.1139 74.6194 81.9948 74.6073C82.743 74.6073 83.1413 74.8849 83.3464 75.5245C83.4189 75.7417 83.4792 78.1432 83.5033 80.8706C83.5154 85.6857 83.5275 85.8185 84.0102 86.3012C84.7584 87.0494 85.6032 87.0735 86.3272 86.3495C86.8703 85.8064 86.8703 85.7581 86.8824 82.9222V80.0741L87.3651 80.1465C88.1978 80.3034 88.958 80.8223 89.3925 81.5464C89.7063 82.1015 89.7545 82.8739 89.7545 86.808C89.7304 93.1317 89.5373 93.7109 86.1583 97.5003C85.1084 98.695 84.0947 99.8776 83.9257 100.095C83.7085 100.409 83.6119 101.253 83.624 103.172C83.624 105.682 83.6481 105.851 84.1188 106.322C84.5291 106.732 84.7463 106.805 85.3618 106.768C86.6893 106.696 86.9789 106.141 86.991 103.522L87.003 101.724L88.8736 99.6121C91.0941 97.102 91.975 95.7142 92.6388 93.6264C93.0491 92.299 93.1094 91.5628 93.1094 86.808C93.1336 81.9326 93.0974 81.3895 92.675 80.4844C91.7819 78.5294 89.8873 77.0692 87.884 76.8037L86.9186 76.683L86.8582 75.8503C86.6531 72.6041 83.6361 70.4318 80.5949 71.349L79.5209 71.6748L78.9054 71.0594C77.6504 69.8043 75.8643 69.3457 74.0783 69.8043C73.2938 70.0094 73.0645 70.1663 72.1474 71.0835L71.0975 72.1334L70.301 71.892C69.3235 71.5903 67.9236 71.711 66.9582 72.1696C66.0893 72.5799 64.9549 73.666 64.5446 74.4867C64.3032 74.9694 64.1946 75.0538 64.0136 74.9694C63.5671 74.7401 61.5758 74.8004 60.8276 75.0659C59.8863 75.4038 58.7881 76.2848 58.3054 77.0813Z" fill="white"/>
</g>
<rect width="150" height="50" transform="translate(0 164)" fill="#C84646"/>
<rect width="150" height="50" transform="translate(0 164)" fill="white" fill-opacity="0.2"/>
<path d="M51.3691 187.816H54.3379C54.8848 187.797 55.3535 187.618 55.7441 187.279C56.1283 186.934 56.3203 186.524 56.3203 186.049C56.3203 185.554 56.1185 185.134 55.7148 184.789C55.3112 184.444 54.8262 184.271 54.2598 184.271H51.3691V187.816ZM57.3359 183.168C58.1888 183.962 58.6152 184.923 58.6152 186.049C58.6152 186.908 58.3483 187.686 57.8145 188.383C57.3001 189.073 56.623 189.564 55.7832 189.857L58 194.35C58.1367 194.63 58.153 194.919 58.0488 195.219C57.9512 195.518 57.7591 195.74 57.4727 195.883C57.3099 195.961 57.1406 196 56.9648 196C56.4896 196 56.1478 195.785 55.9395 195.355L53.3516 190.111H51.3691V194.77C51.3691 195.082 51.2552 195.352 51.0273 195.58C50.806 195.801 50.5358 195.912 50.2168 195.912C49.9043 195.912 49.6341 195.801 49.4062 195.58C49.1849 195.352 49.0742 195.082 49.0742 194.77V183.129C49.0742 182.81 49.1849 182.54 49.4062 182.318C49.6341 182.09 49.9043 181.977 50.2168 181.977H54.2598C55.4642 181.977 56.4896 182.374 57.3359 183.168ZM70.6172 185.658C69.6927 184.74 68.5827 184.281 67.2871 184.281C65.9915 184.281 64.8848 184.74 63.9668 185.658C63.0423 186.583 62.5801 187.693 62.5801 188.988C62.5801 190.284 63.0423 191.391 63.9668 192.309C64.8848 193.233 65.9915 193.695 67.2871 193.695C68.5827 193.695 69.6927 193.233 70.6172 192.309C71.5352 191.391 71.9941 190.284 71.9941 188.988C71.9941 187.693 71.5352 186.583 70.6172 185.658ZM72.248 193.939C70.8743 195.313 69.2207 196 67.2871 196C65.3535 196 63.7031 195.313 62.3359 193.939C60.9622 192.572 60.2754 190.922 60.2754 188.988C60.2754 187.055 60.9622 185.401 62.3359 184.027C63.7031 182.66 65.3535 181.977 67.2871 181.977C69.2207 181.977 70.8743 182.66 72.248 184.027C73.6152 185.401 74.2988 187.055 74.2988 188.988C74.2988 190.922 73.6152 192.572 72.248 193.939ZM88.0684 194.184C86.7337 195.395 85.1647 196 83.3613 196C81.4408 196 79.7969 195.32 78.4297 193.959C77.069 192.592 76.3887 190.948 76.3887 189.027C76.3887 187.1 77.069 185.456 78.4297 184.096C79.7969 182.729 81.4408 182.045 83.3613 182.045C84.9434 182.045 86.3626 182.527 87.6191 183.49C87.8665 183.686 88.013 183.939 88.0586 184.252C88.0977 184.571 88.0195 184.857 87.8242 185.111C87.6289 185.365 87.375 185.512 87.0625 185.551C86.7435 185.59 86.457 185.515 86.2031 185.326C85.3698 184.682 84.4225 184.359 83.3613 184.359C82.0788 184.359 80.9818 184.815 80.0703 185.727C79.1589 186.638 78.7031 187.738 78.7031 189.027C78.7031 190.31 79.1589 191.407 80.0703 192.318C80.9818 193.23 82.0788 193.686 83.3613 193.686C84.5723 193.686 85.6204 193.282 86.5059 192.475C86.7402 192.26 87.0169 192.159 87.3359 192.172C87.6549 192.185 87.9219 192.312 88.1367 192.553C88.3516 192.787 88.4525 193.064 88.4395 193.383C88.4264 193.702 88.3027 193.969 88.0684 194.184ZM92.6289 195.57C92.401 195.798 92.1309 195.912 91.8184 195.912C91.5059 195.912 91.2357 195.798 91.0078 195.57C90.7865 195.349 90.6758 195.082 90.6758 194.77V183.168C90.6758 182.855 90.7865 182.589 91.0078 182.367C91.2357 182.139 91.5059 182.025 91.8184 182.025C92.1309 182.025 92.401 182.139 92.6289 182.367C92.8503 182.589 92.9609 182.855 92.9609 183.168V188.305L98.5469 182.436C98.7617 182.208 99.0286 182.087 99.3477 182.074C99.6602 182.068 99.9303 182.175 100.158 182.396C100.386 182.611 100.503 182.875 100.51 183.188C100.523 183.507 100.419 183.78 100.197 184.008L95.5098 188.939L100.383 194.066C100.598 194.301 100.702 194.574 100.695 194.887C100.689 195.199 100.572 195.466 100.344 195.688C100.122 195.896 99.8587 196 99.5527 196C99.2272 196 98.9505 195.883 98.7227 195.648L93.9277 190.6L92.9609 191.625V194.77C92.9609 195.082 92.8503 195.349 92.6289 195.57Z" fill="white"/>
<defs>
<clipPath id="clip0_205_82">
<rect x="10" y="10" width="130" height="230" rx="2" fill="white"/>
</clipPath>
</defs>
</svg>
