<svg width="150" height="250" viewBox="0 0 150 250" fill="none" xmlns="http://www.w3.org/2000/svg">
<g clip-path="url(#clip0_430_96)">
<rect width="150" height="250" rx="4" fill="#8C46C8"/>
<rect width="150" height="250" rx="4" fill="white" fill-opacity="0.6"/>
<rect width="14.1964" height="15.0745" transform="translate(129.848 168.294) rotate(-60)" fill="#8C46C8"/>
<rect width="14.1964" height="15.0745" transform="translate(129.848 168.294) rotate(-60)" fill="white" fill-opacity="0.1"/>
<rect width="14.1964" height="15.0745" transform="translate(0 163.431) rotate(-30)" fill="#8C46C8"/>
<rect width="14.1964" height="15.0745" transform="translate(0 163.431) rotate(-30)" fill="white" fill-opacity="0.1"/>
<g clip-path="url(#clip1_430_96)">
<rect x="10" y="10" width="130" height="230" rx="2" fill="#8C46C8"/>
<rect x="10" y="10" width="130" height="230" rx="2" fill="white" fill-opacity="0.4"/>
<circle cx="75" cy="90" r="40" fill="#8C46C8"/>
<circle cx="75" cy="90" r="40" fill="white" fill-opacity="0.2"/>
<path d="M75 84C76.5913 84 78.1174 84.6321 79.2426 85.7574C80.3679 86.8826 81 88.4087 81 90C81 91.5913 80.3679 93.1174 79.2426 94.2426C78.1174 95.3679 76.5913 96 75 96C73.4087 96 71.8826 95.3679 70.7574 94.2426C69.6321 93.1174 69 91.5913 69 90C69 88.4087 69.6321 86.8826 70.7574 85.7574C71.8826 84.6321 73.4087 84 75 84V84ZM75 75C85 75 93.54 81.22 97 90C93.54 98.78 85 105 75 105C65 105 56.46 98.78 53 90C56.46 81.22 65 75 75 75ZM57.36 90C60.66 96.72 67.48 101 75 101C82.52 101 89.34 96.72 92.64 90C89.34 83.28 82.52 79 75 79C67.48 79 60.66 83.28 57.36 90Z" fill="white"/>
</g>
<rect width="150" height="50" transform="translate(0 164)" fill="#8C46C8"/>
<rect width="150" height="50" transform="translate(0 164)" fill="white" fill-opacity="0.2"/>
<path d="M21.6406 194.848V184.281H18.7402C18.4212 184.281 18.1478 184.167 17.9199 183.939C17.6986 183.718 17.5879 183.448 17.5879 183.129C17.5879 182.81 17.6986 182.54 17.9199 182.318C18.1478 182.09 18.4212 181.977 18.7402 181.977H26.8555C27.168 181.977 27.4382 182.09 27.666 182.318C27.8874 182.54 27.998 182.81 27.998 183.129C27.998 183.448 27.8874 183.718 27.666 183.939C27.4382 184.167 27.168 184.281 26.8555 184.281H23.9453V194.848C23.9453 195.167 23.8314 195.44 23.6035 195.668C23.3822 195.889 23.112 196 22.793 196C22.474 196 22.2038 195.889 21.9824 195.668C21.7546 195.44 21.6406 195.167 21.6406 194.848ZM32.6953 187.816H35.6641C36.2109 187.797 36.6797 187.618 37.0703 187.279C37.4544 186.934 37.6465 186.524 37.6465 186.049C37.6465 185.554 37.4447 185.134 37.041 184.789C36.6374 184.444 36.1523 184.271 35.5859 184.271H32.6953V187.816ZM38.6621 183.168C39.515 183.962 39.9414 184.923 39.9414 186.049C39.9414 186.908 39.6745 187.686 39.1406 188.383C38.6263 189.073 37.9492 189.564 37.1094 189.857L39.3262 194.35C39.4629 194.63 39.4792 194.919 39.375 195.219C39.2773 195.518 39.0853 195.74 38.7988 195.883C38.6361 195.961 38.4668 196 38.291 196C37.8158 196 37.474 195.785 37.2656 195.355L34.6777 190.111H32.6953V194.77C32.6953 195.082 32.5814 195.352 32.3535 195.58C32.1322 195.801 31.862 195.912 31.543 195.912C31.2305 195.912 30.9603 195.801 30.7324 195.58C30.5111 195.352 30.4004 195.082 30.4004 194.77V183.129C30.4004 182.81 30.5111 182.54 30.7324 182.318C30.9603 182.09 31.2305 181.977 31.543 181.977H35.5859C36.7904 181.977 37.8158 182.374 38.6621 183.168ZM51.1133 182.328C51.3346 182.107 51.6016 181.996 51.9141 181.996C52.2266 181.996 52.4935 182.107 52.7148 182.328C52.9362 182.549 53.0469 182.816 53.0469 183.129V191C53.0469 192.38 52.5586 193.559 51.582 194.535C50.6055 195.512 49.4303 196 48.0566 196C46.6764 196 45.498 195.512 44.5215 194.535C43.5449 193.559 43.0566 192.38 43.0566 191V183.129C43.0566 182.816 43.1673 182.549 43.3887 182.328C43.61 182.107 43.877 181.996 44.1895 181.996C44.502 181.996 44.7689 182.107 44.9902 182.328C45.2116 182.549 45.3223 182.816 45.3223 183.129V191C45.3223 191.755 45.5892 192.4 46.123 192.934C46.6569 193.467 47.3014 193.734 48.0566 193.734C48.8053 193.734 49.4466 193.467 49.9805 192.934C50.5143 192.4 50.7812 191.755 50.7812 191V183.129C50.7812 182.816 50.8919 182.549 51.1133 182.328ZM59.2773 193.686H65.1855C65.5046 193.686 65.7747 193.799 65.9961 194.027C66.224 194.255 66.3379 194.529 66.3379 194.848C66.3379 195.167 66.224 195.437 65.9961 195.658C65.7747 195.886 65.5046 196 65.1855 196H58.1152C57.7962 196 57.526 195.886 57.3047 195.658C57.0768 195.437 56.9629 195.167 56.9629 194.848V183.139C56.9629 182.813 57.0768 182.54 57.3047 182.318C57.526 182.09 57.7962 181.977 58.1152 181.977H58.125L65.1855 181.996C65.5046 181.996 65.778 182.11 66.0059 182.338C66.2272 182.566 66.3379 182.839 66.3379 183.158C66.3379 183.477 66.224 183.747 65.9961 183.969C65.7747 184.197 65.5046 184.311 65.1855 184.311H65.1758L59.2773 184.291V187.836H63.5352C63.8542 187.836 64.1276 187.947 64.3555 188.168C64.5833 188.396 64.6973 188.669 64.6973 188.988C64.6973 189.307 64.5833 189.581 64.3555 189.809C64.1276 190.03 63.8542 190.141 63.5352 190.141H59.2773V193.686ZM81.543 189.242C82.2396 189.978 82.5651 190.84 82.5195 191.83C82.4674 192.995 82.002 193.982 81.123 194.789C80.2376 195.596 79.1829 196 77.959 196C76.8978 196 75.9473 195.772 75.1074 195.316C74.0983 194.77 73.457 193.975 73.1836 192.934C73.1055 192.628 73.1445 192.338 73.3008 192.064C73.4635 191.791 73.6979 191.615 74.0039 191.537C74.3099 191.459 74.5996 191.498 74.873 191.654C75.1465 191.817 75.3223 192.051 75.4004 192.357C75.5176 192.794 75.8366 193.135 76.3574 193.383C76.8262 193.598 77.36 193.705 77.959 193.705C78.571 193.705 79.0951 193.513 79.5312 193.129C79.974 192.751 80.2083 192.283 80.2344 191.723C80.2474 191.384 80.127 191.081 79.873 190.814C79.4694 190.385 78.7923 190.163 77.8418 190.15H77.832C77.806 190.15 77.7995 190.15 77.8125 190.15C77.806 190.15 77.7995 190.15 77.793 190.15C76.1979 190.124 74.9772 189.665 74.1309 188.773C73.4342 188.031 73.1087 187.169 73.1543 186.186C73.2064 185.014 73.6719 184.024 74.5508 183.217C75.4297 182.41 76.4844 182.006 77.7148 182.006C78.776 182.006 79.7266 182.234 80.5664 182.689C81.5755 183.236 82.2168 184.031 82.4902 185.072C82.5684 185.378 82.526 185.668 82.3633 185.941C82.207 186.215 81.9759 186.391 81.6699 186.469C81.3639 186.547 81.0742 186.508 80.8008 186.352C80.5273 186.189 80.3516 185.954 80.2734 185.648C80.1562 185.212 79.834 184.87 79.3066 184.623C78.8444 184.408 78.3138 184.301 77.7148 184.301C77.1029 184.301 76.5755 184.493 76.1328 184.877C75.6966 185.261 75.4655 185.73 75.4395 186.283C75.4264 186.622 75.5469 186.928 75.8008 187.201C76.2044 187.624 76.8815 187.842 77.832 187.855H77.8809C79.4759 187.882 80.6966 188.344 81.543 189.242ZM87.7832 195.658C87.5618 195.886 87.2917 196 86.9727 196C86.6536 196 86.3835 195.886 86.1621 195.658C85.9342 195.437 85.8203 195.167 85.8203 194.848V183.197C85.8203 182.878 85.9342 182.608 86.1621 182.387C86.3835 182.159 86.6536 182.045 86.9727 182.045C87.2917 182.045 87.5618 182.159 87.7832 182.387C88.0111 182.608 88.125 182.878 88.125 183.197V194.848C88.125 195.167 88.0111 195.437 87.7832 195.658ZM101.738 195.16C100.716 195.694 99.6322 195.961 98.4863 195.961C96.5592 195.961 94.9121 195.277 93.5449 193.91C92.1777 192.543 91.4941 190.896 91.4941 188.969C91.4941 187.042 92.1777 185.398 93.5449 184.037C94.9121 182.67 96.5592 181.986 98.4863 181.986C100.068 181.986 101.484 182.468 102.734 183.432C102.988 183.627 103.138 183.884 103.184 184.203C103.223 184.516 103.145 184.799 102.949 185.053C102.754 185.307 102.5 185.453 102.188 185.492C101.868 185.538 101.582 185.463 101.328 185.268C100.488 184.623 99.541 184.301 98.4863 184.301C97.1973 184.301 96.0938 184.757 95.1758 185.668C94.2643 186.586 93.8086 187.686 93.8086 188.969C93.8086 190.258 94.2643 191.361 95.1758 192.279C96.0938 193.191 97.1973 193.646 98.4863 193.646C99.6908 193.646 100.739 193.24 101.631 192.426C101.644 192.413 101.667 192.393 101.699 192.367L101.709 189.809H97.8906C97.5651 189.809 97.2917 189.698 97.0703 189.477C96.8424 189.249 96.7285 188.975 96.7285 188.656C96.7285 188.337 96.8424 188.064 97.0703 187.836C97.2917 187.608 97.5651 187.494 97.8906 187.494H102.871C103.19 187.494 103.464 187.608 103.691 187.836C103.919 188.064 104.033 188.337 104.033 188.656L104.004 194.848C104.004 195.167 103.89 195.437 103.662 195.658C103.441 195.886 103.171 196 102.852 196H102.842C102.581 196 102.347 195.919 102.139 195.756C101.937 195.6 101.803 195.401 101.738 195.16ZM118.008 195.658C117.78 195.886 117.507 196 117.188 196C116.868 196 116.595 195.886 116.367 195.658C116.139 195.43 116.025 195.157 116.025 194.838V190.16H110.01V194.838C110.01 195.157 109.899 195.43 109.678 195.658C109.45 195.886 109.176 196 108.857 196C108.538 196 108.265 195.886 108.037 195.658C107.809 195.43 107.695 195.157 107.695 194.838V183.168C107.695 182.849 107.809 182.576 108.037 182.348C108.265 182.12 108.538 182.006 108.857 182.006C109.176 182.006 109.45 182.12 109.678 182.348C109.899 182.576 110.01 182.849 110.01 183.168V187.846H116.025V183.168C116.025 182.849 116.139 182.576 116.367 182.348C116.595 182.12 116.868 182.006 117.188 182.006C117.507 182.006 117.78 182.12 118.008 182.348C118.236 182.576 118.35 182.849 118.35 183.168V194.838C118.35 195.157 118.236 195.43 118.008 195.658ZM125.273 194.848V184.281H122.373C122.054 184.281 121.781 184.167 121.553 183.939C121.331 183.718 121.221 183.448 121.221 183.129C121.221 182.81 121.331 182.54 121.553 182.318C121.781 182.09 122.054 181.977 122.373 181.977H130.488C130.801 181.977 131.071 182.09 131.299 182.318C131.52 182.54 131.631 182.81 131.631 183.129C131.631 183.448 131.52 183.718 131.299 183.939C131.071 184.167 130.801 184.281 130.488 184.281H127.578V194.848C127.578 195.167 127.464 195.44 127.236 195.668C127.015 195.889 126.745 196 126.426 196C126.107 196 125.837 195.889 125.615 195.668C125.387 195.44 125.273 195.167 125.273 194.848Z" fill="white"/>
</g>
<defs>
<clipPath id="clip0_430_96">
<rect width="150" height="250" rx="4" fill="white"/>
</clipPath>
<clipPath id="clip1_430_96">
<rect x="10" y="10" width="130" height="230" rx="2" fill="white"/>
</clipPath>
</defs>
</svg>
