<svg width="225" height="375" viewBox="0 0 225 375" fill="none" xmlns="http://www.w3.org/2000/svg">
<g clip-path="url(#clip0_224_305)">
<rect width="225" height="375" rx="6" fill="#646400"/>
<rect width="225" height="375" rx="6" fill="white" fill-opacity="0.2"/>
<circle cx="163.471" cy="62.4707" r="50" fill="#646400"/>
<circle cx="163.471" cy="62.4707" r="50" fill="white" fill-opacity="0.4"/>
<path d="M163.001 83.333C151.241 83.333 141.667 73.7597 141.667 61.9997C141.667 50.2397 151.241 40.6663 163.001 40.6663C174.761 40.6663 184.334 50.2397 184.334 61.9997C184.334 73.7597 174.761 83.333 163.001 83.333ZM163.001 35.333C159.499 35.333 156.031 36.0228 152.796 37.3629C149.56 38.703 146.621 40.6673 144.144 43.1435C139.143 48.1445 136.334 54.9272 136.334 61.9997C136.334 69.0721 139.143 75.8549 144.144 80.8559C146.621 83.3321 149.56 85.2963 152.796 86.6365C156.031 87.9766 159.499 88.6663 163.001 88.6663C170.073 88.6663 176.856 85.8568 181.857 80.8559C186.858 75.8549 189.667 69.0721 189.667 61.9997C189.667 58.4978 188.978 55.0301 187.637 51.7948C186.297 48.5594 184.333 45.6197 181.857 43.1435C179.381 40.6673 176.441 38.703 173.206 37.3629C169.97 36.0228 166.503 35.333 163.001 35.333V35.333ZM165.667 48.6663H160.334V59.333H149.667V64.6663H160.334V75.333H165.667V64.6663H176.334V59.333H165.667V48.6663Z" fill="white"/>
<circle cx="73" cy="294" r="90" fill="#646400"/>
<circle cx="73" cy="294" r="90" fill="white" fill-opacity="0.4"/>
<g clip-path="url(#clip1_224_305)">
<path d="M65.3712 231.35C63.3851 230.203 61.1181 229.757 58.6163 230.036C56.1145 230.316 54.1383 231.393 52.5031 233.158L35.9858 250.78C31.9244 255.148 30.3148 260.069 31.1766 265.617L31.7232 267.657L13.1898 299.757C11.8565 302.067 11.4469 304.91 12.3006 307.804C13.1543 310.699 14.7847 312.995 17.0941 314.328L81.7573 351.662C84.0667 352.995 86.9095 353.405 89.8041 352.551C92.6988 351.697 94.9949 350.067 96.3283 347.757L114.862 315.657L116.902 315.11C122.137 313.083 125.594 309.228 127.346 303.527L134.348 280.411C134.921 278.033 134.819 275.756 133.857 273.476C132.94 271.223 131.512 269.537 129.48 268.363L65.3712 231.35ZM123.996 277.329L117.224 300.578C116.493 302.804 115.038 304.365 112.811 305.235C110.83 306 109.024 305.82 107.269 304.807C105.837 303.98 104.857 302.798 104.481 301.103C104.078 299.454 104.244 297.887 104.959 296.329L115.048 272.348L123.996 277.329ZM60.0379 240.588L69.1369 245.841L53.4128 266.569C50.7519 269.898 47.9639 270.567 44.9155 268.807C43.0218 267.714 41.9633 266.24 41.7738 264.222C41.4139 261.859 42.0382 259.817 43.6005 258.071L60.0379 240.588ZM78.4669 251.228L87.4736 256.428L74.9403 278.136C74.0069 279.752 72.6989 280.845 70.8242 281.425C68.9761 281.959 67.2243 281.687 65.4691 280.674C63.8987 279.767 62.8793 278.439 62.5903 276.487C62.3013 274.534 62.5932 272.855 63.4999 271.284L63.9266 270.545L78.4669 251.228ZM96.7112 261.761L105.718 266.961L96.2582 289.212C95.5077 291.365 94.2049 292.769 92.0654 293.381C90.0645 294.073 88.1475 293.767 86.2538 292.674C84.8219 291.847 83.8487 290.546 83.3873 288.679C82.9526 286.765 83.2445 285.086 84.1779 283.469L96.7112 261.761ZM52.2768 279.523C53.5333 284.067 56.256 287.671 60.5977 290.178C64.4775 292.418 68.7754 292.867 73.2924 291.657C74.826 296.36 77.4563 299.911 81.3823 302.178C85.4007 304.498 89.7448 304.974 94.3079 303.79C95.2411 308.147 97.8252 311.671 102.167 314.178L103.229 314.791L87.2292 342.504L22.4274 305.091L38.4274 277.378L39.5821 278.045C43.7852 280.471 48.037 280.894 52.2768 279.523Z" fill="white"/>
</g>
<path d="M63.3554 133.652C63.7621 133.418 64.1918 133.361 64.6446 133.482C65.0974 133.603 65.4411 133.867 65.6759 134.274C65.9107 134.681 65.9674 135.11 65.8461 135.563L62.7903 146.968C62.2545 148.967 61.0896 150.485 59.2955 151.521C57.5014 152.557 55.6092 152.808 53.6189 152.275C51.6191 151.739 50.1013 150.574 49.0655 148.78C48.0297 146.986 47.7798 145.089 48.3156 143.089L51.3714 131.685C51.4927 131.232 51.7567 130.888 52.1633 130.653C52.57 130.419 52.9997 130.362 53.4525 130.483C53.9053 130.605 54.249 130.869 54.4838 131.275C54.7186 131.682 54.7753 132.112 54.654 132.564L51.5982 143.969C51.305 145.063 51.4416 146.1 52.0078 147.081C52.574 148.062 53.4043 148.699 54.4985 148.992C55.5833 149.283 56.616 149.145 57.5968 148.579C58.5775 148.012 59.2145 147.182 59.5077 146.088L62.5635 134.684C62.6848 134.231 62.9488 133.887 63.3554 133.652ZM71.8112 144.486L76.1409 145.647C76.9477 145.842 77.7011 145.766 78.401 145.418C79.1035 145.06 79.5483 144.532 79.7353 143.834C79.9249 143.127 79.7955 142.44 79.3471 141.774C78.8988 141.108 78.2595 140.664 77.4294 140.441L73.1988 139.308L71.8112 144.486ZM72.4239 135.521L78.3242 137.102C80.0787 137.572 81.4184 138.553 82.3432 140.044C83.2774 141.538 83.5259 143.101 83.0887 144.733C82.659 146.337 81.691 147.553 80.1847 148.383C78.6903 149.206 77.0866 149.418 75.3735 149.02L75.3593 149.016C75.3593 149.016 75.3546 149.015 75.3452 149.012L75.3169 149.005C75.2106 148.986 75.1527 148.976 75.1433 148.973C75.1433 148.973 75.1163 148.961 75.0622 148.936L70.9164 147.826L69.0928 154.631C68.969 155.094 68.7037 155.442 68.2971 155.677C67.8785 155.919 67.4381 155.978 66.9758 155.854C66.5136 155.73 66.1664 155.46 65.9341 155.044C65.6899 154.635 65.6297 154.199 65.7536 153.737L70.3069 136.743C70.4308 136.281 70.7008 135.934 71.1168 135.702C71.526 135.457 71.9617 135.397 72.4239 135.521ZM96.6758 162.508C94.9876 162.884 93.3134 162.85 91.6532 162.405C88.8611 161.657 86.74 160.027 85.2899 157.516C83.8397 155.004 83.4888 152.352 84.2369 149.56C84.9851 146.768 86.6137 144.651 89.1229 143.211C91.6346 141.76 94.2865 141.409 97.0786 142.158C99.3708 142.772 101.235 144.02 102.672 145.901C102.964 146.283 103.082 146.713 103.024 147.193C102.959 147.661 102.736 148.041 102.354 148.333C101.973 148.625 101.548 148.739 101.08 148.674C100.6 148.616 100.214 148.397 99.9222 148.015C98.9555 146.755 97.7082 145.92 96.18 145.511C94.3123 145.011 92.5365 145.242 90.8527 146.207C89.1757 147.183 88.0882 148.6 87.5903 150.458C87.0898 152.326 87.3217 154.102 88.2859 155.786C89.2621 157.463 90.6841 158.551 92.5518 159.052C94.2969 159.52 95.9735 159.337 97.5818 158.504C97.6057 158.49 97.6463 158.471 97.7036 158.446L98.711 154.742L93.1787 153.26C92.707 153.134 92.3538 152.867 92.119 152.46C91.8773 152.042 91.8184 151.601 91.9423 151.139C92.0661 150.677 92.3373 150.325 92.756 150.083C93.1651 149.839 93.6055 149.78 94.0772 149.907L101.293 151.84C101.756 151.964 102.107 152.235 102.349 152.654C102.591 153.072 102.65 153.513 102.526 153.975L100.08 162.934C99.956 163.397 99.686 163.744 99.2699 163.976C98.8607 164.22 98.425 164.28 97.9628 164.157L97.9487 164.153C97.5714 164.052 97.2634 163.843 97.0247 163.526C96.7929 163.221 96.6767 162.882 96.6758 162.508ZM110.224 154.733L114.525 155.886C115.325 156.07 116.074 155.993 116.771 155.654C117.462 155.303 117.899 154.783 118.084 154.095C118.276 153.378 118.146 152.691 117.696 152.034C117.245 151.378 116.609 150.939 115.788 150.72L111.6 149.597L110.224 154.733ZM120.674 150.315C121.601 151.797 121.846 153.354 121.409 154.986C121.075 156.231 120.386 157.254 119.342 158.056C118.329 158.857 117.157 159.306 115.827 159.404L117.295 166.774C117.384 167.232 117.295 167.658 117.028 168.052C116.77 168.448 116.406 168.694 115.935 168.79C115.669 168.84 115.409 168.831 115.154 168.763C114.466 168.579 114.054 168.135 113.919 167.431L112.205 158.828L109.333 158.059L107.524 164.808C107.403 165.261 107.133 165.608 106.714 165.849C106.308 166.084 105.873 166.14 105.411 166.016C104.958 165.895 104.61 165.629 104.366 165.22C104.133 164.804 104.078 164.37 104.199 163.917L108.719 147.051C108.842 146.589 109.108 146.24 109.514 146.005C109.933 145.764 110.369 145.704 110.821 145.825L116.679 147.394C118.424 147.862 119.756 148.836 120.674 150.315ZM127.87 163.981L133.318 165.441L132.346 158.144L127.87 163.981ZM121.55 170.477C121.333 170.419 121.132 170.319 120.947 170.179C120.571 169.886 120.35 169.503 120.284 169.031C120.228 168.561 120.342 168.136 120.625 167.757L123.579 163.923C123.579 163.923 123.58 163.918 123.583 163.909L132.156 152.74C132.188 152.697 132.224 152.657 132.265 152.617C132.265 152.617 132.281 152.596 132.312 152.554C132.35 152.524 132.376 152.505 132.388 152.498C132.39 152.489 132.411 152.469 132.449 152.439C132.485 152.418 132.509 152.404 132.521 152.397C132.523 152.388 132.542 152.373 132.578 152.352C132.626 152.325 132.651 152.306 132.654 152.297C132.666 152.29 132.689 152.281 132.722 152.269C132.77 152.242 132.798 152.229 132.808 152.232C132.798 152.229 132.821 152.22 132.876 152.204C132.921 152.186 132.95 152.174 132.962 152.167C132.962 152.167 132.984 152.158 133.03 152.139C133.084 152.124 133.117 152.117 133.126 152.12C133.147 152.115 133.184 152.11 133.236 152.104C133.291 152.088 133.308 152.083 133.286 152.087C133.265 152.091 133.286 152.087 133.351 152.074C133.4 152.077 133.436 152.076 133.457 152.072C133.467 152.075 133.502 152.074 133.564 152.07L133.624 152.071C133.643 152.076 133.677 152.081 133.727 152.084C133.777 152.087 133.802 152.089 133.802 152.089C133.811 152.091 133.839 152.099 133.886 152.111C133.924 152.121 133.948 152.128 133.957 152.13C133.976 152.135 134.004 152.143 134.042 152.153C134.099 152.168 134.127 152.176 134.127 152.176C134.127 152.176 134.154 152.188 134.208 152.213C134.253 152.235 134.275 152.246 134.275 152.246C134.294 152.251 134.324 152.269 134.367 152.301C134.421 152.325 134.438 152.335 134.419 152.33C134.525 152.389 134.617 152.459 134.697 152.541C134.69 152.529 134.706 152.543 134.746 152.584C134.785 152.625 134.808 152.651 134.815 152.663C134.815 152.663 134.83 152.683 134.86 152.721C134.891 152.759 134.909 152.785 134.916 152.797C134.925 152.799 134.941 152.818 134.961 152.854C134.982 152.89 135.001 152.915 135.017 152.93C135.014 152.939 135.023 152.962 135.044 152.998C135.072 153.046 135.084 153.074 135.082 153.084L135.109 153.152C135.137 153.199 135.149 153.228 135.147 153.238C135.144 153.247 135.152 153.274 135.17 153.32C135.188 153.365 135.196 153.392 135.194 153.402C135.209 153.457 135.22 153.51 135.227 153.562L137.067 167.522C137.064 167.531 137.063 167.536 137.063 167.536L137.704 172.333C137.76 172.803 137.646 173.228 137.362 173.607C137.069 173.983 136.687 174.204 136.214 174.27C135.984 174.299 135.76 174.284 135.543 174.226C134.798 174.027 134.376 173.545 134.278 172.78L133.799 169.134L125.607 166.938L123.369 169.857C122.901 170.47 122.295 170.676 121.55 170.477ZM148.118 159.443L144.483 173.012L147.083 173.664C148.96 174.167 150.736 173.935 152.411 172.968C154.085 172.001 155.173 170.584 155.673 168.716C156.171 166.858 155.936 165.092 154.97 163.417C154.005 161.733 152.59 160.641 150.722 160.141L148.118 159.443ZM141.925 175.936L141.896 175.929C141.444 175.807 141.095 175.542 140.851 175.133C140.609 174.714 140.55 174.274 140.674 173.812L145.212 156.875C145.336 156.413 145.607 156.061 146.026 155.819C146.433 155.584 146.867 155.529 147.329 155.653L151.617 156.801C154.409 157.55 156.531 159.175 157.984 161.677C159.424 164.186 159.772 166.832 159.026 169.615C158.278 172.407 156.654 174.525 154.155 175.968C151.643 177.418 148.991 177.769 146.199 177.021L141.925 175.936ZM164.712 178.448L173.273 180.742C173.735 180.865 174.082 181.135 174.314 181.552C174.556 181.97 174.615 182.411 174.491 182.873C174.367 183.335 174.097 183.682 173.681 183.914C173.272 184.159 172.836 184.219 172.374 184.095L162.13 181.35C161.668 181.226 161.32 180.956 161.088 180.54C160.844 180.131 160.784 179.695 160.908 179.233L165.453 162.268C165.58 161.796 165.851 161.445 166.267 161.212C166.676 160.968 167.112 160.908 167.574 161.032L167.588 161.036L177.811 163.805C178.273 163.929 178.625 164.2 178.867 164.619C179.099 165.035 179.153 165.474 179.029 165.936C178.905 166.398 178.635 166.745 178.219 166.978C177.81 167.222 177.374 167.282 176.912 167.158L176.898 167.155L168.359 164.836L166.983 169.972L173.152 171.625C173.615 171.749 173.968 172.016 174.212 172.425C174.454 172.844 174.513 173.284 174.389 173.746C174.265 174.208 173.994 174.56 173.575 174.802C173.159 175.034 172.72 175.089 172.258 174.965L166.088 173.312L164.712 178.448Z" fill="white"/>
</g>
<defs>
<clipPath id="clip0_224_305">
<rect width="225" height="375" rx="6" fill="white"/>
</clipPath>
<clipPath id="clip1_224_305">
<rect width="128" height="128" fill="white" transform="translate(50 204) rotate(30)"/>
</clipPath>
</defs>
</svg>
