<svg width="225" height="375" viewBox="0 0 225 375" fill="none" xmlns="http://www.w3.org/2000/svg">
<g clip-path="url(#clip0_224_230)">
<rect width="225" height="375" rx="6" fill="#646400"/>
<rect width="225" height="375" rx="6" fill="white" fill-opacity="0.6"/>
<rect width="21.2946" height="22.6118" transform="translate(194.771 252.441) rotate(-60)" fill="#646400"/>
<rect width="21.2946" height="22.6118" transform="translate(194.771 252.441) rotate(-60)" fill="white" fill-opacity="0.1"/>
<rect width="21.2946" height="22.6118" transform="translate(0 245.146) rotate(-30)" fill="#646400"/>
<rect width="21.2946" height="22.6118" transform="translate(0 245.146) rotate(-30)" fill="white" fill-opacity="0.1"/>
<g clip-path="url(#clip1_224_230)">
<rect x="15" y="15" width="195" height="345" rx="3" fill="#646400"/>
<rect x="15" y="15" width="195" height="345" rx="3" fill="white" fill-opacity="0.4"/>
<circle cx="112.5" cy="135" r="60" fill="#646400"/>
<circle cx="112.5" cy="135" r="60" fill="white" fill-opacity="0.2"/>
<path d="M94.4935 111C93.3468 111 92.2535 111.373 91.2402 112.12C90.2268 112.867 89.6402 113.827 89.3735 115L86.6268 126.76C85.9602 129.667 86.4935 132.2 88.2535 134.387L89.0002 135.133V153.667C89.0002 155 89.5335 156.333 90.6268 157.373C91.7202 158.413 93.0002 159 94.3335 159H131.667C133 159 134.333 158.467 135.373 157.373C136.413 156.28 137 155 137 153.667V135.133L137.747 134.387C139.507 132.2 140.04 129.667 139.373 126.76L136.627 115C136.28 113.827 135.667 112.867 134.68 112.12C133.72 111.373 132.68 111 131.507 111H94.4935ZM131.373 116.253L134.253 128.013C134.493 129.16 134.253 130.2 133.507 131.133C132.84 131.96 132.013 132.333 131 132.333C130.173 132.333 129.453 132.067 128.867 131.427C128.28 130.813 127.96 130.093 127.88 129.24L126.253 116.333L131.373 116.253ZM94.4935 116.333H99.7468L98.1202 129.24C97.8002 131.347 96.7602 132.333 95.0002 132.333C93.9068 132.333 93.0802 131.96 92.4935 131.133C91.7468 130.2 91.5068 129.16 91.7468 128.013L94.4935 116.333ZM105.133 116.333H110.333V128.867C110.333 129.8 110.04 130.6 109.373 131.32C108.707 132.013 107.88 132.333 106.867 132.333C105.96 132.333 105.187 132.013 104.573 131.24C103.96 130.467 103.667 129.667 103.667 128.76V128.333L105.133 116.333ZM115.667 116.333H120.867L122.333 128.333C122.547 129.453 122.333 130.387 121.56 131.187C120.867 131.987 119.96 132.333 118.867 132.333C118.04 132.333 117.293 132.013 116.627 131.32C115.96 130.6 115.667 129.8 115.667 128.867V116.333ZM100.867 135.133C102.547 136.787 104.627 137.667 107.133 137.667C109.373 137.667 111.347 136.787 113 135.133C114.84 136.787 116.867 137.667 119.133 137.667C121.453 137.667 123.453 136.787 125.133 135.133C126.627 136.787 128.627 137.667 131.133 137.667H131.747V153.667H94.3335V137.667H95.0002C97.4268 137.667 99.3735 136.787 100.867 135.133Z" fill="white"/>
</g>
<rect width="225" height="75" transform="translate(0 246)" fill="#646400"/>
<rect width="225" height="75" transform="translate(0 246)" fill="white" fill-opacity="0.2"/>
<path d="M58.418 273.492C58.75 273.16 59.1504 272.994 59.6191 272.994C60.0879 272.994 60.4883 273.16 60.8203 273.492C61.1523 273.824 61.3184 274.225 61.3184 274.693V286.5C61.3184 288.57 60.5859 290.338 59.1211 291.803C57.6562 293.268 55.8936 294 53.833 294C51.7627 294 49.9951 293.268 48.5303 291.803C47.0654 290.338 46.333 288.57 46.333 286.5V274.693C46.333 274.225 46.499 273.824 46.8311 273.492C47.1631 273.16 47.5635 272.994 48.0322 272.994C48.501 272.994 48.9014 273.16 49.2334 273.492C49.5654 273.824 49.7314 274.225 49.7314 274.693V286.5C49.7314 287.633 50.1318 288.6 50.9326 289.4C51.7334 290.201 52.7002 290.602 53.833 290.602C54.9561 290.602 55.918 290.201 56.7188 289.4C57.5195 288.6 57.9199 287.633 57.9199 286.5V274.693C57.9199 274.225 58.0859 273.824 58.418 273.492ZM69.3896 281.769H73.8721C74.7021 281.749 75.4102 281.48 75.9961 280.963C76.582 280.436 76.875 279.811 76.875 279.088C76.875 278.355 76.5723 277.726 75.9668 277.198C75.3613 276.671 74.6289 276.407 73.7695 276.407H69.3896V281.769ZM67.6611 272.95H73.7695C75.5859 272.95 77.1338 273.551 78.4131 274.752C79.7021 275.953 80.3467 277.398 80.3467 279.088C80.3467 280.748 79.7266 282.174 78.4863 283.365C77.2559 284.547 75.7617 285.167 74.0039 285.226H73.9893C73.9893 285.226 73.9844 285.226 73.9746 285.226H73.9453C73.8379 285.235 73.7793 285.24 73.7695 285.24C73.7695 285.24 73.7402 285.235 73.6816 285.226H69.3896V292.271C69.3896 292.75 69.2236 293.155 68.8916 293.487C68.5498 293.829 68.1396 294 67.6611 294C67.1826 294 66.7773 293.829 66.4453 293.487C66.1035 293.155 65.9326 292.75 65.9326 292.271V274.679C65.9326 274.2 66.1035 273.795 66.4453 273.463C66.7773 273.121 67.1826 272.95 67.6611 272.95ZM98.0713 292.74C96.5381 293.541 94.9121 293.941 93.1934 293.941C90.3027 293.941 87.832 292.916 85.7812 290.865C83.7305 288.814 82.7051 286.344 82.7051 283.453C82.7051 280.562 83.7305 278.097 85.7812 276.056C87.832 274.005 90.3027 272.979 93.1934 272.979C95.5664 272.979 97.6904 273.702 99.5654 275.147C99.9463 275.44 100.171 275.826 100.239 276.305C100.298 276.773 100.181 277.198 99.8877 277.579C99.5947 277.96 99.2139 278.18 98.7451 278.238C98.2666 278.307 97.8369 278.194 97.4561 277.901C96.1963 276.935 94.7754 276.451 93.1934 276.451C91.2598 276.451 89.6045 277.135 88.2275 278.502C86.8604 279.879 86.1768 281.529 86.1768 283.453C86.1768 285.387 86.8604 287.042 88.2275 288.419C89.6045 289.786 91.2598 290.47 93.1934 290.47C95 290.47 96.5723 289.859 97.9102 288.639C97.9297 288.619 97.9639 288.59 98.0127 288.551L98.0273 284.713H92.2998C91.8115 284.713 91.4014 284.547 91.0693 284.215C90.7275 283.873 90.5566 283.463 90.5566 282.984C90.5566 282.506 90.7275 282.096 91.0693 281.754C91.4014 281.412 91.8115 281.241 92.2998 281.241H99.7705C100.249 281.241 100.659 281.412 101.001 281.754C101.343 282.096 101.514 282.506 101.514 282.984L101.47 292.271C101.47 292.75 101.299 293.155 100.957 293.487C100.625 293.829 100.22 294 99.7412 294H99.7266C99.3359 294 98.9844 293.878 98.6719 293.634C98.3691 293.399 98.1689 293.102 98.0713 292.74ZM109.146 281.725H113.599C114.419 281.695 115.122 281.427 115.708 280.919C116.284 280.401 116.572 279.786 116.572 279.073C116.572 278.331 116.27 277.701 115.664 277.184C115.059 276.666 114.331 276.407 113.481 276.407H109.146V281.725ZM118.096 274.752C119.375 275.943 120.015 277.384 120.015 279.073C120.015 280.362 119.614 281.529 118.813 282.574C118.042 283.609 117.026 284.347 115.767 284.786L119.092 291.524C119.297 291.944 119.321 292.379 119.165 292.828C119.019 293.277 118.73 293.609 118.301 293.824C118.057 293.941 117.803 294 117.539 294C116.826 294 116.313 293.678 116.001 293.033L112.119 285.167H109.146V292.154C109.146 292.623 108.975 293.028 108.633 293.37C108.301 293.702 107.896 293.868 107.417 293.868C106.948 293.868 106.543 293.702 106.201 293.37C105.869 293.028 105.703 292.623 105.703 292.154V274.693C105.703 274.215 105.869 273.81 106.201 273.478C106.543 273.136 106.948 272.965 107.417 272.965H113.481C115.288 272.965 116.826 273.561 118.096 274.752ZM128.584 286.09H134.224L131.396 279.293L128.584 286.09ZM124.16 294C123.936 294 123.716 293.956 123.501 293.868C123.062 293.683 122.749 293.37 122.563 292.931C122.388 292.491 122.388 292.052 122.563 291.612L124.424 287.145C124.424 287.145 124.424 287.14 124.424 287.13L129.814 274.122C129.834 274.073 129.858 274.024 129.888 273.976C129.888 273.976 129.897 273.951 129.917 273.902C129.946 273.863 129.966 273.839 129.976 273.829C129.976 273.819 129.99 273.795 130.02 273.756C130.049 273.727 130.068 273.707 130.078 273.697C130.078 273.688 130.093 273.668 130.122 273.639C130.161 273.6 130.181 273.575 130.181 273.565C130.19 273.556 130.21 273.541 130.239 273.521C130.278 273.482 130.303 273.463 130.312 273.463C130.303 273.463 130.322 273.448 130.371 273.419C130.41 273.39 130.435 273.37 130.444 273.36C130.444 273.36 130.464 273.346 130.503 273.316C130.552 273.287 130.581 273.272 130.591 273.272C130.61 273.263 130.645 273.248 130.693 273.229C130.742 273.199 130.757 273.189 130.737 273.199C130.718 273.209 130.737 273.199 130.796 273.17C130.845 273.16 130.879 273.15 130.898 273.141C130.908 273.141 130.942 273.131 131.001 273.111L131.06 273.097C131.079 273.097 131.113 273.092 131.162 273.082C131.211 273.072 131.235 273.067 131.235 273.067C131.245 273.067 131.274 273.067 131.323 273.067C131.362 273.067 131.387 273.067 131.396 273.067C131.416 273.067 131.445 273.067 131.484 273.067C131.543 273.067 131.572 273.067 131.572 273.067C131.572 273.067 131.602 273.072 131.66 273.082C131.709 273.092 131.733 273.097 131.733 273.097C131.753 273.097 131.787 273.106 131.836 273.126C131.895 273.136 131.914 273.141 131.895 273.141C132.012 273.17 132.119 273.214 132.217 273.272C132.207 273.263 132.227 273.272 132.275 273.302C132.324 273.331 132.354 273.351 132.363 273.36C132.363 273.36 132.383 273.375 132.422 273.404C132.461 273.434 132.485 273.453 132.495 273.463C132.505 273.463 132.524 273.478 132.554 273.507C132.583 273.536 132.607 273.556 132.627 273.565C132.627 273.575 132.642 273.595 132.671 273.624C132.71 273.663 132.729 273.688 132.729 273.697L132.773 273.756C132.812 273.795 132.832 273.819 132.832 273.829C132.832 273.839 132.847 273.863 132.876 273.902C132.905 273.941 132.92 273.966 132.92 273.976C132.949 274.024 132.974 274.073 132.993 274.122L138.384 287.13C138.384 287.14 138.384 287.145 138.384 287.145L140.244 291.612C140.42 292.052 140.42 292.491 140.244 292.931C140.059 293.37 139.746 293.683 139.307 293.868C139.092 293.956 138.872 294 138.647 294C137.876 294 137.344 293.644 137.051 292.931L135.645 289.532H127.163L125.757 292.931C125.464 293.644 124.932 294 124.16 294ZM146.968 276.466V290.514L149.648 290.47C151.592 290.47 153.247 289.786 154.614 288.419C155.981 287.052 156.665 285.401 156.665 283.468C156.665 281.544 155.981 279.898 154.614 278.531C153.247 277.154 151.597 276.466 149.663 276.466H146.968ZM145.254 294H145.225C144.756 294 144.351 293.834 144.009 293.502C143.667 293.16 143.496 292.75 143.496 292.271V274.737C143.496 274.259 143.667 273.849 144.009 273.507C144.341 273.175 144.746 273.009 145.225 273.009H149.663C152.554 273.009 155.024 274.029 157.075 276.07C159.116 278.121 160.137 280.587 160.137 283.468C160.137 286.358 159.116 288.824 157.075 290.865C155.024 292.916 152.554 293.941 149.663 293.941L145.254 294ZM167.915 290.528H176.777C177.256 290.528 177.661 290.699 177.993 291.041C178.335 291.383 178.506 291.793 178.506 292.271C178.506 292.75 178.335 293.155 177.993 293.487C177.661 293.829 177.256 294 176.777 294H166.172C165.693 294 165.288 293.829 164.956 293.487C164.614 293.155 164.443 292.75 164.443 292.271V274.708C164.443 274.22 164.614 273.81 164.956 273.478C165.288 273.136 165.693 272.965 166.172 272.965H166.187L176.777 272.994C177.256 272.994 177.666 273.165 178.008 273.507C178.34 273.849 178.506 274.259 178.506 274.737C178.506 275.216 178.335 275.621 177.993 275.953C177.661 276.295 177.256 276.466 176.777 276.466H176.763L167.915 276.437V281.754H174.302C174.78 281.754 175.19 281.92 175.532 282.252C175.874 282.594 176.045 283.004 176.045 283.482C176.045 283.961 175.874 284.371 175.532 284.713C175.19 285.045 174.78 285.211 174.302 285.211H167.915V290.528Z" fill="white"/>
</g>
<defs>
<clipPath id="clip0_224_230">
<rect width="225" height="375" rx="6" fill="white"/>
</clipPath>
<clipPath id="clip1_224_230">
<rect x="15" y="15" width="195" height="345" rx="3" fill="white"/>
</clipPath>
</defs>
</svg>
